<svg width="360" height="519" viewBox="0 0 360 519" fill="none" xmlns="http://www.w3.org/2000/svg">
<rect x="134" width="89" height="91" rx="10" fill="#FF2861"/>
<rect x="137" y="3" width="83" height="75" rx="10" fill="#F7B7C8"/>
<mask id="path-3-inside-1_1718_3181" fill="white">
<rect x="271" y="107" width="89" height="91" rx="10"/>
</mask>
<rect x="271" y="107" width="89" height="91" rx="10" fill="#FEE800" stroke="#FEE800" stroke-width="32" mask="url(#path-3-inside-1_1718_3181)"/>
<rect x="274" y="110" width="83" height="75" rx="10" fill="#D5CD79"/>
<rect x="134" y="214" width="89" height="91" rx="10" fill="#009039"/>
<rect x="137" y="217" width="83" height="75" rx="10" fill="#A7EFC4"/>
<rect y="321" width="89" height="91" rx="10" fill="#85F6B8"/>
<rect x="3" y="324" width="83" height="75" rx="10" fill="white"/>
<path d="M54.75 354.938H52.875V351.188C52.875 346.013 48.675 341.812 43.5 341.812C38.325 341.812 34.125 346.013 34.125 351.188V354.938H32.25C30.1875 354.938 28.5 356.625 28.5 358.688V377.438C28.5 379.5 30.1875 381.188 32.25 381.188H54.75C56.8125 381.188 58.5 379.5 58.5 377.438V358.688C58.5 356.625 56.8125 354.938 54.75 354.938ZM43.5 371.812C41.4375 371.812 39.75 370.125 39.75 368.062C39.75 366 41.4375 364.312 43.5 364.312C45.5625 364.312 47.25 366 47.25 368.062C47.25 370.125 45.5625 371.812 43.5 371.812ZM49.3125 354.938H37.6875V351.188C37.6875 347.981 40.2937 345.375 43.5 345.375C46.7063 345.375 49.3125 347.981 49.3125 351.188V354.938Z" fill="#85F6B8"/>
<path d="M346.75 120.021H346.042V118.604C346.042 116.649 344.455 115.062 342.5 115.062C340.545 115.062 338.958 116.649 338.958 118.604V120.021H338.25C337.471 120.021 336.833 120.658 336.833 121.437V128.521C336.833 129.3 337.471 129.937 338.25 129.937H346.75C347.529 129.937 348.167 129.3 348.167 128.521V121.437C348.167 120.658 347.529 120.021 346.75 120.021ZM342.5 126.396C341.721 126.396 341.083 125.758 341.083 124.979C341.083 124.2 341.721 123.562 342.5 123.562C343.279 123.562 343.917 124.2 343.917 124.979C343.917 125.758 343.279 126.396 342.5 126.396ZM344.696 120.021H340.304V118.604C340.304 117.393 341.289 116.408 342.5 116.408C343.711 116.408 344.696 117.393 344.696 118.604V120.021Z" fill="#FEE800"/>
<path d="M211.75 226.021H211.042V224.604C211.042 222.649 209.455 221.062 207.5 221.062C205.545 221.062 203.958 222.649 203.958 224.604V226.021H203.25C202.471 226.021 201.833 226.658 201.833 227.437V234.521C201.833 235.3 202.471 235.937 203.25 235.937H211.75C212.529 235.937 213.167 235.3 213.167 234.521V227.437C213.167 226.658 212.529 226.021 211.75 226.021ZM207.5 232.396C206.721 232.396 206.083 231.758 206.083 230.979C206.083 230.2 206.721 229.562 207.5 229.562C208.279 229.562 208.917 230.2 208.917 230.979C208.917 231.758 208.279 232.396 207.5 232.396ZM209.696 226.021H205.304V224.604C205.304 223.393 206.289 222.408 207.5 222.408C208.711 222.408 209.696 223.393 209.696 224.604V226.021Z" fill="#009039"/>
<rect x="142" y="428" width="89" height="91" rx="10" fill="#85F6B8"/>
<rect x="145" y="431" width="83" height="75" rx="10" fill="white"/>
<path d="M185.5 479.319L197.088 486.312L194.013 473.131L204.25 464.262L190.769 463.119L185.5 450.688L180.231 463.119L166.75 464.262L176.988 473.131L173.913 486.312L185.5 479.319Z" fill="#85F6B8"/>
<path d="M223 45.5H295.5C306.546 45.5 315.5 54.4543 315.5 65.5V107" stroke="#00D05E" stroke-width="6"/>
<path d="M315.5 198V239.5C315.5 250.546 306.546 259.5 295.5 259.5H223" stroke="#00D05E" stroke-width="6"/>
<path d="M134 259.5H64.5C53.4543 259.5 44.5 268.454 44.5 279.5V321" stroke="#00D05E" stroke-width="6"/>
<path d="M142 473.5H64.5C53.4543 473.5 44.5 464.546 44.5 453.5V412" stroke="#00D05E" stroke-width="6"/>
<path d="M181.335 44.5575L197.653 51.067C198.21 51.3011 199.191 50.2868 199.882 48.8378C200.574 47.3887 200.64 45.9285 200.094 45.6833L184.3 37.8808L181.335 44.5575Z" fill="#E8F4FA"/>
<path d="M200.005 48.3919C200.529 47.0432 200.563 45.8394 200.005 45.6164L184.3 37.8808L183.185 40.4445L200.005 48.3919Z" fill="white"/>
<path d="M181.335 44.5575L197.653 51.067C198.21 51.3011 199.191 50.2868 199.882 48.8378C200.574 47.3887 200.64 45.9285 200.094 45.6833L184.3 37.8808L181.335 44.5575Z" stroke="#45413C" stroke-width="1.11465" stroke-linecap="round" stroke-linejoin="round"/>
<path d="M152.89 34.1132L180.956 45.4269C181.804 45.7947 183.331 44.223 184.356 41.9046C185.382 39.5861 185.526 37.446 184.679 37.0224L157.449 23.825L152.89 34.1132Z" fill="#E8F4FA"/>
<path d="M184.635 41.2135C185.404 39.1625 185.449 37.3568 184.635 37.0224L157.449 23.825L155.799 27.5591L184.635 41.2135Z" fill="white"/>
<path d="M152.89 34.1132L180.956 45.4269C181.804 45.7947 183.331 44.223 184.356 41.9046C185.382 39.5861 185.526 37.446 184.679 37.0224L157.449 23.825L152.89 34.1132Z" stroke="#45413C" stroke-width="1.11465" stroke-linecap="round" stroke-linejoin="round"/>
<path opacity="0.15" d="M158.763 62.9379C158.763 63.4848 160.791 64.0093 164.401 64.396C168.011 64.7828 172.907 65 178.013 65C183.118 65 188.015 64.7828 191.625 64.396C195.235 64.0093 197.263 63.4848 197.263 62.9379C197.263 62.391 195.235 61.8665 191.625 61.4798C188.015 61.0931 183.118 60.8758 178.013 60.8758C172.907 60.8758 168.011 61.0931 164.401 61.4798C160.791 61.8665 158.763 62.391 158.763 62.9379V62.9379Z" fill="#45413C"/>
<path d="M164.593 27.2916L157.449 23.825L152.89 34.1132L160.257 37.0782C161.249 37.524 163.022 35.6848 164.214 32.9763C165.407 30.2677 165.585 27.7263 164.593 27.2916Z" fill="#656769"/>
<path d="M164.894 31.0703C165.429 29.1308 165.351 27.5591 164.593 27.2248L157.448 23.7582L156.033 26.9572L164.894 31.0703Z" fill="#87898C"/>
<path d="M164.593 27.2916L157.449 23.825L152.89 34.1132L160.257 37.0782C161.249 37.524 163.022 35.6848 164.214 32.9763C165.407 30.2677 165.585 27.7263 164.593 27.2916Z" stroke="#45413C" stroke-width="1.11465" stroke-linecap="round" stroke-linejoin="round"/>
<path d="M152.885 34.128C153.385 34.3496 154.105 34.0199 154.886 33.2115C155.668 32.403 156.446 31.1821 157.051 29.8172C157.656 28.4523 158.037 27.0553 158.111 25.9335C158.186 24.8117 157.946 24.057 157.446 23.8354C156.946 23.6139 156.227 23.9436 155.445 24.752C154.664 25.5605 153.885 26.7814 153.281 28.1463C152.676 29.5112 152.294 30.9082 152.22 32.03C152.146 33.1518 152.385 33.9065 152.885 34.128V34.128Z" fill="#00B8F0"/>
<path d="M153.279 31.3378C154.539 28.5066 156.4 26.5448 157.448 27.0353C157.63 27.1234 157.778 27.2681 157.871 27.4477C158.34 25.6085 158.184 24.1595 157.448 23.8251C156.4 23.3681 154.539 25.2964 153.279 28.1388C152.231 30.5018 151.93 32.7534 152.465 33.712C152.669 32.8992 152.942 32.105 153.279 31.3378V31.3378Z" fill="#4ACFFF"/>
<path d="M152.885 34.128C153.385 34.3496 154.105 34.0199 154.886 33.2115C155.668 32.403 156.446 31.1821 157.051 29.8172C157.656 28.4523 158.037 27.0553 158.111 25.9335C158.186 24.8117 157.946 24.057 157.446 23.8354C156.946 23.6139 156.227 23.9436 155.445 24.752C154.664 25.5605 153.885 26.7814 153.281 28.1463C152.676 29.5112 152.294 30.9082 152.22 32.03C152.146 33.1518 152.385 33.9065 152.885 34.128V34.128Z" stroke="#45413C" stroke-width="1.11465" stroke-linecap="round" stroke-linejoin="round"/>
<path d="M184.679 37.0225L181.681 35.5734C182.55 35.9524 182.406 38.1929 181.358 40.5782C180.31 42.9635 178.738 44.5686 177.869 44.1785L180.956 45.4269C181.804 45.7947 183.331 44.2231 184.356 41.9046C185.382 39.5862 185.527 37.4015 184.679 37.0225Z" fill="#656769"/>
<path d="M181.993 38.8059L184.991 40.1546C185.393 38.583 185.304 37.3346 184.679 37.0559L181.681 35.6069C182.327 35.8521 182.417 37.1562 181.993 38.8059Z" fill="#87898C"/>
<path d="M184.679 37.0225L181.681 35.5734C182.55 35.9524 182.406 38.1929 181.358 40.5782C180.31 42.9635 178.738 44.5686 177.869 44.1785L180.956 45.4269C181.804 45.7947 183.331 44.2231 184.356 41.9046C185.382 39.5862 185.527 37.4015 184.679 37.0225Z" stroke="#45413C" stroke-width="1.11465" stroke-linecap="round" stroke-linejoin="round"/>
<path d="M200.062 45.6164L197.532 44.3791C198.101 44.6355 198 46.0957 197.32 47.645C196.64 49.1944 195.615 50.2533 195.091 49.9969C195.091 49.9969 197.71 51.0335 197.71 51.0447C198.268 51.2788 199.249 50.2644 199.94 48.8154C200.631 47.3664 200.609 45.8616 200.062 45.6164Z" fill="#656769"/>
<path d="M197.72 46.5304L200.24 47.645C200.518 46.6084 200.474 45.7724 200.061 45.5829L197.531 44.3791C197.955 44.5686 198.01 45.4937 197.72 46.5304Z" fill="#87898C"/>
<path d="M200.062 45.6164L197.532 44.3791C198.101 44.6355 198 46.0957 197.32 47.645C196.64 49.1944 195.615 50.2533 195.091 49.9969C195.091 49.9969 197.71 51.0335 197.71 51.0447C198.268 51.2788 199.249 50.2644 199.94 48.8154C200.631 47.3664 200.609 45.8616 200.062 45.6164Z" stroke="#45413C" stroke-width="1.11465" stroke-linecap="round" stroke-linejoin="round"/>
<path d="M173.399 44.7357H176.32V49.3169H173.399V44.7357Z" fill="#E8F4FA"/>
<path d="M173.399 44.7357H176.32V46.7755H173.399V44.7357Z" fill="#C0DCEB"/>
<path d="M173.399 44.7357H176.32V49.3169H173.399V44.7357Z" stroke="#45413C" stroke-width="1.11465" stroke-linecap="round" stroke-linejoin="round"/>
<path d="M169.341 63.1052C169.641 63.1033 169.933 63.0031 170.17 62.8199C170.408 62.6366 170.579 62.3805 170.657 62.0909L174.001 49.317H172.15C171.844 49.3152 171.545 49.4164 171.303 49.6043C171.06 49.7923 170.888 50.0561 170.813 50.3536L168.015 61.4109C167.966 61.6121 167.964 61.8218 168.007 62.0241C168.051 62.2265 168.14 62.4163 168.268 62.5793C168.395 62.7424 168.558 62.8744 168.744 62.9654C168.93 63.0565 169.134 63.1043 169.341 63.1052V63.1052Z" fill="#E8F4FA"/>
<path d="M170.813 50.3537L169.799 54.411H172.686L174.012 49.3617H172.15C171.85 49.3573 171.556 49.4521 171.314 49.6313C171.072 49.8106 170.896 50.0645 170.813 50.3537Z" fill="#C0DCEB"/>
<path d="M169.341 63.1052C169.641 63.1033 169.933 63.0031 170.17 62.8199C170.408 62.6366 170.579 62.3805 170.657 62.0909L174.001 49.317H172.15C171.844 49.3152 171.545 49.4164 171.303 49.6043C171.06 49.7923 170.888 50.0561 170.813 50.3536L168.015 61.4109C167.966 61.6121 167.964 61.8218 168.007 62.0241C168.051 62.2265 168.14 62.4163 168.268 62.5793C168.395 62.7424 168.558 62.8744 168.744 62.9654C168.93 63.0565 169.134 63.1043 169.341 63.1052V63.1052Z" stroke="#45413C" stroke-width="1.11465" stroke-linecap="round" stroke-linejoin="round"/>
<path d="M180.377 63.1052C180.076 63.1052 179.784 63.0057 179.546 62.8222C179.308 62.6386 179.138 62.3815 179.061 62.0908L175.717 49.317H177.579C177.884 49.3158 178.181 49.4173 178.422 49.6054C178.662 49.7934 178.833 50.057 178.905 50.3536L181.748 61.4109C181.8 61.616 181.803 61.8305 181.758 62.0372C181.713 62.2439 181.62 62.4372 181.487 62.6018C181.354 62.7663 181.184 62.8975 180.991 62.9849C180.798 63.0722 180.588 63.1134 180.377 63.1052V63.1052Z" fill="#E8F4FA"/>
<path d="M178.894 50.3536L179.908 54.3663H177.032L175.706 49.317H177.568C177.873 49.3158 178.17 49.4173 178.41 49.6054C178.651 49.7934 178.821 50.057 178.894 50.3536V50.3536Z" fill="#C0DCEB"/>
<path d="M180.377 63.1052C180.076 63.1052 179.784 63.0057 179.546 62.8222C179.308 62.6386 179.138 62.3815 179.061 62.0908L175.717 49.317H177.579C177.884 49.3158 178.181 49.4173 178.422 49.6054C178.662 49.7934 178.833 50.057 178.905 50.3536L181.748 61.4109C181.8 61.616 181.803 61.8305 181.758 62.0372C181.713 62.2439 181.62 62.4372 181.487 62.6018C181.354 62.7663 181.184 62.8975 180.991 62.9849C180.798 63.0722 180.588 63.1134 180.377 63.1052V63.1052Z" stroke="#45413C" stroke-width="1.11465" stroke-linecap="round" stroke-linejoin="round"/>
<path d="M179.351 52.1816H170.356L170.813 50.3871C170.888 50.0895 171.06 49.8257 171.303 49.6378C171.545 49.4498 171.844 49.3487 172.151 49.3504H177.568C177.873 49.3511 178.169 49.4535 178.409 49.6412C178.649 49.8289 178.82 50.0914 178.894 50.3871L179.351 52.1816Z" fill="#656769" stroke="#45413C" stroke-width="1.11465" stroke-linecap="round" stroke-linejoin="round"/>
<path d="M181.458 38.9731C181.313 38.8341 181.142 38.7254 180.955 38.6534C180.768 38.5814 180.568 38.5475 180.368 38.5537C180.168 38.56 179.971 38.6062 179.788 38.6897C179.606 38.7732 179.442 38.8923 179.307 39.04C178.595 39.8082 177.733 40.4215 176.774 40.8415C175.815 41.2615 174.78 41.4792 173.733 41.481H170.122V42.9635C170.122 43.4336 170.309 43.8843 170.641 44.2167C170.973 44.5491 171.424 44.7358 171.894 44.7358H173.399C174.942 44.7335 176.467 44.4022 177.872 43.7641C179.277 43.126 180.53 42.1956 181.547 41.0352C181.798 40.7449 181.928 40.3697 181.912 39.9864C181.895 39.6031 181.733 39.2407 181.458 38.9731V38.9731Z" fill="#656769"/>
<path d="M181.458 38.9731C181.313 38.8341 181.143 38.7254 180.955 38.6534C180.768 38.5814 180.569 38.5475 180.368 38.5537C180.168 38.56 179.971 38.6062 179.788 38.6897C179.606 38.7732 179.442 38.8923 179.307 39.04C179.059 39.3058 178.795 39.5553 178.515 39.7868C178.649 39.8553 178.773 39.9416 178.883 40.0431C179.171 40.3126 179.342 40.6843 179.358 41.0782C179.375 41.4722 179.236 41.857 178.972 42.1498C178.198 43.0363 177.283 43.7894 176.264 44.3791C178.316 43.8104 180.155 42.6469 181.547 41.0352C181.798 40.7449 181.928 40.3697 181.912 39.9864C181.895 39.6031 181.733 39.2407 181.458 38.9731V38.9731Z" fill="#87898C"/>
<path d="M181.458 38.9731C181.313 38.8341 181.142 38.7254 180.955 38.6534C180.768 38.5814 180.568 38.5475 180.368 38.5537C180.168 38.56 179.971 38.6062 179.788 38.6897C179.606 38.7732 179.442 38.8923 179.307 39.04C178.595 39.8082 177.733 40.4215 176.774 40.8415C175.815 41.2615 174.78 41.4792 173.733 41.481H170.122V42.9635C170.122 43.4336 170.309 43.8843 170.641 44.2167C170.973 44.5491 171.424 44.7358 171.894 44.7358H173.399C174.942 44.7335 176.467 44.4022 177.872 43.7641C179.277 43.126 180.53 42.1956 181.547 41.0352C181.798 40.7449 181.928 40.3697 181.912 39.9864C181.895 39.6031 181.733 39.2407 181.458 38.9731V38.9731Z" stroke="#45413C" stroke-width="1.11465" stroke-linecap="round" stroke-linejoin="round"/>
<path d="M306.466 150.875L311.845 144.235C309.207 143.568 306.454 143.491 303.782 144.007C300.822 144.738 300.357 150.325 300.31 152.972C300.306 153.119 300.342 153.264 300.414 153.392C300.486 153.521 300.59 153.627 300.717 153.702C300.843 153.776 300.988 153.816 301.135 153.816C301.281 153.816 301.426 153.777 301.553 153.702L306.466 150.875Z" fill="#FF6242"/>
<path d="M303.802 146.53C305.87 146.105 307.999 146.063 310.082 146.407L311.847 144.244C309.208 143.578 306.455 143.5 303.783 144.017C300.823 144.738 300.359 150.325 300.311 152.972C300.309 153.133 300.355 153.292 300.444 153.427C300.729 150.638 301.478 147.109 303.802 146.53Z" fill="#FF866E"/>
<path d="M306.466 150.875L311.845 144.235C309.207 143.568 306.454 143.491 303.782 144.007C300.822 144.738 300.357 150.325 300.31 152.972C300.306 153.119 300.342 153.264 300.414 153.392C300.486 153.521 300.59 153.627 300.717 153.702C300.843 153.776 300.988 153.816 301.135 153.816C301.281 153.816 301.426 153.777 301.553 153.702L306.466 150.875Z" stroke="#45413C" stroke-width="0.948642" stroke-linecap="round" stroke-linejoin="round"/>
<path d="M312.928 157.345L319.569 151.966C320.235 154.602 320.312 157.351 319.796 160.02C319.104 162.98 313.554 163.445 310.87 163.492C310.723 163.496 310.578 163.46 310.449 163.388C310.321 163.316 310.214 163.212 310.139 163.085C310.065 162.959 310.026 162.814 310.026 162.667C310.026 162.521 310.065 162.376 310.139 162.249L312.928 157.345Z" fill="#FF6242"/>
<path d="M317.244 160.011C317.674 157.94 317.716 155.807 317.367 153.721L319.53 151.966C320.196 154.602 320.274 157.351 319.758 160.02C319.065 162.98 313.515 163.445 310.831 163.492C310.669 163.493 310.511 163.447 310.375 163.359C313.165 163.113 316.693 162.325 317.244 160.011Z" fill="#FF866E"/>
<path d="M312.928 157.345L319.569 151.966C320.235 154.602 320.312 157.351 319.796 160.02C319.104 162.98 313.554 163.445 310.87 163.492C310.723 163.496 310.578 163.46 310.449 163.388C310.321 163.316 310.214 163.212 310.139 163.085C310.065 162.959 310.026 162.814 310.026 162.667C310.026 162.521 310.065 162.376 310.139 162.249L312.928 157.345Z" stroke="#45413C" stroke-width="0.948642" stroke-linecap="round" stroke-linejoin="round"/>
<path d="M330.591 146.113C335.732 140.706 334.11 134.037 333.304 131.694C333.211 131.415 333.055 131.162 332.848 130.954C332.64 130.751 332.391 130.596 332.118 130.498C329.775 129.692 323.096 128.07 317.689 133.25C311.011 139.567 306.419 150.799 306.419 150.799L313.06 157.44C313.06 157.44 324.235 152.792 330.591 146.113Z" fill="#E8F4FA"/>
<path d="M319.748 136.921C324.994 131.921 331.425 133.316 333.977 134.132C333.831 133.304 333.622 132.489 333.351 131.694C333.254 131.412 333.092 131.156 332.878 130.949C332.663 130.741 332.403 130.587 332.118 130.498C329.775 129.692 323.096 128.07 317.689 133.25C311.011 139.567 306.419 150.799 306.419 150.799L308.971 153.351C310.328 150.325 314.359 142.043 319.748 136.921Z" fill="white"/>
<path d="M330.591 146.113C335.732 140.706 334.11 134.037 333.304 131.694C333.211 131.415 333.055 131.162 332.848 130.954C332.64 130.751 332.391 130.596 332.118 130.498C329.775 129.692 323.096 128.07 317.689 133.25C311.011 139.567 306.419 150.799 306.419 150.799L313.06 157.44C313.06 157.44 324.235 152.792 330.591 146.113Z" stroke="#45413C" stroke-width="0.948642" stroke-linecap="round" stroke-linejoin="round"/>
<path opacity="0.15" d="M310.424 167.6C310.424 167.977 311.423 168.339 313.202 168.606C314.981 168.873 317.394 169.023 319.91 169.023C322.426 169.023 324.839 168.873 326.618 168.606C328.397 168.339 329.397 167.977 329.397 167.6C329.397 167.222 328.397 166.86 326.618 166.594C324.839 166.327 322.426 166.177 319.91 166.177C317.394 166.177 314.981 166.327 313.202 166.594C311.423 166.86 310.424 167.222 310.424 167.6V167.6Z" fill="#45413C"/>
<path d="M314.673 149.993C314.741 149.871 314.769 149.729 314.75 149.59C314.731 149.451 314.668 149.322 314.569 149.222C314.471 149.123 314.342 149.058 314.203 149.038C314.064 149.017 313.923 149.043 313.8 149.111C311.952 150.057 310.254 151.272 308.762 152.716C307.182 154.307 305.935 156.197 305.091 158.275C305.066 158.333 305.058 158.398 305.07 158.461C305.082 158.524 305.112 158.582 305.157 158.628C305.201 158.674 305.259 158.705 305.321 158.719C305.384 158.732 305.449 158.726 305.509 158.702C307.583 157.87 309.473 156.635 311.068 155.068C312.517 153.567 313.732 151.856 314.673 149.993V149.993Z" fill="#FF6242" stroke="#45413C" stroke-width="0.948642" stroke-linecap="round" stroke-linejoin="round"/>
<path d="M319.929 138.676C319.929 140.057 320.478 141.382 321.454 142.358C322.431 143.335 323.756 143.884 325.137 143.884C326.518 143.884 327.843 143.335 328.82 142.358C329.796 141.382 330.345 140.057 330.345 138.676C330.345 137.295 329.796 135.97 328.82 134.993C327.843 134.016 326.518 133.468 325.137 133.468C323.756 133.468 322.431 134.016 321.454 134.993C320.478 135.97 319.929 137.295 319.929 138.676V138.676Z" fill="#C0DCEB" stroke="#45413C" stroke-width="0.948642" stroke-linecap="round" stroke-linejoin="round"/>
<path d="M321.56 138.647C321.56 139.121 321.653 139.59 321.834 140.027C322.015 140.464 322.281 140.862 322.616 141.196C322.95 141.531 323.348 141.797 323.785 141.978C324.223 142.159 324.691 142.252 325.165 142.252C325.638 142.252 326.107 142.159 326.544 141.978C326.982 141.797 327.379 141.531 327.714 141.196C328.048 140.862 328.314 140.464 328.495 140.027C328.676 139.59 328.77 139.121 328.77 138.647C328.77 138.174 328.676 137.705 328.495 137.268C328.314 136.83 328.048 136.433 327.714 136.098C327.379 135.764 326.982 135.498 326.544 135.317C326.107 135.136 325.638 135.043 325.165 135.043C324.691 135.043 324.223 135.136 323.785 135.317C323.348 135.498 322.95 135.764 322.616 136.098C322.281 136.433 322.015 136.83 321.834 137.268C321.653 137.705 321.56 138.174 321.56 138.647Z" fill="#00B8F0"/>
<path d="M322.613 136.095C322.278 136.43 322.011 136.828 321.83 137.266C321.648 137.704 321.554 138.173 321.554 138.647C321.554 139.121 321.648 139.591 321.83 140.029C322.011 140.467 322.278 140.864 322.613 141.199C322.854 141.43 323.126 141.628 323.419 141.787L326.787 135.441C326.112 135.093 325.344 134.968 324.593 135.086C323.843 135.204 323.149 135.557 322.613 136.095V136.095Z" fill="#4ACFFF"/>
<path d="M321.56 138.647C321.56 139.121 321.653 139.59 321.834 140.027C322.015 140.464 322.281 140.862 322.616 141.196C322.95 141.531 323.348 141.797 323.785 141.978C324.223 142.159 324.691 142.252 325.165 142.252C325.638 142.252 326.107 142.159 326.544 141.978C326.982 141.797 327.379 141.531 327.714 141.196C328.048 140.862 328.314 140.464 328.495 140.027C328.676 139.59 328.77 139.121 328.77 138.647C328.77 138.174 328.676 137.705 328.495 137.268C328.314 136.83 328.048 136.433 327.714 136.098C327.379 135.764 326.982 135.498 326.544 135.317C326.107 135.136 325.638 135.043 325.165 135.043C324.691 135.043 324.223 135.136 323.785 135.317C323.348 135.498 322.95 135.764 322.616 136.098C322.281 136.433 322.015 136.83 321.834 137.268C321.653 137.705 321.56 138.174 321.56 138.647Z" stroke="#45413C" stroke-width="0.948642" stroke-linecap="round" stroke-linejoin="round"/>
<path d="M303.896 165C303.232 165.664 299.001 167.097 296.857 167.789C296.459 167.922 295.909 167.344 296.013 166.945C296.705 164.811 298.138 160.58 298.859 159.906C299.76 158.958 302.113 158.958 303.517 160.343C304.921 161.728 304.797 164.099 303.896 165Z" fill="#FF8A14" stroke="#45413C" stroke-width="0.948642" stroke-linecap="round" stroke-linejoin="round"/>
<path d="M302.749 163.407C302.274 163.872 300.311 164.355 299.903 163.938C299.495 163.521 299.969 161.529 300.443 161.092C300.758 160.878 301.142 160.792 301.518 160.851C301.894 160.911 302.232 161.113 302.464 161.415C302.754 161.65 302.944 161.986 302.997 162.355C303.05 162.724 302.961 163.1 302.749 163.407V163.407Z" fill="#FFE500" stroke="#45413C" stroke-width="0.948642" stroke-linecap="round" stroke-linejoin="round"/>
<path d="M334.234 148.134L334.993 149.566C335.023 149.623 335.066 149.671 335.119 149.708C335.172 149.744 335.233 149.767 335.296 149.775L336.9 149.965C336.973 149.974 337.043 150.003 337.101 150.05C337.159 150.096 337.202 150.158 337.227 150.228C337.252 150.298 337.256 150.373 337.24 150.446C337.224 150.518 337.189 150.585 337.137 150.638L336.008 151.796C335.961 151.84 335.927 151.896 335.909 151.957C335.891 152.019 335.889 152.084 335.903 152.147L336.217 153.731C336.23 153.803 336.224 153.877 336.198 153.946C336.172 154.015 336.128 154.075 336.07 154.12C336.012 154.165 335.943 154.194 335.87 154.202C335.797 154.21 335.723 154.198 335.657 154.167L334.205 153.446C334.148 153.418 334.085 153.403 334.02 153.403C333.956 153.403 333.893 153.418 333.835 153.446L332.422 154.243C332.356 154.276 332.283 154.29 332.21 154.285C332.137 154.28 332.067 154.255 332.007 154.213C331.947 154.172 331.899 154.115 331.869 154.048C331.838 153.981 331.826 153.908 331.834 153.835L332.033 152.222C332.042 152.16 332.035 152.096 332.014 152.036C331.992 151.977 331.956 151.923 331.91 151.881L330.762 150.799C330.708 150.749 330.669 150.685 330.649 150.614C330.63 150.543 330.631 150.467 330.651 150.397C330.672 150.326 330.712 150.262 330.766 150.213C330.821 150.163 330.889 150.13 330.961 150.116L332.555 149.841C332.618 149.832 332.678 149.807 332.729 149.769C332.78 149.731 332.822 149.681 332.849 149.623L333.532 148.153C333.562 148.086 333.61 148.028 333.671 147.987C333.732 147.946 333.803 147.924 333.877 147.922C333.95 147.92 334.023 147.939 334.086 147.976C334.149 148.014 334.2 148.068 334.234 148.134V148.134Z" fill="#FFE500"/>
<path d="M331.587 151.568L332.593 151.388C332.656 151.379 332.716 151.354 332.768 151.316C332.819 151.278 332.86 151.228 332.887 151.169L333.57 149.699C333.603 149.633 333.654 149.578 333.717 149.539C333.779 149.5 333.852 149.48 333.926 149.48C333.999 149.48 334.072 149.5 334.134 149.539C334.197 149.578 334.248 149.633 334.281 149.699L335.031 151.131C335.061 151.188 335.104 151.237 335.157 151.273C335.21 151.309 335.271 151.332 335.334 151.34L336.349 151.463L337.137 150.657C337.189 150.604 337.224 150.537 337.24 150.465C337.256 150.392 337.252 150.317 337.227 150.247C337.202 150.177 337.159 150.115 337.101 150.068C337.043 150.022 336.973 149.993 336.9 149.984L335.296 149.794C335.233 149.786 335.172 149.763 335.119 149.727C335.066 149.69 335.023 149.642 334.993 149.585L334.234 148.153C334.202 148.086 334.152 148.03 334.09 147.991C334.028 147.952 333.956 147.931 333.883 147.931C333.809 147.931 333.737 147.952 333.675 147.991C333.613 148.03 333.564 148.086 333.532 148.153L332.849 149.623C332.822 149.681 332.78 149.731 332.729 149.769C332.678 149.807 332.618 149.832 332.555 149.841L330.961 150.116C330.889 150.13 330.821 150.163 330.766 150.213C330.712 150.262 330.672 150.326 330.651 150.397C330.631 150.467 330.63 150.542 330.649 150.614C330.669 150.685 330.708 150.749 330.762 150.799L331.587 151.568Z" fill="#FFF48C"/>
<path d="M334.234 148.134L334.993 149.566C335.023 149.623 335.066 149.671 335.119 149.708C335.172 149.744 335.233 149.767 335.296 149.775L336.9 149.965C336.973 149.974 337.043 150.003 337.101 150.05C337.159 150.096 337.202 150.158 337.227 150.228C337.252 150.298 337.256 150.373 337.24 150.446C337.224 150.518 337.189 150.585 337.137 150.638L336.008 151.796C335.961 151.84 335.927 151.896 335.909 151.957C335.891 152.019 335.889 152.084 335.903 152.147L336.217 153.731C336.23 153.803 336.224 153.877 336.198 153.946C336.172 154.015 336.128 154.075 336.07 154.12C336.012 154.165 335.943 154.194 335.87 154.202C335.797 154.21 335.723 154.198 335.657 154.167L334.205 153.446C334.148 153.418 334.085 153.403 334.02 153.403C333.956 153.403 333.893 153.418 333.835 153.446L332.422 154.243C332.356 154.276 332.283 154.29 332.21 154.285C332.137 154.28 332.067 154.255 332.007 154.213C331.947 154.172 331.899 154.115 331.869 154.048C331.838 153.981 331.826 153.908 331.834 153.835L332.033 152.222C332.042 152.16 332.035 152.096 332.014 152.036C331.992 151.977 331.956 151.923 331.91 151.881L330.762 150.799C330.708 150.749 330.669 150.685 330.649 150.614C330.63 150.543 330.631 150.467 330.651 150.397C330.672 150.326 330.712 150.262 330.766 150.213C330.821 150.163 330.889 150.13 330.961 150.116L332.555 149.841C332.618 149.832 332.678 149.807 332.729 149.769C332.78 149.731 332.822 149.681 332.849 149.623L333.532 148.153C333.562 148.086 333.61 148.028 333.671 147.987C333.732 147.946 333.803 147.924 333.877 147.922C333.95 147.92 334.023 147.939 334.086 147.976C334.149 148.014 334.2 148.068 334.234 148.134V148.134Z" stroke="#45413C" stroke-width="0.948642" stroke-linecap="round" stroke-linejoin="round"/>
<path d="M323.248 164.166L323.495 165.446C323.507 165.496 323.53 165.543 323.563 165.583C323.596 165.622 323.638 165.653 323.685 165.674L324.889 166.186C324.941 166.214 324.984 166.255 325.014 166.305C325.044 166.355 325.06 166.413 325.06 166.471C325.06 166.529 325.044 166.587 325.014 166.637C324.984 166.687 324.941 166.728 324.889 166.756L323.751 167.401C323.705 167.425 323.667 167.46 323.639 167.503C323.61 167.546 323.594 167.596 323.59 167.647L323.495 168.947C323.49 169.007 323.468 169.065 323.432 169.113C323.395 169.161 323.346 169.198 323.29 169.22C323.233 169.242 323.172 169.247 323.113 169.236C323.053 169.225 322.999 169.197 322.954 169.156L322.006 168.273C321.97 168.236 321.924 168.209 321.874 168.196C321.824 168.182 321.771 168.183 321.721 168.197L320.45 168.482C320.392 168.494 320.332 168.49 320.276 168.47C320.22 168.45 320.171 168.415 320.134 168.369C320.096 168.323 320.073 168.268 320.065 168.209C320.057 168.15 320.065 168.09 320.089 168.036L320.649 166.85C320.675 166.806 320.688 166.755 320.688 166.703C320.688 166.652 320.675 166.601 320.649 166.556L319.985 165.437C319.955 165.385 319.939 165.326 319.941 165.267C319.942 165.207 319.96 165.149 319.992 165.099C320.025 165.048 320.071 165.008 320.125 164.983C320.179 164.957 320.239 164.947 320.298 164.953L321.588 165.105C321.64 165.109 321.693 165.102 321.742 165.084C321.791 165.066 321.836 165.038 321.873 165.001L322.727 164.052C322.765 164.016 322.811 163.989 322.862 163.975C322.913 163.961 322.966 163.959 323.018 163.97C323.069 163.982 323.117 164.005 323.157 164.039C323.197 164.073 323.229 164.117 323.248 164.166V164.166Z" fill="#FFE500"/>
<path d="M320.421 166.215L321.237 166.31C321.29 166.316 321.343 166.31 321.392 166.292C321.442 166.274 321.486 166.244 321.522 166.205L322.376 165.257C322.415 165.211 322.466 165.178 322.523 165.159C322.58 165.141 322.641 165.14 322.699 165.154C322.758 165.169 322.811 165.2 322.852 165.243C322.894 165.286 322.923 165.34 322.935 165.399L323.191 166.68C323.199 166.73 323.22 166.777 323.251 166.817C323.283 166.857 323.324 166.888 323.372 166.907L324.131 167.23L324.927 166.784C324.979 166.756 325.022 166.715 325.052 166.665C325.082 166.615 325.098 166.558 325.098 166.499C325.098 166.441 325.082 166.384 325.052 166.333C325.022 166.283 324.979 166.242 324.927 166.215L323.723 165.702C323.676 165.682 323.634 165.651 323.601 165.611C323.568 165.571 323.545 165.525 323.533 165.475L323.277 164.194C323.264 164.137 323.236 164.084 323.196 164.041C323.155 163.999 323.104 163.968 323.047 163.952C322.991 163.937 322.931 163.937 322.874 163.953C322.818 163.969 322.767 164 322.727 164.042L321.873 164.991C321.836 165.028 321.791 165.057 321.742 165.075C321.693 165.093 321.64 165.1 321.588 165.095L320.298 164.944C320.239 164.937 320.179 164.947 320.125 164.973C320.071 164.999 320.025 165.039 319.992 165.089C319.96 165.139 319.942 165.197 319.941 165.257C319.939 165.317 319.955 165.376 319.985 165.427L320.421 166.215Z" fill="#FFF48C"/>
<path d="M323.248 164.166L323.495 165.446C323.507 165.496 323.53 165.543 323.563 165.583C323.596 165.622 323.638 165.653 323.685 165.674L324.889 166.186C324.941 166.214 324.984 166.255 325.014 166.305C325.044 166.355 325.06 166.413 325.06 166.471C325.06 166.529 325.044 166.587 325.014 166.637C324.984 166.687 324.941 166.728 324.889 166.756L323.751 167.401C323.705 167.425 323.667 167.46 323.639 167.503C323.61 167.546 323.594 167.596 323.59 167.647L323.495 168.947C323.49 169.007 323.468 169.065 323.432 169.113C323.395 169.161 323.346 169.198 323.29 169.22C323.233 169.242 323.172 169.247 323.113 169.236C323.053 169.225 322.999 169.197 322.954 169.156L322.006 168.273C321.97 168.236 321.924 168.209 321.874 168.196C321.824 168.182 321.771 168.183 321.721 168.197L320.45 168.482C320.392 168.494 320.332 168.49 320.276 168.47C320.22 168.45 320.171 168.415 320.134 168.369C320.096 168.323 320.073 168.268 320.065 168.209C320.057 168.15 320.065 168.09 320.089 168.036L320.649 166.85C320.675 166.806 320.688 166.755 320.688 166.703C320.688 166.652 320.675 166.601 320.649 166.556L319.985 165.437C319.955 165.385 319.939 165.326 319.941 165.267C319.942 165.207 319.96 165.149 319.992 165.099C320.025 165.048 320.071 165.008 320.125 164.983C320.179 164.957 320.239 164.947 320.298 164.953L321.588 165.105C321.64 165.109 321.693 165.102 321.742 165.084C321.791 165.066 321.836 165.038 321.873 165.001L322.727 164.052C322.765 164.016 322.811 163.989 322.862 163.975C322.913 163.961 322.966 163.959 323.018 163.97C323.069 163.982 323.117 164.005 323.157 164.039C323.197 164.073 323.229 164.117 323.248 164.166V164.166Z" stroke="#45413C" stroke-width="0.948642" stroke-linecap="round" stroke-linejoin="round"/>
<path d="M304.39 132.301C304.312 132.871 304.067 133.405 303.686 133.836C303.304 134.266 302.803 134.574 302.246 134.719C301.689 134.864 301.102 134.841 300.559 134.651C300.015 134.462 299.54 134.116 299.194 133.656C298.848 133.196 298.647 132.644 298.615 132.07C298.583 131.495 298.723 130.924 299.017 130.429C299.31 129.935 299.744 129.538 300.263 129.29C300.782 129.042 301.364 128.954 301.933 129.038C302.69 129.148 303.372 129.553 303.832 130.164C304.293 130.775 304.493 131.543 304.39 132.301Z" fill="#9CEB60"/>
<path d="M301.932 131.106C302.449 131.187 302.934 131.406 303.336 131.74C303.739 132.074 304.044 132.51 304.218 133.003C304.306 132.778 304.364 132.541 304.389 132.301C304.484 131.544 304.277 130.781 303.814 130.176C303.35 129.57 302.667 129.172 301.912 129.066C301.157 128.96 300.391 129.155 299.779 129.61C299.166 130.064 298.758 130.741 298.64 131.495C298.587 131.983 298.652 132.478 298.83 132.936C299.068 132.329 299.503 131.818 300.065 131.486C300.628 131.154 301.285 131.02 301.932 131.106V131.106Z" fill="#C8FFA1"/>
<path d="M304.39 132.301C304.312 132.871 304.067 133.405 303.686 133.836C303.304 134.266 302.803 134.574 302.246 134.719C301.689 134.864 301.102 134.841 300.559 134.651C300.015 134.462 299.54 134.116 299.194 133.656C298.848 133.196 298.647 132.644 298.615 132.07C298.583 131.495 298.723 130.924 299.017 130.429C299.31 129.935 299.744 129.538 300.263 129.29C300.782 129.042 301.364 128.954 301.933 129.038C302.69 129.148 303.372 129.553 303.832 130.164C304.293 130.775 304.493 131.543 304.39 132.301Z" stroke="#45413C" stroke-width="0.948642" stroke-linecap="round" stroke-linejoin="round"/>
<path d="M298.699 132.586C297.978 133.079 296.526 134.198 296.934 135.014C297.342 135.83 306.886 130.129 306.554 129.322C306.222 128.516 304.182 129.436 303.461 129.778" stroke="#45413C" stroke-width="0.948642" stroke-linecap="round" stroke-linejoin="round"/>
<path opacity="0.15" d="M163.943 279.822C163.943 280.062 164.385 280.3 165.245 280.523C166.104 280.745 167.364 280.947 168.952 281.117C170.54 281.287 172.425 281.422 174.5 281.514C176.575 281.607 178.799 281.654 181.045 281.654C183.291 281.654 185.515 281.607 187.59 281.514C189.665 281.422 191.55 281.287 193.138 281.117C194.726 280.947 195.986 280.745 196.846 280.523C197.705 280.3 198.147 280.062 198.147 279.822C198.147 279.581 197.705 279.343 196.846 279.12C195.986 278.898 194.726 278.696 193.138 278.526C191.55 278.356 189.665 278.221 187.59 278.129C185.515 278.037 183.291 277.989 181.045 277.989C178.799 277.989 176.575 278.037 174.5 278.129C172.425 278.221 170.54 278.356 168.952 278.526C167.364 278.696 166.104 278.898 165.245 279.12C164.385 279.343 163.943 279.581 163.943 279.822V279.822Z" fill="#45413C"/>
<path d="M193.262 269.011C189.423 270.753 185.262 271.673 181.046 271.71C176.83 271.673 172.669 270.753 168.83 269.011C176.905 267.805 185.114 267.805 193.189 269.011H193.262Z" fill="#915E3A" stroke="#45413C" stroke-width="1.22159" stroke-linecap="round" stroke-linejoin="round"/>
<path d="M196.157 274.85C196.358 275.254 196.401 275.719 196.276 276.153C196.152 276.587 195.87 276.959 195.485 277.195C193.335 278.527 188.632 280.738 181.046 280.738C173.46 280.738 168.757 278.527 166.607 277.195C166.222 276.959 165.94 276.587 165.816 276.153C165.691 275.719 165.734 275.254 165.935 274.85L168.83 269.011C172.669 270.753 176.83 271.673 181.046 271.71C185.262 271.673 189.423 270.753 193.262 269.011L196.157 274.85Z" fill="#DEA47A"/>
<path d="M181.046 275.009C185.797 274.954 190.505 274.1 194.972 272.48L193.262 269.011C189.423 270.753 185.262 271.673 181.046 271.71C176.83 271.673 172.669 270.753 168.83 269.011L167.12 272.48C171.587 274.1 176.295 274.954 181.046 275.009V275.009Z" fill="#BF8256"/>
<path d="M196.157 274.85C196.358 275.254 196.401 275.719 196.276 276.153C196.152 276.587 195.87 276.959 195.485 277.195C193.335 278.527 188.632 280.738 181.046 280.738C173.46 280.738 168.757 278.527 166.607 277.195C166.222 276.959 165.94 276.587 165.816 276.153C165.691 275.719 165.734 275.254 165.935 274.85L168.83 269.011C172.669 270.753 176.83 271.673 181.046 271.71C185.262 271.673 189.423 270.753 193.262 269.011L196.157 274.85Z" stroke="#45413C" stroke-width="1.22159" stroke-linecap="round" stroke-linejoin="round"/>
<path d="M162.539 250.503C162.539 252.934 163.018 255.34 163.948 257.586C164.878 259.831 166.241 261.871 167.96 263.59C169.678 265.308 171.719 266.672 173.964 267.602C176.209 268.532 178.616 269.011 181.046 269.011C183.477 269.011 185.883 268.532 188.129 267.602C190.374 266.672 192.414 265.308 194.133 263.59C195.851 261.871 197.215 259.831 198.145 257.586C199.075 255.34 199.554 252.934 199.554 250.503C199.554 248.073 199.075 245.666 198.145 243.421C197.215 241.176 195.851 239.135 194.133 237.417C192.414 235.698 190.374 234.335 188.129 233.405C185.883 232.475 183.477 231.996 181.046 231.996C178.616 231.996 176.209 232.475 173.964 233.405C171.719 234.335 169.678 235.698 167.96 237.417C166.241 239.135 164.878 241.176 163.948 243.421C163.018 245.666 162.539 248.073 162.539 250.503V250.503Z" fill="#BF8DF2"/>
<path d="M181.046 231.996C177.386 231.996 173.808 233.082 170.764 235.115C167.721 237.149 165.349 240.039 163.948 243.421C162.547 246.803 162.181 250.524 162.895 254.114C163.609 257.704 165.372 261.002 167.96 263.59C170.548 266.178 173.846 267.941 177.436 268.655C181.026 269.369 184.747 269.003 188.129 267.602C191.511 266.201 194.401 263.829 196.435 260.785C198.468 257.742 199.554 254.164 199.554 250.503C199.554 245.595 197.604 240.888 194.133 237.417C190.662 233.946 185.955 231.996 181.046 231.996ZM181.046 262.231C178.101 262.231 175.222 261.357 172.773 259.721C170.324 258.085 168.416 255.759 167.289 253.038C166.162 250.317 165.867 247.323 166.441 244.434C167.016 241.546 168.434 238.892 170.517 236.81C172.599 234.727 175.253 233.309 178.141 232.734C181.03 232.16 184.024 232.455 186.745 233.582C189.466 234.709 191.792 236.618 193.428 239.066C195.064 241.515 195.938 244.394 195.938 247.339C195.938 251.289 194.369 255.077 191.576 257.869C188.783 260.662 184.996 262.231 181.046 262.231V262.231Z" fill="#9F5AE5"/>
<path d="M162.539 250.503C162.539 252.934 163.018 255.34 163.948 257.586C164.878 259.831 166.241 261.871 167.96 263.59C169.678 265.308 171.719 266.672 173.964 267.602C176.209 268.532 178.616 269.011 181.046 269.011C183.477 269.011 185.883 268.532 188.129 267.602C190.374 266.672 192.414 265.308 194.133 263.59C195.851 261.871 197.215 259.831 198.145 257.586C199.075 255.34 199.554 252.934 199.554 250.503C199.554 248.073 199.075 245.666 198.145 243.421C197.215 241.176 195.851 239.135 194.133 237.417C192.414 235.698 190.374 234.335 188.129 233.405C185.883 232.475 183.477 231.996 181.046 231.996C178.616 231.996 176.209 232.475 173.964 233.405C171.719 234.335 169.678 235.698 167.96 237.417C166.241 239.135 164.878 241.176 163.948 243.421C163.018 245.666 162.539 248.073 162.539 250.503V250.503Z" stroke="#45413C" stroke-width="1.22159" stroke-linecap="round" stroke-linejoin="round"/>
<path d="M183.759 244.188C183.759 245.383 184.234 246.53 185.079 247.375C185.924 248.221 187.071 248.695 188.266 248.695C189.462 248.695 190.609 248.221 191.454 247.375C192.299 246.53 192.774 245.383 192.774 244.188C192.774 242.992 192.299 241.846 191.454 241C190.609 240.155 189.462 239.68 188.266 239.68C187.071 239.68 185.924 240.155 185.079 241C184.234 241.846 183.759 242.992 183.759 244.188V244.188Z" fill="#DABFF5"/>
<path d="M178.333 246.436C178.333 246.795 178.476 247.14 178.731 247.394C178.985 247.649 179.33 247.792 179.689 247.792C180.049 247.792 180.394 247.649 180.648 247.394C180.903 247.14 181.045 246.795 181.045 246.436C181.045 246.076 180.903 245.731 180.648 245.477C180.394 245.222 180.049 245.08 179.689 245.08C179.33 245.08 178.985 245.222 178.731 245.477C178.476 245.731 178.333 246.076 178.333 246.436Z" fill="#DABFF5"/>
<path d="M178.333 239.216C178.333 239.513 178.392 239.807 178.506 240.081C178.619 240.355 178.786 240.604 178.995 240.814C179.205 241.024 179.454 241.19 179.729 241.304C180.003 241.417 180.297 241.476 180.593 241.476C180.89 241.476 181.184 241.417 181.458 241.304C181.732 241.19 181.982 241.024 182.191 240.814C182.401 240.604 182.568 240.355 182.681 240.081C182.795 239.807 182.853 239.513 182.853 239.216C182.853 238.919 182.795 238.625 182.681 238.351C182.568 238.077 182.401 237.828 182.191 237.618C181.982 237.408 181.732 237.242 181.458 237.128C181.184 237.014 180.89 236.956 180.593 236.956C180.297 236.956 180.003 237.014 179.729 237.128C179.454 237.242 179.205 237.408 178.995 237.618C178.786 237.828 178.619 238.077 178.506 238.351C178.392 238.625 178.333 238.919 178.333 239.216V239.216Z" fill="#DABFF5"/>
<path d="M201.348 259.983C201.171 261.091 200.757 262.147 200.135 263.081C199.513 264.015 198.698 264.804 197.744 265.395" stroke="#45413C" stroke-width="1.22159" stroke-linecap="round" stroke-linejoin="round"/>
<path d="M196.842 268.107C198.644 267.834 200.265 266.859 201.349 265.395" stroke="#45413C" stroke-width="1.22159" stroke-linecap="round" stroke-linejoin="round"/>
<path d="M158.935 244.64C158.935 244.64 159.839 240.12 162.539 238.312" stroke="#45413C" stroke-width="1.22159" stroke-linecap="round" stroke-linejoin="round"/>
<path d="M157.127 241.024C156.625 243.099 156.625 245.264 157.127 247.339" stroke="#45413C" stroke-width="1.22159" stroke-linecap="round" stroke-linejoin="round"/>
<path d="M152.134 232.747C152.228 232.352 152.429 231.991 152.716 231.704C153.003 231.417 153.364 231.215 153.759 231.122L157.021 230.377C157.083 230.365 157.139 230.332 157.18 230.283C157.22 230.233 157.241 230.172 157.24 230.108C157.241 230.046 157.219 229.986 157.179 229.938C157.138 229.891 157.082 229.86 157.021 229.851L153.771 229.094C153.373 229.005 153.008 228.806 152.718 228.518C152.428 228.231 152.226 227.867 152.134 227.469L151.377 224.22C151.366 224.159 151.334 224.105 151.287 224.065C151.241 224.025 151.182 224.002 151.12 224C151.057 224.001 150.997 224.024 150.948 224.063C150.899 224.103 150.865 224.158 150.852 224.22L150.106 227.469C150.012 227.866 149.809 228.228 149.52 228.515C149.23 228.802 148.867 229.003 148.469 229.094L145.208 229.851C145.148 229.863 145.095 229.895 145.057 229.942C145.019 229.989 144.999 230.048 145 230.108C144.998 230.17 145.018 230.23 145.056 230.279C145.094 230.328 145.148 230.363 145.208 230.377L148.469 231.122C148.863 231.215 149.223 231.416 149.508 231.703C149.793 231.991 149.992 232.352 150.082 232.747L150.913 236.008C150.927 236.069 150.961 236.122 151.01 236.16C151.059 236.198 151.119 236.218 151.181 236.216C151.242 236.217 151.301 236.197 151.347 236.159C151.394 236.121 151.426 236.068 151.438 236.008L152.134 232.747Z" fill="white" stroke="#45413C" stroke-width="1.22159" stroke-linecap="round" stroke-linejoin="round"/>
<path d="M158.838 264.93L161.391 264.087C161.429 264.063 161.459 264.028 161.479 263.987C161.498 263.946 161.506 263.9 161.501 263.855C161.502 263.806 161.488 263.758 161.459 263.718C161.43 263.678 161.389 263.649 161.342 263.635L159.241 262.939C159.101 262.89 158.974 262.81 158.87 262.704C158.766 262.598 158.688 262.469 158.642 262.328L157.934 260.227C157.92 260.18 157.891 260.139 157.851 260.11C157.811 260.081 157.763 260.067 157.714 260.068C157.663 260.068 157.614 260.083 157.572 260.111C157.531 260.14 157.499 260.18 157.482 260.227L156.785 262.328C156.737 262.47 156.657 262.599 156.551 262.705C156.445 262.811 156.316 262.891 156.174 262.939L154.171 263.635C154.123 263.649 154.08 263.677 154.049 263.717C154.018 263.757 154.001 263.805 154 263.855C154 263.907 154.017 263.958 154.048 263.999C154.078 264.041 154.122 264.072 154.171 264.087L156.26 264.784C156.403 264.83 156.532 264.91 156.639 265.016C156.745 265.122 156.824 265.252 156.871 265.395L157.567 267.483C157.583 267.533 157.613 267.576 157.655 267.607C157.697 267.638 157.747 267.654 157.799 267.655C157.849 267.654 157.898 267.637 157.938 267.606C157.977 267.575 158.006 267.532 158.019 267.483L158.838 264.93Z" fill="white" stroke="#45413C" stroke-width="1.22159" stroke-linecap="round" stroke-linejoin="round"/>
<path d="M204.25 10C199.144 10 195 14.144 195 19.25C195 24.356 199.144 28.5 204.25 28.5C209.356 28.5 213.5 24.356 213.5 19.25C213.5 14.144 209.356 10 204.25 10ZM202.4 23.4125V15.0875L207.95 19.25L202.4 23.4125Z" fill="#FF2861"/>
</svg>
