<svg width="330" height="262" viewBox="0 0 330 262" fill="none" xmlns="http://www.w3.org/2000/svg">
<path fill-rule="evenodd" clip-rule="evenodd" d="M258.91 177.599C259.802 177.599 260.613 177.761 261.343 178.004C261.667 177.599 262.154 177.355 262.721 177.355C262.965 177.355 263.208 177.436 263.451 177.518C263.614 175.896 264.911 174.598 266.614 174.598C267.344 174.598 267.993 174.841 268.561 175.247C268.642 175.085 268.804 174.922 268.966 174.841C268.642 174.274 268.48 173.706 268.48 173.057C268.48 172.003 268.885 171.111 269.534 170.462C270.183 169.813 271.156 169.408 272.129 169.408C272.697 169.083 273.346 168.921 273.994 168.921C274.4 168.921 274.805 169.002 275.211 169.083C275.373 168.678 275.697 168.434 276.022 168.191C275.941 167.704 275.86 167.218 275.86 166.731C275.86 164.866 276.59 163.163 277.806 161.946C279.023 160.73 280.726 160 282.591 160C283.159 160 283.726 160.081 284.294 160.243C288.268 160.324 291.512 163.568 291.512 167.542C291.512 167.623 291.512 167.623 291.512 167.704C291.836 167.623 292.242 167.542 292.647 167.542C293.377 167.542 294.107 167.704 294.756 168.029C295.81 166.569 297.513 165.596 299.46 165.596C302.704 165.596 305.299 168.191 305.299 171.435C305.299 172.084 305.218 172.652 304.975 173.219C305.056 173.219 305.056 173.219 305.137 173.219C306.759 173.219 308.056 174.517 308.056 176.139C308.056 176.301 308.056 176.544 307.975 176.707C307.975 176.707 307.975 176.707 308.056 176.707C308.948 176.707 309.678 177.436 309.759 178.329C310.003 178.247 310.246 178.247 310.57 178.247C311.625 178.247 312.598 178.572 313.328 179.302C315.193 181.086 313.166 181.573 311.219 181.573H308.624H306.597H265.154H261.91H256.639C254.612 181.573 251.611 181.897 253.719 179.788C255.098 178.41 256.963 177.599 258.91 177.599ZM276.752 168.029C276.833 168.029 276.995 168.029 277.076 168.029H277.157C277.157 167.867 277.157 167.704 277.157 167.623C277.157 164.379 279.266 161.703 282.104 160.649C280.726 160.811 279.428 161.46 278.455 162.433C277.319 163.568 276.671 165.109 276.671 166.812C276.59 167.218 276.671 167.623 276.752 168.029ZM269.534 174.598C269.696 174.517 269.939 174.517 270.102 174.517C270.183 174.517 270.345 174.517 270.426 174.517C270.183 174.03 270.102 173.463 270.102 172.895C270.102 171.759 270.588 170.705 271.318 169.975C270.831 170.137 270.426 170.381 270.02 170.786C269.453 171.354 269.128 172.165 269.128 173.057C269.128 173.625 269.291 174.192 269.534 174.598Z" fill="#D1EEFA"/>
<path fill-rule="evenodd" clip-rule="evenodd" d="M12.9098 188.599C13.8019 188.599 14.6129 188.761 15.3428 189.004C15.6672 188.599 16.1538 188.355 16.7215 188.355C16.9648 188.355 17.2081 188.436 17.4514 188.518C17.6136 186.896 18.9112 185.598 20.6143 185.598C21.3442 185.598 21.993 185.841 22.5607 186.247C22.6418 186.085 22.804 185.922 22.9662 185.841C22.6418 185.274 22.4796 184.706 22.4796 184.057C22.4796 183.003 22.8851 182.111 23.5339 181.462C24.1827 180.813 25.1559 180.408 26.1291 180.408C26.6968 180.083 27.3456 179.921 27.9944 179.921C28.3999 179.921 28.8054 180.002 29.2109 180.083C29.3731 179.678 29.6975 179.434 30.0219 179.191C29.9408 178.704 29.8597 178.218 29.8597 177.731C29.8597 175.866 30.5896 174.163 31.8061 172.946C33.0226 171.73 34.7257 171 36.591 171C37.1587 171 37.7264 171.081 38.2941 171.243C42.268 171.324 45.512 174.568 45.512 178.542C45.512 178.623 45.512 178.623 45.512 178.704C45.8364 178.623 46.2419 178.542 46.6474 178.542C47.3773 178.542 48.1072 178.704 48.756 179.029C49.8103 177.569 51.5134 176.596 53.4598 176.596C56.7038 176.596 59.299 179.191 59.299 182.435C59.299 183.084 59.2179 183.652 58.9746 184.219C59.0557 184.219 59.0557 184.219 59.1368 184.219C60.7588 184.219 62.0564 185.517 62.0564 187.139C62.0564 187.301 62.0564 187.544 61.9753 187.707C61.9753 187.707 61.9753 187.707 62.0564 187.707C62.9485 187.707 63.6784 188.436 63.7595 189.329C64.0028 189.247 64.2461 189.247 64.5705 189.247C65.6248 189.247 66.598 189.572 67.3279 190.302C69.1932 192.086 67.1657 192.573 65.2193 192.573H62.6241H60.5966H19.1545H15.9105H10.639C8.6115 192.573 5.6108 192.897 7.7194 190.788C9.0981 189.41 10.9634 188.599 12.9098 188.599ZM30.7518 179.029C30.8329 179.029 30.9951 179.029 31.0762 179.029H31.1573C31.1573 178.867 31.1573 178.704 31.1573 178.623C31.1573 175.379 33.2659 172.703 36.1044 171.649C34.7257 171.811 33.4281 172.46 32.4549 173.433C31.3195 174.568 30.6707 176.109 30.6707 177.812C30.5896 178.218 30.6707 178.623 30.7518 179.029ZM23.5339 185.598C23.6961 185.517 23.9394 185.517 24.1016 185.517C24.1827 185.517 24.3449 185.517 24.426 185.517C24.1827 185.03 24.1016 184.463 24.1016 183.895C24.1016 182.759 24.5882 181.705 25.3181 180.975C24.8315 181.137 24.426 181.381 24.0205 181.786C23.4528 182.354 23.1284 183.165 23.1284 184.057C23.1284 184.625 23.2906 185.192 23.5339 185.598Z" fill="#D1EEFA"/>
<path fill-rule="evenodd" clip-rule="evenodd" d="M273.991 34.5987C274.883 34.5987 275.694 34.7609 276.424 35.0042C276.748 34.5987 277.235 34.3554 277.803 34.3554C278.046 34.3554 278.289 34.4365 278.532 34.5176C278.695 32.8956 279.992 31.598 281.695 31.598C282.425 31.598 283.074 31.8413 283.642 32.2468C283.723 32.0846 283.885 31.9224 284.047 31.8413C283.723 31.2736 283.561 30.7059 283.561 30.0571C283.561 29.0028 283.966 28.1107 284.615 27.4619C285.264 26.8131 286.237 26.4076 287.21 26.4076C287.778 26.0832 288.427 25.921 289.075 25.921C289.481 25.921 289.886 26.0021 290.292 26.0832C290.454 25.6777 290.779 25.4344 291.103 25.1911C291.022 24.7045 290.941 24.2179 290.941 23.7313C290.941 21.866 291.671 20.1629 292.887 18.9464C294.104 17.7299 295.807 17 297.672 17C298.24 17 298.807 17.0811 299.375 17.2433C303.349 17.3244 306.593 20.5684 306.593 24.5423C306.593 24.6234 306.593 24.6234 306.593 24.7045C306.917 24.6234 307.323 24.5423 307.728 24.5423C308.458 24.5423 309.188 24.7045 309.837 25.0289C310.891 23.5691 312.594 22.5959 314.541 22.5959C317.785 22.5959 320.38 25.1911 320.38 28.4351C320.38 29.0839 320.299 29.6516 320.056 30.2193C320.137 30.2193 320.137 30.2193 320.218 30.2193C321.84 30.2193 323.137 31.5169 323.137 33.1389C323.137 33.3011 323.137 33.5444 323.056 33.7066C323.056 33.7066 323.056 33.7066 323.137 33.7066C324.03 33.7066 324.759 34.4365 324.841 35.3286C325.084 35.2475 325.327 35.2475 325.652 35.2475C326.706 35.2475 327.679 35.5719 328.328 36.3018C330.193 38.086 328.166 38.5726 326.219 38.5726H323.624H321.597H280.154H276.91H271.639C269.612 38.5726 266.611 38.897 268.719 36.7884C270.179 35.4097 271.963 34.5987 273.991 34.5987ZM291.833 25.0289C291.914 25.0289 292.076 25.0289 292.157 25.0289H292.238C292.238 24.8667 292.238 24.7045 292.238 24.6234C292.238 21.3794 294.347 18.7031 297.185 17.6488C295.807 17.811 294.509 18.4598 293.536 19.433C292.401 20.5684 291.752 22.1093 291.752 23.8124C291.671 24.1368 291.671 24.6234 291.833 25.0289ZM284.534 31.598C284.696 31.5169 284.939 31.5169 285.102 31.5169C285.183 31.5169 285.345 31.5169 285.426 31.5169C285.183 31.0303 285.102 30.4626 285.102 29.8949C285.102 28.7595 285.588 27.7052 286.318 26.9753C285.831 27.1375 285.426 27.3808 285.02 27.7863C284.453 28.354 284.128 29.165 284.128 30.0571C284.128 30.6248 284.291 31.1114 284.534 31.598Z" fill="#D1EEFA"/>
<path fill-rule="evenodd" clip-rule="evenodd" d="M146.061 119.976C146.061 119.976 134.22 121.598 126.597 132.627C118.974 143.657 93.6704 179.017 93.6704 179.017L147.034 179.909L146.061 119.976Z" fill="#00D05E"/>
<path fill-rule="evenodd" clip-rule="evenodd" d="M177.041 91.2666C177.041 91.2666 176.392 94.3484 175.906 97.0247C175.338 99.701 175.419 107.892 175.419 107.892C175.014 110.082 174.608 115.597 171.364 115.434C165.849 115.272 174.77 134.412 182.15 136.439C190.666 138.791 208.508 128.978 218.24 123.22C219.456 122.49 218.24 119.084 219.294 118.597C219.294 118.597 214.59 116.813 214.185 112.434C213.698 108.054 215.401 92.3209 215.401 92.3209L177.041 91.2666Z" fill="#59B2FF"/>
<path fill-rule="evenodd" clip-rule="evenodd" d="M177.041 91.2666C177.041 91.2666 176.392 94.3484 175.906 97.0247C175.338 99.701 175.419 107.892 175.419 107.892C175.257 108.865 175.095 110.406 174.689 111.866C178.177 114.867 181.988 118.111 184.016 119.246C186.53 120.706 189.774 121.355 192.937 121.355C196.1 121.355 199.263 120.706 201.858 119.246C204.453 117.786 210.13 112.92 214.104 109.352C214.266 103.107 215.402 92.4831 215.402 92.4831L177.041 91.2666Z" fill="#2C81FE"/>
<path fill-rule="evenodd" clip-rule="evenodd" d="M219.294 118.597L249.95 129.14C249.95 129.14 223.998 168.312 236.731 201.887L238.191 229.299L232.351 242.842C211.265 254.602 186.935 261.333 161.065 261.333C150.846 261.333 140.871 260.279 131.22 258.332L132.355 246.33L129.03 203.914C123.191 178.287 127.57 162.959 146.142 120.138L171.445 115.597C172.581 131.168 197.397 133.033 219.294 118.597Z" fill="white"/>
<path fill-rule="evenodd" clip-rule="evenodd" d="M219.294 118.597L249.95 129.14C249.95 129.14 243.624 138.629 238.758 152.335C233 154.2 229.756 156.795 229.756 156.795C233.243 145.036 228.783 137.899 220.997 134.25C217.348 132.546 212.968 130.357 212.806 130.195C212.725 130.032 206.562 128.735 199.749 127.275C206.075 125.734 212.806 122.896 219.294 118.597ZM136.329 143.333C138.519 137.737 138.032 134.168 140.952 127.275C141.6 125.734 145.331 121.598 146.061 119.976L171.364 115.434C171.689 119.327 173.392 122.328 176.149 124.518C169.58 125.815 158.388 128.005 151.17 130.113C140.789 133.033 136.653 142.603 136.329 143.333Z" fill="#00D05E"/>
<path fill-rule="evenodd" clip-rule="evenodd" d="M219.294 118.597L226.026 120.868C201.452 145.279 164.227 138.548 165.768 116.408L171.445 115.353C172.581 131.168 197.397 133.033 219.294 118.597Z" fill="#00D05E"/>
<path fill-rule="evenodd" clip-rule="evenodd" d="M229.188 68.5586C229.188 68.5586 233.162 65.3957 235.352 66.0445C237.542 66.6933 239.407 72.2081 238.353 76.0198C237.38 79.7504 230.729 92.3209 224.322 85.914C217.916 79.5882 229.188 68.5586 229.188 68.5586Z" fill="#59B2FF"/>
<path fill-rule="evenodd" clip-rule="evenodd" d="M225.944 72.127C225.62 72.3703 225.458 72.7758 225.62 73.1002C225.701 73.4246 226.026 73.5057 226.269 73.3435C226.269 73.3435 226.107 85.5085 228.053 83.9676C229.999 82.4267 232.108 80.9669 233.325 78.1284C234.541 75.2899 232.595 72.0459 233.568 71.4782C234.541 70.9105 235.271 72.2081 235.352 72.3703C235.92 73.5057 236.001 74.7222 236.001 74.8033C236.001 75.1277 236.325 75.371 236.65 75.2088C236.974 75.0466 237.217 74.6411 237.136 74.3167C237.136 74.3167 236.65 69.6129 233.568 69.2074C230.648 68.7208 225.944 72.127 225.944 72.127Z" fill="#2C81FE"/>
<path fill-rule="evenodd" clip-rule="evenodd" d="M161.713 62.8817C161.713 62.8817 159.28 59.4755 157.415 59.4755C155.55 59.4755 152.792 63.4494 152.711 66.6934C152.63 69.9374 154.982 81.4535 161.551 77.804C168.12 74.2357 161.713 62.8817 161.713 62.8817Z" fill="#59B2FF"/>
<path fill-rule="evenodd" clip-rule="evenodd" d="M162.849 66.3689C163.011 66.6122 163.092 67.0177 162.93 67.261C162.768 67.5043 162.524 67.5043 162.362 67.3421C162.362 67.3421 159.686 76.993 158.469 75.371C157.253 73.6679 155.955 72.0459 155.631 69.5318C155.306 66.9366 157.658 64.9091 156.928 64.1792C156.28 63.4493 155.387 64.3414 155.306 64.4225C154.576 65.2335 154.252 66.2067 154.252 66.2067C154.171 66.45 153.847 66.5311 153.684 66.3689C153.441 66.2067 153.36 65.8012 153.522 65.5579C153.522 65.5579 154.982 61.9084 157.577 62.3139C159.929 62.4761 162.849 66.3689 162.849 66.3689Z" fill="#2C81FE"/>
<path fill-rule="evenodd" clip-rule="evenodd" d="M200.479 7.81462C154.577 3.59742 157.253 42.2821 157.983 73.3434C159.199 121.679 216.618 127.843 228.053 80.8857C235.352 50.6354 246.138 13.4105 200.479 7.81462Z" fill="#59B2FF"/>
<path fill-rule="evenodd" clip-rule="evenodd" d="M157.821 49.9056C157.658 53.6362 157.658 57.3668 157.658 61.0974C158.145 61.3407 158.632 61.5839 159.199 61.7461C168.688 65.3145 175.095 53.7984 175.095 53.7984L176.879 49.0946C176.879 49.1757 164.552 49.6623 157.821 49.9056ZM231.459 66.5311C232.108 63.7737 232.676 61.0163 233.162 58.1778C230.324 53.7173 225.377 49.0135 225.377 49.0135L218.483 46.3372C218.483 46.3372 214.915 66.3688 229.513 66.6121C230.243 66.6932 230.892 66.6122 231.459 66.5311Z" fill="#2C81FE"/>
<path fill-rule="evenodd" clip-rule="evenodd" d="M228.783 77.6416C229.756 73.5866 230.892 68.9639 231.784 64.8278C237.866 36.6861 238.109 15.6002 200.074 10.9775C161.957 7.49016 157.658 28.0895 157.658 56.88C157.658 61.1783 157.739 65.8821 157.902 70.0993C157.902 70.0993 162.849 66.0443 162.849 57.0422C162.849 57.0422 172.337 58.0965 170.067 42.2009C167.796 26.2242 187.99 27.2785 198.208 28.3328C208.508 29.4682 228.377 32.7122 222.782 47.7968C217.186 62.8814 226.674 63.8546 226.674 63.8546C224.809 72.6134 228.783 77.6416 228.783 77.6416Z" fill="#12006C"/>
<path fill-rule="evenodd" clip-rule="evenodd" d="M218.483 46.175C218.483 46.175 215.483 48.0404 213.293 53.1496C211.103 58.34 207.778 62.9627 201.209 62.3139C194.64 61.584 192.612 54.7716 192.612 54.7716C192.612 54.7716 184.259 65.9634 175.095 53.8795C175.095 53.8795 170.229 59.7187 161.389 58.4211C131.787 54.1228 161.389 -6.29662 205.264 1.00237C222.133 3.84087 230.729 13.654 232.189 19.6554C232.027 8.38247 242.002 11.0588 238.028 26.7111C261.223 38.2272 220.186 90.5367 218.483 46.175Z" fill="#12006C"/>
<path fill-rule="evenodd" clip-rule="evenodd" d="M166.336 13.0051C165.119 19.8175 165.768 34.9832 196.992 30.5227L197.722 30.4416C198.289 30.3605 198.533 30.2794 198.533 30.5227C198.533 30.6038 198.452 30.6038 198.37 30.6038C198.208 30.6849 197.884 30.766 197.397 30.8471L196.992 30.9282C194.802 31.4148 190.423 32.3069 185.638 32.7935C182.556 33.1179 179.312 33.2801 176.311 33.1179C172.662 32.8746 169.742 32.0636 167.471 31.0093C165.201 29.955 163.579 28.7385 162.362 27.6031C162.119 27.3598 161.957 27.1976 161.794 27.0354C159.767 25.1701 158.794 24.278 156.361 24.5213C158.956 20.5474 162.362 16.5735 166.336 13.0051ZM201.533 29.8739C201.533 29.8739 212.32 26.4677 217.997 29.4684C218.078 29.4684 218.078 29.5495 218.078 29.6306C218.078 29.7117 217.997 29.7117 217.916 29.7117C217.916 29.7117 215.564 28.8196 213.861 30.0361C212.401 31.0904 211.184 30.766 209.643 30.3605C209.238 30.2794 208.913 30.1983 208.508 30.0361C207.373 29.7928 206.237 29.6306 205.021 29.7117C203.885 29.7117 202.75 29.8739 201.696 30.1983C201.614 30.1983 201.533 30.1983 201.533 30.1172C201.371 29.955 201.452 29.8739 201.533 29.8739Z" fill="#2C81FE"/>
<path fill-rule="evenodd" clip-rule="evenodd" d="M186.287 70.5048C186.287 70.5859 186.205 70.667 186.205 70.7481L185.962 71.1536C184.827 73.0189 181.177 79.1014 181.177 79.7502C181.177 80.2368 182.961 81.6966 183.367 82.021C184.259 82.6698 186.449 81.8588 187.179 81.6155C190.585 80.399 184.989 84.5351 183.691 84.1296C182.637 83.8052 181.988 83.3186 181.177 82.5076C180.528 81.8588 179.636 80.7234 179.555 79.7502C179.474 78.777 183.286 72.4512 184.502 70.3426C185.719 68.3151 185.719 66.9364 185.476 66.1254C185.313 65.5577 185.313 64.7467 186.043 65.801C186.611 66.6931 187.26 68.3151 186.287 70.5048Z" fill="#2C81FE"/>
<path fill-rule="evenodd" clip-rule="evenodd" d="M198.857 58.4211C198.938 58.9888 199.1 59.3132 199.181 59.3943C199.263 58.5833 199.749 58.0967 200.641 57.6912C206.156 55.5826 214.915 57.2857 218.97 60.2864C218.97 60.2864 219.051 60.3675 218.97 60.3675C218.97 60.4486 218.889 60.4486 218.808 60.4486C215.888 59.3132 212.887 58.9888 210.211 59.151C205.994 59.3132 202.507 60.6108 201.371 61.2596C200.966 61.5029 200.479 61.7462 199.911 61.7462C199.425 61.7462 198.857 61.5029 198.452 60.8541C198.289 60.6108 198.208 60.3675 198.127 60.2053C197.965 59.7187 197.965 59.2321 198.046 58.9077C198.127 58.5833 198.289 58.34 198.37 58.2589C198.776 58.0967 198.857 58.4211 198.857 58.4211Z" fill="#12006C"/>
<path fill-rule="evenodd" clip-rule="evenodd" d="M180.528 56.3935C180.366 56.8801 180.123 57.1234 180.042 57.2045C180.204 56.4746 179.88 55.8258 179.231 55.2581C175.176 52.0952 167.634 51.6897 163.66 53.6361L163.579 53.7172C163.579 53.7983 163.579 53.7983 163.66 53.7983C166.336 53.3928 168.85 53.7983 170.959 54.5282C174.365 55.6636 176.96 57.61 177.771 58.421C178.095 58.7454 178.42 59.0698 178.825 59.1509C179.231 59.3131 179.717 59.1509 180.204 58.6643C180.366 58.5021 180.528 58.2588 180.61 58.0966C180.853 57.6911 180.934 57.2045 180.934 56.8801C180.934 56.5557 180.853 56.3124 180.853 56.2313C180.691 56.1502 180.61 56.3935 180.528 56.3935Z" fill="#12006C"/>
<path fill-rule="evenodd" clip-rule="evenodd" d="M199.587 68.8828C201.858 65.9632 204.291 64.5034 206.48 64.2601C208.021 64.0168 209.4 64.3412 210.617 64.99C211.833 65.6388 212.968 66.612 213.779 67.8285C215.32 70.0182 216.05 72.7756 215.401 75.2897C215.401 75.3708 215.32 75.3708 215.239 75.3708C215.158 75.3708 215.158 75.2897 215.158 75.2086C215.32 73.4244 214.672 71.5591 213.536 69.9371C212.644 68.7206 211.428 67.7474 210.049 67.0986C208.67 66.4498 207.129 66.2065 205.426 66.5309C203.48 66.9364 201.533 68.0718 199.587 70.3426C199.1 70.9103 198.695 71.478 198.37 72.1268C198.046 72.6945 197.803 73.3433 197.641 73.9921C197.641 74.0732 197.559 74.0732 197.478 74.0732C197.397 74.0732 197.397 73.9921 197.397 73.911C197.478 73.0189 197.722 72.1268 198.127 71.3158C198.452 70.4237 199.019 69.6127 199.587 68.8828Z" fill="#12006C"/>
<path fill-rule="evenodd" clip-rule="evenodd" d="M201.128 67.7474C201.533 67.3419 201.858 66.9364 202.263 66.612C203.642 65.8821 205.264 65.6388 206.967 65.9632C210.779 66.612 213.455 69.856 212.968 73.2622C212.076 78.8581 204.21 79.1014 200.641 75.8574C199.992 75.1275 199.506 74.3165 199.263 73.5055C198.776 71.5591 199.668 69.3694 201.128 67.7474Z" fill="#12006C"/>
<path d="M215.32 78.1283C215.239 78.1283 215.239 78.1283 215.158 78.1283C214.59 77.885 214.266 77.4794 214.266 77.4794C214.185 77.3172 214.185 77.0739 214.347 76.9928C214.509 76.9117 214.753 76.9117 214.834 77.0739C214.834 77.0739 214.996 77.3172 215.401 77.4794C215.564 77.5605 215.645 77.8038 215.564 77.966C215.645 78.0471 215.483 78.1283 215.32 78.1283Z" fill="#BFE1FF"/>
<path d="M213.455 79.1015C213.374 79.1015 213.293 79.1015 213.212 79.0204C212.806 78.6149 212.725 78.2905 212.725 78.2094C212.644 78.0472 212.806 77.8039 212.968 77.8039C213.131 77.7228 213.374 77.885 213.374 78.0472C213.374 78.0472 213.455 78.2905 213.698 78.5338C213.86 78.696 213.86 78.9393 213.698 79.0204C213.617 79.0204 213.536 79.1015 213.455 79.1015Z" fill="#BFE1FF"/>
<path fill-rule="evenodd" clip-rule="evenodd" d="M204.047 68.8018C204.696 68.8829 205.183 69.4506 205.183 70.0993C205.102 70.7481 204.534 71.3159 203.885 71.2348C203.236 71.1537 202.75 70.586 202.75 69.9372C202.831 69.2884 203.399 68.8018 204.047 68.8018Z" fill="white"/>
<path fill-rule="evenodd" clip-rule="evenodd" d="M174.04 59.4754C175.825 60.4486 177.528 62.395 178.663 65.8012C178.988 66.6933 179.15 67.5854 179.231 68.4775C179.312 69.3696 179.231 70.2617 179.069 71.0727C179.069 71.1538 178.988 71.1538 178.906 71.1538C178.825 71.1538 178.744 71.0727 178.825 70.9916C178.906 70.3428 178.906 69.694 178.744 69.1263C178.663 68.4775 178.501 67.8287 178.258 67.1799C177.203 64.5847 175.825 62.8816 174.284 61.9895C172.986 61.1785 171.526 60.9352 170.148 61.0974C168.769 61.2596 167.39 61.8273 166.255 62.6383C164.795 63.6926 163.66 65.2335 163.254 66.9366C163.254 67.0177 163.173 67.0177 163.092 67.0177C163.011 67.0177 162.93 66.9366 163.011 66.8555C163.254 64.4225 164.714 62.0706 166.66 60.5297C167.715 59.7187 169.012 59.151 170.229 58.9077C171.445 58.6644 172.824 58.8266 174.04 59.4754Z" fill="#12006C"/>
<path fill-rule="evenodd" clip-rule="evenodd" d="M176.473 63.7737C176.311 63.2871 176.068 62.8005 175.825 62.395C174.851 61.3407 173.473 60.6108 171.932 60.3675C168.363 59.7998 165.038 61.9084 164.552 65.1524C163.66 70.5861 170.472 73.1002 174.527 71.316C175.257 70.9105 175.987 70.2617 176.473 69.6129C177.366 67.9098 177.284 65.7201 176.473 63.7737Z" fill="#12006C"/>
<path d="M162.2 69.4507C162.038 69.4507 161.875 69.2885 161.875 69.1263C161.875 68.9641 161.957 68.7208 162.2 68.7208C162.605 68.6397 162.849 68.4775 162.849 68.4775C163.011 68.3964 163.254 68.3964 163.335 68.5586C163.416 68.7208 163.416 68.9641 163.254 69.0452C163.173 69.1263 162.849 69.3696 162.2 69.4507Z" fill="#BFE1FF"/>
<path d="M163.579 70.9105C163.416 70.9105 163.335 70.8294 163.254 70.7483C163.173 70.5861 163.254 70.3428 163.416 70.2617C163.66 70.0995 163.822 69.9373 163.822 69.9373C163.903 69.7751 164.146 69.694 164.308 69.8562C164.471 69.9373 164.552 70.1806 164.39 70.3428C164.39 70.3428 164.146 70.6672 163.741 70.9105C163.66 70.9105 163.66 70.9105 163.579 70.9105Z" fill="#BFE1FF"/>
<path fill-rule="evenodd" clip-rule="evenodd" d="M169.174 63.6924C169.823 63.7735 170.31 64.2601 170.229 64.9089C170.148 65.5577 169.661 66.0443 169.012 65.9632C168.363 65.9632 167.877 65.3955 167.958 64.7467C167.958 64.0979 168.526 63.6113 169.174 63.6924Z" fill="white"/>
<path fill-rule="evenodd" clip-rule="evenodd" d="M192.937 91.4286C193.342 91.3475 193.586 90.8609 193.504 90.4554C193.423 90.0499 193.018 89.7255 192.531 89.8877C192.531 89.8877 190.179 90.8609 187.26 90.6176C186.205 90.5365 186.205 91.753 187.179 91.8341C190.423 92.0774 192.937 91.4286 192.937 91.4286Z" fill="#2C81FE"/>
<path fill-rule="evenodd" clip-rule="evenodd" d="M195.289 86.8061C195.694 86.5628 195.856 86.0762 195.694 85.6707C195.532 85.2652 195.045 85.0219 194.721 85.2652C194.721 85.2652 188.801 88.5092 180.853 87.1305C179.88 86.9683 179.799 88.0226 180.772 88.2659C187.99 90.1312 195.289 86.8061 195.289 86.8061Z" fill="#2C81FE"/>
<path fill-rule="evenodd" clip-rule="evenodd" d="M195.126 83.8053C194.964 83.562 194.478 83.4809 194.072 83.6431C193.667 83.8053 193.504 84.2108 193.667 84.4541C193.667 84.4541 195.045 85.9139 195.451 88.1036C195.613 88.9146 196.748 88.5902 196.586 87.8603C196.181 85.4273 195.126 83.8053 195.126 83.8053Z" fill="#2C81FE"/>
<path fill-rule="evenodd" clip-rule="evenodd" d="M230.81 234.327L254.492 227.758C262.439 221.189 269.657 213.809 275.983 205.78C272.901 189.965 271.117 162.554 268.035 148.199C264.954 133.763 249.95 129.221 249.95 129.221C228.702 130.032 225.052 170.582 233.325 185.829L236.569 220.783L230.81 234.327Z" fill="#00D05E"/>
<path d="M169.499 79.1014C169.012 79.1014 168.607 79.1014 168.12 79.0203C164.227 78.6148 160.659 76.7495 158.145 73.7488C155.631 70.7481 154.495 66.8553 154.82 62.9625C155.55 54.8526 162.605 48.9323 170.878 49.6622C178.988 50.3921 184.908 57.61 184.178 65.72C183.448 73.3433 177.122 79.1014 169.499 79.1014ZM169.499 50.6354C162.362 50.6354 156.523 55.988 155.874 63.0437C155.55 66.6931 156.604 70.2615 158.956 73.1C161.308 75.9385 164.552 77.6416 168.201 78.0471C175.825 78.777 182.394 73.1811 183.124 65.6388C183.854 58.0966 178.258 51.4464 170.715 50.7165C170.31 50.6354 169.904 50.6354 169.499 50.6354Z" fill="white"/>
<path d="M207.048 86.8871C206.48 86.8871 205.913 86.8871 205.426 86.806C200.722 86.4005 196.586 84.1297 193.586 80.5613C190.585 76.9929 189.206 72.3702 189.612 67.7475C190.423 58.6643 197.965 51.8519 207.048 51.8519C207.616 51.8519 208.184 51.8519 208.67 51.933C218.321 52.8251 225.377 61.4217 224.485 71.0726C223.674 80.0747 216.131 86.8871 207.048 86.8871ZM207.048 52.8251C198.452 52.8251 191.396 59.232 190.585 67.8286C190.179 72.208 191.477 76.5063 194.315 79.9125C197.154 83.3187 201.128 85.4273 205.507 85.8328C205.994 85.9139 206.562 85.9139 207.048 85.9139C215.645 85.9139 222.7 79.507 223.511 70.9104C224.404 61.8272 217.672 53.7983 208.589 52.9062C208.102 52.8251 207.535 52.8251 207.048 52.8251Z" fill="white"/>
<path d="M191.315 63.1248C191.234 63.1248 191.153 63.1248 191.071 63.0437C189.936 62.5571 188.638 62.2327 187.341 62.0705C186.043 61.9894 184.746 62.0705 183.529 62.3138C183.286 62.3949 182.961 62.2327 182.88 61.9083C182.799 61.665 182.961 61.3406 183.286 61.2595C184.665 60.9351 186.043 60.854 187.422 61.0162C188.801 61.1784 190.179 61.5028 191.477 62.0705C191.72 62.1516 191.882 62.476 191.72 62.7193C191.72 62.9626 191.558 63.1248 191.315 63.1248Z" fill="white"/>
<path d="M194.964 75.9386C194.802 75.9386 194.721 75.8575 194.64 75.7764C193.423 73.4245 192.937 70.7482 193.18 68.0719C193.342 66.2877 193.829 64.5846 194.64 63.0437C194.721 62.8815 194.964 62.8004 195.126 62.8815C195.289 62.9626 195.37 63.2059 195.289 63.3681C194.559 64.8279 194.072 66.4499 193.91 68.153C193.667 70.6671 194.153 73.1812 195.289 75.452C195.37 75.6142 195.289 75.8575 195.126 75.9386C195.045 75.9386 194.964 75.9386 194.964 75.9386ZM195.694 62.1516C195.613 62.1516 195.532 62.1516 195.532 62.0705C195.37 61.9894 195.289 61.7461 195.451 61.5839C195.694 61.1784 196.019 60.7729 196.343 60.3674C196.505 60.2052 196.667 60.2052 196.83 60.2863C196.992 60.4485 196.992 60.6107 196.911 60.7729C196.586 61.0973 196.343 61.5028 196.1 61.9083C195.937 62.0705 195.856 62.1516 195.694 62.1516Z" fill="white"/>
<path d="M158.388 67.0986C158.226 67.0986 158.064 67.0175 158.064 66.7742C157.983 66.4498 157.983 66.1254 157.902 65.8821C157.902 65.7199 157.983 65.4766 158.226 65.4766C158.388 65.4766 158.631 65.5577 158.631 65.801C158.631 66.1254 158.713 66.3687 158.794 66.6931C158.794 66.8553 158.631 67.0175 158.388 67.0986ZM158.145 64.8278C157.983 64.8278 157.82 64.6656 157.82 64.5034C157.82 64.0979 157.82 63.6924 157.902 63.2869C158.145 60.2862 159.605 57.6099 161.794 55.5824C161.957 55.4202 162.2 55.5013 162.281 55.5824C162.443 55.7446 162.362 55.9879 162.281 56.069C160.172 57.9343 158.875 60.4484 158.631 63.2869C158.631 63.6924 158.55 64.0168 158.55 64.4223C158.469 64.6656 158.307 64.8278 158.145 64.8278Z" fill="white"/>
<path fill-rule="evenodd" clip-rule="evenodd" d="M89.9398 109.595C89.9398 109.595 91.3996 115.353 90.8319 120.462C87.5879 149.496 76.7205 156.228 73.4765 180.152C72.0978 190.127 79.2346 204.077 83.4518 209.024C87.5879 213.971 99.023 210.808 106.079 194.669C113.134 178.53 104.943 137.656 111.918 116.651L89.9398 109.595Z" fill="#59B2FF"/>
<path fill-rule="evenodd" clip-rule="evenodd" d="M89.9398 109.595C89.9398 109.595 91.3997 115.353 90.832 120.462C90.7509 121.111 90.6698 121.76 90.5887 122.409C94.4814 125.247 100.645 127.275 107.295 119.489C108.431 118.192 109.079 116.975 109.323 115.921L89.9398 109.595Z" fill="#2C81FE"/>
<path fill-rule="evenodd" clip-rule="evenodd" d="M69.5838 88.0225C67.8807 89.8878 64.1501 94.1861 62.8525 95.5648C59.6085 99.3765 63.6635 101.972 68.2862 98.8088C68.124 99.5387 67.2319 103.594 66.8264 105.54C65.691 110.568 71.6113 110.082 73.1522 103.188L73.9632 99.6198L77.045 96.6191L83.6141 98.5655C84.344 108.216 91.4808 111.136 91.4808 111.136C91.4808 111.298 91.4808 111.46 91.4808 111.623C92.5351 125.491 118.244 126.139 114.675 101.891C112.405 86.4005 106.809 73.019 104.295 56.4746C102.591 45.1206 94.6437 51.3653 94.9681 58.0966C95.2925 64.4224 97.5633 81.4534 97.5633 81.4534C97.7255 82.5077 95.698 82.751 94.7248 81.8589C93.7516 80.8857 89.5344 75.7764 87.2636 73.4245C84.9928 71.0726 80.6945 73.4245 80.6945 73.4245L74.6931 76.7496C74.6931 76.7496 68.7728 80.1558 66.0965 81.6967C60.9872 84.6163 63.8257 88.8335 69.5838 88.0225Z" fill="#59B2FF"/>
<path d="M91.4807 111.542C91.2374 111.542 91.0752 111.379 91.1563 111.136C91.1563 111.055 91.4807 106.594 95.779 105.378C94.968 102.783 94.8058 100.188 95.3735 97.7546C96.0223 94.9972 97.6443 92.6453 99.7529 91.5099C101.294 90.6178 102.673 90.3745 103.646 90.8611C104.781 91.3477 105.106 92.5641 105.106 92.5641C105.268 98.971 110.134 104.486 110.215 104.567C110.377 104.729 110.296 104.972 110.215 105.054C110.053 105.216 109.809 105.135 109.728 105.054C109.485 104.81 104.619 99.2143 104.457 92.6453C104.457 92.6453 104.213 91.8343 103.402 91.5099C102.591 91.1855 101.537 91.4288 100.158 92.1586C98.2931 93.2129 96.7522 95.4027 96.1845 97.9979C95.2924 101.647 96.1845 105.702 98.6175 109.433C98.6986 109.595 98.6986 109.838 98.5364 109.92C98.3742 110.001 98.1309 110.001 98.0498 109.838C97.2388 108.622 96.6711 107.405 96.1845 106.189C92.3728 107.243 92.0484 111.136 92.0484 111.298C91.8862 111.46 91.724 111.542 91.4807 111.542ZM68.205 99.2144C68.1239 99.2144 68.0428 99.2143 67.9617 99.1332C67.7995 98.9711 67.7995 98.7277 67.9617 98.6466C67.9617 98.6466 69.5026 97.1868 70.9624 95.6459C72.4222 94.024 76.315 90.1312 76.4772 89.969L78.9102 87.3738C79.0724 87.2116 79.3157 87.2116 79.3968 87.3738C79.559 87.536 79.559 87.7793 79.3968 87.8604L77.3693 90.0501L85.9659 92.8886C86.7769 91.8343 87.7501 90.6989 89.1288 89.4013L82.4786 82.1834C81.0999 82.9133 74.6119 86.4817 73.1521 87.2927C71.449 88.1848 69.5837 88.347 69.5026 88.347C69.3404 88.347 69.0971 88.1848 69.0971 88.0226C69.0971 87.8604 69.2593 87.6171 69.4215 87.6171C69.4215 87.6171 71.2057 87.4549 72.7466 86.6439C74.3686 85.7518 82.3164 81.3724 82.3164 81.3724C82.4786 81.2913 82.6408 81.2913 82.7219 81.4535L89.5343 88.8336C91.4807 87.0494 94.0759 85.1841 97.401 83.2377C97.5632 83.1566 97.8065 83.2377 97.8876 83.3999C97.9687 83.5621 97.8876 83.8054 97.7254 83.8865C84.5872 91.5099 83.7762 98.5655 83.7762 98.6466C83.7762 98.8088 83.614 98.9711 83.3707 98.9711C83.2085 98.9711 83.0463 98.8089 83.0463 98.5656C83.0463 98.4034 83.2896 96.3759 85.3982 93.4563L76.7205 90.5367C75.9906 91.2666 72.6655 94.5917 71.3679 96.0514C69.9081 97.6734 68.3672 99.1332 68.2861 99.1332C68.4483 99.1332 68.3672 99.2144 68.205 99.2144ZM77.0449 97.0246C76.9638 97.0246 76.8827 97.0247 76.8016 96.9436C76.6394 96.7814 76.6394 96.538 76.8016 96.4569L78.0992 95.1594C78.2614 94.9972 78.5047 94.9972 78.5858 95.1594C78.748 95.3216 78.748 95.5648 78.5858 95.6459L77.2882 96.9436C77.2071 97.0247 77.126 97.0246 77.0449 97.0246Z" fill="#2C81FE"/>
<path fill-rule="evenodd" clip-rule="evenodd" d="M267.873 215.106C265.197 213.403 261.71 212.268 257.573 212.024C244.03 211.213 218.889 236.435 202.02 237.652L203.804 254.926C228.621 247.384 250.599 233.516 267.873 215.106Z" fill="#59B2FF"/>
<path fill-rule="evenodd" clip-rule="evenodd" d="M51.7418 169.528H193.423C194.964 169.528 196.424 170.744 196.748 172.285L212.644 252.007C197.154 257.846 180.447 261.09 163.092 261.333H69.9893C68.4484 261.333 66.9886 260.117 66.6642 258.576L49.471 172.285C49.2277 170.744 50.2009 169.528 51.7418 169.528Z" fill="#FF75CA"/>
<path fill-rule="evenodd" clip-rule="evenodd" d="M192.856 172.285L208.427 250.547L208.995 253.304C210.211 252.899 211.428 252.493 212.563 252.007L196.667 172.285C196.343 170.744 194.883 169.528 193.342 169.528H189.449C191.071 169.528 192.531 170.744 192.856 172.285Z" fill="#12006C"/>
<path fill-rule="evenodd" clip-rule="evenodd" d="M51.7418 169.528H64.4745L147.683 261.333H128.543L50.0387 174.718L49.5521 172.285C49.2277 170.744 50.2009 169.528 51.7418 169.528Z" fill="#E33BA3"/>
<path fill-rule="evenodd" clip-rule="evenodd" d="M77.6127 169.528H117.757L196.911 256.873C186.043 259.63 174.608 261.171 162.93 261.252H160.74L77.6127 169.528Z" fill="#E33BA3"/>
<path d="M60.7438 228.812C60.5816 228.812 60.4194 228.731 60.4194 228.488L49.2276 172.366C49.0654 171.555 49.2277 170.744 49.7143 170.096C50.2009 169.528 50.9308 169.204 51.7418 169.204H122.704C122.866 169.204 123.029 169.366 123.029 169.528C123.029 169.69 122.866 169.852 122.704 169.852H51.7418C51.093 169.852 50.6064 170.096 50.282 170.501C49.9576 170.907 49.7953 171.555 49.9575 172.204L61.1493 228.325C61.0682 228.569 60.9871 228.731 60.7438 228.812ZM188.314 113.082C188.233 113.082 188.233 113.082 188.314 113.082C173.473 111.055 158.226 97.9978 157.658 73.3434V72.7757C157.658 72.6135 157.82 72.3702 157.983 72.3702C158.226 72.3702 158.307 72.5324 158.388 72.6946V73.2623C158.956 97.5112 173.878 110.325 188.395 112.271C188.557 112.271 188.72 112.515 188.72 112.677C188.638 112.92 188.476 113.082 188.314 113.082ZM157.091 57.5289C157.009 57.5289 157.009 57.5289 156.928 57.5289C149.792 54.4471 147.359 46.4993 150.359 36.2807C155.631 18.3576 177.69 -3.94487 205.345 0.596726C212.725 1.81322 219.375 4.57062 224.404 8.46342C224.566 8.62562 224.566 8.78782 224.485 8.95002C224.322 9.11222 224.16 9.11222 223.998 9.03112C219.051 5.13832 212.563 2.46203 205.264 1.24553C178.014 -3.29607 156.28 18.7631 151.089 36.3618C148.17 46.1749 150.44 53.7983 157.253 56.7179C157.415 56.799 157.496 57.0423 157.415 57.2045C157.415 57.4478 157.253 57.5289 157.091 57.5289Z" fill="white"/>
<g opacity="0.25">
<path fill-rule="evenodd" clip-rule="evenodd" d="M6.73131 12.924H129.354C132.598 12.924 135.356 15.6003 135.356 18.9254V104.972C135.356 108.297 132.68 110.974 129.354 110.974H6.73131C3.40621 110.974 0.729912 108.297 0.729912 104.972V18.9254C0.729912 15.6814 3.40621 12.924 6.73131 12.924Z" fill="#B2FFD5"/>
</g>
<path d="M14.4358 111.623H6.73128C3.00069 111.623 -1.14441e-05 108.622 -1.14441e-05 104.891V18.9254C-1.14441e-05 15.1948 3.00069 12.1941 6.73128 12.1941H53.6071C54.0126 12.1941 54.337 12.5185 54.337 12.924C54.337 13.3295 54.0126 13.6539 53.6071 13.6539H6.73128C3.81169 13.6539 1.45979 16.0058 1.45979 18.9254V104.972C1.45979 107.892 3.81169 110.244 6.73128 110.244H14.4358C14.8413 110.244 15.1657 110.568 15.1657 110.974C15.1657 111.379 14.8413 111.623 14.4358 111.623Z" fill="#015929"/>
<path fill-rule="evenodd" clip-rule="evenodd" d="M96.8333 59.3132C98.6175 59.3132 100.158 57.8534 100.158 55.9881C100.158 54.2039 98.6986 52.663 96.8333 52.663C95.0491 52.663 93.5083 54.1228 93.5083 55.9881C93.5083 57.8534 95.0491 59.3132 96.8333 59.3132Z" fill="white"/>
<path d="M96.8333 68.5584C89.9398 68.5584 84.3439 62.9625 84.3439 56.069C84.3439 49.1755 89.9398 43.5796 96.8333 43.5796C103.727 43.5796 109.323 49.1755 109.323 56.069C109.323 62.8814 103.727 68.5584 96.8333 68.5584ZM96.8333 44.9583C90.7508 44.9583 85.8037 49.9054 85.8037 55.9879C85.8037 62.0704 90.7508 67.0175 96.8333 67.0175C102.916 67.0175 107.863 62.0704 107.863 55.9879C107.863 49.9054 102.916 44.9583 96.8333 44.9583Z" fill="#00D05E"/>
<path d="M93.7516 68.1529C93.6705 68.1529 93.5894 68.1529 93.5894 68.1529C86.9392 66.3687 82.9653 59.4752 84.7495 52.825C84.8306 52.4195 85.2361 52.1762 85.6416 52.3384C86.0471 52.4195 86.2904 52.825 86.1282 53.2305C84.5873 59.1508 88.0746 65.2333 93.9138 66.7742C94.3193 66.8553 94.5626 67.2608 94.4004 67.6663C94.4004 67.9096 94.076 68.1529 93.7516 68.1529ZM108.187 59.7996C108.106 59.7996 108.025 59.7996 108.025 59.7996C107.62 59.7185 107.376 59.313 107.539 58.9075C109.079 52.9872 105.592 46.9047 99.753 45.3638C99.3475 45.2827 99.1042 44.8772 99.2664 44.4717C99.3475 44.0662 99.753 43.8229 100.158 43.9851C106.809 45.7693 110.783 52.6628 108.998 59.313C108.836 59.5563 108.512 59.7996 108.187 59.7996Z" fill="#6F4BAB"/>
<path d="M96.8333 73.019C87.4257 73.019 79.8023 65.3956 79.8023 55.988C79.8023 46.5804 87.4257 38.957 96.8333 38.957C106.241 38.957 113.864 46.5804 113.864 55.988C113.864 65.3956 106.241 73.019 96.8333 73.019ZM96.8333 40.4979C88.2367 40.4979 81.2621 47.4725 81.2621 56.0691C81.2621 64.6657 88.2367 71.6403 96.8333 71.6403C105.43 71.6403 112.405 64.6657 112.405 56.0691C112.405 47.4725 105.43 40.4979 96.8333 40.4979Z" fill="#FFC82E"/>
<path d="M94.1571 72.7755H94.0759C93.5082 72.6944 93.0216 72.5322 92.4539 72.4511C92.0484 72.37 91.8051 71.9645 91.9673 71.559C92.0484 71.1535 92.4539 70.9102 92.8594 71.0724C93.346 71.2346 93.8326 71.3157 94.3192 71.3968C94.7247 71.4779 94.968 71.8023 94.8869 72.2078C94.8058 72.5322 94.4815 72.7755 94.1571 72.7755ZM108.755 67.8284C108.593 67.8284 108.431 67.7473 108.268 67.6662C107.944 67.4229 107.944 66.9363 108.268 66.6119C109.972 64.7466 111.269 62.4758 111.918 60.0428C111.999 59.6373 112.405 59.394 112.81 59.5562C113.216 59.6373 113.459 60.0428 113.297 60.4483C112.567 63.1246 111.188 65.6387 109.323 67.5851C109.161 67.7473 108.917 67.8284 108.755 67.8284ZM81.1 52.5006C81.0189 52.5006 80.9378 52.5006 80.9378 52.5006C80.5323 52.4194 80.289 52.0139 80.4512 51.6084C81.9109 46.2558 85.8038 41.9576 91.0753 40.0112C91.4808 39.849 91.8862 40.0923 91.9673 40.4167C92.1295 40.8222 91.8862 41.2277 91.5618 41.3088C86.7769 43.0119 83.2085 46.9858 81.8298 51.9329C81.7487 52.3384 81.4244 52.5006 81.1 52.5006ZM101.051 40.9844C100.969 40.9844 100.888 40.9844 100.888 40.9844C99.1041 40.4978 97.1577 40.3356 95.2924 40.4978C94.8869 40.4978 94.5625 40.2545 94.4814 39.849C94.4814 39.4435 94.7247 39.1191 95.1302 39.038C97.1577 38.7947 99.1852 39.038 101.213 39.5246C101.618 39.6057 101.862 40.0112 101.699 40.4167C101.618 40.8222 101.375 40.9844 101.051 40.9844Z" fill="#00D05E"/>
<path d="M129.273 111.623H14.4358C14.0303 111.623 13.7059 111.298 13.7059 110.893C13.7059 110.487 14.0303 110.163 14.4358 110.163H129.273C132.193 110.163 134.545 107.811 134.545 104.891V18.9254C134.545 16.0058 132.193 13.6539 129.273 13.6539H53.526C53.1205 13.6539 52.7961 13.3295 52.7961 12.924C52.7961 12.5185 53.1205 12.1941 53.526 12.1941H129.273C133.004 12.1941 136.005 15.1948 136.005 18.9254V104.972C136.005 108.622 133.004 111.623 129.273 111.623Z" fill="#015929"/>
</svg>
