<svg width="349" height="284" viewBox="0 0 349 284" fill="none" xmlns="http://www.w3.org/2000/svg">
<path fill-rule="evenodd" clip-rule="evenodd" d="M5.70083 124.133C6.58567 124.133 7.39007 124.294 8.11403 124.535C8.43579 124.133 8.91844 123.891 9.48152 123.891C9.72284 123.891 9.96416 123.972 10.2055 124.052C10.3664 122.443 11.6534 121.156 13.3426 121.156C14.0666 121.156 14.7101 121.398 15.2732 121.8C15.3536 121.639 15.5145 121.478 15.6754 121.398C15.3536 120.835 15.1928 120.272 15.1928 119.628C15.1928 118.582 15.595 117.697 16.2385 117.054C16.882 116.41 17.8473 116.008 18.8126 116.008C19.3756 115.686 20.0192 115.526 20.6627 115.526C21.0649 115.526 21.4671 115.606 21.8693 115.686C22.0302 115.284 22.3519 115.043 22.6737 114.802C22.5933 114.319 22.5128 113.836 22.5128 113.354C22.5128 111.504 23.2368 109.814 24.4434 108.608C25.65 107.401 27.3392 106.677 29.1893 106.677C29.7524 106.677 30.3155 106.758 30.8786 106.918C34.8201 106.999 38.0377 110.216 38.0377 114.158C38.0377 114.238 38.0377 114.238 38.0377 114.319C38.3595 114.238 38.7617 114.158 39.1639 114.158C39.8879 114.158 40.6118 114.319 41.2554 114.641C42.3011 113.193 43.9903 112.227 45.9209 112.227C49.1385 112.227 51.7126 114.802 51.7126 118.019C51.7126 118.663 51.6321 119.226 51.3908 119.789C51.4712 119.789 51.4712 119.789 51.5517 119.789C53.1605 119.789 54.4475 121.076 54.4475 122.685C54.4475 122.846 54.4475 123.087 54.3671 123.248C54.3671 123.248 54.3671 123.248 54.4475 123.248C55.3324 123.248 56.0563 123.972 56.1368 124.857C56.3781 124.776 56.6194 124.776 56.9412 124.776C57.9869 124.776 58.9522 125.098 59.6761 125.822C61.5263 127.592 59.5153 128.074 57.5847 128.074H55.0106H52.9996H12.0556H8.838H3.60939C1.59839 128.074 -1.3779 128.396 0.713544 126.305C1.92015 124.937 3.68983 124.133 5.70083 124.133ZM23.3172 114.56C23.3977 114.56 23.5585 114.56 23.639 114.56H23.7194C23.7194 114.399 23.7194 114.238 23.7194 114.158C23.7194 110.94 25.8109 108.286 28.6263 107.24C27.2588 107.401 25.9717 108.045 25.0065 109.01C23.8803 110.136 23.2368 111.664 23.2368 113.354C23.2368 113.756 23.2368 114.158 23.3172 114.56ZM16.158 121.156C16.3189 121.076 16.5602 121.076 16.7211 121.076C16.8016 121.076 16.9624 121.076 17.0429 121.076C16.8016 120.593 16.7211 120.03 16.7211 119.467C16.7211 118.341 17.2038 117.295 17.9277 116.571C17.4451 116.732 17.0429 116.973 16.6407 117.376C16.0776 117.939 15.7558 118.743 15.7558 119.628C15.7558 120.191 15.9167 120.674 16.158 121.156Z" fill="#D1EEFA"/>
<path fill-rule="evenodd" clip-rule="evenodd" d="M138.738 33.6375C139.623 33.6375 140.428 33.7984 141.152 34.0397C141.473 33.6375 141.956 33.3962 142.519 33.3962C142.76 33.3962 143.002 33.4766 143.243 33.5571C143.404 31.9483 144.691 30.6612 146.38 30.6612C147.104 30.6612 147.748 30.9025 148.311 31.3047C148.391 31.1439 148.552 30.983 148.713 30.9025C148.391 30.3395 148.23 29.7764 148.23 29.1329C148.23 28.0871 148.633 27.2023 149.276 26.5588C149.92 25.9153 150.885 25.5131 151.85 25.5131C152.413 25.1913 153.057 25.0304 153.7 25.0304C154.102 25.0304 154.505 25.1109 154.907 25.1913C155.068 24.7891 155.39 24.5478 155.711 24.3065C155.631 23.8238 155.55 23.3412 155.55 22.8585C155.55 21.0084 156.274 19.3192 157.481 18.1126C158.688 16.906 160.377 16.182 162.227 16.182C162.79 16.182 163.353 16.2624 163.916 16.4233C167.858 16.5038 171.075 19.7214 171.075 23.6629C171.075 23.7434 171.075 23.7434 171.075 23.8238C171.397 23.7434 171.799 23.6629 172.201 23.6629C172.925 23.6629 173.649 23.8238 174.293 24.1456C175.339 22.6977 177.028 21.7324 178.958 21.7324C182.176 21.7324 184.75 24.3065 184.75 27.5241C184.75 28.1676 184.67 28.7307 184.428 29.2937C184.509 29.2937 184.509 29.2937 184.589 29.2937C186.198 29.2937 187.485 30.5808 187.485 32.1896C187.485 32.3505 187.485 32.5918 187.405 32.7527C187.405 32.7527 187.405 32.7527 187.485 32.7527C188.37 32.7527 189.094 33.4766 189.174 34.3615C189.416 34.281 189.657 34.281 189.979 34.281C191.024 34.281 191.99 34.6028 192.633 35.3267C194.483 37.0964 192.472 37.5791 190.542 37.5791H187.968H185.957H144.852H141.634H136.406C134.395 37.5791 131.418 37.9008 133.51 35.8094C134.877 34.4419 136.727 33.6375 138.738 33.6375ZM156.355 24.1456C156.435 24.1456 156.596 24.1456 156.677 24.1456H156.757C156.757 23.9847 156.757 23.8238 156.757 23.7434C156.757 20.5258 158.848 17.8713 161.664 16.8255C160.296 16.9864 159.009 17.6299 158.044 18.5952C156.918 19.7214 156.274 21.2497 156.274 22.939C156.274 23.2607 156.274 23.7434 156.355 24.1456ZM149.196 30.6612C149.357 30.5808 149.598 30.5808 149.759 30.5808C149.839 30.5808 150 30.5808 150.08 30.5808C149.839 30.0981 149.759 29.5351 149.759 28.972C149.759 27.8458 150.241 26.8001 150.965 26.0761C150.483 26.237 150.08 26.4783 149.678 26.8805C149.115 27.4436 148.793 28.248 148.793 29.1329C148.793 29.6959 148.954 30.1786 149.196 30.6612Z" fill="#D1EEFA"/>
<path fill-rule="evenodd" clip-rule="evenodd" d="M293.907 106.838C294.792 106.838 295.597 106.999 296.321 107.24C296.642 106.838 297.125 106.597 297.688 106.597C297.929 106.597 298.171 106.677 298.412 106.758C298.573 105.149 299.86 103.862 301.549 103.862C302.273 103.862 302.917 104.103 303.48 104.505C303.56 104.344 303.721 104.183 303.882 104.103C303.56 103.54 303.399 102.977 303.399 102.333C303.399 101.288 303.801 100.403 304.445 99.7593C305.089 99.1158 306.054 98.7136 307.019 98.7136C307.582 98.3918 308.226 98.2309 308.869 98.2309C309.271 98.2309 309.674 98.3114 310.076 98.3918C310.237 97.9896 310.558 97.7483 310.88 97.5069C310.8 97.0243 310.719 96.5417 310.719 96.059C310.719 94.2089 311.443 92.5197 312.65 91.3131C313.857 90.1065 315.546 89.3825 317.396 89.3825C317.959 89.3825 318.522 89.4629 319.085 89.6238C323.027 89.7043 326.244 92.9219 326.244 96.8634C326.244 96.9439 326.244 96.9439 326.244 97.0243C326.566 96.9439 326.968 96.8634 327.37 96.8634C328.094 96.8634 328.818 97.0243 329.462 97.3461C330.508 95.8982 332.197 94.9329 334.127 94.9329C337.345 94.9329 339.919 97.5069 339.919 100.725C339.919 101.368 339.839 101.931 339.597 102.494C339.678 102.494 339.678 102.494 339.758 102.494C341.367 102.494 342.654 103.781 342.654 105.39C342.654 105.551 342.654 105.792 342.574 105.953C342.574 105.953 342.574 105.953 342.654 105.953C343.539 105.953 344.263 106.677 344.343 107.562C344.585 107.482 344.826 107.482 345.148 107.482C346.193 107.482 347.159 107.803 347.883 108.527C349.733 110.297 347.722 110.78 345.791 110.78H343.217H341.206H300.101H296.884H291.655C289.644 110.78 286.668 111.101 288.759 109.01C290.127 107.723 291.977 106.838 293.907 106.838ZM311.604 97.3461C311.685 97.3461 311.846 97.3461 311.926 97.3461H312.006C312.006 97.1852 312.006 97.0243 312.006 96.9439C312.006 93.7263 314.098 91.0718 316.913 90.026C315.546 90.1869 314.259 90.8304 313.293 91.7957C312.167 92.9219 311.524 94.4502 311.524 96.1395C311.443 96.5417 311.524 96.9439 311.604 97.3461ZM304.445 103.942C304.606 103.862 304.847 103.862 305.008 103.862C305.089 103.862 305.249 103.862 305.33 103.862C305.089 103.379 305.008 102.816 305.008 102.253C305.008 101.127 305.491 100.081 306.215 99.3571C305.732 99.518 305.33 99.7593 304.928 100.161C304.365 100.725 304.043 101.529 304.043 102.414C304.043 102.896 304.204 103.46 304.445 103.942Z" fill="#D1EEFA"/>
<path fill-rule="evenodd" clip-rule="evenodd" d="M214.363 95.9786C214.523 95.6568 213.317 93.0023 212.995 92.8414C212.673 92.6806 209.456 96.8634 209.295 97.1852C197.711 116.893 186.128 136.279 222.97 158.722C223.291 158.963 223.774 158.802 223.935 158.481C224.176 158.159 224.015 157.676 223.694 157.515C183.232 132.579 205.916 113.917 214.363 95.9786Z" fill="#FEE800"/>
<path fill-rule="evenodd" clip-rule="evenodd" d="M185.082 152.447C185.082 152.447 196.103 153.332 203.02 161.055C210.019 168.777 232.462 198.861 232.462 198.861C232.462 198.861 238.655 193.472 246.217 195.885C253.778 198.298 265.683 226.372 264.155 236.266C262.546 246.241 249.595 255.733 238.897 257.18C228.118 258.548 189.346 225.326 189.346 225.326L185.082 152.447Z" fill="#00D05E"/>
<path fill-rule="evenodd" clip-rule="evenodd" d="M151.378 125.581C151.378 125.581 152.021 128.718 152.585 131.533C153.148 134.268 153.067 142.714 153.067 142.714C153.469 144.967 153.952 150.597 157.25 150.517C162.881 150.356 153.791 169.983 146.23 172.155C137.542 174.569 119.202 164.514 109.147 158.561C107.86 157.837 109.147 154.298 108.101 153.815C108.101 153.815 112.928 151.965 113.41 147.541C113.893 143.116 112.123 126.868 112.123 126.868L151.378 125.581Z" fill="#59B2FF"/>
<path fill-rule="evenodd" clip-rule="evenodd" d="M135.129 154.298L135.531 156.389C135.531 156.389 133.359 156.228 132.796 157.837C132.233 159.365 130.303 165.801 130.303 165.801C130.303 165.801 119.121 164.916 119.041 163.709C118.961 162.503 120.167 160.089 122.741 156.228C125.315 152.367 128.372 151.402 128.613 151.402C128.855 151.482 135.129 154.298 135.129 154.298Z" fill="#2C81FE"/>
<path fill-rule="evenodd" clip-rule="evenodd" d="M151.378 125.581C151.378 125.581 152.021 128.718 152.585 131.533C153.148 134.268 153.067 142.714 153.067 142.714C153.228 143.68 153.469 145.288 153.872 146.736C150.332 149.873 146.391 153.091 144.299 154.298C141.645 155.746 138.427 156.469 135.129 156.469C131.911 156.469 128.613 155.826 125.959 154.298C123.304 152.769 117.513 147.782 113.41 144.082C113.249 137.727 112.123 126.787 112.123 126.787L151.378 125.581Z" fill="#2C81FE"/>
<path fill-rule="evenodd" clip-rule="evenodd" d="M108.021 153.654L76.4882 164.513C76.4882 164.513 102.47 199.907 81.8777 239.725L83.0843 244.873C107.86 264.34 139.071 276.003 173.016 276.003C184.278 276.003 195.298 274.716 205.836 272.303L205.514 250.263L205.353 241.334C211.306 215.03 204.147 196.368 185.082 152.447L157.17 150.436C155.963 166.605 130.464 168.535 108.021 153.654Z" fill="#00D05E"/>
<path fill-rule="evenodd" clip-rule="evenodd" d="M93.3001 224.039C93.7023 209.64 95.7133 177.545 76.4882 164.513C76.4882 164.513 61.1241 168.696 57.0217 183.98C52.9192 199.264 57.1825 221.143 56.6195 229.589C51.7126 303.916 102.229 286.621 105.527 266.592C108.825 246.562 98.0461 244.149 98.0461 244.149L93.3001 224.039Z" fill="#00D05E"/>
<path fill-rule="evenodd" clip-rule="evenodd" d="M163.283 94.6915C163.283 94.6915 165.214 91.313 166.983 91.0717C168.753 90.9108 171.729 94.3697 172.051 97.4265C172.453 100.483 171.247 111.423 164.811 108.688C158.296 105.953 163.283 94.6915 163.283 94.6915Z" fill="#59B2FF"/>
<path fill-rule="evenodd" clip-rule="evenodd" d="M162.318 98.7941C162.157 99.0354 162.157 99.4376 162.318 99.5985C162.479 99.7594 162.72 99.7594 162.881 99.5985C162.881 99.5985 166.259 108.447 167.305 106.758C168.27 105.068 169.316 103.379 169.397 100.966C169.477 98.5528 167.064 96.7831 167.627 96.0591C168.19 95.3352 169.075 96.0591 169.155 96.1395C169.879 96.7831 170.362 97.6679 170.362 97.6679C170.523 97.9092 170.764 97.9897 170.925 97.7484C171.086 97.5875 171.166 97.1853 171.005 96.944C171.005 96.944 169.316 93.6459 166.903 94.2894C164.731 94.933 162.318 98.7941 162.318 98.7941Z" fill="#2C81FE"/>
<path fill-rule="evenodd" clip-rule="evenodd" d="M89.8413 108.286C89.8413 108.286 85.8193 105.229 83.6474 105.953C81.4755 106.677 79.7863 112.228 80.9124 116.008C82.0386 119.789 88.9564 132.096 95.2308 125.581C101.425 118.984 89.8413 108.286 89.8413 108.286Z" fill="#59B2FF"/>
<path fill-rule="evenodd" clip-rule="evenodd" d="M93.2198 111.745C93.5415 111.986 93.7024 112.388 93.622 112.71C93.5415 113.032 93.2198 113.112 92.9784 112.951C92.9784 112.951 93.4611 125.098 91.4501 123.65C89.4391 122.202 87.3476 120.754 86.0606 117.939C84.7736 115.123 86.6237 111.825 85.578 111.262C84.5322 110.699 83.8887 112.067 83.8083 112.147C83.3256 113.273 83.2452 114.56 83.2452 114.56C83.2452 114.962 82.9234 115.123 82.6017 114.962C82.2799 114.802 82.0386 114.399 82.0386 114.078C82.0386 114.078 82.3604 109.332 85.4975 108.849C88.3934 108.447 93.2198 111.745 93.2198 111.745Z" fill="#2C81FE"/>
<path fill-rule="evenodd" clip-rule="evenodd" d="M113.491 37.5791C63.6982 48.7603 79.6254 88.5781 90.9674 121.076C108.584 171.592 171.327 158.561 167.386 105.229C164.811 70.9617 163.605 28.0067 113.491 37.5791Z" fill="#59B2FF"/>
<path fill-rule="evenodd" clip-rule="evenodd" d="M142.208 101.288C143.334 97.5069 145.023 95.1741 147.034 94.048C148.402 93.2436 149.85 93.0023 151.297 93.2436C152.745 93.4045 154.113 93.9675 155.32 94.8524C157.572 96.4612 159.261 98.9548 159.663 101.609C159.663 101.69 159.583 101.77 159.502 101.77C159.422 101.77 159.342 101.77 159.342 101.69C158.859 99.8397 157.491 98.2309 155.802 97.1047C154.515 96.2199 152.987 95.6568 151.458 95.5763C149.93 95.4959 148.321 95.8177 146.873 96.7829C145.184 97.9091 143.736 99.7592 142.69 102.736C142.449 103.459 142.288 104.183 142.208 104.907C142.127 105.631 142.127 106.355 142.208 106.999C142.208 107.079 142.127 107.16 142.127 107.16C142.047 107.16 141.966 107.16 141.966 107.079C141.725 106.194 141.645 105.229 141.645 104.264C141.725 103.218 141.886 102.253 142.208 101.288Z" fill="#2C81FE"/>
<path fill-rule="evenodd" clip-rule="evenodd" d="M113.088 100.564C115.582 100.805 118.317 102.333 121.132 105.712C121.856 106.597 122.419 107.562 122.902 108.527C123.385 109.493 123.707 110.538 123.867 111.504C123.867 111.584 123.867 111.664 123.787 111.664C123.707 111.664 123.626 111.664 123.626 111.584C123.465 110.86 123.143 110.136 122.741 109.412C122.339 108.688 121.856 108.045 121.293 107.401C118.961 104.827 116.628 103.54 114.456 103.218C112.606 102.896 110.836 103.218 109.308 104.023C107.779 104.827 106.492 106.034 105.608 107.482C104.401 109.332 103.757 111.584 104.079 113.675C104.079 113.756 104.079 113.836 103.999 113.836C103.918 113.836 103.838 113.836 103.838 113.756C103.033 110.86 103.677 107.562 105.286 104.988C106.171 103.54 107.297 102.333 108.664 101.529C109.79 100.805 111.399 100.403 113.088 100.564Z" fill="#2C81FE"/>
<path fill-rule="evenodd" clip-rule="evenodd" d="M96.5982 74.3402L100.942 77.0752C115.341 72.5705 143.817 83.6713 154.676 71.2835C161.353 63.7221 146.873 60.9872 145.667 60.9067C144.541 60.8263 96.5982 74.3402 96.5982 74.3402Z" fill="#2C81FE"/>
<path fill-rule="evenodd" clip-rule="evenodd" d="M167.144 101.609C166.822 96.9438 166.42 91.7957 165.938 87.0497C162.8 55.2759 155.883 33.0744 114.215 41.038C90.4043 46.347 83.4865 64.446 77.6948 76.4316C74.3967 83.1886 78.7405 97.1851 85.8192 106.114C87.2671 110.619 88.2324 113.273 89.7608 117.697C89.7608 117.697 93.6219 111.745 90.5652 102.253C90.5652 102.253 100.942 100.161 93.1393 84.1538C85.3366 68.0658 106.895 62.3546 118.156 60.0218C129.337 57.6891 153.711 47.7949 152.987 65.5722C152.263 83.4299 160.307 87.8541 160.307 87.8541C161.192 97.6678 167.144 101.609 167.144 101.609Z" fill="#12006C"/>
<path fill-rule="evenodd" clip-rule="evenodd" d="M132.716 107.562C132.716 107.642 132.796 107.723 132.877 107.803L133.198 108.125C134.888 109.895 140.358 115.526 140.599 116.25C140.679 116.813 139.151 118.824 138.829 119.226C138.025 120.191 135.531 119.869 134.566 119.708C130.624 119.226 137.623 122.283 138.99 121.559C140.036 120.915 140.679 120.191 141.323 119.226C141.886 118.341 142.53 116.893 142.369 115.847C142.208 114.802 136.577 108.849 134.646 106.919C132.796 104.988 132.475 103.54 132.475 102.655C132.555 102.012 132.314 101.127 131.831 102.494C131.348 103.54 131.027 105.471 132.716 107.562Z" fill="#2C81FE"/>
<path fill-rule="evenodd" clip-rule="evenodd" d="M138.588 90.7499C138.668 91.313 138.91 91.5543 138.99 91.6348C138.91 90.9108 139.312 90.2673 139.955 89.7846C142.61 88.015 146.552 87.5323 150.091 87.8541L148.241 89.7042C144.701 90.5086 142.047 92.1978 141.082 93.0022C140.76 93.2436 140.358 93.5653 139.955 93.6458C139.553 93.7262 139.071 93.5653 138.588 93.0022C138.427 92.8414 138.347 92.6001 138.266 92.4392C138.025 91.9565 138.025 91.5543 138.025 91.2326C138.025 90.9108 138.105 90.6695 138.186 90.589C138.427 90.4282 138.588 90.7499 138.588 90.7499ZM151.619 88.1758C153.148 88.4976 154.515 88.9802 155.561 89.6238L155.641 89.7042C155.641 89.7846 155.561 89.7846 155.561 89.7846C153.791 89.3824 152.021 89.302 150.332 89.4629L151.619 88.1758Z" fill="#12006C"/>
<path fill-rule="evenodd" clip-rule="evenodd" d="M118.719 86.9693C118.88 87.6128 118.8 88.015 118.719 88.1759C118.397 87.3715 117.593 86.8888 116.547 86.8084C109.79 86.4866 101.022 91.4739 97.8853 96.1394C97.8853 96.2199 97.8853 96.2199 97.8853 96.3003C97.8853 96.3808 97.9657 96.3808 98.0461 96.3003C100.781 94.048 103.838 92.6001 106.734 91.7957C111.399 90.5086 115.582 90.6695 117.11 90.9913C117.674 91.0717 118.237 91.1522 118.8 90.9913C119.363 90.8304 119.845 90.3478 120.006 89.4629C120.087 89.1412 120.087 88.8998 120.087 88.6585C120.087 88.015 119.845 87.5324 119.685 87.2106C119.443 86.8084 119.202 86.6475 119.041 86.5671C119.041 86.5671 119.041 86.5671 118.961 86.5671C118.639 86.5671 118.719 86.9693 118.719 86.9693Z" fill="#12006C"/>
<path fill-rule="evenodd" clip-rule="evenodd" d="M142.208 101.851C143.334 98.0699 145.023 95.7372 147.034 94.611C148.402 93.8066 149.85 93.5653 151.297 93.8066C152.745 93.9675 154.113 94.5306 155.32 95.4154C157.572 97.0242 159.261 99.5179 159.663 102.172C159.663 102.253 159.583 102.333 159.502 102.333C159.422 102.333 159.342 102.333 159.342 102.253C158.859 100.403 157.491 98.7939 155.802 97.6677C154.515 96.7829 152.987 96.2198 151.458 96.1394C149.93 96.0589 148.321 96.3807 146.873 97.346C145.184 98.4721 143.736 100.322 142.69 103.299C142.449 104.023 142.288 104.746 142.208 105.47C142.127 106.194 142.127 106.918 142.208 107.562C142.208 107.642 142.127 107.723 142.127 107.723C142.047 107.723 141.966 107.723 141.966 107.642C141.725 106.757 141.645 105.792 141.645 104.827C141.725 103.862 141.886 102.816 142.208 101.851Z" fill="#12006C"/>
<path fill-rule="evenodd" clip-rule="evenodd" d="M145.104 99.6788C145.264 99.1158 145.506 98.6331 145.747 98.1505C146.793 96.9439 148.241 96.059 149.93 95.7373C153.791 94.9329 157.572 97.1852 158.296 100.725C159.502 106.677 152.102 109.814 147.517 107.964C146.632 107.482 145.908 106.918 145.345 106.114C144.299 104.344 144.38 101.851 145.104 99.6788Z" fill="#12006C"/>
<path d="M160.468 105.068C159.824 104.988 159.422 104.746 159.342 104.746C159.181 104.666 159.1 104.425 159.261 104.264C159.342 104.103 159.583 104.022 159.744 104.183C159.744 104.183 160.065 104.344 160.468 104.425C160.629 104.425 160.789 104.585 160.789 104.827C160.87 104.907 160.709 105.068 160.468 105.068Z" fill="#BFE1FF"/>
<path d="M159.1 106.757C159.02 106.757 159.02 106.757 158.939 106.757C158.457 106.516 158.215 106.194 158.215 106.194C158.135 106.033 158.135 105.792 158.296 105.712C158.457 105.631 158.698 105.631 158.778 105.792C158.778 105.792 158.939 106.033 159.261 106.114C159.422 106.194 159.502 106.436 159.422 106.596C159.342 106.677 159.181 106.757 159.1 106.757Z" fill="#BFE1FF"/>
<path fill-rule="evenodd" clip-rule="evenodd" d="M151.78 97.9897C152.424 97.7483 153.148 98.1505 153.389 98.8745C153.63 99.518 153.228 100.242 152.585 100.483C151.941 100.725 151.217 100.322 150.976 99.5985C150.734 98.9549 151.137 98.231 151.78 97.9897Z" fill="white"/>
<path fill-rule="evenodd" clip-rule="evenodd" d="M113.249 101.449C115.743 101.69 118.478 103.218 121.293 106.597C122.017 107.482 122.581 108.447 123.063 109.412C123.546 110.377 123.868 111.423 124.028 112.388C124.028 112.469 124.028 112.549 123.948 112.549C123.868 112.549 123.787 112.549 123.787 112.469C123.626 111.745 123.304 111.021 122.902 110.297C122.5 109.573 122.017 108.93 121.454 108.286C119.122 105.712 116.789 104.505 114.617 104.103C112.767 103.781 110.997 104.103 109.469 104.908C107.94 105.712 106.653 106.919 105.769 108.366C104.562 110.217 103.918 112.469 104.24 114.56C104.24 114.641 104.24 114.721 104.16 114.721C104.079 114.721 103.999 114.721 103.999 114.641C103.194 111.745 103.838 108.447 105.447 105.873C106.332 104.425 107.458 103.218 108.825 102.414C110.032 101.69 111.56 101.288 113.249 101.449Z" fill="#12006C"/>
<path fill-rule="evenodd" clip-rule="evenodd" d="M119.443 105.149C119.041 104.666 118.558 104.264 118.156 103.862C116.547 103.138 114.697 102.816 112.767 103.218C108.503 104.103 105.607 108.045 106.492 111.986C107.86 118.502 116.789 118.421 120.569 114.56C121.213 113.756 121.696 112.791 122.017 111.745C122.339 109.493 121.213 106.999 119.443 105.149Z" fill="#12006C"/>
<path d="M103.999 118.019C103.838 118.019 103.757 117.939 103.677 117.858C103.596 117.697 103.677 117.456 103.838 117.376C104.32 117.134 104.481 116.813 104.481 116.813C104.562 116.652 104.803 116.571 104.964 116.732C105.125 116.813 105.205 117.054 105.044 117.215C105.044 117.295 104.723 117.698 104.079 118.019C104.16 117.939 104.079 118.019 103.999 118.019Z" fill="#BFE1FF"/>
<path d="M106.171 119.065C106.09 119.065 106.01 119.065 105.929 118.985C105.768 118.824 105.768 118.663 105.929 118.502C106.171 118.18 106.251 117.939 106.251 117.939C106.331 117.778 106.492 117.617 106.653 117.698C106.814 117.698 106.975 117.939 106.895 118.1C106.895 118.18 106.814 118.582 106.412 118.985C106.412 118.985 106.331 119.065 106.171 119.065Z" fill="#BFE1FF"/>
<path fill-rule="evenodd" clip-rule="evenodd" d="M115.984 105.953C116.708 105.712 117.513 106.114 117.754 106.919C117.995 107.643 117.593 108.447 116.869 108.688C116.145 108.93 115.341 108.527 115.099 107.723C114.858 106.999 115.26 106.195 115.984 105.953Z" fill="white"/>
<path fill-rule="evenodd" clip-rule="evenodd" d="M141.403 131.935C141.886 131.774 142.208 131.211 142.047 130.568C141.886 130.005 141.403 129.602 140.921 129.763C140.921 129.763 138.186 131.131 134.727 130.89C133.52 130.809 133.44 132.418 134.727 132.498C138.427 132.82 141.403 131.935 141.403 131.935Z" fill="#2C81FE"/>
<path fill-rule="evenodd" clip-rule="evenodd" d="M147.275 125.178C147.758 124.937 147.999 124.213 147.758 123.73C147.517 123.167 146.873 123.006 146.391 123.248C146.391 123.248 138.588 127.672 127.889 126.305C126.602 126.144 126.522 127.511 127.809 127.672C137.623 129.763 147.275 125.178 147.275 125.178Z" fill="#2C81FE"/>
<path fill-rule="evenodd" clip-rule="evenodd" d="M91.9327 81.0167C57.1826 81.3385 73.0293 30.983 84.6931 42.3251C87.8303 17.3886 127.568 9.74681 119.041 26.3979C119.041 26.3979 146.552 13.0449 151.619 33.6375C154.998 17.3886 181.704 64.0439 153.228 71.8466C129.418 78.4427 112.365 70.1573 91.9327 81.0167Z" fill="#12006C"/>
<path fill-rule="evenodd" clip-rule="evenodd" d="M89.7609 123.972C90.3239 123.891 90.8066 124.213 90.887 124.696C90.9675 125.259 90.6457 125.741 90.1631 125.822C89.6 125.902 89.1174 125.58 89.0369 125.098C88.876 124.615 89.1978 124.133 89.7609 123.972Z" fill="#12006C"/>
<path fill-rule="evenodd" clip-rule="evenodd" d="M75.2012 44.8186C77.5339 52.2995 85.4975 63.3198 111.962 47.7949L112.606 47.3927C113.088 47.0709 113.41 46.91 113.41 47.1513C113.41 47.2318 113.41 47.3122 113.33 47.3122C113.169 47.4731 112.928 47.634 112.445 47.9557L112.123 48.1971C110.112 49.5645 106.171 52.2191 101.666 54.6323C98.7701 56.1606 95.6329 57.689 92.5762 58.7347C88.876 59.9413 85.6584 60.3435 83.0039 60.2631C80.3493 60.1826 78.2579 59.6196 76.5686 58.976C76.2469 58.8956 76.0056 58.7347 75.7642 58.6543C73.6728 57.8499 72.3858 57.3672 70.8574 57.7694C71.34 52.7821 72.9488 48.0362 75.2012 44.8186ZM116.065 45.3012C116.065 45.3012 125.315 37.579 132.072 38.2225C132.153 38.2225 132.153 38.3029 132.153 38.3834C132.153 38.4638 132.072 38.4638 131.992 38.4638C131.992 38.4638 129.337 38.4638 128.131 40.3944C127.085 42.0032 125.798 42.1641 124.109 42.4054C123.707 42.4858 123.304 42.4858 122.822 42.5663C121.615 42.8076 120.408 43.1293 119.202 43.612C118.076 44.0946 117.03 44.6577 116.065 45.3817C115.984 45.4621 115.904 45.3817 115.904 45.3817C116.065 45.3817 116.065 45.3012 116.065 45.3012Z" fill="#2C81FE"/>
<path d="M231.979 254.687C231.898 254.687 231.738 254.606 231.657 254.526C231.577 254.365 222.487 241.093 218.787 232.566C215.328 224.763 216.052 217.684 220.798 211.571C224.981 206.262 232.22 198.62 232.301 198.54C232.462 198.379 232.703 198.379 232.783 198.54C232.944 198.701 232.944 198.942 232.783 199.022C232.703 199.103 225.463 206.745 221.361 211.973C216.695 217.926 216.052 224.522 219.43 232.244C223.13 240.69 232.14 253.882 232.301 254.043C232.381 254.204 232.381 254.446 232.22 254.526C232.059 254.687 232.059 254.687 231.979 254.687ZM205.916 239.162C205.675 239.082 205.514 238.921 205.595 238.76C209.053 221.385 206.399 206.905 198.838 186.635C198.838 186.635 198.757 186.554 198.757 186.474C197.309 182.613 195.7 178.51 193.931 174.166C193.85 174.005 193.931 173.764 194.092 173.684C194.252 173.603 194.494 173.684 194.574 173.845C196.103 177.706 197.551 181.326 198.918 184.784L198.998 183.497C198.998 183.337 199.159 183.176 199.401 183.176C199.561 183.176 199.722 183.337 199.722 183.578L199.481 186.393C207.042 206.745 209.697 221.304 206.238 238.84C206.238 239.001 206.077 239.162 205.916 239.162ZM93.3001 224.361C93.0588 224.361 92.8979 224.2 92.9784 223.959C92.9784 223.154 93.0588 222.35 93.0588 221.465C93.3806 211.33 93.8632 194.92 88.7955 181.486C88.3128 180.28 87.8302 178.993 87.2671 177.867C87.1867 177.706 87.2671 177.464 87.428 177.384C87.5889 177.304 87.8302 177.384 87.9106 177.545C88.3128 178.349 88.6346 179.154 89.0368 180.038L89.1172 179.636C89.1172 179.475 89.3586 179.315 89.5194 179.315C89.6803 179.315 89.8412 179.556 89.8412 179.717L89.5999 181.406C94.6676 194.92 94.185 211.41 93.8632 221.546C93.8632 222.43 93.7828 223.235 93.7828 224.039C93.7023 224.2 93.5414 224.361 93.3001 224.361ZM138.507 171.029C129.096 171.029 118.156 167.49 107.216 160.652C107.055 160.572 106.975 160.331 107.136 160.17C107.216 160.009 107.458 159.928 107.618 160.089C124.43 170.627 141.162 173.201 152.424 167.088C158.698 163.629 162.318 157.676 162.398 150.839C162.398 150.678 162.559 150.517 162.72 150.517C162.881 150.517 163.042 150.678 163.042 150.839C163.042 157.917 159.261 164.111 152.745 167.651C148.643 169.903 143.736 171.029 138.507 171.029Z" fill="#2C81FE"/>
<path fill-rule="evenodd" clip-rule="evenodd" d="M101.586 158.32C101.586 158.32 102.068 164.111 100.701 169.018C99.2528 173.925 90.7261 197.896 87.1867 207.871C83.6474 217.845 73.1902 233.933 70.1334 243.506C67.1571 253.078 71.9836 267.557 75.362 272.947C78.7405 278.336 90.6457 276.888 100.298 262.168C110.032 247.447 111.882 187.68 122.339 168.214L101.586 158.32Z" fill="#59B2FF"/>
<path fill-rule="evenodd" clip-rule="evenodd" d="M101.586 158.319C101.103 155.424 99.655 151.482 99.1723 149.31C98.5288 146.334 98.6092 142.312 97.644 137.485C96.7591 132.659 94.1046 130.407 93.3806 129.924C92.7371 129.361 93.8633 127.189 97.3222 128.074C100.781 128.959 102.953 133.061 103.355 134.59C103.355 134.59 110.756 126.465 113.249 124.535C115.743 122.524 118.558 123.972 119.282 124.615C120.006 125.259 122.983 128.557 122.983 128.557C122.983 128.557 125.878 128.637 126.763 130.005C127.648 131.372 128.533 134.268 128.533 134.268C128.533 134.268 133.681 135.314 133.52 141.91C133.52 141.91 135.612 143.116 135.773 145.047C135.933 146.977 133.52 152.126 132.877 153.252C132.233 154.458 129.337 155.424 129.337 155.424C129.337 155.424 127.407 160.894 126.522 163.548C125.718 166.203 122.259 168.374 122.259 168.374C106.653 173.925 101.586 158.319 101.586 158.319Z" fill="#59B2FF"/>
<path d="M129.418 155.665C129.337 155.665 129.337 155.665 129.257 155.665C129.096 155.585 129.016 155.424 129.016 155.182C129.016 155.182 129.176 154.78 129.418 154.056C129.9 152.608 130.222 151.241 130.383 150.195C130.383 150.195 130.383 150.195 130.383 150.115C130.544 149.069 130.544 148.265 130.383 147.862C130.303 147.701 130.383 147.46 130.624 147.38C130.785 147.299 131.027 147.38 131.107 147.621C131.268 148.104 131.348 148.667 131.268 149.391C131.831 148.988 132.475 148.425 132.716 148.345C132.877 148.264 133.118 148.345 133.198 148.506C133.279 148.667 133.198 148.908 133.038 148.988C132.877 149.069 131.992 149.712 131.187 150.356C130.946 151.643 130.544 153.01 130.222 154.217C129.981 154.941 129.82 155.343 129.82 155.343C129.659 155.585 129.579 155.665 129.418 155.665ZM123.143 143.116C123.063 143.116 122.983 143.116 122.983 143.036C122.822 142.955 122.741 142.714 122.822 142.553C122.902 142.473 123.948 140.703 126.683 140.703C128.855 140.703 132.475 141.266 133.44 141.427H133.601C133.762 141.427 133.922 141.668 133.922 141.829C133.922 141.99 133.681 142.151 133.52 142.151H133.359C132.635 142.071 128.855 141.427 126.683 141.427C124.43 141.427 123.465 142.875 123.465 142.955C123.385 143.036 123.224 143.116 123.143 143.116ZM109.549 139.336C109.469 139.336 109.469 139.336 109.388 139.336C109.227 139.255 109.147 139.094 109.147 138.853C109.227 138.692 110.514 135.233 111.238 134.268C111.801 133.624 114.536 131.935 117.513 130.165C118.237 129.763 118.88 129.361 119.202 129.12C120.569 128.235 122.661 127.994 122.741 127.994C122.902 127.994 123.143 128.154 123.143 128.315C123.143 128.476 122.983 128.718 122.822 128.718C122.822 128.718 120.811 128.959 119.524 129.763C119.202 130.005 118.558 130.326 117.754 130.809C115.663 132.016 112.123 134.107 111.641 134.751C111.077 135.394 110.032 138.129 109.63 139.094C109.871 139.255 109.71 139.336 109.549 139.336ZM117.754 138.531C117.674 138.531 117.674 138.531 117.593 138.531C117.432 138.451 117.352 138.209 117.432 138.049C117.995 136.762 118.397 136.038 120.972 135.314C123.465 134.59 128.372 133.785 128.613 133.705C128.774 133.705 129.016 133.785 129.016 134.027C129.016 134.187 128.935 134.429 128.694 134.429C128.613 134.429 123.626 135.314 121.132 135.957C118.8 136.601 118.558 137.164 118.076 138.209C117.995 138.451 117.915 138.531 117.754 138.531ZM101.505 138.129H101.425C101.264 138.049 101.103 137.888 101.183 137.646C101.666 136.118 103.114 134.348 103.114 134.268C103.275 134.107 103.436 134.107 103.597 134.187C103.757 134.348 103.757 134.509 103.677 134.67C103.677 134.67 102.229 136.44 101.827 137.807C101.827 138.049 101.666 138.129 101.505 138.129Z" fill="#2C81FE"/>
<path d="M129.418 155.665C129.257 155.665 129.096 155.585 129.096 155.424C129.016 155.263 129.096 155.022 129.337 154.941C130.142 154.7 132.233 153.815 132.635 152.93C133.198 151.804 135.612 146.736 135.531 144.886C135.37 143.116 133.52 142.071 133.44 142.071C133.359 141.99 133.279 141.91 133.279 141.749C133.44 135.555 128.774 134.509 128.533 134.509C128.372 134.509 128.292 134.348 128.292 134.268C128.292 134.268 127.407 131.453 126.602 130.085C125.959 129.12 123.867 128.798 123.063 128.798C122.983 128.798 122.902 128.718 122.822 128.718C122.822 128.718 119.845 125.5 119.121 124.776C118.397 124.133 115.823 122.926 113.571 124.696C111.077 126.626 103.838 134.67 103.757 134.751C103.677 134.831 103.516 134.912 103.436 134.831C103.275 134.831 103.194 134.67 103.194 134.59C102.712 132.981 100.54 129.2 97.4026 128.315C95.1503 127.752 94.0241 128.637 93.8633 129.12C93.7828 129.281 93.5415 129.361 93.3806 129.281C93.2197 129.2 93.1393 128.959 93.2197 128.798C93.5415 127.994 94.909 126.867 97.6439 127.511C101.022 128.396 103.033 132.016 103.757 133.705C105.366 132.016 111.077 125.741 113.249 123.972C115.823 121.88 118.8 123.167 119.765 124.052C120.408 124.696 122.822 127.27 123.385 127.913C124.028 127.913 126.441 128.155 127.326 129.522C128.131 130.729 128.855 132.981 129.096 133.705C130.061 134.027 134.244 135.555 134.164 141.427C134.727 141.749 136.255 142.956 136.416 144.725C136.577 147.058 133.52 153.091 133.44 153.171C132.796 154.458 130.061 155.424 129.74 155.504C129.498 155.665 129.418 155.665 129.418 155.665Z" fill="#2C81FE"/>
<path fill-rule="evenodd" clip-rule="evenodd" d="M263.833 141.266C263.833 141.266 231.818 141.508 231.818 146.656C231.899 170.305 233.105 185.106 228.922 214.145C226.509 231.118 232.783 238.438 236.162 243.827C239.54 249.217 247.906 251.952 257.639 237.231C267.373 222.511 252.893 188.565 249.354 161.215L247.826 148.506L263.833 141.266Z" fill="#59B2FF"/>
<path fill-rule="evenodd" clip-rule="evenodd" d="M276.382 141.106C276.382 141.106 279.439 135.233 279.76 134.429C280.082 133.705 282.656 132.418 283.219 134.027C283.782 135.636 276.382 141.106 276.382 141.106Z" fill="#2C81FE"/>
<path fill-rule="evenodd" clip-rule="evenodd" d="M243.321 139.336L243.24 137.003C243.24 137.003 246.941 136.762 248.63 136.279C250.319 135.796 255.387 132.981 256.272 132.82C257.157 132.659 258.283 132.498 258.926 133.222C259.57 133.946 259.892 137.325 254.583 139.416C249.273 141.508 243.321 139.336 243.321 139.336Z" fill="#2C81FE"/>
<path fill-rule="evenodd" clip-rule="evenodd" d="M254.583 139.497C254.583 139.497 260.776 139.175 264.477 139.899C268.096 140.542 269.544 141.427 269.544 141.427H274.532L280.404 137.566L286.035 129.2C286.035 129.2 286.759 127.833 288.528 127.752C290.298 127.672 290.7 128.235 290.62 129.12C290.62 129.12 291.344 130.005 291.424 130.809C291.505 131.694 287.161 138.531 287.161 138.531L285.954 143.438C285.954 143.438 281.369 148.747 280.404 149.873C279.358 151 255.387 151.563 254.502 151.723C253.617 151.884 250.48 151.723 249.032 156.148C237.047 156.309 234.07 153.895 231.898 146.656C232.381 133.061 245.332 136.842 254.583 139.497Z" fill="#59B2FF"/>
<path d="M272.36 145.61C272.279 145.61 272.199 145.61 272.118 145.53C272.038 145.449 266.729 140.462 256.594 140.864C256.433 140.864 256.191 140.703 256.191 140.542C256.191 140.381 256.352 140.14 256.513 140.14C266.246 139.738 271.636 144.082 272.44 144.886L277.025 144.484L280.967 141.99C281.289 141.186 283.058 137.164 284.989 136.681C285.632 136.52 286.195 136.52 286.678 136.842C287.402 137.325 287.483 138.37 287.483 138.451C287.483 138.612 287.322 138.853 287.161 138.853C287 138.853 286.759 138.692 286.759 138.531C286.759 138.531 286.678 137.807 286.195 137.486C285.954 137.325 285.552 137.325 285.15 137.405C283.702 137.807 282.093 141.186 281.61 142.473C281.61 142.553 281.53 142.634 281.45 142.634L277.347 145.288C277.267 145.288 277.267 145.369 277.186 145.369L272.36 145.61ZM238.816 143.438C238.736 143.438 238.655 143.438 238.575 143.358C238.414 143.197 238.414 142.956 238.575 142.875C243.562 137.486 254.261 139.094 254.663 139.175C254.824 139.175 254.985 139.416 254.985 139.577C254.985 139.738 254.743 139.899 254.583 139.899C254.502 139.899 243.804 138.21 239.138 143.358C238.977 143.358 238.897 143.438 238.816 143.438ZM269.383 142.634C269.223 142.634 269.062 142.473 269.062 142.312C269.062 142.151 269.223 141.91 269.383 141.91L274.773 141.749L279.76 139.175C280.323 138.531 286.276 131.614 287.483 129.924C288.609 128.315 290.057 128.396 290.7 128.718C290.861 128.798 290.941 129.039 290.861 129.2C290.781 129.361 290.539 129.442 290.378 129.361C290.298 129.361 289.091 128.798 288.046 130.326C286.759 132.177 280.484 139.416 280.243 139.738L280.162 139.818L275.014 142.473C274.934 142.473 274.934 142.473 274.853 142.473L269.383 142.634Z" fill="#2C81FE"/>
<path fill-rule="evenodd" clip-rule="evenodd" d="M249.354 161.135C249.676 156.309 248.389 152.367 256.433 151.482H252.411H243.482C242.677 151.724 243.08 152.126 243.401 152.448C245.975 155.343 247.906 156.63 249.354 161.135Z" fill="#2C81FE"/>
<path fill-rule="evenodd" clip-rule="evenodd" d="M214.202 105.149C214.202 105.149 218.706 109.734 222.97 109.975C222.97 109.975 228.6 106.999 235.679 102.011L234.312 100.724C231.175 102.655 229.163 103.701 229.163 103.701C224.9 103.459 220.396 98.8743 220.396 98.8743C220.396 98.8743 215.73 94.4501 215.489 90.1868C215.489 90.1868 216.534 88.1758 218.465 84.9582L217.097 83.6711C212.191 90.8303 209.295 96.4611 209.295 96.4611C209.536 100.724 214.202 105.149 214.202 105.149Z" fill="#12006C"/>
<path fill-rule="evenodd" clip-rule="evenodd" d="M239.379 42.5664L229.405 43.1295C229.405 43.1295 226.831 43.6121 225.383 45.5427C224.015 47.4732 213.719 67.0202 213.719 67.0202C213.719 67.0202 228.52 69.8356 229.485 67.4224C230.37 64.9287 239.379 42.5664 239.379 42.5664Z" fill="#E33BA3"/>
<path fill-rule="evenodd" clip-rule="evenodd" d="M276.221 78.9253L275.738 88.8999C275.738 88.8999 275.256 91.4739 273.325 92.9219C271.395 94.3698 252.009 104.827 252.009 104.827C252.009 104.827 249.032 90.026 251.445 89.0608C253.939 88.2563 276.221 78.9253 276.221 78.9253Z" fill="#E33BA3"/>
<path fill-rule="evenodd" clip-rule="evenodd" d="M216.213 102.816C216.213 102.816 225.383 112.227 234.07 112.63C234.07 112.63 292.631 81.5798 311.534 43.049C328.909 7.65532 308.397 -10.685 273.969 7.25312C236.081 27.0414 206.158 85.0387 206.158 85.0387C206.721 93.7262 216.213 102.816 216.213 102.816Z" fill="#59B2FF"/>
<path fill-rule="evenodd" clip-rule="evenodd" d="M216.615 103.138C218.384 104.827 226.428 112.228 234.07 112.63C234.07 112.63 292.631 81.5798 311.534 43.049C315.476 35.005 317.487 27.8459 317.808 21.8128C317.969 7.17275 298.583 10.873 294.481 35.729C291.102 56.563 283.702 85.441 254.824 92.8415C235.84 97.7483 225.463 96.1395 216.615 103.138Z" fill="#2C81FE"/>
<path fill-rule="evenodd" clip-rule="evenodd" d="M310.167 45.623C310.649 44.7382 311.052 43.9338 311.534 43.0489C314.43 37.0964 316.28 31.6265 317.165 26.7196C317.728 22.9389 317.809 19.0778 317.406 15.2167C315.878 7.01179 310.408 1.78318 302.123 0.576578C298.503 0.254818 294.964 0.415699 291.424 0.89834C286.196 1.86362 280.323 3.95506 274.049 7.25311C273.486 7.57487 272.923 7.81619 272.36 8.13795C271.555 18.8365 274.693 28.9719 282.013 36.2115C289.333 43.5316 299.549 46.5883 310.167 45.623Z" fill="#FF75CA"/>
<path fill-rule="evenodd" clip-rule="evenodd" d="M310.167 45.6231C310.649 44.7382 311.051 43.9338 311.534 43.049C314.43 37.0964 316.28 31.6265 317.165 26.7196C317.487 24.4673 317.648 22.2954 317.648 20.0431C316.2 7.57489 298.261 11.9991 294.4 35.8094C293.998 38.303 293.516 40.7966 293.033 43.4512C298.342 45.4622 304.214 46.1861 310.167 45.6231Z" fill="#E33BA3"/>
<path fill-rule="evenodd" clip-rule="evenodd" d="M216.213 102.816C216.213 102.816 225.383 112.228 234.07 112.63C234.07 112.63 245.573 106.516 260.053 96.3808L257.318 93.6459C250.882 97.5874 246.78 99.7593 246.78 99.7593C238.092 99.3571 228.922 89.9456 228.922 89.9456C228.922 89.9456 219.43 80.9363 218.867 72.2488C218.867 72.2488 221.039 68.0659 224.9 61.6307L222.165 58.8958C212.191 73.4554 206.238 85.0388 206.238 85.0388C206.721 93.7263 216.213 102.816 216.213 102.816Z" fill="#FF75CA"/>
<path fill-rule="evenodd" clip-rule="evenodd" d="M216.615 103.138C218.384 104.827 226.428 112.228 234.07 112.63C234.07 112.63 245.573 106.516 260.052 96.3808L257.317 93.6459C250.882 97.5874 246.78 99.7593 246.78 99.7593C243.401 99.5984 240.023 98.0701 237.047 96.3004C228.439 97.7483 222.246 98.7136 216.615 103.138Z" fill="#E33BA3"/>
<path fill-rule="evenodd" clip-rule="evenodd" d="M227.394 113.434L225.383 109.814C225.383 109.814 225.142 109.01 226.187 107.964C227.233 106.918 249.193 90.1065 249.193 90.1065C249.193 90.1065 251.606 88.4172 253.698 89.3825C255.789 90.4282 262.787 94.3698 262.787 94.3698C262.787 94.3698 264.235 95.3351 262.627 96.4613C261.018 97.5874 253.859 102.575 253.859 102.575L227.394 113.434Z" fill="#12006C"/>
<path fill-rule="evenodd" clip-rule="evenodd" d="M253.778 89.3825C255.87 90.4283 262.868 94.3698 262.868 94.3698C262.868 94.3698 264.316 95.3351 262.707 96.4613C261.098 97.5874 253.939 102.575 253.939 102.575L252.491 103.138L252.089 98.2309C252.089 98.2309 251.687 91.9566 251.767 90.2674C251.848 88.6586 253.778 89.3825 253.778 89.3825Z" fill="#2C81FE"/>
<path fill-rule="evenodd" clip-rule="evenodd" d="M219.752 131.533L228.279 111.182C228.279 111.182 251.284 97.8287 251.928 97.5874C252.572 97.2656 253.295 97.5874 253.295 97.5874L256.272 99.0353L248.791 119.467C248.791 119.467 248.067 122.041 245.975 123.167C243.884 124.294 221.602 134.349 221.602 134.349C219.028 135.314 219.028 133.303 219.752 131.533Z" fill="#FF75CA"/>
<path fill-rule="evenodd" clip-rule="evenodd" d="M252.491 97.4265C252.893 97.4265 253.295 97.5874 253.295 97.5874L256.272 99.0353L248.791 119.467C248.791 119.467 248.067 122.041 245.975 123.167C243.884 124.294 221.602 134.349 221.602 134.349C220.074 134.992 219.511 134.429 219.43 133.464C219.993 133.866 221.602 133.061 221.602 133.061C221.602 133.061 242.758 122.041 244.447 121.076C246.136 120.111 246.699 118.824 246.699 118.824C246.699 118.824 252.572 98.9549 252.732 98.3114C252.813 97.6678 252.491 97.4265 252.491 97.4265Z" fill="#E33BA3"/>
<path fill-rule="evenodd" clip-rule="evenodd" d="M205.514 91.7153L209.134 93.6459C209.134 93.6459 209.938 93.8872 210.984 92.8415C212.03 91.7958 228.52 69.5943 228.52 69.5943C228.52 69.5943 230.209 67.1811 229.164 65.0897C228.118 62.9982 224.096 56.0804 224.096 56.0804C224.096 56.0804 223.131 54.6324 222.004 56.2412C220.878 57.8501 215.971 65.0897 215.971 65.0897L205.514 91.7153Z" fill="#12006C"/>
<path fill-rule="evenodd" clip-rule="evenodd" d="M229.405 65.4919C227.876 62.6765 224.176 56.0804 224.176 56.0804C221.843 59.3784 219.672 62.596 217.741 65.6527C218.706 65.5723 219.028 66.618 221.2 66.3767C223.372 66.2158 227.394 66.2158 229.405 65.4919Z" fill="#2C81FE"/>
<path fill-rule="evenodd" clip-rule="evenodd" d="M187.415 99.5984L207.686 90.8304C207.686 90.8304 220.717 67.6637 221.039 67.0202C221.361 66.3766 221.039 65.6527 221.039 65.6527L219.591 62.6764L199.24 70.3986C199.24 70.3986 196.666 71.203 195.54 73.2945C194.494 75.3859 184.68 97.8287 184.68 97.8287C183.715 100.403 185.726 100.322 187.415 99.5984Z" fill="#E33BA3"/>
<path fill-rule="evenodd" clip-rule="evenodd" d="M221.119 66.4571C221.119 66.0549 220.959 65.6527 220.959 65.6527L219.511 62.6764L199.159 70.3986C199.159 70.3986 196.585 71.203 195.459 73.2945C194.413 75.3859 184.6 97.8287 184.6 97.8287C183.956 99.3571 184.519 99.9202 185.484 100.001C185.082 99.4375 185.887 97.8287 185.887 97.8287C185.887 97.8287 196.666 76.5925 197.55 74.8228C198.435 73.0532 199.803 72.5705 199.803 72.5705C199.803 72.5705 219.591 66.4571 220.235 66.2962C220.959 66.1353 221.119 66.4571 221.119 66.4571Z" fill="#FF75CA"/>
<path fill-rule="evenodd" clip-rule="evenodd" d="M272.842 44.0143C264.155 35.4072 252.089 33.4766 245.895 39.7509L243.804 41.9228L275.336 73.0531L277.508 70.8812C283.621 64.6874 281.53 52.6214 272.842 44.0143Z" fill="#BFE1FF"/>
<path fill-rule="evenodd" clip-rule="evenodd" d="M270.671 46.1861C261.983 37.579 249.917 35.6484 243.723 41.9227C237.529 48.1971 239.621 60.1826 248.308 68.7897C256.996 77.3968 269.062 79.3274 275.256 73.0531C281.45 66.8592 279.439 54.7932 270.671 46.1861Z" fill="white"/>
<path fill-rule="evenodd" clip-rule="evenodd" d="M266.97 49.9668C260.776 43.8533 252.089 42.4858 247.745 46.91C243.321 51.4147 244.769 60.0218 251.043 66.1352C257.237 72.2487 265.925 73.6162 270.268 69.192C274.693 64.6873 273.245 56.0802 266.97 49.9668Z" fill="#2C81FE"/>
<path fill-rule="evenodd" clip-rule="evenodd" d="M248.55 46.6688C246.458 51.4148 248.308 58.2522 253.537 63.4004C258.766 68.5485 265.603 70.3182 270.349 68.1463C270.751 67.9855 271.153 67.7441 271.555 67.5028C271.395 67.8246 271.153 68.1463 270.912 68.4681L270.832 68.5485C270.671 68.7094 270.51 68.9507 270.349 69.1116C270.188 69.2725 269.947 69.4334 269.786 69.5943C265.201 73.4554 257.076 71.927 251.124 66.0549C244.93 59.9415 243.401 51.3344 247.826 46.8297C247.987 46.6688 248.147 46.508 248.389 46.3471C248.63 46.1862 248.871 45.9449 249.113 45.784C248.871 46.1058 248.71 46.4275 248.55 46.6688Z" fill="#12006C"/>
<path fill-rule="evenodd" clip-rule="evenodd" d="M215.65 106.516C198.435 117.939 199.159 137.325 216.695 153.896C220.235 157.274 225.785 160.572 232.059 164.192V162.503C226.187 159.124 220.959 155.907 217.741 152.85C200.125 136.199 200.688 119.548 220.476 109.412C218.465 108.688 216.776 107.482 215.65 106.516ZM252.652 178.752C286.115 210.204 245.815 236.508 216.293 222.27C211.225 220.017 206.238 217.041 201.492 213.421C168.19 185.106 137.462 176.017 102.631 210.686C40.0488 270.453 22.1911 223.154 46.0818 201.677C45.8405 201.194 45.5992 200.792 45.3579 200.309C16.8821 224.2 32.2461 281.313 103.677 211.732C137.462 180.199 167.466 189.611 200.688 214.547C205.514 218.167 210.662 221.224 215.81 223.557C252.652 240.127 297.457 210.204 251.928 175.132C252.089 176.338 252.411 177.545 252.652 178.752Z" fill="#FEE800"/>
<path fill-rule="evenodd" clip-rule="evenodd" d="M110.434 168.857C112.606 169.259 114.617 169.742 116.386 170.386C118.88 171.19 120.972 172.236 122.419 173.281C124.109 174.488 124.913 175.856 124.672 177.303C124.672 177.464 124.591 177.545 124.591 177.706C124.028 179.395 121.615 180.602 118.237 181.004C118.076 181.004 117.915 181.004 117.754 181.084C117.915 180.36 118.156 179.556 118.397 178.832C120.73 178.51 122.259 177.867 122.58 177.062V176.982C122.661 176.499 122.178 175.856 121.132 175.051C119.926 174.166 117.995 173.281 115.743 172.477C114.054 171.914 112.123 171.431 110.032 171.029C106.01 170.305 102.229 170.225 99.3332 170.547C96.7591 170.868 95.0698 171.512 94.7481 172.397V172.477C94.6676 172.96 95.1503 173.603 96.196 174.408C96.8395 174.89 97.6439 175.292 98.5288 175.775C98.2874 176.419 98.0461 177.143 97.8048 177.786C96.6786 177.223 95.7134 176.66 94.909 176.097C93.2197 174.89 92.4153 173.523 92.6566 172.075C92.6566 171.914 92.7371 171.834 92.7371 171.673C93.3002 169.903 95.7134 168.857 99.0918 168.375C102.149 167.972 106.171 168.133 110.434 168.857Z" fill="#6F4BAB"/>
<path fill-rule="evenodd" clip-rule="evenodd" d="M110.353 176.338C112.525 177.143 114.456 178.027 116.145 178.912C118.558 180.199 120.489 181.567 121.776 182.934C123.224 184.463 123.867 185.991 123.385 187.358C123.304 187.439 123.304 187.6 123.224 187.68C122.339 189.37 119.685 190.093 116.145 189.933C115.984 189.933 115.823 189.933 115.663 189.933C115.823 189.209 115.984 188.485 116.145 187.841H116.306C119.041 188.002 120.891 187.6 121.374 186.795V186.715C121.535 186.232 121.132 185.428 120.248 184.463C119.121 183.337 117.352 182.049 115.18 180.843C113.571 179.958 111.641 179.154 109.63 178.43H109.549C105.527 176.982 101.666 176.177 98.6897 176.016C95.9547 175.856 94.1046 176.258 93.6219 177.062V177.143C93.4611 177.625 93.8633 178.43 94.7481 179.395C95.2307 179.958 95.9547 180.521 96.6787 181.084L95.9547 183.176C94.8285 182.452 93.9437 181.647 93.2197 180.923C91.7718 179.395 91.1283 177.867 91.6109 176.499C91.6914 176.419 91.6914 176.258 91.7718 176.097C92.6567 174.408 95.3112 173.684 98.8505 173.925C101.988 173.925 106.09 174.81 110.353 176.338Z" fill="#6F4BAB"/>
<path d="M229.003 214.467C228.922 214.467 228.922 214.467 229.003 214.467C228.761 214.467 228.6 214.226 228.681 214.065C232.059 190.335 231.898 176.499 231.657 158.963C231.577 155.102 231.577 151 231.577 146.656C231.738 142.795 232.864 140.06 235.036 138.451C238.575 135.716 244.447 136.601 248.469 137.486C248.63 137.566 248.791 137.727 248.71 137.888C248.63 138.049 248.469 138.21 248.308 138.129C244.367 137.244 238.816 136.36 235.438 138.934C233.507 140.462 232.462 143.036 232.301 146.575C232.301 150.919 232.381 154.941 232.381 158.883C232.622 176.499 232.783 190.335 229.405 214.145C229.324 214.386 229.163 214.467 229.003 214.467ZM132.957 153.493C132.877 153.493 132.877 153.493 132.796 153.413C132.635 153.332 132.555 153.091 132.635 152.93C133.198 151.804 135.612 146.736 135.531 144.886C135.37 143.197 133.52 142.071 133.44 142.071C133.359 141.99 133.279 141.91 133.279 141.749C133.44 135.555 128.613 134.509 128.533 134.509C128.372 134.509 128.292 134.429 128.292 134.268C128.292 134.268 127.407 131.453 126.602 130.085C125.959 129.12 123.867 128.798 123.063 128.798C122.983 128.798 122.902 128.718 122.822 128.718C122.822 128.718 119.845 125.5 119.121 124.776C118.397 124.133 115.823 122.926 113.571 124.696C111.077 126.626 103.838 134.67 103.757 134.751C103.677 134.831 103.516 134.912 103.436 134.831C103.275 134.831 103.194 134.67 103.194 134.59C102.712 132.981 100.54 129.2 97.4026 128.316C95.1503 127.752 94.0241 128.637 93.8633 129.12C93.7828 129.281 93.5415 129.361 93.3806 129.281C93.2197 129.2 93.1393 128.959 93.2197 128.798C93.5415 127.994 94.909 126.868 97.6439 127.511C101.022 128.396 103.033 132.016 103.757 133.705C105.366 132.016 111.077 125.741 113.249 123.972C115.823 121.88 118.8 123.167 119.765 124.052C120.408 124.696 122.822 127.27 123.385 127.913C124.028 127.913 126.441 128.155 127.326 129.522C128.131 130.729 128.855 132.981 129.096 133.705C130.061 134.027 134.244 135.555 134.164 141.427C134.727 141.749 136.255 142.956 136.416 144.725C136.577 147.058 133.52 153.091 133.44 153.172C133.198 153.413 133.038 153.493 132.957 153.493ZM145.345 149.793C145.184 149.793 145.104 149.713 145.023 149.552C144.943 149.391 145.023 149.15 145.184 149.069C160.387 141.83 168.512 125.5 167.064 105.229L166.822 101.609C166.581 98.231 166.34 94.772 166.018 91.3936C166.018 91.3131 166.018 91.2327 166.018 91.1522C165.294 82.7865 164.248 74.5816 162.318 66.9398C161.352 67.9855 160.307 68.9508 159.02 69.7552C158.859 69.8356 158.618 69.8356 158.537 69.6747C158.457 69.5138 158.457 69.2725 158.618 69.1921C169.075 62.5156 165.535 48.4385 164.168 44.3361C161.755 36.9356 157.17 30.5808 154.274 30.6613C152.906 30.7417 152.263 32.431 152.021 33.7984C151.941 33.9593 151.78 34.1202 151.619 34.0398C151.458 33.9593 151.297 33.7984 151.378 33.6376C152.021 30.6613 153.308 30.0178 154.354 29.9373C157.652 29.7764 162.398 36.1312 164.972 44.0948C167.868 53.1845 167.064 61.1481 162.961 66.3767C164.972 74.0185 166.018 82.3843 166.742 90.8305C166.822 90.8305 166.983 90.75 167.064 90.75C169.075 90.5891 172.131 94.2894 172.534 97.4266C172.855 100.242 171.971 108.125 168.029 109.332C168.19 127.994 159.985 142.875 145.586 149.793C145.425 149.793 145.345 149.793 145.345 149.793ZM166.662 91.5544C166.983 94.9329 167.225 98.3114 167.466 101.609L167.707 105.229C167.788 106.355 167.868 107.482 167.868 108.608C171.327 107.24 171.971 99.8398 171.649 97.507C171.327 94.6112 168.512 91.3131 166.983 91.474C166.903 91.474 166.822 91.474 166.662 91.5544ZM219.752 131.935C219.672 131.935 219.672 131.935 219.591 131.935C219.43 131.855 219.35 131.614 219.43 131.453L227.957 111.101C227.957 111.021 228.037 110.94 228.118 110.94C229.083 110.377 251.124 97.5874 251.767 97.2657C251.928 97.1852 252.169 97.2657 252.25 97.4266C252.33 97.5874 252.25 97.8288 252.089 97.9092C251.606 98.1505 236.564 106.838 228.6 111.504L220.074 131.774C220.074 131.855 219.913 131.935 219.752 131.935ZM184.68 98.231C184.6 98.231 184.6 98.231 184.519 98.231C184.358 98.1505 184.278 97.9092 184.358 97.7483C184.761 96.8635 194.172 75.2251 195.218 73.2141C196.344 71.0422 198.998 70.1574 199.079 70.1574L219.43 62.4351C219.591 62.3547 219.832 62.4351 219.913 62.6764C219.993 62.8373 219.913 63.0786 219.672 63.1591L199.32 70.8813C199.24 70.8813 196.827 71.6857 195.861 73.6163C194.816 75.7077 185.082 97.9092 185.002 98.1505C184.921 98.1505 184.841 98.231 184.68 98.231ZM228.118 50.9322C228.037 50.9322 227.957 50.9322 227.876 50.8517C227.716 50.7713 227.716 50.53 227.796 50.3691C243.321 29.4547 258.765 14.8146 273.808 7.01189C290.378 -1.67564 304.938 -2.31916 312.66 5.24221C320.302 12.7231 320.061 26.5588 311.856 43.2904C311.775 43.4513 311.534 43.5317 311.373 43.4513C311.212 43.3708 311.132 43.1295 311.212 42.9686C319.256 26.5588 319.578 12.9645 312.178 5.72485C304.697 -1.5952 290.459 -0.871237 274.21 7.65541C259.329 15.4581 243.884 29.9373 228.44 50.8517C228.359 50.8517 228.198 50.9322 228.118 50.9322Z" fill="white"/>
</svg>
