<svg width="330" height="264" viewBox="0 0 330 264" fill="none" xmlns="http://www.w3.org/2000/svg">
<path fill-rule="evenodd" clip-rule="evenodd" d="M273.171 42.0984C272.263 42.0984 271.438 42.2635 270.695 42.5111C270.365 42.0984 269.869 41.8507 269.292 41.8507C269.044 41.8507 268.796 41.9333 268.549 42.0158C268.384 40.3649 267.063 39.0442 265.329 39.0442C264.587 39.0442 263.926 39.2918 263.348 39.7045C263.266 39.5395 263.101 39.3744 262.936 39.2918C263.266 38.714 263.431 38.1362 263.431 37.4758C263.431 36.4027 263.018 35.4947 262.358 34.8343C261.697 34.174 260.707 33.7612 259.716 33.7612C259.138 33.4311 258.478 33.266 257.818 33.266C257.405 33.266 256.992 33.3485 256.58 33.4311C256.414 33.0183 256.084 32.7707 255.754 32.523C255.837 32.0278 255.919 31.5325 255.919 31.0372C255.919 29.1387 255.176 27.4052 253.938 26.167C252.7 24.9288 250.966 24.1859 249.068 24.1859C248.49 24.1859 247.912 24.2685 247.334 24.4336C243.29 24.5161 239.988 27.8179 239.988 31.8627C239.988 31.9452 239.988 31.9452 239.988 32.0278C239.658 31.9452 239.245 31.8627 238.832 31.8627C238.089 31.8627 237.346 32.0278 236.686 32.358C235.613 30.8721 233.879 29.8816 231.898 29.8816C228.597 29.8816 225.955 32.523 225.955 35.8249C225.955 36.4852 226.038 37.0631 226.285 37.6409C226.203 37.6409 226.203 37.6409 226.12 37.6409C224.469 37.6409 223.149 38.9616 223.149 40.6125C223.149 40.7776 223.149 41.0253 223.231 41.1904H223.149C222.241 41.1904 221.498 41.9333 221.415 42.8413C221.167 42.7587 220.92 42.7587 220.59 42.7587C219.516 42.7587 218.526 43.0889 217.783 43.8318C215.884 45.6478 217.948 46.1431 219.929 46.1431H222.571H224.634H266.815H270.117H275.483C277.546 46.1431 280.6 46.4733 278.454 44.3271C277.133 42.9238 275.235 42.0984 273.171 42.0984ZM255.094 32.358C255.011 32.358 254.846 32.358 254.764 32.358H254.681C254.681 32.1929 254.681 32.0278 254.681 31.9452C254.681 28.6434 252.535 25.9194 249.646 24.8463C251.049 25.0114 252.37 25.6718 253.36 26.6623C254.516 27.8179 255.176 29.3863 255.176 31.1198C255.176 31.5325 255.176 31.9452 255.094 32.358ZM262.44 39.0442C262.275 38.9616 262.028 38.9616 261.863 38.9616C261.78 38.9616 261.615 38.9616 261.532 38.9616C261.78 38.4664 261.863 37.8885 261.863 37.3107C261.863 36.1551 261.367 35.082 260.624 34.3391C261.12 34.5042 261.532 34.7518 261.945 35.1645C262.523 35.7423 262.853 36.5678 262.853 37.4758C262.853 38.0536 262.688 38.6314 262.44 39.0442Z" fill="#D1EEFA"/>
<path fill-rule="evenodd" clip-rule="evenodd" d="M64.0827 196.542C64.9908 196.542 65.8162 196.707 66.5591 196.954C66.8893 196.542 67.3846 196.294 67.9624 196.294C68.21 196.294 68.4577 196.377 68.7053 196.459C68.8704 194.808 70.1911 193.487 71.9246 193.487C72.6675 193.487 73.3279 193.735 73.9057 194.148C73.9882 193.983 74.1533 193.818 74.3184 193.735C73.9882 193.157 73.8232 192.579 73.8232 191.919C73.8232 190.846 74.2359 189.938 74.8963 189.278C75.5566 188.617 76.5472 188.204 77.5377 188.204C78.1155 187.874 78.7759 187.709 79.4363 187.709C79.849 187.709 80.2617 187.792 80.6745 187.874C80.8395 187.462 81.1697 187.214 81.4999 186.966C81.4174 186.471 81.3348 185.976 81.3348 185.48C81.3348 183.582 82.0777 181.848 83.3159 180.61C84.5541 179.372 86.2876 178.629 88.1861 178.629C88.7639 178.629 89.3418 178.712 89.9196 178.877C93.9643 178.959 97.2662 182.261 97.2662 186.306C97.2662 186.388 97.2662 186.388 97.2662 186.471C97.5964 186.388 98.0091 186.306 98.4218 186.306C99.1647 186.306 99.9076 186.471 100.568 186.801C101.641 185.315 103.375 184.325 105.356 184.325C108.657 184.325 111.299 186.966 111.299 190.268C111.299 190.928 111.216 191.506 110.969 192.084C111.051 192.084 111.051 192.084 111.134 192.084C112.785 192.084 114.106 193.405 114.106 195.056C114.106 195.221 114.106 195.469 114.023 195.634C114.023 195.634 114.023 195.634 114.106 195.634C115.014 195.634 115.756 196.377 115.839 197.285C116.087 197.202 116.334 197.202 116.664 197.202C117.738 197.202 118.728 197.532 119.388 198.275C121.287 200.091 119.223 200.586 117.242 200.586H114.601H112.537H70.3562H67.0544H61.6889C59.6253 200.586 56.5711 200.917 58.7173 198.77C60.1205 197.45 62.0191 196.542 64.0827 196.542ZM82.1603 186.801C82.2428 186.801 82.4079 186.801 82.4905 186.801H82.573C82.573 186.636 82.573 186.471 82.573 186.388C82.573 183.087 84.7192 180.363 87.6083 179.29C86.205 179.455 84.8843 180.115 83.8937 181.106C82.7381 182.261 82.0777 183.83 82.0777 185.563C81.9952 185.976 82.0777 186.388 82.1603 186.801ZM74.8137 193.487C74.9788 193.405 75.2264 193.405 75.3915 193.405C75.4741 193.405 75.6392 193.405 75.7217 193.405C75.4741 192.91 75.3915 192.332 75.3915 191.754C75.3915 190.598 75.8868 189.525 76.6297 188.782C76.1344 188.947 75.7217 189.195 75.309 189.608C74.7312 190.186 74.401 191.011 74.401 191.919C74.401 192.497 74.5661 193.075 74.8137 193.487Z" fill="#D1EEFA"/>
<path fill-rule="evenodd" clip-rule="evenodd" d="M56.0574 26.6743C55.1494 26.6743 54.3239 26.8393 53.581 27.087C53.2508 26.6743 52.7555 26.4266 52.1777 26.4266C51.9301 26.4266 51.6824 26.5092 51.4348 26.5917C51.2697 24.9408 49.949 23.6201 48.2155 23.6201C47.4726 23.6201 46.8122 23.8677 46.2344 24.2804C46.1519 24.1153 45.9868 23.9502 45.8217 23.8677C46.1519 23.2899 46.317 22.7121 46.317 22.0517C46.317 20.9786 45.9042 20.0706 45.2439 19.4102C44.5835 18.7499 43.5929 18.3371 42.6024 18.3371C42.0246 18.0069 41.3642 17.8419 40.7038 17.8419C40.2911 17.8419 39.8784 17.9244 39.4657 18.0069C39.3006 17.5942 38.9704 17.3466 38.6402 17.0989C38.7227 16.6037 38.8053 16.1084 38.8053 15.6131C38.8053 13.7146 38.0624 11.9811 36.8242 10.7429C35.586 9.50472 33.8525 8.76181 31.954 8.76181C31.3762 8.76181 30.7983 8.84436 30.2205 9.00945C26.1758 9.092 22.874 12.3938 22.874 16.4386C22.874 16.5211 22.874 16.5211 22.874 16.6037C22.5438 16.5211 22.131 16.4386 21.7183 16.4386C20.9754 16.4386 20.2325 16.6037 19.5721 16.9338C18.499 15.448 16.7656 14.4575 14.7845 14.4575C11.4826 14.4575 8.84116 17.0989 8.84116 20.4008C8.84116 21.0611 8.9237 21.639 9.17134 22.2168C9.08879 22.2168 9.0888 22.2168 9.00625 22.2168C7.35533 22.2168 6.0346 23.5375 6.0346 25.1884C6.0346 25.3535 6.0346 25.6012 6.11715 25.7662C6.11715 25.7662 6.11714 25.7662 6.0346 25.7662C5.12659 25.7662 4.38368 26.5092 4.30114 27.4172C4.0535 27.3346 3.80586 27.3346 3.47568 27.3346C2.40258 27.3346 1.41204 27.6648 0.751669 28.4077C-1.14688 30.2237 0.916759 30.719 2.89786 30.719H5.53932H7.60297H49.6188H52.9206H58.2861C60.3498 30.719 63.4039 31.0492 61.2578 28.903C60.0196 27.4997 58.121 26.6743 56.0574 26.6743ZM37.9798 16.9338C37.8973 16.9338 37.7322 16.9338 37.6497 16.9338H37.5671C37.5671 16.7688 37.5671 16.6037 37.5671 16.5211C37.5671 13.2193 35.4209 10.4953 32.5318 9.42218C33.9351 9.58727 35.2558 10.2476 36.2464 11.2382C37.402 12.3938 38.0624 13.9622 38.0624 15.6957C38.1449 16.0258 38.0624 16.5211 37.9798 16.9338ZM45.3264 23.6201C45.1613 23.5375 44.9137 23.5375 44.7486 23.5375C44.666 23.5375 44.5009 23.5375 44.4184 23.5375C44.666 23.0422 44.7486 22.4644 44.7486 21.8866C44.7486 20.731 44.2533 19.6579 43.5104 18.9149C44.0057 19.08 44.4184 19.3277 44.8311 19.7404C45.409 20.3182 45.7391 21.1437 45.7391 22.0517C45.7391 22.6295 45.5741 23.1248 45.3264 23.6201Z" fill="#D1EEFA"/>
<path fill-rule="evenodd" clip-rule="evenodd" d="M78.8584 92.1211C77.9504 90.0575 75.5566 89.1495 73.4929 90.0575C71.4293 90.9655 70.5213 93.3593 71.4293 95.423L82.1602 119.444C82.4079 120.104 81.9951 121.012 81.3348 121.342C80.6744 121.673 80.1791 121.095 80.1791 121.095L63.1747 94.7626C61.7714 92.6164 58.9648 92.0386 56.9012 93.4419C54.755 94.8451 54.1772 97.6517 55.5805 99.7154L73.658 127.698C73.9056 128.111 73.9056 128.771 73.4104 129.019C72.9151 129.349 72.5024 128.937 72.5024 128.937L56.1583 108.135C54.755 106.402 52.1961 106.071 50.4626 107.475C48.7292 108.878 48.399 111.437 49.8023 113.17L68.7878 137.356C68.7878 137.356 69.2831 138.264 68.7878 138.677C68.3751 139.172 67.7972 138.925 67.7972 138.925L50.2975 125.8C48.5641 124.562 46.1702 124.892 44.9321 126.543C43.6939 128.276 44.024 130.67 45.675 131.908L66.8067 147.757C75.5566 155.186 89.0115 178.629 103.044 158.653C115.261 155.764 116.747 141.484 116.912 132.734C117.077 123.984 119.223 115.564 121.122 113.335C128.551 104.668 119.058 103.017 114.188 108.465C111.134 111.932 109.318 117.628 108.74 122.003C107.832 128.937 100.238 129.927 95.1199 124.314C92.1483 121.012 89.6719 115.812 89.5068 115.482L78.8584 92.1211Z" fill="#59B2FF"/>
<path d="M102.879 159.066C102.797 159.066 95.0374 158.158 90.6625 149.243C86.0399 139.668 89.1767 130.587 94.0469 126.213C94.212 126.047 94.4596 126.13 94.5421 126.213C94.7072 126.378 94.6247 126.625 94.5421 126.708C89.837 130.918 86.8654 139.668 91.3229 148.83C95.5327 157.415 102.879 158.24 102.962 158.24C103.127 158.24 103.292 158.405 103.292 158.653C103.292 158.901 103.127 159.066 102.879 159.066ZM73.9057 154.113C73.7406 154.113 73.6581 154.031 73.5755 153.948C73.493 153.783 73.493 153.535 73.7406 153.453C90.1672 143.795 84.8017 125.882 84.7192 125.717C84.6366 125.552 84.8017 125.305 84.9668 125.222C85.1319 125.139 85.3796 125.305 85.4621 125.47C85.5446 125.635 91.0752 144.125 74.1533 154.113C74.0708 154.113 73.9882 154.113 73.9057 154.113ZM67.7147 145.033C67.4671 145.033 67.302 144.785 67.3846 144.62C70.934 122.746 88.3512 118.041 88.5163 117.958C88.6814 117.875 88.929 118.041 88.929 118.206C89.0116 118.371 88.8465 118.618 88.6814 118.618C88.5163 118.701 71.5944 123.241 68.1275 144.62C68.0449 144.95 67.8798 145.033 67.7147 145.033Z" fill="#2C81FE"/>
<path fill-rule="evenodd" clip-rule="evenodd" d="M175.932 232.284C170.154 218.994 149.848 183.417 141.263 169.219C136.31 161.047 133.916 158.901 123.02 161.129C118.15 163.193 112.62 164.349 108.74 167.155C101.559 172.438 95.7803 182.839 95.7803 182.839C95.7803 182.839 85.1319 195.386 92.561 208.346C99.8251 220.81 126.405 244.748 138.869 255.067C156.947 270.173 186.581 256.965 175.932 232.284Z" fill="#00D05E"/>
<path fill-rule="evenodd" clip-rule="evenodd" d="M124.754 160.634L117.903 150.646C117.903 150.646 116.004 148.748 113.28 150.398C110.556 152.049 94.212 163.028 89.2592 170.375C89.2592 170.375 87.7734 171.613 89.7545 174.337C91.7356 177.061 95.6152 182.839 95.6152 182.839C95.6152 182.839 110.969 166.495 124.754 160.634Z" fill="white"/>
<path fill-rule="evenodd" clip-rule="evenodd" d="M295.541 129.349C303.713 131.33 312.793 141.071 320.553 150.398C315.93 170.457 307.263 189.03 295.459 205.126C293.808 203.558 292.735 200.834 292.652 196.459C292.157 179.207 283.49 147.014 295.541 129.349Z" fill="#00D05E"/>
<path fill-rule="evenodd" clip-rule="evenodd" d="M174.116 152.545C174.116 152.545 164.954 160.056 160.166 172.851C156.947 181.518 147.537 205.622 147.537 205.622L176.51 250.031L182.784 236.659C182.784 236.659 184.6 233.77 187.159 235.008C189.717 236.246 191.534 237.154 191.534 237.154C191.534 237.154 195.578 220.975 195.413 219.902C195.248 218.746 174.116 152.545 174.116 152.545Z" fill="#00D05E"/>
<path fill-rule="evenodd" clip-rule="evenodd" d="M248.903 124.066L263.844 172.686L275.73 227.084C263.596 238.145 249.646 247.307 234.375 253.911L209.363 189.03L195.083 140.245C232.806 150.316 222.983 153.288 248.903 124.066Z" fill="#2C81FE"/>
<path fill-rule="evenodd" clip-rule="evenodd" d="M248.903 124.066L257.488 151.802C254.516 153.453 251.049 154.939 247.004 156.342C226.45 163.441 210.354 160.717 199.953 156.755L196.073 143.465C197.394 142.887 198.797 142.309 200.366 141.566C231.981 150.564 224.222 151.884 248.903 124.066Z" fill="#12006C"/>
<path d="M248.16 247.39C247.995 247.39 247.83 247.307 247.83 247.142C243.455 235.173 239.327 223.204 235.943 212.473C229.339 203.063 228.514 188.37 227.441 169.879C227.028 163.028 226.615 155.186 225.79 147.014C225.79 146.849 225.955 146.601 226.12 146.601C226.285 146.601 226.533 146.766 226.533 146.932C227.358 155.104 227.771 162.945 228.184 169.797C229.257 188.287 230.082 202.815 236.603 212.06C236.603 212.06 236.603 212.143 236.686 212.143C240.07 222.874 244.115 234.925 248.573 246.895C248.655 247.06 248.573 247.307 248.325 247.39C248.242 247.39 248.242 247.39 248.16 247.39Z" fill="#12006C"/>
<path fill-rule="evenodd" clip-rule="evenodd" d="M195.908 140.658C195.908 140.658 180.06 146.519 174.116 152.545C174.199 172.025 175.767 200.586 182.701 223.699C185.26 232.201 194.67 249.536 201.521 263.899C214.564 261.588 227.028 257.543 238.667 252.012C227.854 224.36 195.908 140.658 195.908 140.658Z" fill="#00D05E"/>
<path fill-rule="evenodd" clip-rule="evenodd" d="M202.43 157.745C199.953 151.224 197.972 146.106 196.899 143.217C192.359 145.198 189.552 146.436 189.552 146.436L186.498 149.408C186.498 149.325 192.111 154.278 202.43 157.745Z" fill="#019343"/>
<path fill-rule="evenodd" clip-rule="evenodd" d="M248.903 124.066C248.903 124.066 282.582 126.213 295.541 129.349C295.541 129.349 293.147 162.615 305.282 189.855C293.973 209.997 278.207 227.249 259.221 240.208C257.323 222.378 248.903 124.066 248.903 124.066Z" fill="#00D05E"/>
<path fill-rule="evenodd" clip-rule="evenodd" d="M248.903 124.066C248.903 124.066 260.212 124.809 272.181 125.965C274.327 134.137 271.768 146.189 251.544 154.608C250.058 137.191 248.903 124.066 248.903 124.066Z" fill="#019343"/>
<path d="M231.981 255.314C231.816 255.314 231.733 255.232 231.651 255.067C218.774 226.671 196.404 178.794 187.406 159.479C184.435 153.205 182.619 149.325 182.619 149.325C182.536 149.16 182.619 148.913 182.784 148.83C182.949 148.748 183.196 148.83 183.279 148.995C183.279 148.995 185.095 152.792 188.067 159.148C197.064 178.464 219.517 226.341 232.394 254.736C232.476 254.902 232.394 255.149 232.229 255.232C232.063 255.232 232.064 255.314 231.981 255.314ZM187.159 235.338C186.993 235.338 186.911 235.256 186.828 235.091C184.352 229.725 182.866 226.093 182.288 223.699C179.977 214.041 178.079 203.145 176.593 191.919L175.107 190.186C174.942 190.02 175.024 189.773 175.107 189.69C175.272 189.525 175.52 189.608 175.602 189.69L176.345 190.598C176.097 188.947 175.932 187.296 175.767 185.646C175.767 185.48 175.85 185.233 176.097 185.233C176.263 185.233 176.51 185.315 176.51 185.563C176.758 187.627 177.005 189.69 177.253 191.754C178.739 203.063 180.72 213.959 182.949 223.617C183.527 225.928 184.93 229.642 187.406 234.843C187.489 235.008 187.406 235.256 187.241 235.338C187.324 235.338 187.241 235.338 187.159 235.338ZM270.035 232.449C269.787 232.449 269.622 232.284 269.704 232.036C270.612 210.987 274.492 130.092 274.575 129.267C274.575 129.102 274.74 128.854 274.987 128.937C275.152 128.937 275.318 129.102 275.318 129.349C275.318 130.175 271.355 211.07 270.447 232.119C270.365 232.284 270.2 232.449 270.035 232.449ZM167.925 216.6C167.76 216.6 167.678 216.518 167.595 216.435C162.642 207.107 157.029 197.119 153.15 190.351C153.067 190.186 153.15 189.938 153.315 189.855C153.48 189.773 153.728 189.855 153.81 190.021C157.69 196.789 163.303 206.777 168.256 216.105C168.338 216.27 168.256 216.518 168.09 216.6C168.008 216.6 167.925 216.6 167.925 216.6ZM305.282 190.186C305.117 190.186 305.034 190.103 304.951 189.938C301.732 182.756 299.256 174.502 297.605 165.339L296.449 164.349C296.284 164.184 296.284 164.019 296.449 163.853C296.614 163.688 296.779 163.688 296.945 163.853L297.44 164.266C297.275 163.358 297.11 162.368 296.945 161.46C296.945 161.295 297.027 161.047 297.275 161.047C297.44 161.047 297.687 161.129 297.687 161.377C297.853 162.698 298.1 163.936 298.348 165.174C299.999 174.254 302.475 182.509 305.694 189.69C305.777 189.855 305.694 190.103 305.529 190.186C305.447 190.186 305.364 190.186 305.282 190.186Z" fill="#019343"/>
<path fill-rule="evenodd" clip-rule="evenodd" d="M185.838 143.465C165.779 139.998 150.426 127.946 148.61 99.6328C113.115 18.7379 211.262 -20.8015 241.721 62.157C260.047 83.8666 264.999 93.5244 252.948 109.951C259.139 113.253 266.898 123.076 262.853 128.524C242.464 154.939 214.151 154.608 194.753 151.884C191.368 151.389 179.152 148.417 185.838 143.465Z" fill="#00D05E"/>
<path fill-rule="evenodd" clip-rule="evenodd" d="M170.402 117.628C195.661 156.177 243.125 138.017 236.108 92.4513C231.321 68.1003 205.401 30.9547 178.574 40.6125C152.159 51.3435 157.69 96.2484 170.402 117.628Z" fill="#019343"/>
<path fill-rule="evenodd" clip-rule="evenodd" d="M167.265 114.491C192.689 152.957 241.474 134.302 234.705 88.6542C230 64.2206 203.833 27.2401 176.345 37.1456C149.187 48.1242 154.47 93.1117 167.265 114.491Z" fill="#59B2FF"/>
<path fill-rule="evenodd" clip-rule="evenodd" d="M222.488 60.5886C221.58 59.1853 220.59 57.8646 219.599 56.5439C208.455 43.4191 193.267 34.6692 177.501 40.3649C161.982 46.6384 156.534 63.3126 157.029 80.5647C157.194 82.2156 157.36 83.8665 157.607 85.5175C158.02 69.0083 164.211 53.242 180.06 46.886C195.991 41.0253 211.179 48.6195 222.488 60.5886Z" fill="#2C81FE"/>
<path fill-rule="evenodd" clip-rule="evenodd" d="M196.486 89.975C196.486 90.0575 196.569 90.14 196.569 90.2226V90.7179C196.651 93.1942 196.816 101.036 197.229 101.696C197.559 102.109 200.036 102.522 200.614 102.522C201.852 102.604 203.42 100.541 203.998 99.8805C206.392 96.7437 203.75 103.925 202.182 104.338C201.026 104.668 200.036 104.586 198.88 104.338C197.89 104.173 196.321 103.595 195.743 102.77C195.166 101.944 194.835 93.6895 194.753 90.9655C194.67 88.324 193.927 87.0033 193.184 86.4255C192.689 86.0127 192.276 85.2698 193.515 85.7651C194.505 86.2604 196.156 87.3335 196.486 89.975Z" fill="#2C81FE"/>
<path fill-rule="evenodd" clip-rule="evenodd" d="M178.739 43.5842C195 37.7234 210.436 46.4733 221.745 59.5981C210.519 43.4191 193.68 30.8721 176.262 37.1456C159.093 44.162 154.883 64.7159 157.359 84.2793C157.112 66.9447 162.725 50.1053 178.739 43.5842Z" fill="white"/>
<path d="M200.614 144.62C196.073 144.62 193.267 144.29 193.102 144.29C193.019 144.29 193.019 144.29 193.019 144.29C188.644 144.373 185.92 143.96 185.838 143.877C185.673 143.877 185.508 143.63 185.508 143.465C185.508 143.3 185.755 143.134 185.92 143.134C186.333 143.217 223.891 149.325 252.617 109.786C252.7 109.621 252.948 109.621 253.113 109.703C253.278 109.786 253.278 110.034 253.195 110.199C234.705 135.705 212.418 142.392 198.715 143.877C211.014 144.125 240.896 142.144 261.037 119.279C261.202 119.114 261.367 119.114 261.532 119.279C261.697 119.444 261.697 119.609 261.532 119.774C242.217 141.731 213.903 144.62 200.614 144.62ZM230.99 122.663C230.908 122.663 230.825 122.663 230.743 122.581C230.578 122.498 230.578 122.25 230.66 122.085C250.141 96.0833 242.299 65.6239 241.391 62.2395C241.309 62.0745 241.474 61.8268 241.639 61.7443C241.804 61.6617 242.052 61.8268 242.052 61.9919C243.042 65.3763 250.884 96.1659 231.238 122.415C231.238 122.581 231.073 122.663 230.99 122.663ZM161.074 115.399C160.992 115.399 160.909 115.399 160.826 115.317C152.324 109.126 148.279 99.8804 148.279 99.7979C148.197 99.6328 148.279 99.3852 148.445 99.3026C148.61 99.2201 148.857 99.3026 148.94 99.4677C148.94 99.5503 152.902 108.63 161.239 114.656C161.404 114.739 161.404 114.986 161.322 115.151C161.322 115.317 161.157 115.399 161.074 115.399Z" fill="#019343"/>
<path fill-rule="evenodd" clip-rule="evenodd" d="M157.69 112.18C151.499 106.319 148.61 99.6328 148.61 99.6328C148.857 103.017 149.27 106.154 149.848 109.126C151.499 108.465 154.058 108.795 157.69 112.18Z" fill="#019343"/>
<path fill-rule="evenodd" clip-rule="evenodd" d="M241.804 62.157C242.712 65.3763 244.033 71.7323 244.198 79.7393C244.61 73.5483 246.014 70.4116 247.334 68.8432C245.601 66.7796 243.785 64.5508 241.804 62.157Z" fill="#019343"/>
<path fill-rule="evenodd" clip-rule="evenodd" d="M225.873 134.715C212.665 142.144 200.531 143.712 193.102 143.877C193.102 143.877 208.373 145.858 226.203 140.823C226.285 140.823 213.821 141.896 225.873 134.715Z" fill="#019343"/>
<path fill-rule="evenodd" clip-rule="evenodd" d="M201.026 67.8527C201.191 68.513 201.439 68.7607 201.604 68.9258C201.439 68.0178 201.852 67.2748 202.677 66.6145C207.878 62.8999 217.453 62.7348 222.323 65.2112C222.406 65.2112 222.406 65.2937 222.406 65.3763C222.406 65.4588 222.323 65.4588 222.323 65.4588C219.021 64.881 215.802 65.2112 213.078 66.0367C208.703 67.2748 205.401 69.5861 204.328 70.5767C203.915 70.9069 203.503 71.3196 202.925 71.4847C202.347 71.6498 201.769 71.4847 201.191 70.8243C201.026 70.5767 200.861 70.329 200.696 70.164C200.366 69.5861 200.283 69.0909 200.283 68.6781C200.283 68.2654 200.366 67.9352 200.448 67.8527C200.861 67.5225 201.026 67.8527 201.026 67.8527Z" fill="#12006C"/>
<path d="M228.762 82.7935C228.101 82.7935 227.771 82.5458 227.689 82.5458C227.523 82.4633 227.441 82.2156 227.523 82.0505C227.606 81.8855 227.854 81.8029 228.019 81.8855C228.019 81.8855 228.349 82.0505 228.844 82.0505C229.092 82.0505 229.257 82.2156 229.257 82.3807C229.257 82.5458 229.092 82.7935 228.927 82.7935C228.844 82.7935 228.844 82.7935 228.762 82.7935Z" fill="#2C81FE"/>
<path d="M227.606 84.7746H227.523C226.946 84.6095 226.698 84.2793 226.698 84.1968C226.533 84.0317 226.615 83.784 226.781 83.7015C226.946 83.5364 227.193 83.6189 227.276 83.7015C227.276 83.7015 227.441 83.9491 227.854 84.0317C228.019 84.1142 228.184 84.2793 228.101 84.5269C227.936 84.692 227.771 84.7746 227.606 84.7746Z" fill="#2C81FE"/>
<path fill-rule="evenodd" clip-rule="evenodd" d="M208.29 86.1778L207.052 88.8193C202.677 77.5931 223.809 66.2017 225.625 78.8312C225.625 78.8312 225.13 81.3902 223.396 81.8029C221.663 82.2156 209.528 84.692 209.528 84.692L208.29 86.1778Z" fill="#2C81FE"/>
<path fill-rule="evenodd" clip-rule="evenodd" d="M217.288 84.692C212.995 84.8571 208.62 85.6826 206.804 89.1495C206.804 89.232 206.722 89.232 206.722 89.232C206.639 89.232 206.639 89.1495 206.639 89.0669C206.474 83.2062 213.326 80.6473 218.774 80.4822C220.094 80.3996 221.333 80.4822 222.406 80.4822H222.983C225.955 80.5647 226.038 79.8218 226.038 79.8218C226.038 79.7393 226.12 79.7393 226.12 79.7393C226.203 79.7393 226.203 79.7393 226.285 79.8218C226.285 79.9869 226.285 80.7298 225.625 81.7204C225.212 82.2982 224.634 82.876 223.644 83.5364C222.075 84.4444 219.764 84.5269 217.288 84.692Z" fill="#12006C"/>
<path fill-rule="evenodd" clip-rule="evenodd" d="M223.149 81.6378C222.818 81.8029 222.488 81.7204 222.323 81.3902C222.158 81.06 222.241 80.6473 222.488 80.4822C222.488 80.4822 223.231 79.9869 222.983 79.1614C222.901 78.8313 223.149 78.5011 223.479 78.4185C223.809 78.336 224.139 78.5836 224.222 78.9138C224.634 80.6473 223.149 81.6378 223.149 81.6378Z" fill="#12006C"/>
<path fill-rule="evenodd" clip-rule="evenodd" d="M224.469 81.2251C224.139 81.3076 223.809 81.3902 223.726 81.06C223.644 80.7298 223.809 80.3171 224.139 80.2345C224.139 80.2345 224.965 79.9869 225.047 79.1614C225.047 78.8313 225.377 78.5011 225.707 78.5836C226.038 78.5836 226.285 78.9138 226.285 79.3265C226.203 80.3996 225.625 80.9775 225.13 81.3076C224.717 81.3902 224.469 81.2251 224.469 81.2251Z" fill="#12006C"/>
<path fill-rule="evenodd" clip-rule="evenodd" d="M179.895 76.1898C180.142 76.7676 180.142 77.1803 180.142 77.3454C179.647 76.6025 178.821 76.2723 177.831 76.2723C171.64 76.6851 164.624 82.5458 162.642 87.4986C162.642 87.5811 162.642 87.5811 162.642 87.6637C162.725 87.7462 162.725 87.7462 162.808 87.6637C164.871 85.1047 167.348 83.4538 169.824 82.2982C173.786 80.4822 177.666 80.2345 179.152 80.3171C179.647 80.3171 180.225 80.3171 180.72 80.152C181.215 79.9044 181.545 79.4091 181.545 78.5836C181.545 78.2534 181.463 78.0058 181.463 77.7582C181.298 77.1803 181.05 76.6851 180.803 76.3549C180.555 76.0247 180.225 75.8596 180.142 75.8596C180.142 75.8596 180.142 75.8596 180.06 75.8596C179.812 75.8596 179.895 76.1898 179.895 76.1898Z" fill="#12006C"/>
<path d="M166.109 103.512C166.027 103.512 165.862 103.43 165.779 103.347C165.697 103.182 165.697 102.935 165.862 102.852C166.274 102.604 166.44 102.274 166.44 102.274C166.522 102.109 166.77 102.027 166.935 102.109C167.1 102.192 167.182 102.439 167.1 102.604C167.1 102.687 166.852 103.1 166.274 103.512C166.274 103.43 166.192 103.512 166.109 103.512Z" fill="#2C81FE"/>
<path d="M168.256 104.42C168.173 104.42 168.09 104.42 168.008 104.338C167.843 104.255 167.843 104.008 167.925 103.843C168.173 103.512 168.173 103.265 168.173 103.265C168.173 103.1 168.338 102.935 168.586 102.935C168.751 102.935 168.916 103.1 168.916 103.347C168.916 103.43 168.833 103.843 168.503 104.255C168.503 104.338 168.338 104.42 168.256 104.42Z" fill="#2C81FE"/>
<path fill-rule="evenodd" clip-rule="evenodd" d="M185.095 94.2673L187.654 95.6706C184.682 83.9491 160.909 86.9207 166.77 98.2295C166.77 98.2295 168.668 100.046 170.319 99.3852C171.97 98.8073 183.279 93.6895 183.279 93.6895L185.095 94.2673Z" fill="#2C81FE"/>
<path fill-rule="evenodd" clip-rule="evenodd" d="M176.84 98.2295C180.39 95.9182 184.435 94.0197 187.984 95.8357C188.067 95.8357 188.067 95.8357 188.149 95.8357C188.232 95.8357 188.232 95.7532 188.149 95.6706C184.93 90.8004 177.831 92.699 173.291 95.6706C172.218 96.4135 171.227 97.1564 170.319 97.7343L169.906 98.0644C167.513 99.7979 167.017 99.2201 167.017 99.2201C167.017 99.1375 166.935 99.1375 166.852 99.2201C166.77 99.2201 166.77 99.3026 166.77 99.3852C166.852 99.5503 167.265 100.211 168.421 100.541C169.081 100.788 169.906 100.871 171.062 100.871C172.796 100.871 174.777 99.6328 176.84 98.2295Z" fill="#12006C"/>
<path fill-rule="evenodd" clip-rule="evenodd" d="M170.319 99.1375C170.649 99.1375 170.897 98.8074 170.897 98.4772C170.897 98.147 170.567 97.8168 170.237 97.8994C170.237 97.8994 169.411 97.8993 169.081 97.1564C168.916 96.8263 168.586 96.6612 168.256 96.8263C167.925 96.9913 167.76 97.3215 167.925 97.6517C168.586 99.2201 170.319 99.1375 170.319 99.1375Z" fill="#12006C"/>
<path fill-rule="evenodd" clip-rule="evenodd" d="M168.998 99.5503C169.329 99.4677 169.659 99.3026 169.494 98.9724C169.411 98.6422 168.998 98.3946 168.668 98.5597C168.668 98.5597 167.843 98.8899 167.265 98.2295C167.017 97.9819 166.605 97.8993 166.357 98.147C166.109 98.3946 166.109 98.8073 166.274 99.055C166.935 99.8804 167.76 99.963 168.338 99.963C168.916 99.963 168.998 99.5503 168.998 99.5503Z" fill="#12006C"/>
<path d="M176.262 112.758C172.796 112.758 169.081 111.602 165.697 109.373C160.249 105.741 157.112 100.128 157.525 94.8452C157.937 89.3971 165.449 84.1142 172.135 81.6378C178.986 79.0789 184.765 79.1614 187.571 81.8855C188.232 82.5458 188.892 83.2887 189.387 84.0317C190.378 83.0411 193.102 80.9775 197.559 80.8949C197.477 79.9044 197.394 78.9964 197.477 78.0058C197.724 74.1262 201.934 70.164 208.786 67.5225C215.472 64.881 224.552 63.8079 228.514 67.605C232.394 71.237 233.714 77.5105 232.146 83.8666C230.495 90.3051 226.285 95.1753 221.002 96.5786C215.554 98.0644 209.281 96.5786 204.411 92.5339C200.861 89.6448 198.55 85.8477 197.807 81.8855C193.432 81.8855 190.791 84.1142 189.965 84.8571C192.029 88.324 192.854 92.699 192.194 97.239C191.203 103.512 187.571 108.795 182.536 111.354C180.637 112.262 178.491 112.758 176.262 112.758ZM181.133 80.7298C178.656 80.7298 175.685 81.3076 172.465 82.5458C165.779 85.0222 158.845 90.14 158.515 94.9277C158.102 99.8805 161.074 105.081 166.274 108.548C171.475 112.015 177.501 112.758 182.041 110.446C186.828 108.052 190.213 103.1 191.121 97.0739C192.029 91.4608 190.378 86.0128 186.828 82.5458C185.59 81.3076 183.609 80.7298 181.133 80.7298ZM220.59 66.1192C216.958 66.1192 212.83 67.0272 209.198 68.4305C202.842 70.9069 198.715 74.6214 198.55 78.0058C198.22 82.9586 200.696 88.0764 205.071 91.7084C209.776 95.5055 215.637 96.9913 220.755 95.5055C225.707 94.1848 229.67 89.5622 231.238 83.5364C232.724 77.5105 231.486 71.6498 227.936 68.2654C226.285 66.7796 223.644 66.1192 220.59 66.1192Z" fill="white"/>
<path d="M210.602 153.535C203.75 153.535 198.137 152.71 194.67 152.214C192.029 151.802 184.352 150.068 183.609 146.849C183.279 145.611 184.022 144.373 185.673 143.134C185.838 143.052 186.085 143.052 186.168 143.217C186.251 143.382 186.251 143.63 186.085 143.712C184.682 144.785 184.022 145.776 184.269 146.684C184.93 149.243 191.699 151.059 194.753 151.472C214.069 154.196 242.052 154.856 262.523 128.276C263.183 127.368 263.513 126.378 263.596 125.222C263.596 125.057 263.761 124.809 264.009 124.892C264.174 124.892 264.339 125.057 264.339 125.305C264.256 126.625 263.926 127.781 263.183 128.771C247.169 149.49 225.873 153.535 210.602 153.535Z" fill="#019343"/>
<path d="M228.679 74.3738C228.514 74.3738 228.349 74.2912 228.349 74.1261C226.781 69.7512 223.726 68.0178 218.443 68.5956C218.278 68.5956 218.031 68.4305 218.031 68.2654C218.031 68.1003 218.196 67.8527 218.361 67.8527C223.974 67.2748 227.358 69.1734 229.092 73.8785C229.174 74.0436 229.092 74.2912 228.844 74.3738C228.762 74.3738 228.679 74.3738 228.679 74.3738ZM215.802 69.0083C215.637 69.0083 215.472 68.9258 215.472 68.6781C215.389 68.513 215.554 68.2654 215.719 68.2654C215.967 68.1828 216.132 68.1828 216.38 68.1003C216.545 68.1003 216.792 68.1828 216.792 68.4305C216.792 68.5956 216.71 68.8432 216.462 68.8432C216.297 68.9258 216.05 68.9258 215.802 69.0083Z" fill="white"/>
<path d="M187.901 88.5717C187.736 88.5717 187.654 88.4891 187.571 88.324C187.406 88.0764 187.324 87.8288 187.159 87.5811C187.076 87.416 187.159 87.1684 187.324 87.0858C187.489 87.0033 187.736 87.0858 187.819 87.2509C187.984 87.4986 188.067 87.7462 188.232 88.0764C188.314 88.2415 188.232 88.4891 188.067 88.5717C187.984 88.5717 187.984 88.5717 187.901 88.5717ZM186.498 86.2604C186.416 86.2604 186.251 86.1778 186.251 86.0953C183.692 82.9586 179.977 82.4633 173.786 84.6095C173.621 84.692 173.373 84.6095 173.291 84.3618C173.208 84.1967 173.291 83.9491 173.538 83.8666C178.161 82.2982 183.279 81.2251 186.746 85.6C186.911 85.7651 186.828 86.0127 186.663 86.0953C186.663 86.2604 186.581 86.2604 186.498 86.2604Z" fill="white"/>
<path d="M154.223 188.7C154.14 188.7 154.14 188.7 154.058 188.7C153.893 188.617 153.81 188.452 153.81 188.204C156.617 180.94 158.598 175.658 159.753 172.686C164.458 159.974 173.704 152.297 173.786 152.215C175.767 150.233 179.069 148.005 183.527 145.693C183.692 145.033 184.187 144.373 184.93 143.712C162.147 139.502 149.848 124.727 148.197 99.7979C132.596 64.1381 143.327 38.3013 158.68 26.0019C175.189 12.7121 198.302 12.547 216.38 25.6718C216.545 25.7543 216.545 26.0019 216.462 26.167C216.38 26.3321 216.132 26.3321 215.967 26.2496C198.22 13.3724 175.355 13.5375 159.176 26.5798C144.07 38.714 133.504 64.3032 148.94 99.6328C148.94 99.6328 148.94 99.7154 148.94 99.7979C150.508 124.644 162.973 139.337 185.838 143.3C186.003 143.3 186.085 143.465 186.168 143.547C186.168 143.712 186.168 143.877 186.003 143.96C184.6 145.033 183.939 146.024 184.187 146.932C184.847 149.49 191.616 151.307 194.67 151.719C194.835 151.719 195 151.967 195 152.132C195 152.297 194.753 152.462 194.588 152.462C191.946 152.049 184.269 150.316 183.527 147.097C183.527 147.014 183.444 146.849 183.444 146.766C179.234 148.995 176.18 151.059 174.281 152.957C174.199 153.04 165.119 160.552 160.414 173.099C159.258 176.07 157.277 181.353 154.47 188.617C154.553 188.617 154.388 188.7 154.223 188.7ZM66.6417 148.17C66.5591 148.17 66.4766 148.17 66.394 148.087L45.2623 132.238C44.3543 131.578 43.7765 130.587 43.6114 129.432C43.4463 128.359 43.7765 127.203 44.4368 126.295C45.0972 125.387 46.0878 124.809 47.2434 124.644C48.399 124.479 49.4721 124.809 50.3801 125.47L67.8799 138.594C67.9624 138.594 68.2926 138.594 68.4577 138.429C68.6228 138.182 68.4577 137.686 68.3751 137.521L49.3896 113.418C48.6467 112.51 48.3165 111.354 48.4816 110.116C48.6467 108.96 49.2245 107.887 50.1325 107.144C51.0405 106.402 52.1961 106.071 53.4343 106.236C54.59 106.402 55.6631 106.979 56.406 107.887L72.7501 128.689C72.7501 128.689 72.8326 128.771 72.9151 128.771C72.9977 128.771 73.0802 128.771 73.0802 128.689C73.2453 128.606 73.2453 128.524 73.3279 128.359C73.3279 128.194 73.3279 128.029 73.2453 127.863L55.1678 99.8805C54.4249 98.8074 54.1772 97.4866 54.5074 96.1659C54.7551 94.8452 55.5805 93.7721 56.6536 93.0292C57.7267 92.2862 59.0475 92.0386 60.3682 92.3688C61.6889 92.6164 62.762 93.4419 63.5049 94.515L80.5094 120.847C80.5094 120.847 80.6745 121.012 81.0046 121.012C81.0872 121.012 81.1697 121.012 81.2523 120.93C81.7476 120.682 82.0777 120.022 81.9126 119.526L71.1817 95.5055C70.1911 93.2768 71.1817 90.6353 73.4104 89.6448C75.6392 88.6542 78.2806 89.6448 79.2712 91.8735L89.7545 115.317C89.837 115.564 92.396 120.765 95.2851 124.066C97.844 126.955 101.311 128.194 104.117 127.286C106.346 126.625 107.832 124.644 108.245 121.92C108.823 117.628 110.556 111.767 113.775 108.135C113.94 107.97 114.106 107.97 114.271 108.135C114.436 108.3 114.436 108.465 114.271 108.63C111.216 112.097 109.483 117.793 108.905 122.003C108.492 124.974 106.841 127.203 104.283 127.946C101.146 128.937 97.4313 127.533 94.6247 124.479C91.653 121.177 89.2592 116.142 88.929 115.564L78.4457 92.1212C77.6203 90.2226 75.3915 89.3971 73.5755 90.2226C71.677 91.0481 70.8515 93.2768 71.677 95.0928L82.4079 119.114C82.7381 120.022 82.1603 121.095 81.4174 121.507C80.6745 121.838 80.0141 121.425 79.7665 121.177L62.762 94.7626C62.1842 93.8546 61.1936 93.1943 60.1205 92.9466C59.0475 92.699 57.8918 92.9466 56.9838 93.5244C56.0758 94.1022 55.4154 95.0928 55.1678 96.1659C54.9202 97.239 55.1678 98.3946 55.7456 99.3026L73.8232 127.286C73.9882 127.616 74.0708 127.946 74.0708 128.276C73.9882 128.606 73.8232 128.937 73.493 129.184C72.9151 129.514 72.4199 129.267 72.1722 129.102L55.7456 108.218C55.1678 107.475 54.2598 106.979 53.2692 106.814C52.2787 106.649 51.2881 106.979 50.5452 107.557C49.8023 108.135 49.307 109.043 49.1419 110.034C49.0594 111.024 49.307 112.015 49.8849 112.758L68.8704 136.944C68.9529 137.109 69.4482 138.099 68.8704 138.76C68.3751 139.255 67.7973 139.255 67.4671 139.09C67.4671 139.09 67.3846 139.09 67.3846 139.007L49.8849 125.882C49.142 125.305 48.2339 125.057 47.3259 125.222C46.4179 125.387 45.5925 125.8 45.0147 126.543C44.4368 127.286 44.1892 128.194 44.3543 129.102C44.5194 130.01 44.9321 130.835 45.675 131.413L66.8068 147.262C66.9718 147.344 66.9718 147.592 66.8893 147.757C66.8893 148.087 66.8068 148.17 66.6417 148.17ZM41.9605 134.55C41.8779 134.55 41.7128 134.467 41.7128 134.385C38.9888 131.165 40.3095 127.038 40.3921 126.873C40.4746 126.708 40.6397 126.543 40.8874 126.625C41.0525 126.708 41.2176 126.873 41.135 127.121C41.135 127.121 39.8143 131 42.2906 133.889C42.4557 134.054 42.3732 134.302 42.2081 134.385C42.1256 134.55 42.043 134.55 41.9605 134.55ZM229.339 119.857C229.257 119.857 229.174 119.857 229.174 119.774C229.009 119.691 228.927 119.444 229.092 119.279C234.292 110.942 236.108 100.293 234.375 88.6542C233.797 85.8477 232.971 82.876 231.898 79.8218C231.816 79.6567 231.898 79.4091 232.146 79.3265C232.311 79.244 232.559 79.3265 232.641 79.5742C233.714 82.7109 234.622 85.6826 235.118 88.5717C236.851 100.458 235.035 111.189 229.752 119.774C229.587 119.857 229.422 119.857 229.339 119.857ZM127.808 109.786H127.726C127.56 109.703 127.395 109.538 127.478 109.291C128.881 105.246 126.24 103.76 126.157 103.76C125.992 103.678 125.91 103.43 125.992 103.265C126.075 103.1 126.322 103.017 126.487 103.1C126.487 103.1 129.789 104.916 128.138 109.538C128.056 109.703 127.973 109.786 127.808 109.786ZM80.2617 87.3335C80.1792 87.3335 80.0141 87.2509 80.0141 87.1684C77.125 83.5364 71.5119 85.6 71.5119 85.6826C71.3468 85.7651 71.0991 85.6826 71.0166 85.4349C70.934 85.2698 71.0166 85.0222 71.2642 84.9397C71.3468 84.9397 77.3726 82.6284 80.6745 86.6731C80.8395 86.8382 80.757 87.0859 80.5919 87.1684C80.4268 87.2509 80.3443 87.3335 80.2617 87.3335Z" fill="white"/>
<path fill-rule="evenodd" clip-rule="evenodd" d="M212.5 118.618C212.83 118.371 212.995 117.875 212.748 117.545C212.5 117.215 212.005 117.133 211.675 117.38C211.675 117.38 209.776 119.114 206.97 120.022C205.979 120.352 206.309 121.425 207.382 121.095C210.354 120.104 212.5 118.618 212.5 118.618Z" fill="#2C81FE"/>
<path fill-rule="evenodd" clip-rule="evenodd" d="M194.753 109.703C197.147 109.703 200.531 108.63 203.668 107.062C206.887 105.494 209.776 103.512 211.344 101.614C211.675 101.201 212.17 101.201 212.583 101.449C212.748 101.614 212.83 101.779 212.913 101.944C213.821 107.144 213.326 111.189 212.005 113.913C211.179 115.647 209.941 116.802 208.455 117.545C206.97 118.206 205.319 118.371 203.42 117.875C200.531 117.133 197.312 114.904 194.092 111.024C193.762 110.611 193.845 110.116 194.257 109.786C194.423 109.703 194.588 109.703 194.753 109.703Z" fill="#12006C"/>
<path fill-rule="evenodd" clip-rule="evenodd" d="M195.413 109.621C197.724 109.456 200.779 108.465 203.75 106.979C206.97 105.411 209.859 103.43 211.427 101.531C211.757 101.119 212.252 101.119 212.665 101.366C212.83 101.531 212.913 101.696 212.995 101.862C213.078 102.274 213.16 102.687 213.16 103.1C208.703 108.878 199.788 111.602 197.807 111.354C196.486 111.354 195.743 110.364 195.413 109.621Z" fill="white"/>
<path fill-rule="evenodd" clip-rule="evenodd" d="M200.614 116.802C201.687 115.399 203.585 113.913 207.135 113.748C207.135 113.748 209.033 108.713 213.408 107.392C213.326 110.034 212.83 112.262 212.005 113.996C211.179 115.729 209.941 116.885 208.455 117.628C206.97 118.288 205.319 118.453 203.42 117.958C202.512 117.71 201.604 117.38 200.614 116.802Z" fill="#2C81FE"/>
<path fill-rule="evenodd" clip-rule="evenodd" d="M75.6392 52.4166C79.9316 52.9119 84.0589 52.3341 87.856 50.9308C93.2215 57.2868 103.87 54.1501 103.87 54.1501C98.9997 52.5817 96.771 48.9497 95.863 46.0606C100.486 42.0158 103.705 36.2376 104.448 29.634C106.099 15.4361 95.9455 2.55893 81.6651 0.908009C67.4672 -0.742908 54.59 9.41023 52.9391 23.6907C51.2057 37.8885 61.4413 50.7657 75.6392 52.4166Z" fill="#FF75CA"/>
<path d="M98.0091 55.6359C93.5516 55.6359 90.0022 54.3152 87.6909 51.7562C84.8018 52.8293 81.7476 53.3246 78.6934 53.3246C77.7028 53.3246 76.6297 53.2421 75.5566 53.1595C60.946 51.426 50.4627 38.2187 52.1136 23.6081C53.682 10.1531 65.0733 0 78.5283 0C79.5189 0 80.5919 0.0825433 81.665 0.165089C88.764 0.990547 95.0375 4.54002 99.4949 10.0706C103.952 15.6837 105.934 22.6176 105.108 29.7165C104.365 36.0725 101.393 41.9333 96.6884 46.3082C97.6789 48.8671 99.7426 52.0039 104.118 53.4072C104.448 53.4897 104.613 53.8199 104.613 54.1501C104.613 54.4803 104.365 54.7279 104.118 54.8104C103.952 54.893 101.311 55.6359 98.0091 55.6359ZM87.856 50.1053C88.1036 50.1053 88.2687 50.1879 88.4338 50.353C91.0753 53.4072 95.12 54.0675 98.0091 54.0675C99.2473 54.0675 100.485 53.985 101.393 53.8199C97.7615 51.8388 95.9455 48.702 95.12 46.2257C95.0375 45.978 95.12 45.6478 95.3676 45.4002C99.9902 41.2729 102.962 35.5773 103.705 29.4689C104.448 22.7826 102.632 16.179 98.4218 10.896C94.212 5.61311 88.2687 2.31129 81.5825 1.48583C80.5919 1.40328 79.6014 1.32073 78.6108 1.32073C65.8162 1.32073 55.0853 10.8961 53.5995 23.6081C52.0311 37.3933 61.9366 49.9402 75.7217 51.5086C79.7665 52.0039 83.8112 51.5086 87.6083 50.0228C87.6909 50.1879 87.7734 50.1053 87.856 50.1053Z" fill="white"/>
<path d="M57.4791 30.1292C57.314 30.1292 57.1489 29.9641 57.1489 29.799C56.2409 23.3605 58.1394 16.9219 62.5143 12.0517C62.6794 11.8866 62.8445 11.8866 63.0096 12.0517C63.1747 12.2168 63.1747 12.3819 63.0096 12.547C58.7998 17.2521 56.9012 23.443 57.8092 29.7165C57.8918 29.8816 57.7267 30.1292 57.4791 30.1292ZM65.2384 10.3182C65.1558 10.3182 64.9907 10.2357 64.9907 10.1531C64.8256 9.98804 64.9082 9.7404 65.0733 9.65785C65.6511 9.24512 66.2289 8.8324 66.8067 8.41967C66.9718 8.33712 67.2195 8.33713 67.302 8.50222C67.3845 8.66731 67.3845 8.91495 67.2195 8.99749C66.6416 9.32767 66.1464 9.7404 65.5685 10.1531C65.4034 10.3182 65.3209 10.3182 65.2384 10.3182Z" fill="white"/>
<path fill-rule="evenodd" clip-rule="evenodd" d="M305.612 100.046C301.319 100.541 297.192 99.963 293.395 98.5597C288.03 104.916 277.381 101.779 277.381 101.779C282.251 100.211 284.48 96.5786 285.388 93.6895C280.766 89.6448 277.546 83.8666 276.803 77.2629C275.152 63.065 285.306 50.1879 299.586 48.5369C313.784 46.886 326.661 57.0392 328.312 71.3196C329.963 85.5175 319.81 98.3946 305.612 100.046Z" fill="#FF75CA"/>
<path d="M283.242 103.265C279.94 103.265 277.299 102.522 277.216 102.522C276.886 102.439 276.721 102.192 276.721 101.862C276.721 101.531 276.886 101.284 277.216 101.119C281.591 99.7154 283.655 96.5786 284.645 94.0197C279.94 89.7273 276.968 83.8666 276.226 77.428C275.4 70.329 277.381 63.3952 281.839 57.7821C286.296 52.169 292.57 48.702 299.669 47.8766C300.659 47.794 301.732 47.7115 302.805 47.7115C316.343 47.7115 327.734 57.8646 329.22 71.3196C330.045 78.4185 328.064 85.3524 323.607 90.9655C319.149 96.5786 312.876 100.046 305.777 100.871C301.65 101.366 297.522 100.871 293.643 99.4677C291.166 101.944 287.617 103.265 283.242 103.265ZM279.858 101.531C280.766 101.696 282.004 101.779 283.242 101.779C286.131 101.779 290.176 101.119 292.817 98.0644C292.982 97.8168 293.312 97.7343 293.643 97.8168C297.44 99.2201 301.485 99.7979 305.529 99.3026C312.215 98.5597 318.159 95.1753 322.369 89.8924C326.578 84.6095 328.394 78.0058 327.652 71.3196C326.166 58.6075 315.435 49.0322 302.64 49.0322C301.65 49.0322 300.659 49.1148 299.669 49.1973C292.982 49.9402 287.039 53.3246 282.829 58.6075C278.619 63.8905 276.803 70.4941 277.546 77.1803C278.289 83.3713 281.261 89.0669 285.883 93.1117C286.131 93.2768 286.214 93.607 286.131 93.9371C285.223 96.4135 283.49 99.5503 279.858 101.531Z" fill="white"/>
<path d="M323.772 77.7582C323.524 77.7582 323.359 77.5106 323.442 77.3455C324.35 71.1545 322.451 64.881 318.241 60.1759C318.076 60.0108 318.076 59.7632 318.241 59.6807C318.406 59.5156 318.654 59.5981 318.737 59.6807C323.112 64.5509 325.093 70.9894 324.102 77.428C324.102 77.5931 323.937 77.7582 323.772 77.7582ZM315.93 57.9472C315.848 57.9472 315.765 57.9472 315.682 57.8647C315.187 57.4519 314.609 57.0392 314.032 56.709C313.866 56.6265 313.784 56.3788 313.949 56.2137C314.032 56.0486 314.279 55.9661 314.444 56.1312C315.022 56.5439 315.6 56.9566 316.178 57.3694C316.343 57.5345 316.343 57.6996 316.26 57.8647C316.178 57.8647 316.095 57.9472 315.93 57.9472Z" fill="white"/>
<path d="M64.98 22.6385V31.9219H63.0623V22.6385H64.98ZM70.5297 22.6385V31.9219H68.6193V22.6385H70.5297ZM64.1592 27.9557V26.3649H69.3457V27.9557H64.1592ZM75.7907 32.0962C74.5704 32.0962 73.6623 31.8154 73.0667 31.2536C72.471 30.6918 72.1732 29.8783 72.1732 28.8129V27.8831C72.1732 26.8274 72.4517 26.0162 73.0086 25.4496C73.5655 24.883 74.3742 24.5997 75.4348 24.5997C76.1515 24.5997 76.7496 24.7257 77.229 24.9775C77.7084 25.2293 78.0668 25.5877 78.3041 26.0526C78.5462 26.5126 78.6673 27.0647 78.6673 27.7088V27.963C78.6673 28.1373 78.6576 28.3165 78.6382 28.5005C78.6237 28.6797 78.6019 28.8492 78.5728 29.009H76.8876C76.9021 28.7427 76.9094 28.4908 76.9094 28.2536C76.9142 28.0114 76.9166 27.7935 76.9166 27.5998C76.9166 27.2656 76.8634 26.9823 76.7568 26.7499C76.6503 26.5126 76.4881 26.3334 76.2701 26.2124C76.0522 26.0913 75.7738 26.0308 75.4348 26.0308C74.936 26.0308 74.5679 26.1688 74.3306 26.4448C74.0933 26.7208 73.9747 27.1131 73.9747 27.6216V28.2826L73.982 28.4933V29.0526C73.982 29.2754 74.0159 29.4812 74.0837 29.67C74.1563 29.8589 74.2749 30.0236 74.4396 30.164C74.6043 30.2996 74.8222 30.4061 75.0934 30.4836C75.3694 30.5611 75.7132 30.5998 76.1249 30.5998C76.5704 30.5998 76.9941 30.5514 77.3961 30.4546C77.8028 30.3529 78.1878 30.2173 78.551 30.0478L78.3912 31.5151C78.0668 31.6943 77.6842 31.8347 77.2435 31.9364C76.8077 32.043 76.3234 32.0962 75.7907 32.0962ZM78.1951 29.009H73.1611V27.7741H78.1951V29.009ZM82.0386 31.9219H80.1717V22.3188H82.0386V31.9219ZM85.7954 31.9219H83.9286V22.3188H85.7954V31.9219ZM90.7087 32.118C89.6045 32.118 88.7667 31.8347 88.1953 31.2681C87.6287 30.7015 87.3454 29.8952 87.3454 28.8492V27.8831C87.3454 26.8322 87.6287 26.0235 88.1953 25.4569C88.7667 24.8855 89.6045 24.5997 90.7087 24.5997C91.8079 24.5997 92.6409 24.8855 93.2075 25.4569C93.7741 26.0235 94.0574 26.8322 94.0574 27.8831V28.8492C94.0574 29.8952 93.7741 30.7015 93.2075 31.2681C92.6457 31.8347 91.8128 32.118 90.7087 32.118ZM90.7087 30.6289C91.1929 30.6289 91.561 30.4836 91.8128 30.1931C92.0694 29.9025 92.1978 29.486 92.1978 28.9436V27.7887C92.1978 27.2366 92.0694 26.8153 91.8128 26.5247C91.561 26.2293 91.1929 26.0816 90.7087 26.0816C90.2195 26.0816 89.8467 26.2293 89.59 26.5247C89.3382 26.8153 89.2123 27.2366 89.2123 27.7887V28.9436C89.2123 29.486 89.3382 29.9025 89.59 30.1931C89.8467 30.4836 90.2195 30.6289 90.7087 30.6289ZM97.5893 22.6385L97.3786 28.9146H95.8169L95.5917 22.6385H97.5893ZM96.6014 32.0962C96.243 32.0962 95.9791 32.0042 95.8096 31.8202C95.6449 31.6313 95.5626 31.3698 95.5626 31.0357V30.963C95.5626 30.6289 95.6449 30.3698 95.8096 30.1858C95.9791 29.9969 96.243 29.9025 96.6014 29.9025C96.95 29.9025 97.2091 29.9969 97.3786 30.1858C97.553 30.3698 97.6401 30.6289 97.6401 30.963V31.0357C97.6401 31.3698 97.553 31.6313 97.3786 31.8202C97.2091 32.0042 96.95 32.0962 96.6014 32.0962Z" fill="white"/>
<path d="M298.77 76.4233H297.085L293.896 69.6896H295.901L297.259 72.7477L297.869 74.2732H297.978L298.588 72.7477L299.939 69.6896H301.944L298.77 76.4233ZM298.864 78.973H296.99V74.6945H298.864V78.973ZM304.991 79.1692C303.887 79.1692 303.049 78.8859 302.478 78.3193C301.911 77.7527 301.628 76.9464 301.628 75.9003V74.9342C301.628 73.8834 301.911 73.0746 302.478 72.508C303.049 71.9366 303.887 71.6509 304.991 71.6509C306.09 71.6509 306.923 71.9366 307.49 72.508C308.056 73.0746 308.34 73.8834 308.34 74.9342V75.9003C308.34 76.9464 308.056 77.7527 307.49 78.3193C306.928 78.8859 306.095 79.1692 304.991 79.1692ZM304.991 77.68C305.475 77.68 305.843 77.5347 306.095 77.2442C306.352 76.9536 306.48 76.5371 306.48 75.9948V74.8398C306.48 74.2877 306.352 73.8664 306.095 73.5758C305.843 73.2804 305.475 73.1327 304.991 73.1327C304.502 73.1327 304.129 73.2804 303.872 73.5758C303.62 73.8664 303.495 74.2877 303.495 74.8398V75.9948C303.495 76.5371 303.62 76.9536 303.872 77.2442C304.129 77.5347 304.502 77.68 304.991 77.68ZM311.872 69.6896L311.661 75.9657H310.099L309.874 69.6896H311.872ZM310.884 79.1474C310.525 79.1474 310.261 79.0553 310.092 78.8713C309.927 78.6825 309.845 78.421 309.845 78.0868V78.0142C309.845 77.68 309.927 77.4209 310.092 77.2369C310.261 77.0481 310.525 76.9536 310.884 76.9536C311.232 76.9536 311.491 77.0481 311.661 77.2369C311.835 77.4209 311.922 77.68 311.922 78.0142V78.0868C311.922 78.421 311.835 78.6825 311.661 78.8713C311.491 79.0553 311.232 79.1474 310.884 79.1474Z" fill="white"/>
</svg>
