<svg width="68" height="33" viewBox="0 0 68 33" fill="none" xmlns="http://www.w3.org/2000/svg">
<path d="M0 28.6203C0 26.9606 1.34682 26.0265 3.87184 25.7159C3.23053 25.3162 2.70075 24.7607 2.33181 24.1012C1.96288 23.4417 1.76677 22.6996 1.76175 21.9439C1.76175 19.9048 3.04201 18.487 4.97904 17.6571C2.0746 16.6564 0.898624 14.8237 0.898624 12.8534C0.898624 9.87792 3.56121 7.31962 11.1673 7.31962C14.2116 7.31962 16.457 7.73454 18.0146 8.4601C19.3614 5.9373 21.3429 4.13783 22.896 3.51656L23.8989 9.15237L19.783 9.56729C20.2426 9.96686 20.6103 10.461 20.8612 11.0159C21.112 11.5708 21.24 12.1734 21.2364 12.7824C21.2364 15.8887 18.5383 18.5225 11.174 18.5225C9.78293 18.546 8.39299 18.4308 7.02479 18.1785C6.9081 18.5115 6.84955 18.862 6.85172 19.2147C6.84548 19.6954 6.91588 20.174 7.06029 20.6326L16.1197 20.5971C21.5137 20.5971 23.7259 22.7427 23.7259 25.8202C23.7259 29.3126 20.9257 32.146 12.523 32.146H9.95364C1.58868 32.146 0 30.4531 0 28.6203ZM17.4599 27.4798C17.4599 26.7521 16.9074 26.1996 15.2411 26.1996H6.08401C5.91581 26.5312 5.8327 26.8995 5.84216 27.2713C5.84216 28.5848 6.672 29.4502 9.99136 29.4502H12.5164C16.4237 29.4502 17.4599 28.4472 17.4599 27.4798ZM13.3795 12.8179C13.3795 10.7433 12.5164 9.84464 11.063 9.84464C9.64522 9.84464 8.7821 10.7322 8.7821 12.8534C8.7821 15.0722 9.64522 15.9997 11.063 15.9997C12.4809 15.9997 13.3795 15.0655 13.3795 12.8179ZM45.9518 25.0591H38.3102C38.3208 24.168 38.3897 23.2786 38.5165 22.3965C37.3761 23.5059 34.7445 25.5029 31.048 25.5029C27.3514 25.5029 25.2391 23.5326 25.2391 20.2132V7.77004H32.985V18.9041C32.985 20.2176 33.7106 20.9432 35.0241 20.9432C36.3044 20.9432 37.5136 20.2775 38.2414 19.8027V7.77004H45.9518V25.0591ZM48.854 0.853973H56.5667V25.0591H48.854V0.853973ZM59.4689 0.853973H67.1793V5.59116H59.4689V0.853973ZM59.4689 7.77004H67.1793V25.0591H59.4689V7.77004Z" fill="#01D05D"/>
</svg>
