<svg width="43" height="42" viewBox="0 0 43 42" fill="none" xmlns="http://www.w3.org/2000/svg">
<path d="M11.4665 22.8753L16.8453 16.2348C14.2067 15.5683 11.4538 15.4905 8.78182 16.0072C5.82205 16.7376 5.35721 22.3251 5.30978 24.9718C5.30647 25.1187 5.34244 25.2638 5.41397 25.3922C5.4855 25.5205 5.59 25.6275 5.71667 25.7019C5.84335 25.7764 5.9876 25.8157 6.13454 25.8157C6.28148 25.8158 6.42577 25.7766 6.5525 25.7023L11.4665 22.8753Z" fill="#FF6242"/>
<path d="M8.80213 18.5304C10.8703 18.105 12.9989 18.0632 15.0822 18.4071L16.8466 16.2442C14.2081 15.5776 11.4551 15.4999 8.78316 16.0165C5.82339 16.7375 5.35855 22.325 5.31112 24.9717C5.30874 25.1334 5.35501 25.292 5.44393 25.4271C5.72853 22.6381 6.47795 19.1091 8.80213 18.5304Z" fill="#FF866E"/>
<path d="M11.4665 22.8753L16.8453 16.2348C14.2067 15.5683 11.4538 15.4905 8.78182 16.0072C5.82205 16.7376 5.35721 22.3251 5.30978 24.9718C5.30647 25.1187 5.34244 25.2638 5.41397 25.3922C5.4855 25.5205 5.59 25.6275 5.71667 25.7019C5.84335 25.7764 5.9876 25.8157 6.13454 25.8157C6.28148 25.8158 6.42577 25.7766 6.5525 25.7023L11.4665 22.8753Z" stroke="#45413C" stroke-width="0.948642" stroke-linecap="round" stroke-linejoin="round"/>
<path d="M17.9281 29.345L24.5686 23.9662C25.2347 26.6016 25.3125 29.3514 24.7963 32.0202C24.1038 34.9799 18.5542 35.4448 15.8695 35.4922C15.7226 35.4955 15.5775 35.4595 15.4492 35.388C15.3208 35.3165 15.2139 35.212 15.1394 35.0853C15.065 34.9586 15.0257 34.8144 15.0256 34.6675C15.0256 34.5205 15.0647 34.3762 15.1391 34.2495L17.9281 29.345Z" fill="#FF6242"/>
<path d="M22.2437 32.0107C22.6739 29.9399 22.7158 27.8073 22.367 25.7212L24.5299 23.9662C25.196 26.6016 25.2738 29.3514 24.7576 32.0202C24.0651 34.9799 18.5155 35.4448 15.8308 35.4922C15.6693 35.4935 15.511 35.4473 15.3755 35.3594C18.1645 35.1128 21.6935 34.3254 22.2437 32.0107Z" fill="#FF866E"/>
<path d="M17.9281 29.345L24.5686 23.9662C25.2347 26.6016 25.3125 29.3514 24.7963 32.0202C24.1038 34.9799 18.5542 35.4448 15.8695 35.4922C15.7226 35.4955 15.5775 35.4595 15.4492 35.388C15.3208 35.3165 15.2139 35.212 15.1394 35.0853C15.065 34.9586 15.0257 34.8144 15.0256 34.6675C15.0256 34.5205 15.0647 34.3762 15.1391 34.2495L17.9281 29.345Z" stroke="#45413C" stroke-width="0.948642" stroke-linecap="round" stroke-linejoin="round"/>
<path d="M35.5906 18.1131C40.7323 12.7058 39.1101 6.03691 38.3038 3.69377C38.2113 3.41522 38.0554 3.16194 37.8484 2.95383C37.6405 2.75135 37.3913 2.59604 37.118 2.49848C34.7748 1.69214 28.0964 0.0699638 22.6891 5.24954C16.0106 11.5675 11.4192 22.7994 11.4192 22.7994L18.0597 29.4399C18.0597 29.4399 29.2347 24.7915 35.5906 18.1131Z" fill="#E8F4FA"/>
<path d="M24.7476 8.92078C29.9936 3.92144 36.4254 5.31594 38.9773 6.13178C38.8314 5.30427 38.622 4.4892 38.3512 3.69377C38.2541 3.41159 38.0918 3.15628 37.8776 2.9486C37.6633 2.74091 37.403 2.5867 37.118 2.49848C34.7748 1.69214 28.0964 0.0699637 22.6891 5.24954C16.0106 11.5675 11.4192 22.7994 11.4192 22.7994L13.971 25.3512C15.3276 22.3251 19.3593 14.0434 24.7476 8.92078Z" fill="white"/>
<path d="M35.5906 18.1131C40.7323 12.7058 39.1101 6.03691 38.3038 3.69377C38.2113 3.41522 38.0554 3.16194 37.8484 2.95383C37.6405 2.75135 37.3913 2.59604 37.118 2.49848C34.7748 1.69214 28.0964 0.0699638 22.6891 5.24954C16.0106 11.5675 11.4192 22.7994 11.4192 22.7994L18.0597 29.4399C18.0597 29.4399 29.2347 24.7915 35.5906 18.1131Z" stroke="#45413C" stroke-width="0.948642" stroke-linecap="round" stroke-linejoin="round"/>
<path opacity="0.15" d="M15.4238 39.5998C15.4238 39.9772 16.4233 40.3391 18.2023 40.606C19.9814 40.8728 22.3943 41.0227 24.9103 41.0227C27.4262 41.0227 29.8391 40.8728 31.6182 40.606C33.3972 40.3391 34.3967 39.9772 34.3967 39.5998C34.3967 39.2224 33.3972 38.8605 31.6182 38.5936C29.8391 38.3267 27.4262 38.1768 24.9103 38.1768C22.3943 38.1768 19.9814 38.3267 18.2023 38.5936C16.4233 38.8605 15.4238 39.2224 15.4238 39.5998V39.5998Z" fill="#45413C"/>
<path d="M19.6725 21.9931C19.7415 21.8708 19.7687 21.7295 19.7501 21.5904C19.7315 21.4513 19.668 21.3221 19.5693 21.2223C19.4706 21.1226 19.3421 21.0577 19.2032 21.0376C19.0644 21.0175 18.9227 21.0432 18.7998 21.1108C16.9517 22.0567 15.2541 23.2716 13.7625 24.7157C12.1825 26.3071 10.9346 28.1967 10.0912 30.2747C10.0658 30.3335 10.0584 30.3985 10.0701 30.4614C10.0817 30.5244 10.1119 30.5825 10.1566 30.6282C10.2014 30.674 10.2588 30.7054 10.3214 30.7185C10.3841 30.7316 10.4493 30.7257 10.5086 30.7016C12.5834 29.8695 14.4728 28.6346 16.0677 27.0683C17.5173 25.5671 18.7325 23.8562 19.6725 21.9931V21.9931Z" fill="#FF6242" stroke="#45413C" stroke-width="0.948642" stroke-linecap="round" stroke-linejoin="round"/>
<path d="M24.929 10.6758C24.929 12.057 25.4777 13.3817 26.4544 14.3584C27.4311 15.3351 28.7557 15.8838 30.137 15.8838C31.5183 15.8838 32.843 15.3351 33.8197 14.3584C34.7964 13.3817 35.3451 12.057 35.3451 10.6758C35.3451 9.29453 34.7964 7.96985 33.8197 6.99315C32.843 6.01645 31.5183 5.46775 30.137 5.46775C28.7557 5.46775 27.4311 6.01645 26.4544 6.99315C25.4777 7.96985 24.929 9.29453 24.929 10.6758V10.6758Z" fill="#C0DCEB" stroke="#45413C" stroke-width="0.948642" stroke-linecap="round" stroke-linejoin="round"/>
<path d="M26.5598 10.6474C26.5598 11.1208 26.6531 11.5895 26.8342 12.0269C27.0154 12.4642 27.2809 12.8616 27.6157 13.1964C27.9504 13.5311 28.3478 13.7966 28.7851 13.9778C29.2225 14.1589 29.6913 14.2522 30.1647 14.2522C30.6381 14.2522 31.1068 14.1589 31.5442 13.9778C31.9815 13.7966 32.3789 13.5311 32.7137 13.1964C33.0484 12.8616 33.3139 12.4642 33.4951 12.0269C33.6763 11.5895 33.7695 11.1208 33.7695 10.6474C33.7695 10.174 33.6763 9.70521 33.4951 9.26785C33.3139 8.83049 33.0484 8.4331 32.7137 8.09836C32.3789 7.76362 31.9815 7.49809 31.5442 7.31693C31.1068 7.13577 30.6381 7.04253 30.1647 7.04253C29.6913 7.04253 29.2225 7.13577 28.7851 7.31693C28.3478 7.49809 27.9504 7.76362 27.6157 8.09836C27.2809 8.4331 27.0154 8.83049 26.8342 9.26785C26.6531 9.70521 26.5598 10.174 26.5598 10.6474Z" fill="#00B8F0"/>
<path d="M27.6131 8.09549C27.2775 8.43033 27.0113 8.82808 26.8296 9.26597C26.648 9.70385 26.5544 10.1733 26.5544 10.6473C26.5544 11.1214 26.648 11.5908 26.8296 12.0287C27.0113 12.4666 27.2775 12.8643 27.6131 13.1992C27.8544 13.4304 28.1256 13.6282 28.4195 13.7873L31.7872 7.44093C31.1121 7.0926 30.3436 6.96827 29.5932 7.08595C28.8427 7.20364 28.1492 7.55723 27.6131 8.09549V8.09549Z" fill="#4ACFFF"/>
<path d="M26.5598 10.6474C26.5598 11.1208 26.6531 11.5895 26.8342 12.0269C27.0154 12.4642 27.2809 12.8616 27.6157 13.1964C27.9504 13.5311 28.3478 13.7966 28.7851 13.9778C29.2225 14.1589 29.6913 14.2522 30.1647 14.2522C30.6381 14.2522 31.1068 14.1589 31.5442 13.9778C31.9815 13.7966 32.3789 13.5311 32.7137 13.1964C33.0484 12.8616 33.3139 12.4642 33.4951 12.0269C33.6763 11.5895 33.7695 11.1208 33.7695 10.6474C33.7695 10.174 33.6763 9.70521 33.4951 9.26785C33.3139 8.83049 33.0484 8.4331 32.7137 8.09836C32.3789 7.76362 31.9815 7.49809 31.5442 7.31693C31.1068 7.13577 30.6381 7.04253 30.1647 7.04253C29.6913 7.04253 29.2225 7.13577 28.7851 7.31693C28.3478 7.49809 27.9504 7.76362 27.6157 8.09836C27.2809 8.4331 27.0154 8.83049 26.8342 9.26785C26.6531 9.70521 26.5598 10.174 26.5598 10.6474Z" stroke="#45413C" stroke-width="0.948642" stroke-linecap="round" stroke-linejoin="round"/>
<path d="M8.89615 37.0005C8.2321 37.6645 4.00115 39.0969 1.85721 39.7895C1.45878 39.9223 0.908568 39.3436 1.01292 38.9452C1.70543 36.8107 3.13788 32.5798 3.85885 31.9063C4.76006 30.9576 7.1127 30.9576 8.51669 32.3426C9.92069 33.7276 9.79736 36.0992 8.89615 37.0005Z" fill="#FF8A14" stroke="#45413C" stroke-width="0.948642" stroke-linecap="round" stroke-linejoin="round"/>
<path d="M7.74859 35.4068C7.27427 35.8716 5.31057 36.3555 4.90266 35.9381C4.49474 35.5207 4.96906 33.5285 5.44338 33.0921C5.75765 32.8776 6.1421 32.7915 6.51785 32.8515C6.89359 32.9115 7.23213 33.113 7.46399 33.4147C7.75386 33.6497 7.94424 33.9855 7.99702 34.3549C8.04979 34.7243 7.96106 35.1 7.74859 35.4068V35.4068Z" fill="#FFE500" stroke="#45413C" stroke-width="0.948642" stroke-linecap="round" stroke-linejoin="round"/>
<path d="M39.2339 20.1338L39.9928 21.5662C40.0228 21.6229 40.0661 21.6714 40.119 21.7078C40.1718 21.7441 40.2327 21.7671 40.2963 21.7749L41.8996 21.9646C41.9733 21.9736 42.043 22.003 42.1009 22.0495C42.1587 22.096 42.2025 22.1578 42.2271 22.2278C42.2518 22.2978 42.2564 22.3734 42.2404 22.4459C42.2244 22.5184 42.1885 22.585 42.1367 22.6382L41.0078 23.7955C40.9615 23.8399 40.9275 23.8957 40.9092 23.9572C40.8909 24.0187 40.8889 24.084 40.9035 24.1465L41.2165 25.7307C41.2304 25.8028 41.2241 25.8774 41.1983 25.9461C41.1725 26.0148 41.1282 26.0751 41.0703 26.1203C41.0124 26.1654 40.9431 26.1937 40.8701 26.2019C40.7972 26.2102 40.7234 26.1982 40.6568 26.1671L39.2054 25.4461C39.1479 25.4177 39.0846 25.4029 39.0204 25.4029C38.9563 25.4029 38.893 25.4177 38.8354 25.4461L37.422 26.243C37.3565 26.2758 37.2834 26.2903 37.2104 26.2851C37.1374 26.2799 37.0671 26.2551 37.007 26.2134C36.9468 26.1717 36.899 26.1145 36.8685 26.048C36.838 25.9814 36.8261 25.9079 36.8338 25.8351L37.033 24.2224C37.0418 24.1597 37.0351 24.0959 37.0136 24.0364C36.9922 23.9769 36.9565 23.9235 36.9097 23.8809L35.7618 22.7994C35.7079 22.7491 35.669 22.6848 35.6495 22.6137C35.6299 22.5426 35.6305 22.4674 35.6512 22.3966C35.6718 22.3258 35.7117 22.2621 35.7664 22.2127C35.8212 22.1632 35.8885 22.1299 35.961 22.1164L37.5548 21.8413C37.6179 21.8319 37.6778 21.807 37.7291 21.769C37.7804 21.7309 37.8215 21.6808 37.8488 21.6231L38.5319 20.1527C38.5617 20.0856 38.6099 20.0282 38.671 19.9873C38.732 19.9464 38.8034 19.9237 38.8769 19.9217C38.9503 19.9197 39.0229 19.9386 39.086 19.9761C39.1492 20.0136 39.2005 20.0683 39.2339 20.1338V20.1338Z" fill="#FFE500"/>
<path d="M36.5871 23.5678L37.5927 23.3875C37.6562 23.3789 37.7164 23.3544 37.7678 23.3162C37.8192 23.2781 37.8602 23.2276 37.8868 23.1693L38.5698 21.6989C38.603 21.6331 38.6539 21.5777 38.7167 21.5391C38.7795 21.5004 38.8518 21.4799 38.9256 21.4799C38.9993 21.4799 39.0716 21.5004 39.1344 21.5391C39.1972 21.5777 39.2481 21.6331 39.2813 21.6989L40.0307 23.1314C40.0608 23.188 40.1041 23.2366 40.1569 23.2729C40.2098 23.3093 40.2706 23.3323 40.3343 23.3401L41.3493 23.4634L42.1367 22.6571C42.1885 22.6039 42.2244 22.5373 42.2404 22.4648C42.2564 22.3923 42.2518 22.3167 42.2271 22.2467C42.2025 22.1767 42.1587 22.1149 42.1009 22.0684C42.043 22.0219 41.9733 21.9925 41.8996 21.9835L40.2963 21.7938C40.2327 21.786 40.1718 21.763 40.119 21.7266C40.0661 21.6903 40.0228 21.6418 39.9928 21.5851L39.2339 20.1527C39.2022 20.0864 39.1525 20.0304 39.0904 19.9912C39.0282 19.9521 38.9563 19.9313 38.8829 19.9313C38.8094 19.9313 38.7375 19.9521 38.6754 19.9912C38.6133 20.0304 38.5635 20.0864 38.5319 20.1527L37.8488 21.623C37.8215 21.6808 37.7804 21.7309 37.7291 21.7689C37.6778 21.807 37.6179 21.8318 37.5548 21.8412L35.961 22.1163C35.8885 22.1298 35.8212 22.1631 35.7664 22.2126C35.7117 22.262 35.6718 22.3257 35.6512 22.3965C35.6305 22.4673 35.6299 22.5425 35.6495 22.6136C35.669 22.6847 35.7079 22.749 35.7618 22.7994L36.5871 23.5678Z" fill="#FFF48C"/>
<path d="M39.2339 20.1338L39.9928 21.5662C40.0228 21.6229 40.0661 21.6714 40.119 21.7078C40.1718 21.7441 40.2327 21.7671 40.2963 21.7749L41.8996 21.9646C41.9733 21.9736 42.043 22.003 42.1009 22.0495C42.1587 22.096 42.2025 22.1578 42.2271 22.2278C42.2518 22.2978 42.2564 22.3734 42.2404 22.4459C42.2244 22.5184 42.1885 22.585 42.1367 22.6382L41.0078 23.7955C40.9615 23.8399 40.9275 23.8957 40.9092 23.9572C40.8909 24.0187 40.8889 24.084 40.9035 24.1465L41.2165 25.7307C41.2304 25.8028 41.2241 25.8774 41.1983 25.9461C41.1725 26.0148 41.1282 26.0751 41.0703 26.1203C41.0124 26.1654 40.9431 26.1937 40.8701 26.2019C40.7972 26.2102 40.7234 26.1982 40.6568 26.1671L39.2054 25.4461C39.1479 25.4177 39.0846 25.4029 39.0204 25.4029C38.9563 25.4029 38.893 25.4177 38.8354 25.4461L37.422 26.243C37.3565 26.2758 37.2834 26.2903 37.2104 26.2851C37.1374 26.2799 37.0671 26.2551 37.007 26.2134C36.9468 26.1717 36.899 26.1145 36.8685 26.048C36.838 25.9814 36.8261 25.9079 36.8338 25.8351L37.033 24.2224C37.0418 24.1597 37.0351 24.0959 37.0136 24.0364C36.9922 23.9769 36.9565 23.9235 36.9097 23.8809L35.7618 22.7994C35.7079 22.7491 35.669 22.6848 35.6495 22.6137C35.6299 22.5426 35.6305 22.4674 35.6512 22.3966C35.6718 22.3258 35.7117 22.2621 35.7664 22.2127C35.8212 22.1632 35.8885 22.1299 35.961 22.1164L37.5548 21.8413C37.6179 21.8319 37.6778 21.807 37.7291 21.769C37.7804 21.7309 37.8215 21.6808 37.8488 21.6231L38.5319 20.1527C38.5617 20.0856 38.6099 20.0282 38.671 19.9873C38.732 19.9464 38.8034 19.9237 38.8769 19.9217C38.9503 19.9197 39.0229 19.9386 39.086 19.9761C39.1492 20.0136 39.2005 20.0683 39.2339 20.1338V20.1338Z" stroke="#45413C" stroke-width="0.948642" stroke-linecap="round" stroke-linejoin="round"/>
<path d="M28.2483 36.1658L28.495 37.4464C28.5068 37.4965 28.5301 37.5431 28.563 37.5826C28.5959 37.6221 28.6376 37.6534 28.6847 37.6741L29.8895 38.1864C29.9411 38.2139 29.9842 38.2549 30.0143 38.305C30.0443 38.3551 30.0602 38.4125 30.0602 38.471C30.0602 38.5294 30.0443 38.5868 30.0143 38.6369C29.9842 38.687 29.9411 38.728 29.8895 38.7556L28.7511 39.4006C28.7055 39.4247 28.6667 39.4599 28.6385 39.5031C28.6103 39.5462 28.5936 39.5958 28.5898 39.6473L28.495 40.9469C28.4898 41.0071 28.4678 41.0646 28.4315 41.1129C28.3952 41.1612 28.3461 41.1983 28.2898 41.2201C28.2334 41.2418 28.1721 41.2473 28.1128 41.2359C28.0534 41.2245 27.9985 41.1967 27.9542 41.1556L27.0056 40.2734C26.9696 40.236 26.924 40.2091 26.8739 40.1958C26.8237 40.1824 26.7708 40.183 26.721 40.1975L25.4498 40.4821C25.3918 40.4941 25.3316 40.4899 25.2759 40.4699C25.2201 40.45 25.1709 40.4151 25.1337 40.369C25.0965 40.323 25.0726 40.2675 25.0648 40.2088C25.057 40.1501 25.0655 40.0904 25.0893 40.0362L25.649 38.8504C25.6748 38.8057 25.6884 38.755 25.6884 38.7034C25.6884 38.6518 25.6748 38.601 25.649 38.5563L24.985 37.4369C24.9548 37.3854 24.9394 37.3264 24.9408 37.2667C24.9421 37.207 24.96 37.1487 24.9924 37.0986C25.0249 37.0484 25.0707 37.0082 25.1246 36.9825C25.1786 36.9569 25.2386 36.9467 25.298 36.9531L26.5882 37.1049C26.6404 37.1092 26.6928 37.1021 26.742 37.0841C26.7911 37.0661 26.8358 37.0376 26.8728 37.0006L27.7266 36.0519C27.7647 36.0156 27.8112 35.9892 27.862 35.975C27.9127 35.9608 27.9662 35.9593 28.0176 35.9705C28.0691 35.9817 28.117 36.0054 28.1573 36.0394C28.1975 36.0735 28.2287 36.1168 28.2483 36.1658V36.1658Z" fill="#FFE500"/>
<path d="M25.4214 38.2148L26.2372 38.3096C26.2895 38.3161 26.3426 38.31 26.3921 38.2918C26.4416 38.2737 26.486 38.244 26.5218 38.2053L27.3756 37.2566C27.4147 37.2112 27.4658 37.1775 27.523 37.1595C27.5802 37.1414 27.6413 37.1397 27.6995 37.1545C27.7576 37.1693 27.8105 37.2 27.8522 37.2432C27.8938 37.2863 27.9226 37.3403 27.9353 37.3989L28.1914 38.6796C28.1992 38.7299 28.2199 38.7773 28.2515 38.8172C28.2831 38.8571 28.3245 38.8882 28.3716 38.9073L29.1306 39.2298L29.9274 38.7839C29.979 38.7564 30.0221 38.7154 30.0522 38.6653C30.0823 38.6152 30.0982 38.5578 30.0982 38.4994C30.0982 38.4409 30.0823 38.3835 30.0522 38.3334C30.0221 38.2833 29.979 38.2423 29.9274 38.2148L28.7226 37.7025C28.6755 37.6818 28.6339 37.6505 28.601 37.611C28.568 37.5715 28.5447 37.5249 28.5329 37.4748L28.2768 36.1942C28.2642 36.1368 28.2362 36.0839 28.1958 36.0413C28.1554 35.9986 28.1041 35.9678 28.0475 35.9522C27.9908 35.9366 27.931 35.9367 27.8745 35.9526C27.8179 35.9685 27.7668 35.9996 27.7266 36.0424L26.8728 36.991C26.8358 37.028 26.7911 37.0565 26.742 37.0746C26.6928 37.0926 26.6404 37.0997 26.5882 37.0954L25.298 36.9436C25.2386 36.9371 25.1786 36.9473 25.1246 36.973C25.0707 36.9987 25.0249 37.0388 24.9924 37.089C24.96 37.1392 24.9421 37.1974 24.9408 37.2572C24.9394 37.3169 24.9548 37.3758 24.985 37.4274L25.4214 38.2148Z" fill="#FFF48C"/>
<path d="M28.2483 36.1658L28.495 37.4464C28.5068 37.4965 28.5301 37.5431 28.563 37.5826C28.5959 37.6221 28.6376 37.6534 28.6847 37.6741L29.8895 38.1864C29.9411 38.2139 29.9842 38.2549 30.0143 38.305C30.0443 38.3551 30.0602 38.4125 30.0602 38.471C30.0602 38.5294 30.0443 38.5868 30.0143 38.6369C29.9842 38.687 29.9411 38.728 29.8895 38.7556L28.7511 39.4006C28.7055 39.4247 28.6667 39.4599 28.6385 39.5031C28.6103 39.5462 28.5936 39.5958 28.5898 39.6473L28.495 40.9469C28.4898 41.0071 28.4678 41.0646 28.4315 41.1129C28.3952 41.1612 28.3461 41.1983 28.2898 41.2201C28.2334 41.2418 28.1721 41.2473 28.1128 41.2359C28.0534 41.2245 27.9985 41.1967 27.9542 41.1556L27.0056 40.2734C26.9696 40.236 26.924 40.2091 26.8739 40.1958C26.8237 40.1824 26.7708 40.183 26.721 40.1975L25.4498 40.4821C25.3918 40.4941 25.3316 40.4899 25.2759 40.4699C25.2201 40.45 25.1709 40.4151 25.1337 40.369C25.0965 40.323 25.0726 40.2675 25.0648 40.2088C25.057 40.1501 25.0655 40.0904 25.0893 40.0362L25.649 38.8504C25.6748 38.8057 25.6884 38.755 25.6884 38.7034C25.6884 38.6518 25.6748 38.601 25.649 38.5563L24.985 37.4369C24.9548 37.3854 24.9394 37.3264 24.9408 37.2667C24.9421 37.207 24.96 37.1487 24.9924 37.0986C25.0249 37.0484 25.0707 37.0082 25.1246 36.9825C25.1786 36.9569 25.2386 36.9467 25.298 36.9531L26.5882 37.1049C26.6404 37.1092 26.6928 37.1021 26.742 37.0841C26.7911 37.0661 26.8358 37.0376 26.8728 37.0006L27.7266 36.0519C27.7647 36.0156 27.8112 35.9892 27.862 35.975C27.9127 35.9608 27.9662 35.9593 28.0176 35.9705C28.0691 35.9817 28.117 36.0054 28.1573 36.0394C28.1975 36.0735 28.2287 36.1168 28.2483 36.1658V36.1658Z" stroke="#45413C" stroke-width="0.948642" stroke-linecap="round" stroke-linejoin="round"/>
<path d="M9.38985 4.30088C9.31237 4.87099 9.06721 5.40521 8.68551 5.83572C8.30381 6.26623 7.80279 6.5736 7.24606 6.71881C6.68933 6.86401 6.10201 6.8405 5.55867 6.65126C5.01533 6.46202 4.54047 6.11559 4.19441 5.65595C3.84834 5.19631 3.64667 4.6442 3.615 4.06972C3.58333 3.49524 3.72309 2.92431 4.01653 2.42941C4.30998 1.93452 4.74387 1.53799 5.26312 1.29017C5.78237 1.04235 6.36355 0.954427 6.93286 1.03756C7.68974 1.14807 8.37241 1.55286 8.83249 2.16392C9.29257 2.77499 9.49287 3.54295 9.38985 4.30088Z" fill="#9CEB60"/>
<path d="M6.93222 3.10562C7.44886 3.1866 7.93403 3.40565 8.33645 3.73961C8.73888 4.07358 9.04361 4.51004 9.21845 5.0029C9.3063 4.77752 9.36373 4.54145 9.38921 4.3009C9.48386 3.5444 9.2771 2.78104 8.81359 2.17572C8.35008 1.5704 7.66704 1.17173 6.91203 1.06583C6.15703 0.959926 5.39066 1.1553 4.77851 1.60974C4.16635 2.06419 3.75755 2.74121 3.64043 3.49456C3.58703 3.98346 3.65211 4.47804 3.83016 4.93649C4.06833 4.32861 4.50324 3.81802 5.06549 3.48617C5.62774 3.15432 6.28494 3.02035 6.93222 3.10562V3.10562Z" fill="#C8FFA1"/>
<path d="M9.38985 4.30088C9.31237 4.87099 9.06721 5.40521 8.68551 5.83572C8.30381 6.26623 7.80279 6.5736 7.24606 6.71881C6.68933 6.86401 6.10201 6.8405 5.55867 6.65126C5.01533 6.46202 4.54047 6.11559 4.19441 5.65595C3.84834 5.19631 3.64667 4.6442 3.615 4.06972C3.58333 3.49524 3.72309 2.92431 4.01653 2.42941C4.30998 1.93452 4.74387 1.53799 5.26312 1.29017C5.78237 1.04235 6.36355 0.954427 6.93286 1.03756C7.68974 1.14807 8.37241 1.55286 8.83249 2.16392C9.29257 2.77499 9.49287 3.54295 9.38985 4.30088Z" stroke="#45413C" stroke-width="0.948642" stroke-linecap="round" stroke-linejoin="round"/>
<path d="M3.69876 4.58552C2.97779 5.07881 1.52637 6.1982 1.93428 7.01403C2.3422 7.82986 11.8856 2.12854 11.5535 1.32219C11.2215 0.515849 9.18192 1.43603 8.46095 1.77754" stroke="#45413C" stroke-width="0.948642" stroke-linecap="round" stroke-linejoin="round"/>
</svg>
