<svg width="45" height="45" viewBox="0 0 45 45" fill="none" xmlns="http://www.w3.org/2000/svg">
<path d="M33.75 15.9375H31.875V12.1875C31.875 7.0125 27.675 2.8125 22.5 2.8125C17.325 2.8125 13.125 7.0125 13.125 12.1875V15.9375H11.25C9.1875 15.9375 7.5 17.625 7.5 19.6875V38.4375C7.5 40.5 9.1875 42.1875 11.25 42.1875H33.75C35.8125 42.1875 37.5 40.5 37.5 38.4375V19.6875C37.5 17.625 35.8125 15.9375 33.75 15.9375ZM22.5 32.8125C20.4375 32.8125 18.75 31.125 18.75 29.0625C18.75 27 20.4375 25.3125 22.5 25.3125C24.5625 25.3125 26.25 27 26.25 29.0625C26.25 31.125 24.5625 32.8125 22.5 32.8125ZM28.3125 15.9375H16.6875V12.1875C16.6875 8.98125 19.2937 6.375 22.5 6.375C25.7063 6.375 28.3125 8.98125 28.3125 12.1875V15.9375Z" fill="#85F6B8"/>
</svg>
