<svg width="58" height="59" viewBox="0 0 58 59" fill="none" xmlns="http://www.w3.org/2000/svg">
<path opacity="0.15" d="M19.9429 56.8216C19.9429 57.0622 20.3852 57.3005 21.2447 57.5228C22.1042 57.7451 23.3639 57.9471 24.952 58.1173C26.5401 58.2874 28.4254 58.4224 30.5004 58.5145C32.5753 58.6066 34.7993 58.654 37.0452 58.654C39.2911 58.654 41.515 58.6066 43.5899 58.5145C45.6649 58.4224 47.5502 58.2874 49.1383 58.1173C50.7264 57.9471 51.9861 57.7451 52.8456 57.5228C53.7051 57.3005 54.1474 57.0622 54.1474 56.8216C54.1474 56.581 53.7051 56.3427 52.8456 56.1204C51.9861 55.898 50.7264 55.696 49.1383 55.5259C47.5502 55.3557 45.6649 55.2208 43.5899 55.1287C41.515 55.0366 39.2911 54.9892 37.0452 54.9892C34.7993 54.9892 32.5753 55.0366 30.5004 55.1287C28.4254 55.2208 26.5401 55.3557 24.952 55.5259C23.3639 55.696 22.1042 55.898 21.2447 56.1204C20.3852 56.3427 19.9429 56.581 19.9429 56.8216V56.8216Z" fill="#45413C"/>
<path d="M49.2619 46.0106C45.4229 47.753 41.2617 48.6727 37.046 48.7103C32.8303 48.6727 28.6691 47.753 24.8301 46.0106C32.9049 44.8053 41.1138 44.8053 49.1886 46.0106H49.2619Z" fill="#915E3A" stroke="#45413C" stroke-width="1.22159" stroke-linecap="round" stroke-linejoin="round"/>
<path d="M52.157 51.8498C52.3581 52.254 52.4007 52.7189 52.2764 53.1529C52.152 53.587 51.8698 53.9588 51.4851 54.1952C49.3351 55.5268 44.632 57.7379 37.0459 57.7379C29.4598 57.7379 24.7567 55.5268 22.6067 54.1952C22.2221 53.9588 21.9398 53.587 21.8155 53.1529C21.6912 52.7189 21.7337 52.254 21.9348 51.8498L24.83 46.0106C28.669 47.753 32.8302 48.6726 37.0459 48.7103C41.2617 48.6726 45.4229 47.753 49.2618 46.0106L52.157 51.8498Z" fill="#DEA47A"/>
<path d="M37.046 52.0086C41.7972 51.9545 46.5052 51.0996 50.9722 49.4799L49.2619 46.0106C45.4229 47.753 41.2618 48.6726 37.046 48.7103C32.8303 48.6726 28.6691 47.753 24.8301 46.0106L23.1199 49.4799C27.5868 51.0996 32.2948 51.9545 37.046 52.0086V52.0086Z" fill="#BF8256"/>
<path d="M52.157 51.8498C52.3581 52.254 52.4007 52.7189 52.2764 53.1529C52.152 53.587 51.8698 53.9588 51.4851 54.1952C49.3351 55.5268 44.632 57.7379 37.0459 57.7379C29.4598 57.7379 24.7567 55.5268 22.6067 54.1952C22.2221 53.9588 21.9398 53.587 21.8155 53.1529C21.6912 52.7189 21.7337 52.254 21.9348 51.8498L24.83 46.0106C28.669 47.753 32.8302 48.6726 37.0459 48.7103C41.2617 48.6726 45.4229 47.753 49.2618 46.0106L52.157 51.8498Z" stroke="#45413C" stroke-width="1.22159" stroke-linecap="round" stroke-linejoin="round"/>
<path d="M18.5393 27.5034C18.5393 29.9338 19.018 32.3404 19.9481 34.5858C20.8781 36.8312 22.2414 38.8714 23.9599 40.5899C25.6785 42.3085 27.7187 43.6717 29.9641 44.6018C32.2094 45.5318 34.616 46.0105 37.0464 46.0105C39.4768 46.0105 41.8834 45.5318 44.1288 44.6018C46.3742 43.6717 48.4144 42.3085 50.1329 40.5899C51.8515 38.8714 53.2147 36.8312 54.1448 34.5858C55.0748 32.3404 55.5535 29.9338 55.5535 27.5034C55.5535 25.073 55.0748 22.6664 54.1448 20.421C53.2147 18.1757 51.8515 16.1354 50.1329 14.4169C48.4144 12.6984 46.3742 11.3351 44.1288 10.4051C41.8834 9.47499 39.4768 8.99629 37.0464 8.99629C34.616 8.99629 32.2094 9.47499 29.9641 10.4051C27.7187 11.3351 25.6785 12.6984 23.9599 14.4169C22.2414 16.1354 20.8781 18.1757 19.9481 20.421C19.018 22.6664 18.5393 25.073 18.5393 27.5034V27.5034Z" fill="#BF8DF2"/>
<path d="M37.0464 8.99629C33.3861 8.99629 29.8079 10.0817 26.7644 12.1153C23.7209 14.1489 21.3488 17.0393 19.9481 20.421C18.5473 23.8028 18.1808 27.5239 18.8949 31.114C19.609 34.704 21.3717 38.0016 23.9599 40.5899C26.5482 43.1782 29.8458 44.9408 33.4359 45.6549C37.0259 46.369 40.7471 46.0025 44.1288 44.6018C47.5105 43.201 50.4009 40.8289 52.4345 37.7854C54.4681 34.7419 55.5535 31.1638 55.5535 27.5034C55.5535 22.595 53.6037 17.8877 50.1329 14.4169C46.6622 10.9461 41.9548 8.99629 37.0464 8.99629ZM37.0464 39.2307C34.1012 39.2307 31.2222 38.3573 28.7733 36.7211C26.3245 35.0848 24.4158 32.7591 23.2888 30.0381C22.1617 27.3171 21.8668 24.323 22.4414 21.4344C23.0159 18.5457 24.4342 15.8924 26.5168 13.8098C28.5993 11.7272 31.2527 10.309 34.1413 9.73441C37.0299 9.15983 40.024 9.45473 42.745 10.5818C45.4661 11.7089 47.7917 13.6175 49.428 16.0664C51.0643 18.5152 51.9376 21.3943 51.9376 24.3395C51.9376 28.2889 50.3687 32.0765 47.5761 34.8692C44.7835 37.6618 40.9958 39.2307 37.0464 39.2307V39.2307Z" fill="#9F5AE5"/>
<path d="M18.5393 27.5034C18.5393 29.9338 19.018 32.3404 19.9481 34.5858C20.8781 36.8312 22.2414 38.8714 23.9599 40.5899C25.6785 42.3085 27.7187 43.6717 29.9641 44.6018C32.2094 45.5318 34.616 46.0105 37.0464 46.0105C39.4768 46.0105 41.8834 45.5318 44.1288 44.6018C46.3742 43.6717 48.4144 42.3085 50.1329 40.5899C51.8515 38.8714 53.2147 36.8312 54.1448 34.5858C55.0748 32.3404 55.5535 29.9338 55.5535 27.5034C55.5535 25.073 55.0748 22.6664 54.1448 20.421C53.2147 18.1757 51.8515 16.1354 50.1329 14.4169C48.4144 12.6984 46.3742 11.3351 44.1288 10.4051C41.8834 9.47499 39.4768 8.99629 37.0464 8.99629C34.616 8.99629 32.2094 9.47499 29.9641 10.4051C27.7187 11.3351 25.6785 12.6984 23.9599 14.4169C22.2414 16.1354 20.8781 18.1757 19.9481 20.421C19.018 22.6664 18.5393 25.073 18.5393 27.5034V27.5034Z" stroke="#45413C" stroke-width="1.22159" stroke-linecap="round" stroke-linejoin="round"/>
<path d="M39.7588 21.1878C39.7588 22.3833 40.2337 23.5299 41.0791 24.3752C41.9244 25.2206 43.071 25.6955 44.2665 25.6955C45.462 25.6955 46.6085 25.2206 47.4539 24.3752C48.2992 23.5299 48.7741 22.3833 48.7741 21.1878C48.7741 19.9923 48.2992 18.8458 47.4539 18.0004C46.6085 17.1551 45.462 16.6801 44.2665 16.6801C43.071 16.6801 41.9244 17.1551 41.0791 18.0004C40.2337 18.8458 39.7588 19.9923 39.7588 21.1878V21.1878Z" fill="#DABFF5"/>
<path d="M34.3335 23.4356C34.3335 23.7952 34.4764 24.1401 34.7306 24.3944C34.9849 24.6487 35.3298 24.7916 35.6895 24.7916C36.0491 24.7916 36.394 24.6487 36.6483 24.3944C36.9026 24.1401 37.0454 23.7952 37.0454 23.4356C37.0454 23.076 36.9026 22.7311 36.6483 22.4768C36.394 22.2225 36.0491 22.0796 35.6895 22.0796C35.3298 22.0796 34.9849 22.2225 34.7306 22.4768C34.4764 22.7311 34.3335 23.076 34.3335 23.4356Z" fill="#DABFF5"/>
<path d="M34.3335 16.2159C34.3335 16.5127 34.3919 16.8066 34.5055 17.0808C34.6191 17.355 34.7856 17.6041 34.9954 17.814C35.2053 18.0238 35.4544 18.1903 35.7286 18.3039C36.0028 18.4174 36.2967 18.4759 36.5934 18.4759C36.8902 18.4759 37.1841 18.4174 37.4583 18.3039C37.7325 18.1903 37.9816 18.0238 38.1915 17.814C38.4013 17.6041 38.5678 17.355 38.6814 17.0808C38.7949 16.8066 38.8534 16.5127 38.8534 16.2159C38.8534 15.9192 38.7949 15.6253 38.6814 15.3511C38.5678 15.0769 38.4013 14.8278 38.1915 14.6179C37.9816 14.4081 37.7325 14.2416 37.4583 14.128C37.1841 14.0144 36.8902 13.956 36.5934 13.956C36.2967 13.956 36.0028 14.0144 35.7286 14.128C35.4544 14.2416 35.2053 14.4081 34.9954 14.6179C34.7856 14.8278 34.6191 15.0769 34.5055 15.3511C34.3919 15.6253 34.3335 15.9192 34.3335 16.2159V16.2159Z" fill="#DABFF5"/>
<path d="M57.3478 36.983C57.1706 38.0907 56.757 39.1474 56.1352 40.0812C55.5134 41.0149 54.6979 41.804 53.7441 42.3946" stroke="#45413C" stroke-width="1.22159" stroke-linecap="round" stroke-linejoin="round"/>
<path d="M52.8416 45.1066C54.6437 44.8345 56.2645 43.8593 57.3492 42.3947" stroke="#45413C" stroke-width="1.22159" stroke-linecap="round" stroke-linejoin="round"/>
<path d="M14.9351 21.6398C14.9351 21.6398 15.839 17.1199 18.5388 15.312" stroke="#45413C" stroke-width="1.22159" stroke-linecap="round" stroke-linejoin="round"/>
<path d="M13.127 18.0238C12.6253 20.0991 12.6253 22.2642 13.127 24.3395" stroke="#45413C" stroke-width="1.22159" stroke-linecap="round" stroke-linejoin="round"/>
<path d="M8.13419 9.7466C8.22758 9.3517 8.42901 8.99058 8.71595 8.70364C9.00288 8.4167 9.36401 8.21527 9.75891 8.12188L13.0206 7.37671C13.0831 7.36516 13.1395 7.33182 13.1797 7.28261C13.22 7.23341 13.2415 7.17153 13.2404 7.10796C13.2411 7.04582 13.2191 6.98556 13.1787 6.93838C13.1383 6.8912 13.0821 6.8603 13.0206 6.85142L9.77112 6.09404C9.37275 6.00532 9.00761 5.80567 8.71794 5.51815C8.42827 5.23064 8.22589 4.86702 8.13419 4.46932L7.3768 1.21989C7.36565 1.15942 7.33409 1.1046 7.28741 1.06459C7.24072 1.02457 7.18173 1.00177 7.12026 1C7.05731 1.00123 6.99659 1.02358 6.94786 1.06346C6.89912 1.10333 6.86519 1.15842 6.85152 1.21989L6.10635 4.46932C6.012 4.86577 5.80874 5.22796 5.5195 5.51504C5.23026 5.80212 4.86656 6.00266 4.46941 6.09404L1.20776 6.85142C1.1485 6.86291 1.09518 6.89494 1.0572 6.94186C1.01921 6.98878 0.998988 7.0476 1.00009 7.10796C0.998477 7.16982 1.01826 7.23033 1.05609 7.2793C1.09393 7.32826 1.1475 7.36267 1.20776 7.37671L4.46941 8.12188C4.8633 8.21467 5.22324 8.41613 5.5083 8.70335C5.79336 8.99057 5.9921 9.35202 6.08191 9.7466L6.9126 13.0082C6.92664 13.0685 6.96105 13.1221 7.01001 13.1599C7.05897 13.1978 7.11949 13.2175 7.18135 13.2159C7.24171 13.217 7.30052 13.1968 7.34744 13.1588C7.39437 13.1208 7.42639 13.0675 7.43788 13.0082L8.13419 9.7466Z" fill="white" stroke="#45413C" stroke-width="1.22159" stroke-linecap="round" stroke-linejoin="round"/>
<path d="M14.8375 41.9304L17.3906 41.0875C17.4287 41.0628 17.4591 41.028 17.4786 40.987C17.498 40.946 17.5056 40.9005 17.5006 40.8554C17.5025 40.8062 17.4879 40.7579 17.4591 40.718C17.4303 40.6782 17.389 40.6491 17.3418 40.6355L15.2406 39.9392C15.1006 39.8902 14.9738 39.8096 14.87 39.7037C14.7662 39.5978 14.6882 39.4693 14.642 39.3284L13.9335 37.2272C13.9199 37.18 13.8908 37.1387 13.851 37.1099C13.8111 37.0811 13.7628 37.0665 13.7136 37.0684C13.6633 37.0678 13.614 37.0827 13.5724 37.1111C13.5309 37.1395 13.4992 37.1801 13.4815 37.2272L12.7852 39.3284C12.737 39.4702 12.6569 39.599 12.551 39.7049C12.4451 39.8108 12.3162 39.891 12.1744 39.9392L10.171 40.6355C10.1226 40.6487 10.0797 40.6773 10.0489 40.7169C10.018 40.7566 10.0009 40.8051 10 40.8554C10.0002 40.9072 10.0169 40.9576 10.0476 40.9993C10.0784 41.0411 10.1216 41.0719 10.171 41.0875L12.2599 41.7838C12.4027 41.8303 12.5324 41.9098 12.6385 42.016C12.7447 42.1221 12.8242 42.2518 12.8707 42.3946L13.567 44.4835C13.5826 44.5329 13.6135 44.5761 13.6552 44.6069C13.6969 44.6376 13.7473 44.6543 13.7991 44.6545C13.8494 44.6536 13.898 44.6365 13.9376 44.6057C13.9773 44.5748 14.0058 44.532 14.019 44.4835L14.8375 41.9304Z" fill="white" stroke="#45413C" stroke-width="1.22159" stroke-linecap="round" stroke-linejoin="round"/>
</svg>
