<svg width="51" height="42" viewBox="0 0 51 42" fill="none" xmlns="http://www.w3.org/2000/svg">
<path d="M30.3347 21.5575L46.6531 28.067C47.2105 28.3011 48.1914 27.2868 48.8824 25.8378C49.5735 24.3887 49.6404 22.9285 49.0942 22.6833L33.2997 14.8808L30.3347 21.5575Z" fill="#E8F4FA"/>
<path d="M49.0053 25.3919C49.5292 24.0432 49.5626 22.8394 49.0053 22.6164L33.2999 14.8808L32.1853 17.4445L49.0053 25.3919Z" fill="white"/>
<path d="M30.3347 21.5575L46.6531 28.067C47.2105 28.3011 48.1914 27.2868 48.8824 25.8378C49.5735 24.3887 49.6404 22.9285 49.0942 22.6833L33.2997 14.8808L30.3347 21.5575Z" stroke="#45413C" stroke-width="1.11465" stroke-linecap="round" stroke-linejoin="round"/>
<path d="M1.88965 11.1132L29.9564 22.4269C30.8036 22.7947 32.3306 21.223 33.3561 18.9046C34.3816 16.5861 34.5265 14.446 33.6794 14.0224L6.44855 0.825006L1.88965 11.1132Z" fill="#E8F4FA"/>
<path d="M33.6352 18.2135C34.4043 16.1625 34.4489 14.3568 33.6352 14.0224L6.44899 0.825006L4.79932 4.55907L33.6352 18.2135Z" fill="white"/>
<path d="M1.88965 11.1132L29.9564 22.4269C30.8036 22.7947 32.3306 21.223 33.3561 18.9046C34.3816 16.5861 34.5265 14.446 33.6794 14.0224L6.44855 0.825006L1.88965 11.1132Z" stroke="#45413C" stroke-width="1.11465" stroke-linecap="round" stroke-linejoin="round"/>
<path opacity="0.15" d="M7.76294 39.9379C7.76294 40.4848 9.79105 41.0093 13.4011 41.396C17.0112 41.7828 21.9075 42 27.0129 42C32.1183 42 37.0146 41.7828 40.6246 41.396C44.2347 41.0093 46.2628 40.4848 46.2628 39.9379C46.2628 39.391 44.2347 38.8665 40.6246 38.4798C37.0146 38.0931 32.1183 37.8758 27.0129 37.8758C21.9075 37.8758 17.0112 38.0931 13.4011 38.4798C9.79105 38.8665 7.76294 39.391 7.76294 39.9379V39.9379Z" fill="#45413C"/>
<path d="M13.5934 4.29156L6.44855 0.825006L1.88965 11.1132L9.25746 14.0782C10.2495 14.524 12.0218 12.6848 13.2145 9.97625C14.4071 7.26766 14.5855 4.72627 13.5934 4.29156Z" fill="#656769"/>
<path d="M13.8942 8.07028C14.4292 6.1308 14.3512 4.55914 13.5932 4.22475L6.44832 0.758202L5.03271 3.95724L13.8942 8.07028Z" fill="#87898C"/>
<path d="M13.5934 4.29156L6.44855 0.825006L1.88965 11.1132L9.25746 14.0782C10.2495 14.524 12.0218 12.6848 13.2145 9.97625C14.4071 7.26766 14.5855 4.72627 13.5934 4.29156Z" stroke="#45413C" stroke-width="1.11465" stroke-linecap="round" stroke-linejoin="round"/>
<path d="M1.88528 11.128C2.38529 11.3496 3.10508 11.0199 3.88632 10.2115C4.66756 9.40303 5.44625 8.18207 6.05108 6.81718C6.65592 5.4523 7.03735 4.0553 7.11148 2.9335C7.1856 1.81171 6.94634 1.05701 6.44633 0.83544C5.94633 0.613867 5.22653 0.943568 4.44529 1.75201C3.66405 2.56045 2.88536 3.78142 2.28053 5.1463C1.67569 6.51118 1.29426 7.90819 1.22014 9.02998C1.14601 10.1518 1.38527 10.9065 1.88528 11.128V11.128Z" fill="#00B8F0"/>
<path d="M2.27907 8.33783C3.53862 5.50662 5.40008 3.54485 6.44785 4.03529C6.62987 4.12341 6.77847 4.2681 6.87141 4.44771C7.33957 2.60854 7.18352 1.1595 6.44785 0.825108C5.40008 0.368103 3.53862 2.29644 2.27907 5.13879C1.2313 7.50184 0.93035 9.75343 1.46538 10.712C1.66942 9.89917 1.94162 9.10496 2.27907 8.33783V8.33783Z" fill="#4ACFFF"/>
<path d="M1.88528 11.128C2.38529 11.3496 3.10508 11.0199 3.88632 10.2115C4.66756 9.40303 5.44625 8.18207 6.05108 6.81718C6.65592 5.4523 7.03735 4.0553 7.11148 2.9335C7.1856 1.81171 6.94634 1.05701 6.44633 0.83544C5.94633 0.613867 5.22653 0.943568 4.44529 1.75201C3.66405 2.56045 2.88536 3.78142 2.28053 5.1463C1.67569 6.51118 1.29426 7.90819 1.22014 9.02998C1.14601 10.1518 1.38527 10.9065 1.88528 11.128V11.128Z" stroke="#45413C" stroke-width="1.11465" stroke-linecap="round" stroke-linejoin="round"/>
<path d="M33.6794 14.0225L30.681 12.5734C31.5504 12.9524 31.4055 15.1929 30.3577 17.5782C29.31 19.9635 27.7383 21.5686 26.8689 21.1785L29.9565 22.4269C30.8036 22.7947 32.3307 21.2231 33.3561 18.9046C34.3816 16.5862 34.5265 14.4015 33.6794 14.0225Z" fill="#656769"/>
<path d="M30.993 15.8059L33.9914 17.1546C34.3927 15.583 34.3035 14.3346 33.6793 14.0559L30.6809 12.6069C31.3274 12.8521 31.4166 14.1562 30.993 15.8059Z" fill="#87898C"/>
<path d="M33.6794 14.0225L30.681 12.5734C31.5504 12.9524 31.4055 15.1929 30.3577 17.5782C29.31 19.9635 27.7383 21.5686 26.8689 21.1785L29.9565 22.4269C30.8036 22.7947 32.3307 21.2231 33.3561 18.9046C34.3816 16.5862 34.5265 14.4015 33.6794 14.0225Z" stroke="#45413C" stroke-width="1.11465" stroke-linecap="round" stroke-linejoin="round"/>
<path d="M49.0624 22.6164L46.5321 21.3791C47.1006 21.6355 47.0003 23.0957 46.3204 24.645C45.6404 26.1944 44.6149 27.2533 44.0911 26.9969C44.0911 26.9969 46.7105 28.0335 46.7105 28.0447C47.2678 28.2788 48.2487 27.2644 48.9398 25.8154C49.6309 24.3664 49.6086 22.8616 49.0624 22.6164Z" fill="#656769"/>
<path d="M46.7205 23.5304L49.2396 24.645C49.5183 23.6084 49.4737 22.7724 49.0613 22.5829L46.531 21.3791C46.9546 21.5686 47.0103 22.4937 46.7205 23.5304Z" fill="#87898C"/>
<path d="M49.0624 22.6164L46.5321 21.3791C47.1006 21.6355 47.0003 23.0957 46.3204 24.645C45.6404 26.1944 44.6149 27.2533 44.0911 26.9969C44.0911 26.9969 46.7105 28.0335 46.7105 28.0447C47.2678 28.2788 48.2487 27.2644 48.9398 25.8154C49.6309 24.3664 49.6086 22.8616 49.0624 22.6164Z" stroke="#45413C" stroke-width="1.11465" stroke-linecap="round" stroke-linejoin="round"/>
<path d="M22.3994 21.7357H25.3198V26.3169H22.3994V21.7357Z" fill="#E8F4FA"/>
<path d="M22.3994 21.7357H25.3198V23.7755H22.3994V21.7357Z" fill="#C0DCEB"/>
<path d="M22.3994 21.7357H25.3198V26.3169H22.3994V21.7357Z" stroke="#45413C" stroke-width="1.11465" stroke-linecap="round" stroke-linejoin="round"/>
<path d="M18.3414 40.1052C18.6414 40.1033 18.9325 40.0031 19.1701 39.8199C19.4077 39.6366 19.5786 39.3805 19.6567 39.0909L23.0006 26.317H21.1503C20.8435 26.3152 20.545 26.4164 20.3025 26.6043C20.06 26.7923 19.8876 27.0561 19.8127 27.3536L17.015 38.4109C16.9662 38.6121 16.9635 38.8218 17.0073 39.0241C17.0511 39.2265 17.1402 39.4163 17.2678 39.5793C17.3954 39.7424 17.5583 39.8744 17.7443 39.9654C17.9302 40.0565 18.1344 40.1043 18.3414 40.1052V40.1052Z" fill="#E8F4FA"/>
<path d="M19.8129 27.3537L18.7986 31.411H21.6855L23.0119 26.3617H21.1505C20.8496 26.3573 20.5556 26.4521 20.3138 26.6313C20.0721 26.8106 19.8961 27.0645 19.8129 27.3537Z" fill="#C0DCEB"/>
<path d="M18.3414 40.1052C18.6414 40.1033 18.9325 40.0031 19.1701 39.8199C19.4077 39.6366 19.5786 39.3805 19.6567 39.0909L23.0006 26.317H21.1503C20.8435 26.3152 20.545 26.4164 20.3025 26.6043C20.06 26.7923 19.8876 27.0561 19.8127 27.3536L17.015 38.4109C16.9662 38.6121 16.9635 38.8218 17.0073 39.0241C17.0511 39.2265 17.1402 39.4163 17.2678 39.5793C17.3954 39.7424 17.5583 39.8744 17.7443 39.9654C17.9302 40.0565 18.1344 40.1043 18.3414 40.1052V40.1052Z" stroke="#45413C" stroke-width="1.11465" stroke-linecap="round" stroke-linejoin="round"/>
<path d="M29.3765 40.1052C29.076 40.1052 28.784 40.0057 28.546 39.8222C28.3081 39.6386 28.1376 39.3815 28.0612 39.0908L24.7173 26.317H26.5787C26.8841 26.3158 27.181 26.4173 27.4216 26.6054C27.6623 26.7934 27.8326 27.057 27.9052 27.3536L30.7475 38.4109C30.7997 38.616 30.8033 38.8305 30.7581 39.0372C30.7128 39.2439 30.6199 39.4372 30.4868 39.6018C30.3537 39.7663 30.184 39.8975 29.9912 39.9849C29.7985 40.0722 29.588 40.1134 29.3765 40.1052V40.1052Z" fill="#E8F4FA"/>
<path d="M27.8939 27.3536L28.9083 31.3663H26.0325L24.7061 26.317H26.5675C26.8729 26.3158 27.1698 26.4173 27.4104 26.6054C27.651 26.7934 27.8214 27.057 27.8939 27.3536V27.3536Z" fill="#C0DCEB"/>
<path d="M29.3765 40.1052C29.076 40.1052 28.784 40.0057 28.546 39.8222C28.3081 39.6386 28.1376 39.3815 28.0612 39.0908L24.7173 26.317H26.5787C26.8841 26.3158 27.181 26.4173 27.4216 26.6054C27.6623 26.7934 27.8326 27.057 27.9052 27.3536L30.7475 38.4109C30.7997 38.616 30.8033 38.8305 30.7581 39.0372C30.7128 39.2439 30.6199 39.4372 30.4868 39.6018C30.3537 39.7663 30.184 39.8975 29.9912 39.9849C29.7985 40.0722 29.588 40.1134 29.3765 40.1052V40.1052Z" stroke="#45413C" stroke-width="1.11465" stroke-linecap="round" stroke-linejoin="round"/>
<path d="M28.3514 29.1816H19.3562L19.8132 27.3871C19.888 27.0895 20.0605 26.8257 20.303 26.6378C20.5455 26.4498 20.844 26.3487 21.1508 26.3504H26.568C26.8728 26.3511 27.1688 26.4535 27.409 26.6412C27.6492 26.8289 27.82 27.0914 27.8944 27.3871L28.3514 29.1816Z" fill="#656769" stroke="#45413C" stroke-width="1.11465" stroke-linecap="round" stroke-linejoin="round"/>
<path d="M30.4578 15.9731C30.3132 15.8341 30.1424 15.7254 29.9553 15.6534C29.7681 15.5814 29.5685 15.5475 29.3681 15.5537C29.1677 15.56 28.9705 15.6062 28.7882 15.6897C28.6059 15.7732 28.4421 15.8923 28.3065 16.04C27.5953 16.8082 26.7333 17.4215 25.7744 17.8415C24.8154 18.2615 23.7802 18.4792 22.7333 18.481H19.1218V19.9635C19.1218 20.4336 19.3085 20.8843 19.6409 21.2167C19.9733 21.5491 20.4241 21.7358 20.8941 21.7358H22.3989C23.942 21.7335 25.4669 21.4022 26.872 20.7641C28.277 20.126 29.5298 19.1956 30.547 18.0352C30.7978 17.7449 30.9282 17.3697 30.9116 16.9864C30.8951 16.6031 30.7327 16.2407 30.4578 15.9731V15.9731Z" fill="#656769"/>
<path d="M30.4579 15.9731C30.3134 15.8341 30.1425 15.7254 29.9554 15.6534C29.7683 15.5814 29.5686 15.5475 29.3682 15.5537C29.1678 15.56 28.9707 15.6062 28.7884 15.6897C28.6061 15.7732 28.4423 15.8923 28.3067 16.04C28.0594 16.3058 27.795 16.5553 27.5153 16.7868C27.6488 16.8553 27.7725 16.9416 27.8831 17.0431C28.171 17.3126 28.3417 17.6843 28.3584 18.0782C28.375 18.4722 28.2364 18.857 27.9723 19.1498C27.1976 20.0363 26.2826 20.7894 25.2637 21.3791C27.3163 20.8104 29.1546 19.6469 30.5471 18.0352C30.7979 17.7449 30.9284 17.3697 30.9118 16.9864C30.8952 16.6031 30.7329 16.2407 30.4579 15.9731V15.9731Z" fill="#87898C"/>
<path d="M30.4578 15.9731C30.3132 15.8341 30.1424 15.7254 29.9553 15.6534C29.7681 15.5814 29.5685 15.5475 29.3681 15.5537C29.1677 15.56 28.9705 15.6062 28.7882 15.6897C28.6059 15.7732 28.4421 15.8923 28.3065 16.04C27.5953 16.8082 26.7333 17.4215 25.7744 17.8415C24.8154 18.2615 23.7802 18.4792 22.7333 18.481H19.1218V19.9635C19.1218 20.4336 19.3085 20.8843 19.6409 21.2167C19.9733 21.5491 20.4241 21.7358 20.8941 21.7358H22.3989C23.942 21.7335 25.4669 21.4022 26.872 20.7641C28.277 20.126 29.5298 19.1956 30.547 18.0352C30.7978 17.7449 30.9282 17.3697 30.9116 16.9864C30.8951 16.6031 30.7327 16.2407 30.4578 15.9731V15.9731Z" stroke="#45413C" stroke-width="1.11465" stroke-linecap="round" stroke-linejoin="round"/>
</svg>
