<svg width="286" height="307" viewBox="0 0 286 307" fill="none" xmlns="http://www.w3.org/2000/svg">
<g filter="url(#filter0_d_1717_2579)">
<mask id="path-1-outside-1_1717_2579" maskUnits="userSpaceOnUse" x="50.1136" y="49.5729" width="186.531" height="207.553" fill="black">
<rect fill="white" x="50.1136" y="49.5729" width="186.531" height="207.553"/>
<path d="M60.5391 66.8708L218.125 60.01L224.207 199.718L66.6216 206.579L60.5391 66.8708Z"/>
</mask>
<path d="M60.5391 66.8708L218.125 60.01L224.207 199.718L66.6216 206.579L60.5391 66.8708Z" fill="#ECECEC"/>
<path d="M60.5391 66.8708L60.1067 56.939L50.1748 57.3714L50.6072 67.3033L60.5391 66.8708ZM218.125 60.01L228.057 59.5776L227.624 49.6457L217.693 50.0781L218.125 60.01ZM224.207 199.718L226.388 249.803L236.32 249.37L234.139 199.286L224.207 199.718ZM66.6216 206.579L56.6897 207.012L58.8703 257.096L68.8021 256.663L66.6216 206.579ZM60.9715 76.8027L218.557 69.9418L217.693 50.0781L60.1067 56.939L60.9715 76.8027ZM208.193 60.4424L214.276 200.151L234.139 199.286L228.057 59.5776L208.193 60.4424ZM222.027 149.634L64.4411 156.495L68.8021 256.663L226.388 249.803L222.027 149.634ZM76.5535 206.147L70.4709 66.4384L50.6072 67.3033L56.6897 207.012L76.5535 206.147Z" fill="#FFF9F9" mask="url(#path-1-outside-1_1717_2579)"/>
</g>
<path d="M42.3995 233.661C42.4601 233.069 42.3708 233.069 42.4314 233.661C42.6404 235.702 43.1883 237.932 44.4962 239.24C45.8041 240.548 48.035 241.096 50.0755 241.305C50.6675 241.366 50.6675 241.276 50.0755 241.337C48.035 241.546 45.8041 242.094 44.4962 243.402C43.27 244.628 42.7118 249.782 42.4747 255.284C42.447 255.925 42.3839 255.925 42.3563 255.284C42.1191 249.782 41.561 244.628 40.3347 243.402C39.0268 242.094 36.796 241.546 34.7554 241.337C34.1634 241.276 34.1634 241.366 34.7554 241.305C36.796 241.096 39.0268 240.548 40.3347 239.24C41.6426 237.932 42.1905 235.702 42.3995 233.661Z" fill="#FFD400"/>
<path d="M37.7608 201.517C37.8215 200.925 37.7321 200.925 37.7928 201.517C38.0017 203.558 38.5496 205.789 39.8575 207.097C41.1655 208.405 43.3963 208.952 45.4369 209.161C46.0289 209.222 46.0289 209.133 45.4369 209.193C43.3963 209.402 41.1655 209.95 39.8575 211.258C38.6313 212.484 38.0731 217.639 37.836 223.14C37.8083 223.781 37.7453 223.781 37.7176 223.14C37.4805 217.639 36.9223 212.484 35.696 211.258C34.3881 209.95 32.1573 209.402 30.1167 209.193C29.5247 209.133 29.5247 209.222 30.1167 209.161C32.1573 208.952 34.3881 208.405 35.696 207.097C37.004 205.789 37.5519 203.558 37.7608 201.517Z" fill="#FFD400"/>
<path d="M73.8802 229.353C73.9408 228.761 73.8515 228.761 73.9122 229.353C74.1211 231.394 74.669 233.624 75.9769 234.932C77.2849 236.24 79.5157 236.788 81.5562 236.997C82.1483 237.058 82.1483 236.968 81.5562 237.029C79.5157 237.238 77.2849 237.786 75.9769 239.094C74.7507 240.32 74.1925 245.475 73.9554 250.976C73.9277 251.617 73.8646 251.617 73.837 250.976C73.5999 245.475 73.0417 240.32 71.8154 239.094C70.5075 237.786 68.2767 237.238 66.2361 237.029C65.6441 236.968 65.6441 237.058 66.2361 236.997C68.2767 236.788 70.5075 236.24 71.8154 234.932C73.1234 233.624 73.6712 231.394 73.8802 229.353Z" fill="#FFD400"/>
<path d="M241.59 53.6345C241.529 54.2265 241.618 54.2265 241.558 53.6345C241.349 51.5939 240.801 49.3631 239.493 48.0552C238.185 46.7472 235.954 46.1994 233.914 45.9904C233.322 45.9298 233.322 46.0191 233.914 45.9585C235.954 45.7495 238.185 45.2016 239.493 43.8937C240.719 42.6674 241.277 37.5129 241.514 32.0118C241.542 31.3707 241.605 31.3707 241.633 32.0118C241.87 37.5129 242.428 42.6674 243.654 43.8937C244.962 45.2016 247.193 45.7495 249.234 45.9585C249.826 46.0191 249.826 45.9298 249.234 45.9904C247.193 46.1994 244.962 46.7472 243.654 48.0552C242.346 49.3631 241.799 51.5939 241.59 53.6345Z" fill="#FFD500"/>
<path d="M246.228 85.778C246.168 86.37 246.257 86.37 246.196 85.778C245.988 83.7375 245.44 81.5066 244.132 80.1987C242.824 78.8908 240.593 78.3429 238.552 78.1339C237.96 78.0733 237.96 78.1626 238.552 78.102C240.593 77.893 242.824 77.3452 244.132 76.0372C245.358 74.811 245.916 69.6565 246.153 64.1553C246.181 63.5143 246.244 63.5143 246.272 64.1553C246.509 69.6565 247.067 74.811 248.293 76.0372C249.601 77.3452 251.832 77.893 253.873 78.102C254.465 78.1626 254.465 78.0733 253.873 78.1339C251.832 78.3429 249.601 78.8908 248.293 80.1987C246.985 81.5066 246.437 83.7375 246.228 85.778Z" fill="#FFD500"/>
<path d="M210.109 57.9423C210.048 58.5344 210.138 58.5344 210.077 57.9423C209.868 55.9018 209.32 53.671 208.012 52.363C206.704 51.0551 204.473 50.5072 202.433 50.2983C201.841 50.2376 201.841 50.3269 202.433 50.2663C204.473 50.0573 206.704 49.5095 208.012 48.2015C209.238 46.9753 209.797 41.8208 210.034 36.3196C210.061 35.6786 210.125 35.6786 210.152 36.3196C210.389 41.8208 210.947 46.9753 212.174 48.2015C213.482 49.5095 215.712 50.0573 217.753 50.2663C218.345 50.3269 218.345 50.2376 217.753 50.2983C215.712 50.5072 213.482 51.0551 212.174 52.363C210.866 53.671 210.318 55.9018 210.109 57.9423Z" fill="#FFD500"/>
<path d="M101.275 133.621C101.275 144.848 105.734 155.614 113.672 163.552C121.61 171.49 132.377 175.95 143.603 175.95C154.829 175.95 165.595 171.49 173.533 163.552C181.471 155.614 185.931 144.848 185.931 133.621C185.931 122.395 181.471 111.629 173.533 103.691C165.595 95.7528 154.829 91.2932 143.603 91.2932C132.377 91.2932 121.61 95.7528 113.672 103.691C105.734 111.629 101.275 122.395 101.275 133.621V133.621Z" fill="#FF6242"/>
<path d="M143.603 99.9135C154.086 99.9151 164.195 103.804 171.976 110.829C179.757 117.854 184.657 127.515 185.726 137.943C185.863 136.51 185.931 135.077 185.931 133.621C185.931 122.395 181.471 111.629 173.533 103.691C165.595 95.7528 154.829 91.2932 143.603 91.2932C132.377 91.2932 121.61 95.7528 113.672 103.691C105.734 111.629 101.275 122.395 101.275 133.621C101.275 135.077 101.275 136.51 101.479 137.943C102.549 127.515 107.448 117.854 115.229 110.829C123.01 103.804 133.12 99.9151 143.603 99.9135V99.9135Z" fill="#FF866E"/>
<path d="M101.275 133.621C101.275 144.848 105.734 155.614 113.672 163.552C121.61 171.49 132.377 175.95 143.603 175.95C154.829 175.95 165.595 171.49 173.533 163.552C181.471 155.614 185.931 144.848 185.931 133.621C185.931 122.395 181.471 111.629 173.533 103.691C165.595 95.7528 154.829 91.2932 143.603 91.2932C132.377 91.2932 121.61 95.7528 113.672 103.691C105.734 111.629 101.275 122.395 101.275 133.621V133.621Z" stroke="#45413C" stroke-width="2.27449" stroke-linecap="round" stroke-linejoin="round"/>
<path d="M111.532 133.621C111.532 137.833 112.361 142.003 113.973 145.894C115.585 149.785 117.947 153.321 120.925 156.299C123.903 159.277 127.438 161.639 131.329 163.251C135.22 164.862 139.391 165.692 143.602 165.692C147.814 165.692 151.984 164.862 155.875 163.251C159.766 161.639 163.301 159.277 166.279 156.299C169.257 153.321 171.62 149.785 173.231 145.894C174.843 142.003 175.672 137.833 175.672 133.621C175.672 129.41 174.843 125.24 173.231 121.349C171.62 117.458 169.257 113.922 166.279 110.944C163.301 107.966 159.766 105.604 155.875 103.992C151.984 102.381 147.814 101.551 143.602 101.551C139.391 101.551 135.22 102.381 131.329 103.992C127.438 105.604 123.903 107.966 120.925 110.944C117.947 113.922 115.585 117.458 113.973 121.349C112.361 125.24 111.532 129.41 111.532 133.621V133.621Z" fill="white" stroke="#45413C" stroke-width="2.27449" stroke-linecap="round" stroke-linejoin="round"/>
<path d="M121.789 133.621C121.789 136.486 122.354 139.322 123.45 141.969C124.546 144.615 126.153 147.02 128.178 149.045C130.203 151.071 132.608 152.677 135.254 153.773C137.901 154.87 140.737 155.434 143.602 155.434C146.466 155.434 149.302 154.87 151.949 153.773C154.595 152.677 157 151.071 159.025 149.045C161.051 147.02 162.657 144.615 163.754 141.969C164.85 139.322 165.414 136.486 165.414 133.621C165.414 130.757 164.85 127.921 163.754 125.274C162.657 122.628 161.051 120.223 159.025 118.198C157 116.172 154.595 114.566 151.949 113.469C149.302 112.373 146.466 111.809 143.602 111.809C140.737 111.809 137.901 112.373 135.254 113.469C132.608 114.566 130.203 116.172 128.178 118.198C126.153 120.223 124.546 122.628 123.45 125.274C122.354 127.921 121.789 130.757 121.789 133.621V133.621Z" fill="#FF6242" stroke="#45413C" stroke-width="2.27449" stroke-linecap="round" stroke-linejoin="round"/>
<path d="M133.344 133.621C133.344 136.342 134.424 138.951 136.348 140.875C138.272 142.799 140.881 143.879 143.602 143.879C146.322 143.879 148.931 142.799 150.855 140.875C152.779 138.951 153.86 136.342 153.86 133.621C153.86 130.901 152.779 128.292 150.855 126.368C148.931 124.444 146.322 123.363 143.602 123.363C140.881 123.363 138.272 124.444 136.348 126.368C134.424 128.292 133.344 130.901 133.344 133.621Z" fill="white" stroke="#45413C" stroke-width="2.27449" stroke-linecap="round" stroke-linejoin="round"/>
<path d="M175.99 165.464C175.753 165.703 175.472 165.892 175.161 166.021C174.851 166.151 174.518 166.217 174.182 166.217C173.846 166.217 173.513 166.151 173.202 166.021C172.892 165.892 172.61 165.703 172.374 165.464L142.441 135.441C142.202 135.202 142.012 134.919 141.883 134.606C141.753 134.294 141.686 133.959 141.686 133.621C141.686 133.283 141.753 132.949 141.883 132.636C142.012 132.324 142.202 132.041 142.441 131.802C142.678 131.563 142.96 131.374 143.27 131.244C143.581 131.115 143.913 131.049 144.25 131.049C144.586 131.049 144.919 131.115 145.229 131.244C145.539 131.374 145.821 131.563 146.058 131.802L175.99 161.734C176.243 161.974 176.445 162.263 176.583 162.584C176.721 162.905 176.792 163.25 176.792 163.599C176.792 163.948 176.721 164.294 176.583 164.614C176.445 164.935 176.243 165.224 175.99 165.464Z" fill="#00B8F0" stroke="#45413C" stroke-width="2.27449" stroke-linecap="round" stroke-linejoin="round"/>
<path d="M157.863 143.584C157.863 143.584 172.989 139.581 181.45 145.403C189.501 150.976 185.362 158.504 179.63 159.915C174.899 161.097 170.532 156.298 170.532 156.298L157.863 143.584Z" fill="#00B8F0"/>
<path d="M181.45 151.817C182.967 152.817 184.223 154.167 185.112 155.752C186.681 152.75 186.226 148.769 181.45 145.471C172.989 139.649 157.863 143.652 157.863 143.652L163.231 149.02C168.394 148.315 176.218 148.133 181.45 151.817Z" fill="#4ACFFF"/>
<path d="M157.863 143.584C157.863 143.584 172.989 139.581 181.45 145.403C189.501 150.976 185.362 158.504 179.63 159.915C174.899 161.097 170.532 156.298 170.532 156.298L157.863 143.584Z" stroke="#45413C" stroke-width="2.27449" stroke-linecap="round" stroke-linejoin="round"/>
<path d="M154.247 147.268C154.247 147.268 150.244 162.394 156.067 170.855C161.617 178.907 169.168 174.767 170.578 169.035C171.761 164.282 166.962 159.937 166.962 159.937L154.247 147.268Z" fill="#00B8F0"/>
<path d="M169.828 171.014C170.158 170.388 170.41 169.723 170.579 169.035C171.761 164.282 166.962 159.937 166.962 159.937L154.248 147.268C153.694 149.58 153.306 151.929 153.088 154.297L169.828 171.014Z" fill="#009FD9"/>
<path d="M154.247 147.268C154.247 147.268 150.244 162.394 156.067 170.855C161.617 178.907 169.168 174.767 170.578 169.035C171.761 164.282 166.962 159.937 166.962 159.937L154.247 147.268Z" stroke="#45413C" stroke-width="2.27449" stroke-linecap="round" stroke-linejoin="round"/>
<path opacity="0.15" d="M114.101 182.091C114.101 183.11 117.209 184.088 122.742 184.809C128.274 185.53 135.778 185.935 143.602 185.935C151.425 185.935 158.929 185.53 164.461 184.809C169.994 184.088 173.102 183.11 173.102 182.091C173.102 181.071 169.994 180.094 164.461 179.373C158.929 178.652 151.425 178.247 143.602 178.247C135.778 178.247 128.274 178.652 122.742 179.373C117.209 180.094 114.101 181.071 114.101 182.091V182.091Z" fill="#45413C"/>
<path d="M88.5594 226.118L88.4937 224.008L92.0613 223.897C92.7006 223.877 93.1748 223.689 93.4837 223.334C93.805 222.966 93.9559 222.468 93.9364 221.842C93.9165 221.202 93.7217 220.703 93.3522 220.343C92.9954 219.983 92.4909 219.813 91.8388 219.833L88.3671 219.941L88.3014 217.832L91.6196 217.728C92.2206 217.71 92.6702 217.555 92.9683 217.264C93.2788 216.96 93.4253 216.527 93.4078 215.964C93.3903 215.401 93.2237 214.984 92.9081 214.712C92.6048 214.427 92.1591 214.294 91.5709 214.312L88.1951 214.418L88.1294 212.308L92.1381 212.183C93.3657 212.145 94.3664 212.427 95.1404 213.03C95.9143 213.633 96.318 214.472 96.3514 215.546C96.3725 216.224 96.2308 216.81 95.9263 217.306C95.6217 217.802 95.2049 218.186 94.6758 218.459C94.1467 218.731 93.5497 218.878 92.8848 218.898L92.9682 218.493C93.6842 218.47 94.3347 218.604 94.9197 218.893C95.5175 219.181 95.9977 219.601 96.3605 220.153C96.7229 220.692 96.9158 221.339 96.9393 222.094C96.9628 222.848 96.8044 223.519 96.4643 224.105C96.1366 224.678 95.6578 225.129 95.0281 225.455C94.411 225.782 93.6742 225.958 92.8175 225.985L88.5594 226.118ZM86.1427 226.193L85.7127 212.383L88.6665 212.291L89.0965 226.101L86.1427 226.193ZM103.4 225.847C102.313 225.881 101.36 225.7 100.541 225.303C99.7222 224.893 99.077 224.312 98.6055 223.558C98.1469 222.805 97.9021 221.929 97.871 220.932C97.8395 219.922 98.0295 219.033 98.4407 218.265C98.8644 217.484 99.466 216.87 100.246 216.423C101.025 215.964 101.939 215.718 102.987 215.685C103.998 215.653 104.88 215.831 105.634 216.217C106.389 216.603 106.982 217.154 107.414 217.87C107.845 218.586 108.077 219.437 108.107 220.421C108.114 220.626 108.113 220.818 108.106 220.997C108.098 221.164 108.084 221.324 108.063 221.479L99.5857 221.742L99.5266 219.844L105.684 219.652L105.196 220.013C105.171 219.22 104.961 218.644 104.566 218.285C104.183 217.913 103.666 217.737 103.013 217.758C102.259 217.781 101.679 218.055 101.273 218.58C100.88 219.104 100.699 219.878 100.731 220.9C100.762 221.898 100.989 222.633 101.414 223.106C101.851 223.579 102.485 223.802 103.316 223.777C103.776 223.762 104.17 223.673 104.498 223.509C104.826 223.346 105.067 223.089 105.223 222.738L107.927 222.654C107.637 223.61 107.111 224.375 106.348 224.949C105.597 225.51 104.615 225.81 103.4 225.847ZM114.571 229.435C113.216 229.478 112.101 229.224 111.226 228.676C110.364 228.127 109.841 227.362 109.657 226.382L112.381 226.297C112.491 226.537 112.714 226.716 113.05 226.833C113.399 226.95 113.836 227.001 114.36 226.985C115.23 226.957 115.858 226.772 116.244 226.427C116.63 226.082 116.812 225.558 116.79 224.855L116.724 222.726L116.878 222.759C116.773 223.479 116.42 224.06 115.819 224.501C115.218 224.929 114.464 225.157 113.556 225.186C112.686 225.213 111.919 225.038 111.255 224.662C110.603 224.273 110.086 223.719 109.705 223.002C109.325 222.284 109.119 221.433 109.088 220.448C109.057 219.451 109.216 218.576 109.563 217.822C109.911 217.069 110.411 216.478 111.063 216.048C111.728 215.618 112.508 215.388 113.403 215.361C114.324 215.332 115.079 215.526 115.668 215.943C116.269 216.359 116.633 216.943 116.759 217.694L116.625 217.718L116.555 215.454L119.374 215.367L119.666 224.727C119.71 226.133 119.277 227.254 118.369 228.088C117.461 228.936 116.195 229.385 114.571 229.435ZM114.484 222.949C115.162 222.928 115.705 222.681 116.112 222.207C116.52 221.721 116.71 221.043 116.683 220.173C116.656 219.304 116.417 218.646 115.968 218.199C115.532 217.739 114.968 217.52 114.278 217.541C113.613 217.562 113.07 217.816 112.65 218.302C112.243 218.789 112.053 219.466 112.08 220.336C112.107 221.205 112.339 221.864 112.775 222.311C113.224 222.758 113.794 222.97 114.484 222.949ZM121.979 225.077L121.675 215.295L124.552 215.205L124.856 224.987L121.979 225.077ZM121.538 213.994L121.441 210.887L124.51 210.791L124.607 213.898L121.538 213.994ZM127.149 224.916L126.844 215.134L129.664 215.046L129.736 217.348L129.793 217.346L130.026 224.826L127.149 224.916ZM133.958 224.704L133.769 218.643C133.753 218.106 133.599 217.708 133.31 217.448C133.033 217.188 132.632 217.066 132.108 217.082C131.66 217.096 131.261 217.211 130.909 217.427C130.57 217.642 130.304 217.932 130.111 218.296C129.93 218.66 129.847 219.085 129.862 219.571L129.54 217.22C129.837 216.494 130.286 215.91 130.887 215.469C131.5 215.015 132.26 214.773 133.168 214.745C134.255 214.711 135.096 214.992 135.69 215.588C136.284 216.171 136.597 216.974 136.629 217.997L136.835 224.614L133.958 224.704ZM139.024 224.546L138.72 214.764L141.539 214.677L141.611 216.978L141.668 216.976L141.901 224.457L139.024 224.546ZM145.833 224.334L145.645 218.273C145.628 217.736 145.475 217.338 145.185 217.078C144.908 216.818 144.508 216.696 143.983 216.712C143.536 216.726 143.136 216.841 142.785 217.057C142.446 217.272 142.179 217.562 141.986 217.926C141.805 218.29 141.723 218.715 141.738 219.201L141.415 216.85C141.712 216.124 142.161 215.54 142.762 215.099C143.375 214.645 144.135 214.404 145.043 214.375C146.13 214.342 146.971 214.623 147.565 215.218C148.16 215.802 148.473 216.605 148.504 217.627L148.71 224.245L145.833 224.334ZM155.509 224.225C154.422 224.259 153.469 224.077 152.651 223.68C151.831 223.271 151.186 222.689 150.715 221.936C150.256 221.182 150.011 220.307 149.98 219.309C149.949 218.299 150.139 217.41 150.55 216.642C150.974 215.861 151.575 215.247 152.355 214.801C153.134 214.341 154.048 214.095 155.097 214.062C156.107 214.031 156.989 214.208 157.743 214.594C158.498 214.98 159.091 215.532 159.523 216.248C159.955 216.964 160.186 217.814 160.217 218.799C160.223 219.003 160.222 219.195 160.215 219.375C160.208 219.541 160.193 219.702 160.173 219.856L151.695 220.12L151.636 218.221L157.793 218.029L157.305 218.39C157.28 217.597 157.07 217.022 156.675 216.663C156.292 216.291 155.775 216.115 155.123 216.135C154.368 216.159 153.788 216.433 153.382 216.957C152.989 217.481 152.808 218.255 152.84 219.278C152.871 220.275 153.099 221.011 153.523 221.484C153.96 221.957 154.594 222.18 155.425 222.154C155.886 222.14 156.28 222.051 156.607 221.887C156.935 221.723 157.177 221.466 157.332 221.116L160.036 221.031C159.746 221.988 159.22 222.753 158.457 223.327C157.706 223.888 156.724 224.187 155.509 224.225ZM161.913 223.834L161.609 214.052L164.428 213.964L164.5 216.266L164.558 216.264L164.79 223.744L161.913 223.834ZM164.632 218.642L164.31 216.329C164.514 215.491 164.872 214.846 165.382 214.395C165.893 213.944 166.539 213.706 167.319 213.682C167.562 213.674 167.741 213.694 167.858 213.742L167.942 216.427C167.877 216.404 167.787 216.394 167.672 216.397C167.556 216.388 167.416 216.386 167.249 216.391C166.329 216.42 165.656 216.607 165.232 216.953C164.807 217.286 164.607 217.849 164.632 218.642Z" fill="#FF6242"/>
<path d="M167.671 226.88L167.628 225.48C168.223 225.282 168.605 225.008 168.773 224.657C168.942 224.306 169.017 223.856 169 223.306L170.18 223.576L167.533 223.659L167.434 220.494L170.599 220.395L170.669 222.639C170.7 223.65 170.491 224.527 170.04 225.27C169.59 226.014 168.8 226.55 167.671 226.88ZM181.303 223.441C180.05 223.48 179.107 223.209 178.474 222.627C177.854 222.032 177.525 221.114 177.486 219.874L177.222 211.377L180.065 210.213L180.366 219.88C180.38 220.315 180.511 220.637 180.761 220.847C181.011 221.057 181.392 221.154 181.903 221.138C182.095 221.132 182.273 221.107 182.438 221.064C182.603 221.02 182.768 220.97 182.933 220.914L183.001 223.1C182.837 223.195 182.603 223.273 182.298 223.333C182.005 223.394 181.674 223.43 181.303 223.441ZM175.536 215.807L175.468 213.62L182.699 213.395L182.767 215.582L175.536 215.807ZM184.728 223.123L184.298 209.313L187.175 209.224L187.605 223.034L184.728 223.123ZM191.537 222.911L191.348 216.85C191.331 216.313 191.178 215.915 190.888 215.655C190.611 215.395 190.211 215.273 189.687 215.289C189.239 215.303 188.839 215.418 188.488 215.634C188.149 215.849 187.883 216.139 187.689 216.503C187.509 216.867 187.426 217.292 187.441 217.778L187.118 215.427C187.416 214.701 187.865 214.117 188.465 213.676C189.078 213.222 189.839 212.981 190.747 212.952C191.833 212.919 192.674 213.2 193.269 213.795C193.863 214.379 194.176 215.182 194.208 216.205L194.414 222.822L191.537 222.911ZM201.212 222.802C200.125 222.836 199.172 222.654 198.354 222.257C197.535 221.848 196.889 221.266 196.418 220.513C195.959 219.759 195.714 218.884 195.683 217.886C195.652 216.876 195.842 215.987 196.253 215.219C196.677 214.438 197.278 213.824 198.058 213.378C198.837 212.918 199.751 212.672 200.8 212.639C201.81 212.608 202.692 212.785 203.447 213.171C204.201 213.557 204.794 214.109 205.226 214.825C205.658 215.541 205.889 216.391 205.92 217.376C205.926 217.58 205.926 217.772 205.918 217.952C205.911 218.118 205.897 218.279 205.876 218.433L197.398 218.697L197.339 216.798L203.496 216.606L203.008 216.967C202.983 216.174 202.773 215.599 202.378 215.24C201.995 214.868 201.478 214.692 200.826 214.712C200.071 214.736 199.491 215.01 199.085 215.534C198.692 216.058 198.511 216.832 198.543 217.855C198.574 218.852 198.802 219.588 199.226 220.061C199.663 220.534 200.297 220.757 201.128 220.731C201.589 220.717 201.983 220.628 202.31 220.464C202.638 220.3 202.88 220.043 203.035 219.693L205.74 219.608C205.449 220.565 204.923 221.33 204.16 221.904C203.41 222.465 202.427 222.764 201.212 222.802ZM83.9039 250.466C82.881 250.498 81.9727 250.309 81.1792 249.898C80.3857 249.488 79.7532 248.906 79.2818 248.153C78.8231 247.399 78.5785 246.53 78.5478 245.545C78.5172 244.561 78.7073 243.678 79.1181 242.897C79.5418 242.116 80.1368 241.496 80.9033 241.037C81.6698 240.578 82.5645 240.332 83.5874 240.301C84.4442 240.274 85.2163 240.41 85.904 240.708C86.6041 240.994 87.18 241.405 87.6319 241.941C88.0966 242.477 88.4044 243.114 88.5553 243.851L85.7742 243.938C85.6188 243.469 85.3519 243.119 84.9735 242.888C84.6079 242.656 84.1822 242.547 83.6963 242.563C83.2359 242.577 82.8367 242.705 82.4986 242.945C82.1734 243.186 81.9278 243.52 81.7619 243.948C81.596 244.375 81.522 244.877 81.5399 245.452C81.5579 246.027 81.6629 246.523 81.8551 246.94C82.0472 247.356 82.3131 247.674 82.6527 247.894C83.0051 248.113 83.4115 248.216 83.8718 248.202C84.3577 248.187 84.7759 248.052 85.1264 247.798C85.4897 247.543 85.7342 247.177 85.8602 246.7L88.6413 246.613C88.5365 247.359 88.2689 248.014 87.8385 248.577C87.4209 249.141 86.8718 249.593 86.1913 249.934C85.5231 250.262 84.7607 250.439 83.9039 250.466ZM93.2022 250.177C92.5117 250.198 91.9126 250.07 91.4047 249.791C90.9093 249.499 90.5259 249.108 90.2546 248.617C89.983 248.114 89.8374 247.549 89.8179 246.922L89.6118 240.305L92.4889 240.215L92.6776 246.276C92.6943 246.813 92.8411 247.212 93.118 247.472C93.3949 247.732 93.7763 247.855 94.2622 247.84C94.697 247.826 95.0774 247.712 95.4035 247.497C95.7296 247.282 95.9829 246.993 96.1636 246.629C96.3566 246.251 96.4458 245.826 96.4311 245.353L96.7539 247.705C96.4561 248.418 96.0071 249.001 95.4068 249.455C94.8066 249.909 94.0717 250.15 93.2022 250.177ZM96.6295 249.878L96.5579 247.576L96.5003 247.578L96.2674 240.098L99.1445 240.008L99.4491 249.79L96.6295 249.878ZM101.757 249.718L101.452 239.936L104.272 239.848L104.344 242.15L104.401 242.148L104.634 249.629L101.757 249.718ZM104.475 244.527L104.154 242.214C104.358 241.375 104.715 240.731 105.226 240.28C105.737 239.828 106.382 239.591 107.162 239.567C107.405 239.559 107.585 239.579 107.702 239.627L107.785 242.312C107.721 242.288 107.631 242.278 107.516 242.282C107.4 242.273 107.259 242.271 107.093 242.276C106.172 242.304 105.5 242.492 105.075 242.838C104.651 243.171 104.451 243.734 104.475 244.527ZM109.249 249.485L108.945 239.703L111.822 239.613L112.126 249.395L109.249 249.485ZM108.808 238.402L108.711 235.295L111.78 235.199L111.877 238.306L108.808 238.402ZM119.029 249.372C117.955 249.406 117.002 249.224 116.171 248.828C115.352 248.418 114.7 247.837 114.216 247.084C113.744 246.318 113.492 245.43 113.461 244.42C113.429 243.41 113.626 242.52 114.05 241.752C114.487 240.983 115.101 240.375 115.894 239.928C116.699 239.481 117.639 239.24 118.713 239.207C119.8 239.173 120.752 239.355 121.571 239.751C122.403 240.148 123.054 240.716 123.525 241.457C123.996 242.197 124.247 243.073 124.279 244.083C124.31 245.093 124.108 245.995 123.672 246.79C123.248 247.571 122.634 248.192 121.829 248.652C121.037 249.099 120.103 249.339 119.029 249.372ZM118.959 247.109C119.406 247.095 119.805 246.968 120.156 246.726C120.52 246.485 120.804 246.149 121.008 245.721C121.212 245.279 121.305 244.758 121.286 244.157C121.258 243.275 121.001 242.604 120.513 242.146C120.037 241.674 119.461 241.449 118.783 241.47C118.105 241.491 117.538 241.752 117.08 242.253C116.634 242.753 116.425 243.438 116.452 244.307C116.471 244.908 116.596 245.423 116.827 245.851C117.057 246.266 117.355 246.583 117.72 246.802C118.098 247.021 118.511 247.123 118.959 247.109ZM129.128 249.058C128.437 249.08 127.838 248.951 127.33 248.672C126.835 248.381 126.452 247.989 126.18 247.499C125.909 246.995 125.763 246.43 125.744 245.804L125.538 239.186L128.415 239.097L128.603 245.158C128.62 245.695 128.767 246.093 129.044 246.354C129.321 246.614 129.702 246.736 130.188 246.721C130.623 246.708 131.003 246.593 131.329 246.378C131.655 246.164 131.909 245.874 132.089 245.51C132.282 245.133 132.372 244.708 132.357 244.235L132.68 246.586C132.382 247.299 131.933 247.883 131.333 248.337C130.732 248.791 129.997 249.031 129.128 249.058ZM132.555 248.759L132.484 246.458L132.426 246.459L132.193 238.979L135.07 238.89L135.375 248.672L132.555 248.759ZM141.509 248.673C140.077 248.717 138.93 248.465 138.068 247.916C137.206 247.367 136.721 246.588 136.613 245.58L139.183 245.5C139.26 245.933 139.488 246.259 139.866 246.477C140.256 246.683 140.784 246.775 141.449 246.755C142.05 246.736 142.482 246.639 142.746 246.465C143.021 246.277 143.154 246.023 143.144 245.703C143.137 245.46 143.048 245.278 142.878 245.155C142.72 245.019 142.428 244.913 142.004 244.837L140.421 244.559C139.25 244.353 138.381 244.015 137.817 243.546C137.251 243.065 136.956 242.434 136.932 241.654C136.903 240.708 137.244 239.961 137.957 239.414C138.669 238.854 139.677 238.554 140.981 238.514C142.273 238.473 143.31 238.703 144.094 239.204C144.877 239.691 145.321 240.394 145.427 241.313L142.856 241.393C142.795 241.062 142.608 240.818 142.296 240.661C141.984 240.492 141.546 240.416 140.983 240.433C140.472 240.449 140.091 240.538 139.84 240.699C139.601 240.848 139.486 241.056 139.494 241.324C139.502 241.555 139.61 241.737 139.819 241.871C140.027 241.993 140.37 242.097 140.846 242.185L142.622 242.494C143.613 242.668 144.366 243.029 144.883 243.576C145.411 244.11 145.687 244.754 145.711 245.508C145.741 246.467 145.387 247.227 144.649 247.788C143.924 248.335 142.877 248.63 141.509 248.673ZM150.869 248.189L150.439 234.379L153.316 234.29L153.746 248.1L150.869 248.189ZM160.648 248.077C159.561 248.11 158.608 247.929 157.79 247.532C156.971 247.122 156.325 246.541 155.854 245.788C155.395 245.034 155.15 244.158 155.119 243.161C155.088 242.151 155.278 241.262 155.689 240.494C156.113 239.713 156.714 239.099 157.494 238.652C158.273 238.193 159.187 237.947 160.236 237.914C161.246 237.883 162.128 238.06 162.883 238.446C163.637 238.832 164.23 239.383 164.662 240.099C165.094 240.815 165.325 241.666 165.356 242.65C165.362 242.855 165.362 243.047 165.355 243.226C165.347 243.393 165.333 243.553 165.312 243.708L156.834 243.972L156.775 242.073L162.932 241.881L162.444 242.242C162.419 241.449 162.209 240.873 161.814 240.514C161.431 240.142 160.914 239.966 160.262 239.987C159.507 240.01 158.927 240.284 158.521 240.809C158.128 241.333 157.947 242.107 157.979 243.13C158.01 244.127 158.238 244.862 158.662 245.335C159.099 245.808 159.733 246.032 160.565 246.006C161.025 245.991 161.419 245.902 161.747 245.739C162.074 245.575 162.316 245.318 162.471 244.967L165.176 244.883C164.885 245.839 164.359 246.604 163.596 247.179C162.846 247.739 161.863 248.039 160.648 248.077ZM173.004 247.5C172.918 247.221 172.851 246.922 172.803 246.604C172.767 246.285 172.743 245.915 172.73 245.493L172.653 245.495L172.509 240.873C172.497 240.476 172.353 240.173 172.078 239.964C171.815 239.742 171.428 239.639 170.916 239.655C170.43 239.67 170.043 239.765 169.754 239.941C169.478 240.116 169.3 240.364 169.22 240.687L166.478 240.772C166.578 239.886 167.009 239.143 167.771 238.543C168.533 237.944 169.592 237.623 170.948 237.581C172.354 237.537 173.438 237.817 174.199 238.42C174.96 239.024 175.359 239.913 175.396 241.09L175.53 245.405C175.54 245.725 175.569 246.051 175.618 246.382C175.679 246.7 175.767 247.043 175.881 247.41L173.004 247.5ZM169.595 247.798C168.624 247.828 167.842 247.609 167.252 247.141C166.661 246.661 166.353 246.011 166.327 245.193C166.299 244.285 166.615 243.546 167.276 242.975C167.949 242.39 168.896 241.996 170.119 241.792L172.964 241.3L173.016 242.969L170.649 243.407C170.14 243.5 169.767 243.652 169.53 243.864C169.294 244.076 169.181 244.362 169.192 244.72C169.202 245.039 169.325 245.279 169.56 245.438C169.796 245.597 170.105 245.67 170.489 245.658C171.09 245.64 171.596 245.464 172.008 245.131C172.42 244.785 172.619 244.395 172.605 243.961L172.922 245.487C172.663 246.224 172.252 246.787 171.688 247.176C171.124 247.565 170.427 247.772 169.595 247.798ZM177.804 247.351L177.5 237.569L180.319 237.481L180.391 239.782L180.448 239.781L180.681 247.261L177.804 247.351ZM180.522 242.159L180.201 239.846C180.405 239.008 180.763 238.363 181.273 237.912C181.784 237.461 182.429 237.223 183.209 237.199C183.452 237.191 183.632 237.211 183.749 237.259L183.832 239.944C183.768 239.92 183.678 239.91 183.563 239.914C183.447 239.905 183.306 239.903 183.14 239.908C182.219 239.937 181.547 240.124 181.123 240.47C180.698 240.803 180.498 241.366 180.522 242.159ZM185.446 247.113L185.142 237.331L187.961 237.243L188.033 239.544L188.09 239.543L188.323 247.023L185.446 247.113ZM192.255 246.901L192.067 240.84C192.05 240.303 191.897 239.904 191.607 239.644C191.33 239.384 190.93 239.262 190.405 239.279C189.958 239.293 189.558 239.407 189.207 239.623C188.868 239.838 188.601 240.128 188.408 240.493C188.227 240.857 188.145 241.282 188.16 241.768L187.837 239.416C188.134 238.69 188.583 238.107 189.184 237.665C189.797 237.211 190.557 236.97 191.465 236.942C192.552 236.908 193.393 237.189 193.987 237.785C194.582 238.368 194.895 239.171 194.926 240.194L195.132 246.811L192.255 246.901ZM201.931 246.791C200.844 246.825 199.891 246.644 199.073 246.247C198.253 245.837 197.608 245.256 197.137 244.502C196.678 243.749 196.433 242.873 196.402 241.876C196.371 240.866 196.561 239.976 196.972 239.209C197.396 238.427 197.997 237.813 198.777 237.367C199.556 236.907 200.47 236.661 201.519 236.629C202.529 236.597 203.411 236.775 204.165 237.161C204.92 237.547 205.513 238.098 205.945 238.814C206.377 239.53 206.608 240.38 206.639 241.365C206.645 241.57 206.644 241.762 206.637 241.941C206.63 242.108 206.615 242.268 206.595 242.422L198.117 242.686L198.058 240.787L204.215 240.596L203.727 240.956C203.702 240.164 203.492 239.588 203.097 239.229C202.714 238.857 202.197 238.681 201.545 238.701C200.79 238.725 200.21 238.999 199.804 239.524C199.411 240.048 199.23 240.821 199.262 241.844C199.293 242.842 199.521 243.577 199.945 244.05C200.382 244.523 201.016 244.746 201.847 244.72C202.308 244.706 202.702 244.617 203.029 244.453C203.357 244.289 203.599 244.032 203.754 243.682L206.458 243.598C206.168 244.554 205.642 245.319 204.879 245.893C204.128 246.454 203.146 246.753 201.931 246.791ZM208.335 246.4L208.031 236.618L210.85 236.53L210.922 238.832L210.98 238.83L211.212 246.31L208.335 246.4ZM211.054 241.208L210.732 238.895C210.936 238.057 211.294 237.412 211.805 236.961C212.315 236.51 212.961 236.272 213.741 236.248C213.984 236.241 214.163 236.261 214.28 236.308L214.364 238.993C214.299 238.97 214.209 238.96 214.094 238.963C213.978 238.954 213.838 238.952 213.671 238.957C212.751 238.986 212.078 239.173 211.654 239.519C211.229 239.853 211.029 240.416 211.054 241.208Z" fill="#030712"/>
<defs>
<filter id="filter0_d_1717_2579" x="0.86599" y="0.336815" width="284.763" height="306.068" filterUnits="userSpaceOnUse" color-interpolation-filters="sRGB">
<feFlood flood-opacity="0" result="BackgroundImageFix"/>
<feColorMatrix in="SourceAlpha" type="matrix" values="0 0 0 0 0 0 0 0 0 0 0 0 0 0 0 0 0 0 127 0" result="hardAlpha"/>
<feOffset/>
<feGaussianBlur stdDeviation="24.6544"/>
<feComposite in2="hardAlpha" operator="out"/>
<feColorMatrix type="matrix" values="0 0 0 0 0 0 0 0 0 0 0 0 0 0 0 0 0 0 0.15 0"/>
<feBlend mode="normal" in2="BackgroundImageFix" result="effect1_dropShadow_1717_2579"/>
<feBlend mode="normal" in="SourceGraphic" in2="effect1_dropShadow_1717_2579" result="shape"/>
</filter>
</defs>
</svg>
