<svg width="108" height="102" viewBox="0 0 108 102" fill="none" xmlns="http://www.w3.org/2000/svg">
<path opacity="0.15" d="M10.6807 94.6739C10.6807 95.1203 11.5137 95.5624 13.1321 95.9749C14.7506 96.3873 17.1228 96.7621 20.1133 97.0778C23.1039 97.3934 26.6541 97.6438 30.5614 97.8147C34.4687 97.9855 38.6566 98.0735 42.8858 98.0735C47.115 98.0735 51.3029 97.9855 55.2102 97.8147C59.1175 97.6438 62.6677 97.3934 65.6583 97.0778C68.6488 96.7621 71.021 96.3873 72.6395 95.9749C74.2579 95.5624 75.0909 95.1203 75.0909 94.6739C75.0909 94.2275 74.2579 93.7854 72.6395 93.373C71.021 92.9605 68.6488 92.5857 65.6583 92.2701C62.6677 91.9544 59.1175 91.704 55.2102 91.5331C51.3029 91.3623 47.115 91.2744 42.8858 91.2744C38.6566 91.2744 34.4687 91.3623 30.5614 91.5331C26.6541 91.704 23.1039 91.9544 20.1133 92.2701C17.1228 92.5857 14.7506 92.9605 13.1321 93.373C11.5137 93.7854 10.6807 94.2275 10.6807 94.6739Z" fill="#45413C"/>
<path d="M42.5226 63.5339L13.0597 49.0518L9.45622 78.356C9.41202 78.7157 9.48242 79.0802 9.65739 79.3976C9.83236 79.715 10.103 79.9691 10.4308 80.1238L38.8737 94.0846C40.282 94.7654 41.8771 94.9569 43.4065 94.6285L74.3424 87.8294C74.6966 87.7447 75.0166 87.5539 75.2595 87.2826C75.5025 87.0113 75.6569 86.6723 75.7022 86.311L79.2151 57.0068L47.146 64.0779C45.5876 64.4236 43.9581 64.2319 42.5226 63.5339Z" fill="#FF866E"/>
<path d="M47.1469 64.0778C45.6149 64.3957 44.0207 64.1964 42.6141 63.5113L13.1513 49.0291L11.9048 57.7773L41.4809 72.2594C42.8866 72.9479 44.4818 73.1473 46.0137 72.826L78.1735 65.7096L79.216 56.9841L47.1469 64.0778Z" fill="#FF6242"/>
<path d="M42.5226 63.5339L13.0597 49.0518L9.45622 78.356C9.41202 78.7157 9.48242 79.0802 9.65739 79.3976C9.83236 79.715 10.103 79.9691 10.4308 80.1238L38.8737 94.0846C40.282 94.7654 41.8771 94.9569 43.4065 94.6285L74.3424 87.8294C74.6966 87.7447 75.0166 87.5539 75.2595 87.2826C75.5025 87.0113 75.6569 86.6723 75.7022 86.311L79.2151 57.0068L47.146 64.0779C45.5876 64.4236 43.9581 64.2319 42.5226 63.5339V63.5339Z" stroke="#45413C" stroke-width="2.26637" stroke-linecap="round" stroke-linejoin="round"/>
<path d="M41.5024 91.6822L44.3127 68.1119" stroke="#E04122" stroke-width="2.26637" stroke-linecap="round" stroke-linejoin="round"/>
<path d="M79.2835 56.9841L49.8206 42.4794C48.4114 41.8019 46.8174 41.6106 45.2879 41.9354L12.9468 49.0518L42.5229 63.534C43.9295 64.2191 45.5237 64.4184 47.0557 64.1005L79.2835 56.9841Z" fill="#E04122" stroke="#45413C" stroke-width="2.26637" stroke-linecap="round" stroke-linejoin="round"/>
<path d="M19.6549 52.3154L15.9834 82.8661L31.0321 90.2545L34.7036 59.7038L19.6549 52.3154Z" fill="#EDDBFF"/>
<path d="M19.656 52.3154L18.5908 61.0409L33.6622 68.4293L34.7047 59.7038L19.656 52.3154Z" fill="#DABFF5"/>
<path d="M19.6549 52.3154L15.9834 82.8661L31.0321 90.2545L34.7036 59.7038L19.6549 52.3154Z" stroke="#45413C" stroke-width="2.26637" stroke-linecap="round" stroke-linejoin="round"/>
<path d="M72.0077 58.5932L68.3588 89.1439L51.9956 92.7474L55.6445 62.2194L72.0077 58.5932Z" fill="#EDDBFF"/>
<path d="M72.0083 58.5932L70.9657 67.3187L54.6025 70.9449L55.6451 62.2194L72.0083 58.5932Z" fill="#DABFF5"/>
<path d="M72.0077 58.5932L68.3588 89.1439L51.9956 92.7474L55.6445 62.2194L72.0077 58.5932Z" stroke="#45413C" stroke-width="2.26637" stroke-linecap="round" stroke-linejoin="round"/>
<path d="M36.6755 36.7227L2 33.9124L4.8103 44.6097C4.90075 44.9628 5.10087 45.2781 5.38188 45.5102C5.66288 45.7423 6.01028 45.8793 6.3741 45.9015L39.8031 48.6212C41.4045 48.7602 43.0049 48.344 44.3358 47.4426L72.1215 28.7224C72.4192 28.5143 72.6475 28.2215 72.7768 27.882C72.9061 27.5426 72.9305 27.1721 72.8468 26.8187L70.0365 16.1214L41.1856 35.5442C39.8543 36.4258 38.2679 36.8403 36.6755 36.7227Z" fill="#FF866E"/>
<path d="M41.1856 35.5442C39.848 36.4307 38.2528 36.8454 36.6528 36.7227L2 33.9124L3.33716 39.0117L38.0126 41.8221C39.6125 41.943 41.2071 41.5284 42.5454 40.6435L71.3963 21.2207L70.0591 16.1214L41.1856 35.5442Z" fill="#FFA694"/>
<path d="M36.6755 36.7227L2 33.9124L4.8103 44.6097C4.90075 44.9628 5.10087 45.2781 5.38188 45.5102C5.66288 45.7423 6.01028 45.8793 6.3741 45.9015L39.8031 48.6212C41.4045 48.7602 43.0049 48.344 44.3358 47.4426L72.1215 28.7224C72.4192 28.5143 72.6475 28.2215 72.7768 27.882C72.9061 27.5426 72.9305 27.1721 72.8468 26.8187L70.0365 16.1214L41.1856 35.5442C39.8543 36.4258 38.2679 36.8403 36.6755 36.7227V36.7227Z" stroke="#45413C" stroke-width="2.26637" stroke-linecap="round" stroke-linejoin="round"/>
<path d="M2 33.9125L30.9416 14.467C32.2746 13.5719 33.8754 13.1637 35.4743 13.3112L70.1498 16.1215L41.1856 35.5443C39.848 36.4308 38.2528 36.8455 36.6528 36.7228L2 33.9125Z" fill="#FF866E" stroke="#45413C" stroke-width="2.26637" stroke-linecap="round" stroke-linejoin="round"/>
<path d="M40.6425 13.7191L9.43457 34.5017L12.5395 46.4228L29.2653 47.7599L26.1377 35.8615L57.3457 15.0789L40.6425 13.7191Z" fill="#EDDBFF" stroke="#45413C" stroke-width="2.26637" stroke-linecap="round" stroke-linejoin="round"/>
<path d="M14.3965 34.9095L22.8274 35.5895" stroke="#BF8DF2" stroke-width="2.26637" stroke-linecap="round" stroke-linejoin="round"/>
<path d="M26.4768 17.4359L63.8493 20.2689L66.9769 32.1673L53.0614 41.5274L49.9564 29.629L12.584 26.796L26.4768 17.4359Z" fill="#EDDBFF" stroke="#45413C" stroke-width="2.26637" stroke-linecap="round" stroke-linejoin="round"/>
<path d="M59.7243 23.0565L52.7212 27.7705" stroke="#BF8DF2" stroke-width="2.26637" stroke-linecap="round" stroke-linejoin="round"/>
<path d="M42.0471 24.643L37.877 21.674C37.877 21.674 42.4097 3.54304 54.7841 2.04724C55.9744 1.88591 57.1839 2.14064 58.2081 2.76835C59.2323 3.39606 60.0082 4.35822 60.4047 5.49212L62.3538 10.8181L42.0471 24.643Z" fill="#DABFF5" stroke="#45413C" stroke-width="2.26637" stroke-linecap="round" stroke-linejoin="round"/>
<path d="M42.0469 24.643C42.0469 24.643 52.7895 23.8044 62.0136 12.6765C62.2876 12.4084 62.4671 12.0585 62.5249 11.6796C62.5827 11.3006 62.5158 10.9131 62.3342 10.5755C62.1526 10.2379 61.8662 9.96847 61.5181 9.80783C61.1701 9.6472 60.7792 9.60406 60.4045 9.68492C56.2861 10.3076 52.4103 12.0239 49.1813 14.6549C45.9523 17.286 43.4885 20.7352 42.0469 24.643Z" fill="#BF8DF2" stroke="#45413C" stroke-width="2.26637" stroke-linecap="round" stroke-linejoin="round"/>
<path d="M30.9422 27.8159L32.7779 23.0339C32.7779 23.0339 19.6103 10.9541 8.39177 16.4841C7.33676 17.0227 6.49562 17.9032 6.00575 18.9818C5.51588 20.0603 5.40626 21.2731 5.69478 22.4219L7.03194 27.9519L30.9422 27.8159Z" fill="#DABFF5" stroke="#45413C" stroke-width="2.26637" stroke-linecap="round" stroke-linejoin="round"/>
<path d="M30.9417 27.8159C30.9417 27.8159 22.1029 33.5045 8.27804 29.357C7.93455 29.2589 7.62884 29.0591 7.40117 28.7838C7.1735 28.5086 7.03457 28.1708 7.00267 27.815C6.97077 27.4592 7.04741 27.1021 7.22248 26.7908C7.39755 26.4794 7.66285 26.2284 7.98341 26.0708C11.6115 24.2628 15.6613 23.4704 19.7032 23.7776C23.7452 24.0848 27.6286 25.4802 30.9417 27.8159Z" fill="#BF8DF2" stroke="#45413C" stroke-width="2.26637" stroke-linecap="round" stroke-linejoin="round"/>
<path d="M32.0755 26.2295C32.0755 26.2295 20.517 33.0286 19.9277 42.7513L25.8203 40.2583L29.1972 46.0602C29.1972 46.0602 31.7355 30.6942 36.6536 27.4306L32.0755 26.2295Z" fill="#BF8DF2" stroke="#45413C" stroke-width="2.26637" stroke-linecap="round" stroke-linejoin="round"/>
<path d="M40.1435 24.235C40.1435 24.235 53.5151 24.8016 58.5918 33.3005L52.2233 33.8445L51.9287 40.5303C51.9287 40.5303 42.5232 28.1105 36.6533 27.4986L40.1435 24.235Z" fill="#BF8DF2" stroke="#45413C" stroke-width="2.26637" stroke-linecap="round" stroke-linejoin="round"/>
<path d="M43.2021 21.1754C44.0634 24.4616 41.3211 27.9745 37.1056 29.1304C32.8902 30.2862 28.7427 28.4731 27.9041 25.1869C27.0656 21.9006 29.7626 18.3878 34.0007 17.2319C38.2388 16.0761 42.2729 17.8891 43.2021 21.1754Z" fill="#BF8DF2"/>
<path d="M34.8859 20.6315C36.3545 20.136 37.937 20.0869 39.4335 20.4902C40.93 20.8936 42.2735 21.7314 43.2941 22.8979C43.407 22.2988 43.407 21.6839 43.2941 21.0848C42.4329 17.7985 38.3081 16.0308 34.0926 17.1413C29.8772 18.2518 27.1349 21.81 27.9961 25.0963C28.1507 25.6801 28.4204 26.2272 28.7893 26.7054C29.1054 25.2101 29.8504 23.8393 30.9331 22.7606C32.0158 21.6819 33.3894 20.942 34.8859 20.6315Z" fill="#DABFF5"/>
<path d="M43.2021 21.1754C44.0634 24.4616 41.3211 27.9745 37.1056 29.1304C32.8902 30.2862 28.7427 28.4731 27.9041 25.1869C27.0656 21.9006 29.7626 18.3878 34.0007 17.2319C38.2388 16.0761 42.2729 17.8891 43.2021 21.1754Z" stroke="#45413C" stroke-width="2.26637" stroke-linecap="round" stroke-linejoin="round"/>
<path d="M65.6858 53.8338C64.7563 55.3053 63.4774 56.5243 61.963 57.3824C60.4486 58.2404 58.7457 58.7108 57.0056 58.7518L53.9233 53.3352C55.6767 53.3009 57.3941 52.8314 58.921 51.969C60.448 51.1066 61.7368 49.8783 62.6715 48.3945L65.6858 53.8338Z" fill="#00F5BC" stroke="#45413C" stroke-width="2.26637" stroke-linecap="round" stroke-linejoin="round"/>
<path d="M101.199 14.6256C101.258 16.3946 100.874 18.1503 100.083 19.7334C99.2912 21.3165 98.1169 22.6769 96.6663 23.6911L91.0684 20.9488C92.4939 19.9193 93.6418 18.5522 94.4091 16.9701C95.1765 15.3879 95.5393 13.6401 95.4651 11.8833L101.199 14.6256Z" fill="#FF6242" stroke="#45413C" stroke-width="2.26637" stroke-linecap="round" stroke-linejoin="round"/>
<path d="M88.8469 100.34C87.7201 99.0101 86.9383 97.4232 86.5707 95.7195C86.203 94.0158 86.2609 92.2477 86.7392 90.5717L92.8584 89.2572C92.3811 90.9318 92.3216 92.6979 92.6851 94.4008C93.0486 96.1037 93.824 97.6916 94.9435 99.0253L88.8469 100.34Z" fill="#FF6196" stroke="#45413C" stroke-width="2.26637" stroke-linecap="round" stroke-linejoin="round"/>
<path d="M106.865 51.6807C105.621 52.9006 104.095 53.7951 102.423 54.2852C100.751 54.7754 98.9839 54.8461 97.278 54.491L95.5103 48.5078C97.218 48.86 98.9861 48.7857 100.658 48.2915C102.33 47.7974 103.855 46.8987 105.097 45.6748L106.865 51.6807Z" fill="#FF8A14" stroke="#45413C" stroke-width="2.26637" stroke-linecap="round" stroke-linejoin="round"/>
<path d="M82.0252 67.5453C83.7683 67.6163 85.4673 68.1142 86.973 68.9955C88.4786 69.8767 89.7447 71.1142 90.6601 72.5994L87.6005 77.9933C86.6932 76.5059 85.4321 75.266 83.9294 74.3842C82.4268 73.5024 80.7293 73.006 78.9883 72.9393L82.0252 67.5453Z" fill="#4AEFF7" stroke="#45413C" stroke-width="2.26637" stroke-linecap="round" stroke-linejoin="round"/>
<path d="M67.2034 95.1272C65.4834 95.4103 63.7202 95.267 62.0685 94.7099C60.4168 94.1527 58.927 93.1987 57.73 91.9316L59.747 86.0164C60.9358 87.2882 62.4212 88.2457 64.0704 88.8033C65.7195 89.3609 67.4811 89.5013 69.1978 89.2119L67.2034 95.1272Z" fill="#FFF48C" stroke="#45413C" stroke-width="2.26637" stroke-linecap="round" stroke-linejoin="round"/>
<path d="M73.5947 42.638C73.9694 40.9351 74.7563 39.3503 75.8865 38.0226C77.0166 36.6948 78.4554 35.6648 80.0765 35.023L84.8359 39.1478C83.2126 39.7862 81.7719 40.8152 80.6413 42.1434C79.5106 43.4717 78.725 45.0584 78.3541 46.7628L73.5947 42.638Z" fill="#FFF48C" stroke="#45413C" stroke-width="2.26637" stroke-linecap="round" stroke-linejoin="round"/>
</svg>
