<svg width="286" height="307" viewBox="0 0 286 307" fill="none" xmlns="http://www.w3.org/2000/svg">
<g filter="url(#filter0_d_1717_2578)">
<mask id="path-1-outside-1_1717_2578" maskUnits="userSpaceOnUse" x="50.2181" y="49.6174" width="186.531" height="207.553" fill="black">
<rect fill="white" x="50.2181" y="49.6174" width="186.531" height="207.553"/>
<path d="M60.6436 66.9153L218.229 60.0544L224.312 199.763L66.7261 206.624L60.6436 66.9153Z"/>
</mask>
<path d="M60.6436 66.9153L218.229 60.0544L224.312 199.763L66.7261 206.624L60.6436 66.9153Z" fill="#ECECEC"/>
<path d="M60.6436 66.9153L60.2111 56.9834L50.2793 57.4158L50.7117 67.3477L60.6436 66.9153ZM218.229 60.0544L228.161 59.622L227.729 49.6901L217.797 50.1225L218.229 60.0544ZM224.312 199.763L226.493 249.847L236.424 249.415L234.244 199.33L224.312 199.763ZM66.7261 206.624L56.7942 207.056L58.9748 257.14L68.9066 256.708L66.7261 206.624ZM61.076 76.8472L218.662 69.9863L217.797 50.1225L60.2111 56.9834L61.076 76.8472ZM208.298 60.4868L214.38 200.195L234.244 199.33L228.161 59.622L208.298 60.4868ZM222.131 149.679L64.5456 156.54L68.9066 256.708L226.493 249.847L222.131 149.679ZM76.658 206.191L70.5754 66.4829L50.7117 67.3477L56.7942 207.056L76.658 206.191Z" fill="#FFF9F9" mask="url(#path-1-outside-1_1717_2578)"/>
</g>
<path d="M42.5044 233.705C42.565 233.113 42.4757 233.113 42.5363 233.705C42.7453 235.746 43.2932 237.977 44.6011 239.285C45.909 240.593 48.1398 241.14 50.1804 241.349C50.7724 241.41 50.7724 241.321 50.1804 241.381C48.1398 241.59 45.909 242.138 44.6011 243.446C43.3748 244.672 42.8167 249.827 42.5795 255.328C42.5519 255.969 42.4888 255.969 42.4611 255.328C42.224 249.827 41.6658 244.672 40.4396 243.446C39.1317 242.138 36.9008 241.59 34.8603 241.381C34.2683 241.321 34.2683 241.41 34.8603 241.349C36.9008 241.14 39.1317 240.593 40.4396 239.285C41.7475 237.977 42.2954 235.746 42.5044 233.705Z" fill="#FFD400"/>
<path d="M37.8656 201.562C37.9262 200.97 37.8369 200.97 37.8975 201.562C38.1065 203.602 38.6544 205.833 39.9623 207.141C41.2702 208.449 43.501 208.997 45.5416 209.206C46.1336 209.267 46.1336 209.177 45.5416 209.238C43.501 209.447 41.2702 209.995 39.9623 211.303C38.736 212.529 38.1779 217.683 37.9407 223.185C37.9131 223.826 37.85 223.826 37.8224 223.185C37.5852 217.683 37.027 212.529 35.8008 211.303C34.4929 209.995 32.262 209.447 30.2215 209.238C29.6295 209.177 29.6295 209.267 30.2215 209.206C32.262 208.997 34.4929 208.449 35.8008 207.141C37.1087 205.833 37.6566 203.602 37.8656 201.562Z" fill="#FFD400"/>
<path d="M73.9851 229.397C74.0457 228.805 73.9564 228.805 74.017 229.397C74.226 231.438 74.7739 233.669 76.0818 234.977C77.3897 236.285 79.6205 236.833 81.6611 237.042C82.2531 237.102 82.2531 237.013 81.6611 237.073C79.6205 237.282 77.3897 237.83 76.0818 239.138C74.8555 240.364 74.2974 245.519 74.0602 251.02C74.0326 251.661 73.9695 251.661 73.9419 251.02C73.7047 245.519 73.1465 240.364 71.9203 239.138C70.6124 237.83 68.3816 237.282 66.341 237.073C65.749 237.013 65.749 237.102 66.341 237.042C68.3816 236.833 70.6124 236.285 71.9203 234.977C73.2282 233.669 73.7761 231.438 73.9851 229.397Z" fill="#FFD400"/>
<path d="M241.694 53.6789C241.633 54.2709 241.723 54.2709 241.662 53.6789C241.453 51.6383 240.905 49.4075 239.597 48.0996C238.289 46.7917 236.059 46.2438 234.018 46.0348C233.426 45.9742 233.426 46.0635 234.018 46.0029C236.059 45.7939 238.289 45.246 239.597 43.9381C240.824 42.7119 241.382 37.5574 241.619 32.0562C241.647 31.4151 241.71 31.4151 241.737 32.0562C241.974 37.5574 242.533 42.7119 243.759 43.9381C245.067 45.246 247.298 45.7939 249.338 46.0029C249.93 46.0635 249.93 45.9742 249.338 46.0348C247.298 46.2438 245.067 46.7917 243.759 48.0996C242.451 49.4075 241.903 51.6383 241.694 53.6789Z" fill="#FFD500"/>
<path d="M246.333 85.8225C246.272 86.4145 246.362 86.4145 246.301 85.8225C246.092 83.7819 245.544 81.5511 244.236 80.2432C242.928 78.9352 240.697 78.3874 238.657 78.1784C238.065 78.1178 238.065 78.2071 238.657 78.1464C240.697 77.9375 242.928 77.3896 244.236 76.0817C245.462 74.8554 246.021 69.7009 246.258 64.1998C246.285 63.5587 246.348 63.5587 246.376 64.1998C246.613 69.7009 247.171 74.8554 248.398 76.0817C249.706 77.3896 251.936 77.9375 253.977 78.1464C254.569 78.2071 254.569 78.1178 253.977 78.1784C251.936 78.3874 249.706 78.9352 248.398 80.2432C247.09 81.5511 246.542 83.7819 246.333 85.8225Z" fill="#FFD500"/>
<path d="M210.213 57.9868C210.153 58.5788 210.242 58.5788 210.181 57.9868C209.972 55.9462 209.425 53.7154 208.117 52.4075C206.809 51.0995 204.578 50.5517 202.537 50.3427C201.945 50.2821 201.945 50.3714 202.537 50.3107C204.578 50.1018 206.809 49.5539 208.117 48.246C209.343 47.0197 209.901 41.8652 210.138 36.3641C210.166 35.723 210.229 35.723 210.257 36.3641C210.494 41.8652 211.052 47.0197 212.278 48.246C213.586 49.5539 215.817 50.1018 217.858 50.3107C218.45 50.3714 218.45 50.2821 217.858 50.3427C215.817 50.5517 213.586 51.0995 212.278 52.4075C210.97 53.7154 210.422 55.9462 210.213 57.9868Z" fill="#FFD500"/>
<path d="M86.1451 227.036L85.7831 215.41L91.3054 215.238C92.1666 215.212 92.9087 215.339 93.5316 215.622C94.1654 215.904 94.6575 216.309 95.0079 216.836C95.3692 217.364 95.561 217.988 95.5835 218.71C95.6059 219.431 95.4535 220.071 95.1261 220.631C94.7987 221.191 94.3277 221.636 93.7131 221.968C93.1089 222.289 92.3816 222.462 91.5311 222.489L87.9788 222.599L87.9195 220.694L91.3426 220.587C91.9132 220.569 92.3497 220.4 92.6521 220.078C92.965 219.745 93.1134 219.32 93.0973 218.803C93.0812 218.286 92.9069 217.877 92.5742 217.575C92.2523 217.272 91.8061 217.13 91.2356 217.148L88.3291 217.238L88.6317 226.959L86.1451 227.036ZM97.1554 226.693L96.899 218.458L99.2726 218.385L99.3329 220.322L99.3814 220.321L99.5774 226.618L97.1554 226.693ZM99.4437 222.323L99.173 220.376C99.3449 219.67 99.6459 219.127 100.076 218.747C100.506 218.368 101.049 218.168 101.706 218.147C101.91 218.141 102.062 218.158 102.16 218.198L102.23 220.458C102.176 220.438 102.1 220.43 102.003 220.433C101.906 220.425 101.787 220.424 101.647 220.428C100.872 220.452 100.306 220.61 99.949 220.901C99.5913 221.182 99.4229 221.656 99.4437 222.323ZM107.375 226.537C106.471 226.565 105.669 226.412 104.969 226.078C104.28 225.734 103.731 225.244 103.323 224.61C102.926 223.965 102.714 223.218 102.688 222.367C102.661 221.517 102.827 220.768 103.184 220.122C103.551 219.474 104.069 218.963 104.736 218.586C105.414 218.21 106.205 218.007 107.109 217.979C108.024 217.95 108.826 218.103 109.515 218.437C110.215 218.771 110.764 219.25 111.16 219.873C111.557 220.497 111.768 221.233 111.795 222.084C111.821 222.934 111.651 223.694 111.284 224.363C110.927 225.02 110.41 225.543 109.732 225.93C109.065 226.307 108.28 226.509 107.375 226.537ZM107.316 224.632C107.693 224.62 108.029 224.512 108.324 224.309C108.63 224.106 108.87 223.824 109.041 223.463C109.213 223.091 109.291 222.652 109.275 222.146C109.252 221.403 109.035 220.839 108.625 220.453C108.224 220.056 107.739 219.867 107.168 219.884C106.598 219.902 106.12 220.122 105.734 220.543C105.359 220.964 105.183 221.541 105.206 222.273C105.222 222.779 105.327 223.212 105.521 223.572C105.715 223.922 105.966 224.189 106.274 224.373C106.592 224.557 106.939 224.643 107.316 224.632Z" fill="#6DD627"/>
<path d="M116.174 222.594L116.118 220.818L123.966 220.574L124.021 222.35L116.174 222.594ZM132.363 225.597L132.061 215.877L128.266 215.995L128.207 214.09L138.282 213.776L138.342 215.681L134.547 215.799L134.85 225.52L132.363 225.597ZM139.999 225.36L139.637 213.734L142.059 213.658L142.421 225.284L139.999 225.36ZM145.731 225.181L145.572 220.079C145.558 219.626 145.429 219.291 145.185 219.072C144.952 218.853 144.615 218.751 144.174 218.764C143.797 218.776 143.46 218.873 143.164 219.054C142.879 219.236 142.655 219.48 142.492 219.787C142.34 220.093 142.27 220.451 142.283 220.86L142.011 218.88C142.262 218.269 142.64 217.778 143.145 217.406C143.661 217.024 144.302 216.821 145.066 216.797C145.981 216.769 146.689 217.005 147.189 217.507C147.689 217.998 147.953 218.674 147.98 219.535L148.153 225.106L145.731 225.181ZM153.876 225.089C152.961 225.118 152.159 224.965 151.47 224.631C150.78 224.286 150.237 223.796 149.84 223.162C149.454 222.528 149.248 221.791 149.222 220.951C149.196 220.1 149.355 219.352 149.702 218.705C150.058 218.048 150.565 217.531 151.221 217.155C151.877 216.768 152.647 216.561 153.529 216.534C154.38 216.507 155.122 216.656 155.757 216.981C156.393 217.307 156.892 217.77 157.255 218.373C157.619 218.976 157.814 219.692 157.84 220.521C157.845 220.693 157.845 220.855 157.838 221.006C157.832 221.146 157.82 221.281 157.803 221.411L150.666 221.633L150.616 220.035L155.799 219.873L155.388 220.177C155.367 219.51 155.191 219.025 154.858 218.723C154.536 218.41 154.1 218.261 153.551 218.279C152.916 218.298 152.428 218.529 152.086 218.971C151.755 219.412 151.603 220.063 151.629 220.924C151.656 221.764 151.847 222.383 152.204 222.781C152.572 223.179 153.106 223.367 153.806 223.346C154.193 223.334 154.525 223.259 154.801 223.121C155.077 222.983 155.28 222.766 155.411 222.471L157.688 222.401C157.444 223.206 157 223.85 156.358 224.333C155.726 224.805 154.899 225.057 153.876 225.089ZM162.181 224.669L161.819 213.043L165.695 212.922L169.273 224.028L167.868 224.072L170.749 212.765L174.64 212.644L175.002 224.27L172.548 224.346L172.208 213.415L172.627 213.401L169.819 224.431L167.252 224.511L163.798 213.773L164.202 213.761L164.539 224.595L162.181 224.669ZM180.684 224.254C179.78 224.283 178.977 224.13 178.277 223.796C177.588 223.451 177.039 222.962 176.632 222.328C176.234 221.683 176.023 220.935 175.996 220.085C175.97 219.235 176.135 218.486 176.492 217.839C176.86 217.192 177.377 216.68 178.044 216.304C178.722 215.927 179.513 215.725 180.417 215.696C181.332 215.668 182.135 215.821 182.824 216.155C183.524 216.489 184.072 216.967 184.469 217.591C184.865 218.214 185.077 218.951 185.103 219.801C185.13 220.652 184.959 221.411 184.592 222.08C184.236 222.738 183.718 223.26 183.041 223.648C182.374 224.024 181.588 224.226 180.684 224.254ZM180.625 222.349C181.001 222.337 181.337 222.23 181.633 222.027C181.939 221.823 182.178 221.541 182.35 221.18C182.521 220.808 182.599 220.37 182.584 219.864C182.561 219.121 182.344 218.557 181.933 218.171C181.533 217.774 181.047 217.584 180.477 217.602C179.906 217.62 179.428 217.839 179.043 218.261C178.668 218.682 178.492 219.258 178.515 219.99C178.53 220.496 178.635 220.929 178.83 221.29C179.024 221.639 179.275 221.906 179.582 222.091C179.9 222.275 180.248 222.361 180.625 222.349ZM186.516 223.911L186.26 215.676L188.633 215.602L188.694 217.54L188.742 217.538L188.938 223.836L186.516 223.911ZM192.248 223.733L192.09 218.63C192.076 218.178 191.947 217.843 191.703 217.624C191.47 217.405 191.132 217.302 190.691 217.316C190.314 217.328 189.978 217.425 189.682 217.606C189.396 217.787 189.172 218.031 189.01 218.338C188.857 218.645 188.788 219.002 188.801 219.411L188.529 217.432C188.779 216.821 189.157 216.329 189.663 215.958C190.179 215.576 190.819 215.373 191.583 215.349C192.498 215.32 193.206 215.557 193.707 216.059C194.207 216.549 194.47 217.225 194.497 218.087L194.671 223.657L192.248 223.733ZM200.394 223.641C199.479 223.669 198.677 223.516 197.988 223.182C197.298 222.837 196.755 222.348 196.358 221.714C195.972 221.079 195.766 220.342 195.739 219.503C195.713 218.652 195.873 217.904 196.219 217.257C196.576 216.6 197.082 216.083 197.739 215.707C198.395 215.32 199.164 215.113 200.047 215.085C200.897 215.059 201.64 215.208 202.275 215.533C202.91 215.858 203.409 216.322 203.773 216.925C204.136 217.528 204.331 218.244 204.357 219.073C204.362 219.245 204.362 219.406 204.356 219.558C204.35 219.698 204.338 219.833 204.32 219.963L197.183 220.185L197.133 218.586L202.316 218.425L201.906 218.729C201.885 218.061 201.708 217.577 201.376 217.274C201.053 216.961 200.618 216.813 200.069 216.83C199.434 216.85 198.945 217.081 198.603 217.522C198.272 217.964 198.12 218.615 198.147 219.476C198.173 220.316 198.365 220.935 198.722 221.333C199.09 221.731 199.624 221.919 200.323 221.897C200.711 221.885 201.043 221.81 201.319 221.672C201.594 221.535 201.798 221.318 201.929 221.023L204.205 220.952C203.961 221.757 203.518 222.401 202.876 222.885C202.244 223.357 201.417 223.609 200.394 223.641ZM206.072 226.616L208.192 221.507L208.59 220.8L210.54 214.92L213.124 214.84L208.494 226.54L206.072 226.616ZM207.708 223.09L204.291 215.115L206.907 215.033L209.736 222.315L207.708 223.09ZM116.915 246.233C115.408 246.28 114.192 245.984 113.267 245.345C112.342 244.695 111.785 243.759 111.596 242.536L113.986 242.462C114.08 243.084 114.397 243.57 114.936 243.919C115.475 244.258 116.153 244.415 116.971 244.389C117.639 244.368 118.146 244.234 118.494 243.986C118.853 243.738 119.026 243.415 119.013 243.016C119.002 242.64 118.885 242.342 118.662 242.122C118.44 241.892 118.062 241.715 117.531 241.592L115.348 241.062C114.23 240.784 113.404 240.384 112.87 239.862C112.347 239.329 112.073 238.653 112.048 237.835C112.026 237.135 112.185 236.527 112.524 236.01C112.874 235.482 113.373 235.073 114.021 234.783C114.669 234.483 115.435 234.319 116.317 234.292C117.674 234.249 118.766 234.539 119.593 235.159C120.42 235.769 120.904 236.6 121.044 237.652L118.655 237.726C118.529 237.159 118.252 236.747 117.824 236.491C117.407 236.235 116.875 236.117 116.229 236.137C115.67 236.154 115.226 236.276 114.899 236.502C114.572 236.727 114.414 237.023 114.426 237.389C114.434 237.669 114.534 237.924 114.724 238.156C114.914 238.376 115.303 238.558 115.889 238.701L118.071 239.231C119.222 239.508 120.054 239.913 120.566 240.447C121.088 240.969 121.363 241.645 121.389 242.474C121.425 243.636 121.049 244.542 120.261 245.192C119.473 245.841 118.358 246.189 116.915 246.233ZM126.661 245.962C125.606 245.995 124.812 245.767 124.279 245.277C123.757 244.776 123.48 244.003 123.448 242.959L123.225 235.806L125.619 234.826L125.872 242.964C125.884 243.33 125.994 243.602 126.205 243.778C126.415 243.955 126.735 244.037 127.166 244.023C127.327 244.018 127.478 243.997 127.616 243.961C127.755 243.924 127.894 243.882 128.033 243.835L128.09 245.675C127.952 245.755 127.755 245.82 127.498 245.872C127.252 245.922 126.973 245.953 126.661 245.962ZM121.806 239.535L121.748 237.694L127.836 237.505L127.893 239.346L121.806 239.535ZM129.544 245.695L129.287 237.46L131.661 237.386L131.721 239.323L131.77 239.322L131.966 245.619L129.544 245.695ZM131.832 241.324L131.561 239.377C131.733 238.671 132.034 238.128 132.464 237.749C132.894 237.369 133.437 237.169 134.094 237.148C134.299 237.142 134.45 237.159 134.548 237.199L134.619 239.46C134.564 239.44 134.488 239.431 134.392 239.434C134.294 239.427 134.176 239.425 134.036 239.429C133.261 239.453 132.695 239.611 132.337 239.902C131.98 240.183 131.811 240.657 131.832 241.324ZM140.861 245.342C140.789 245.108 140.733 244.856 140.692 244.588C140.662 244.32 140.642 244.008 140.631 243.652L140.566 243.654L140.445 239.763C140.434 239.429 140.313 239.175 140.082 238.999C139.86 238.811 139.534 238.725 139.104 238.738C138.695 238.751 138.368 238.831 138.125 238.979C137.893 239.126 137.743 239.335 137.676 239.607L135.367 239.679C135.452 238.933 135.815 238.307 136.456 237.802C137.098 237.297 137.989 237.027 139.13 236.992C140.314 236.955 141.227 237.19 141.867 237.698C142.508 238.206 142.844 238.956 142.875 239.946L142.988 243.579C142.996 243.848 143.021 244.122 143.062 244.401C143.113 244.669 143.187 244.957 143.283 245.267L140.861 245.342ZM137.992 245.593C137.174 245.619 136.516 245.435 136.019 245.041C135.521 244.636 135.262 244.089 135.24 243.4C135.217 242.636 135.483 242.013 136.039 241.533C136.605 241.041 137.403 240.709 138.432 240.537L140.828 240.123L140.871 241.528L138.879 241.897C138.45 241.975 138.136 242.103 137.937 242.282C137.738 242.46 137.643 242.7 137.652 243.002C137.661 243.271 137.764 243.472 137.962 243.606C138.16 243.74 138.421 243.802 138.744 243.792C139.25 243.776 139.676 243.628 140.023 243.348C140.37 243.057 140.537 242.729 140.526 242.363L140.792 243.647C140.574 244.268 140.228 244.743 139.753 245.07C139.279 245.397 138.691 245.572 137.992 245.593ZM148.248 245.29C147.193 245.323 146.399 245.095 145.867 244.605C145.345 244.104 145.067 243.331 145.035 242.287L144.812 235.134L147.206 234.154L147.459 242.292C147.471 242.658 147.582 242.93 147.792 243.106C148.002 243.283 148.323 243.364 148.753 243.351C148.915 243.346 149.065 243.325 149.204 243.289C149.343 243.252 149.481 243.21 149.62 243.162L149.677 245.003C149.54 245.083 149.342 245.148 149.085 245.199C148.839 245.25 148.56 245.28 148.248 245.29ZM143.393 238.863L143.336 237.022L149.423 236.833L149.48 238.674L143.393 238.863ZM154.727 245.072C153.812 245.101 153.01 244.948 152.321 244.614C151.632 244.269 151.088 243.779 150.691 243.145C150.305 242.511 150.099 241.774 150.073 240.934C150.047 240.084 150.206 239.335 150.553 238.689C150.909 238.031 151.416 237.514 152.072 237.138C152.728 236.751 153.498 236.544 154.38 236.517C155.231 236.49 155.973 236.64 156.609 236.965C157.244 237.29 157.743 237.754 158.106 238.357C158.47 238.959 158.665 239.675 158.691 240.504C158.696 240.676 158.696 240.838 158.689 240.989C158.683 241.129 158.671 241.264 158.654 241.394L151.517 241.616L151.467 240.018L156.65 239.857L156.239 240.16C156.218 239.493 156.042 239.008 155.709 238.706C155.387 238.393 154.951 238.245 154.402 238.262C153.767 238.282 153.279 238.512 152.937 238.954C152.606 239.395 152.454 240.046 152.48 240.908C152.507 241.747 152.698 242.366 153.055 242.765C153.423 243.163 153.957 243.351 154.657 243.329C155.045 243.317 155.376 243.242 155.652 243.104C155.928 242.966 156.131 242.75 156.262 242.455L158.539 242.384C158.295 243.189 157.851 243.833 157.209 244.316C156.577 244.788 155.75 245.04 154.727 245.072ZM164.132 248.093C162.991 248.128 162.052 247.915 161.316 247.453C160.59 246.991 160.15 246.347 159.995 245.522L162.288 245.451C162.381 245.653 162.568 245.803 162.852 245.902C163.146 246.001 163.513 246.043 163.955 246.03C164.687 246.007 165.215 245.85 165.54 245.56C165.865 245.27 166.018 244.828 166 244.236L165.944 242.444L166.074 242.472C165.986 243.079 165.688 243.567 165.183 243.939C164.677 244.299 164.042 244.491 163.277 244.515C162.545 244.538 161.9 244.391 161.34 244.074C160.791 243.747 160.356 243.281 160.036 242.677C159.715 242.072 159.542 241.356 159.516 240.527C159.49 239.687 159.624 238.95 159.916 238.316C160.209 237.682 160.63 237.184 161.179 236.822C161.739 236.46 162.395 236.267 163.149 236.244C163.924 236.22 164.559 236.383 165.055 236.734C165.562 237.085 165.868 237.576 165.974 238.209L165.861 238.228L165.802 236.323L168.176 236.249L168.421 244.129C168.458 245.313 168.094 246.256 167.329 246.959C166.565 247.672 165.499 248.05 164.132 248.093ZM164.059 242.632C164.63 242.614 165.086 242.406 165.43 242.008C165.772 241.598 165.932 241.028 165.91 240.296C165.887 239.564 165.686 239.009 165.308 238.633C164.941 238.246 164.466 238.062 163.885 238.08C163.325 238.097 162.869 238.311 162.515 238.72C162.172 239.13 162.012 239.7 162.035 240.432C162.058 241.164 162.253 241.719 162.62 242.095C162.998 242.471 163.478 242.65 164.059 242.632ZM170.369 244.424L170.112 236.189L172.534 236.113L172.791 244.348L170.369 244.424ZM169.997 235.093L169.916 232.477L172.499 232.397L172.581 235.013L169.997 235.093ZM178.005 244.348C176.799 244.385 175.834 244.173 175.108 243.71C174.383 243.248 173.974 242.593 173.883 241.744L176.047 241.677C176.112 242.041 176.304 242.315 176.622 242.5C176.951 242.672 177.395 242.75 177.955 242.733C178.461 242.717 178.824 242.636 179.046 242.489C179.278 242.331 179.39 242.117 179.382 241.848C179.375 241.643 179.3 241.489 179.157 241.386C179.024 241.272 178.779 241.182 178.422 241.118L177.089 240.885C176.103 240.711 175.372 240.427 174.897 240.032C174.421 239.626 174.172 239.095 174.152 238.439C174.127 237.642 174.415 237.014 175.015 236.553C175.614 236.082 176.463 235.829 177.561 235.795C178.648 235.761 179.521 235.955 180.181 236.376C180.84 236.787 181.214 237.378 181.303 238.151L179.139 238.219C179.088 237.94 178.93 237.735 178.668 237.603C178.405 237.461 178.036 237.397 177.563 237.411C177.132 237.425 176.811 237.499 176.6 237.635C176.399 237.76 176.302 237.935 176.309 238.162C176.315 238.355 176.406 238.509 176.582 238.622C176.758 238.724 177.046 238.812 177.447 238.886L178.942 239.146C179.776 239.293 180.411 239.596 180.845 240.057C181.29 240.506 181.523 241.049 181.542 241.684C181.568 242.491 181.27 243.131 180.649 243.603C180.038 244.063 179.157 244.312 178.005 244.348ZM186.692 244.093C185.637 244.126 184.843 243.898 184.311 243.408C183.789 242.907 183.511 242.134 183.479 241.09L183.256 233.937L185.65 232.957L185.903 241.095C185.915 241.461 186.026 241.733 186.236 241.909C186.446 242.086 186.766 242.168 187.197 242.154C187.359 242.149 187.509 242.128 187.648 242.092C187.787 242.055 187.925 242.013 188.064 241.965L188.121 243.806C187.984 243.886 187.786 243.951 187.529 244.002C187.283 244.053 187.004 244.083 186.692 244.093ZM181.837 237.666L181.779 235.825L187.867 235.636L187.924 237.477L181.837 237.666Z" fill="#030712"/>
<path opacity="0.15" d="M200.047 184.5C200.135 187.099 174.166 188.765 142.32 189.851C110.475 190.937 84.4516 191.017 84.3639 188.443C84.2762 185.87 110.2 182.852 142.045 181.766C173.89 180.681 199.958 181.9 200.047 184.5Z" fill="#45413C"/>
<path d="M85.0685 78.484L191.861 74.8436L195.501 181.636L88.7089 185.276L85.0685 78.484Z" fill="white"/>
<path d="M85.0685 78.484L191.861 74.8436L195.501 181.636L88.7089 185.276L85.0685 78.484Z" stroke="#45413C" stroke-width="2.60112" stroke-linecap="round" stroke-linejoin="round"/>
<path d="M92.9705 85.8663L184.503 82.7461L187.623 174.278L96.0907 177.399L92.9705 85.8663Z" fill="#00B8F0"/>
<path d="M92.9705 85.8663L184.503 82.7461L187.623 174.278L96.0907 177.399L92.9705 85.8663Z" stroke="#45413C" stroke-width="2.60112" stroke-linecap="round" stroke-linejoin="round"/>
<path d="M94.1465 120.363C94.1465 120.363 106.485 109.74 139.552 108.613C172.619 107.486 185.653 117.244 185.653 117.244L187.493 171.212C187.52 172.019 187.226 172.803 186.675 173.393C186.124 173.983 185.361 174.33 184.555 174.357L99.1314 177.269C98.3247 177.297 97.5402 177.002 96.9503 176.452C96.3605 175.901 96.0137 175.138 95.9862 174.331L94.1465 120.363Z" fill="#6DD627"/>
<path d="M95.5977 166.068L187.208 162.945L187.49 171.212C187.517 172.019 187.223 172.803 186.672 173.393C186.121 173.983 185.359 174.33 184.552 174.357L99.0247 177.273C98.218 177.3 97.4335 177.006 96.8436 176.455C96.2538 175.904 95.907 175.141 95.8795 174.335L95.5977 166.068Z" fill="#46B000"/>
<path d="M94.1465 120.363C94.1465 120.363 106.485 109.74 139.552 108.613C172.619 107.486 185.653 117.244 185.653 117.244L187.493 171.212C187.52 172.019 187.226 172.803 186.675 173.393C186.124 173.983 185.361 174.33 184.555 174.357L99.1314 177.269C98.3247 177.297 97.5402 177.002 96.9503 176.452C96.3605 175.901 96.0137 175.138 95.9862 174.331L94.1465 120.363Z" stroke="#45413C" stroke-width="2.60112" stroke-linecap="round" stroke-linejoin="round"/>
<path d="M109.858 141.508L110.239 152.686C110.363 156.325 124.242 158.819 141.243 158.24C158.245 157.66 171.922 154.227 171.798 150.587L171.417 139.409L109.858 141.508Z" fill="#E0E0E0"/>
<path d="M110.047 147.045C110.171 150.684 124.05 153.178 141.051 152.599C158.053 152.019 171.729 148.586 171.605 144.946L171.417 139.409L109.858 141.508L110.047 147.045Z" fill="white"/>
<path d="M109.858 141.508L110.239 152.686C110.363 156.325 124.242 158.819 141.243 158.24C158.245 157.66 171.922 154.227 171.798 150.587L171.417 139.409L109.858 141.508Z" stroke="#45413C" stroke-width="2.60112" stroke-linecap="round" stroke-linejoin="round"/>
<path d="M109.86 141.586C109.92 143.337 113.22 144.906 119.035 145.947C124.849 146.989 132.702 147.418 140.865 147.139C149.028 146.861 156.833 145.899 162.563 144.464C168.293 143.028 171.479 141.238 171.419 139.487C171.36 137.736 168.06 136.167 162.245 135.125C156.431 134.084 148.578 133.655 140.415 133.933C132.252 134.212 124.446 135.174 118.716 136.609C112.986 138.044 109.801 139.834 109.86 141.586V141.586Z" fill="#00DFEB"/>
<path d="M112.13 144.033C116.597 141.46 127.587 139.368 140.585 138.925C153.583 138.481 164.638 139.822 169.322 142.083C170.751 141.254 171.502 140.395 171.473 139.537C171.348 135.872 157.469 133.378 140.468 133.958C123.466 134.537 109.735 137.92 109.858 141.508C109.89 142.443 110.698 143.249 112.13 144.033Z" fill="#4AEFF7"/>
<path d="M109.86 141.586C109.92 143.337 113.22 144.906 119.035 145.947C124.849 146.989 132.702 147.418 140.865 147.139C149.028 146.861 156.833 145.899 162.563 144.464C168.293 143.028 171.479 141.238 171.419 139.487C171.36 137.736 168.06 136.167 162.245 135.125C156.431 134.084 148.578 133.655 140.415 133.933C132.252 134.212 124.446 135.174 118.716 136.609C112.986 138.044 109.801 139.834 109.86 141.586V141.586Z" stroke="#45413C" stroke-width="2.60112" stroke-linecap="round" stroke-linejoin="round"/>
<path d="M146.319 139.952C146.319 139.952 145.616 133.834 149.984 131.421C154.352 129.008 163.414 128.36 163.13 120.042L116.805 121.621C117.086 129.862 126.173 129.968 130.695 132.078C135.217 134.189 134.933 140.34 134.933 140.34C138.643 141.638 142.705 141.499 146.319 139.952V139.952Z" fill="white"/>
<path d="M120.278 128.139C126.816 129.753 133.555 130.4 140.28 130.06C147.041 129.967 153.749 128.861 160.182 126.779C161.183 125.995 161.977 124.979 162.495 123.818C163.014 122.657 163.241 121.387 163.156 120.119L116.805 121.699C116.814 122.975 117.135 124.229 117.74 125.351C118.346 126.474 119.217 127.431 120.278 128.139Z" fill="#E0E0E0"/>
<path d="M146.319 139.952C146.319 139.952 145.616 133.834 149.984 131.421C154.352 129.008 163.414 128.36 163.13 120.042L116.805 121.621C117.086 129.862 126.173 129.968 130.695 132.078C135.217 134.189 134.933 140.34 134.933 140.34C138.643 141.638 142.705 141.499 146.319 139.952V139.952Z" stroke="#45413C" stroke-width="2.60112" stroke-linecap="round" stroke-linejoin="round"/>
<path d="M163.13 120.042C163.223 122.771 152.901 125.361 140.137 125.797C127.373 126.232 116.898 124.35 116.805 121.621C116.712 118.891 127.033 116.275 139.797 115.84C152.561 115.405 163.036 117.286 163.13 120.042Z" fill="#00DFEB"/>
<path d="M119.243 123.672C122.903 121.855 130.844 120.414 140.073 120.099C149.301 119.784 157.322 120.682 160.967 122.25C162.375 121.551 163.156 120.796 163.13 120.042C163.036 117.286 152.561 115.405 139.797 115.84C127.033 116.275 116.711 118.865 116.805 121.621C116.83 122.375 117.659 123.023 119.243 123.672Z" fill="#4AEFF7"/>
<path d="M163.13 120.042C163.223 122.771 152.901 125.361 140.137 125.797C127.373 126.232 116.898 124.35 116.805 121.621C116.712 118.891 127.033 116.275 139.797 115.84C152.561 115.405 163.036 117.286 163.13 120.042Z" stroke="#45413C" stroke-width="2.60112" stroke-linecap="round" stroke-linejoin="round"/>
<path d="M143.368 119.857C143.368 119.857 142.919 115.057 145.536 113.198C148.153 111.339 153.653 110.813 153.431 104.314L125.407 105.269C125.629 111.768 131.126 111.919 133.89 113.595C136.653 115.271 136.505 120.09 136.505 120.09C137.58 120.619 138.769 120.874 139.966 120.833C141.163 120.792 142.332 120.457 143.368 119.857V119.857Z" fill="white"/>
<path d="M129.002 111.419C132.517 112.095 136.098 112.366 139.675 112.227C143.253 112.122 146.807 111.608 150.267 110.694C151.347 110.042 152.219 109.095 152.779 107.965C153.34 106.835 153.567 105.568 153.433 104.314L125.409 105.269C125.361 106.53 125.674 107.778 126.31 108.867C126.947 109.957 127.881 110.842 129.002 111.419V111.419Z" fill="#E0E0E0"/>
<path d="M143.368 119.857C143.368 119.857 142.919 115.057 145.536 113.198C148.153 111.339 153.653 110.813 153.431 104.314L125.407 105.269C125.629 111.768 131.126 111.919 133.89 113.595C136.653 115.271 136.505 120.09 136.505 120.09C137.58 120.619 138.769 120.874 139.966 120.833C141.163 120.792 142.332 120.457 143.368 119.857V119.857Z" stroke="#45413C" stroke-width="2.60112" stroke-linecap="round" stroke-linejoin="round"/>
<path d="M153.431 104.314C153.488 105.978 147.269 107.543 139.522 107.807C131.775 108.071 125.464 106.933 125.407 105.269C125.351 103.606 131.519 102.068 139.317 101.802C147.116 101.536 153.375 102.676 153.431 104.314Z" fill="#00DFEB"/>
<path d="M127.331 106.713C131.241 105.471 135.317 104.832 139.42 104.818C143.514 104.552 147.625 104.912 151.611 105.886C152.792 105.403 153.451 104.886 153.431 104.314C153.375 102.676 147.064 101.538 139.317 101.802C131.571 102.066 125.352 103.632 125.407 105.269C125.427 105.841 126.12 106.312 127.331 106.713Z" fill="#4AEFF7"/>
<path d="M153.431 104.314C153.488 105.978 147.269 107.543 139.522 107.807C131.775 108.071 125.464 106.933 125.407 105.269C125.351 103.606 131.519 102.068 139.317 101.802C147.116 101.536 153.375 102.676 153.431 104.314Z" stroke="#45413C" stroke-width="2.60112" stroke-linecap="round" stroke-linejoin="round"/>
<defs>
<filter id="filter0_d_1717_2578" x="0.970482" y="0.381248" width="284.763" height="306.068" filterUnits="userSpaceOnUse" color-interpolation-filters="sRGB">
<feFlood flood-opacity="0" result="BackgroundImageFix"/>
<feColorMatrix in="SourceAlpha" type="matrix" values="0 0 0 0 0 0 0 0 0 0 0 0 0 0 0 0 0 0 127 0" result="hardAlpha"/>
<feOffset/>
<feGaussianBlur stdDeviation="24.6544"/>
<feComposite in2="hardAlpha" operator="out"/>
<feColorMatrix type="matrix" values="0 0 0 0 0 0 0 0 0 0 0 0 0 0 0 0 0 0 0.15 0"/>
<feBlend mode="normal" in2="BackgroundImageFix" result="effect1_dropShadow_1717_2578"/>
<feBlend mode="normal" in="SourceGraphic" in2="effect1_dropShadow_1717_2578" result="shape"/>
</filter>
</defs>
</svg>
