<svg width="145" height="137" viewBox="0 0 145 137" fill="none" xmlns="http://www.w3.org/2000/svg">
<path d="M93.2631 87.1049L83.5068 95.3857C76.7448 100.163 69.0649 103.485 60.9529 105.142C52.8527 106.807 45.1843 110.128 38.4291 114.898L28.733 121.734C28.4248 121.956 28.0751 122.113 27.7048 122.197C27.3344 122.281 26.951 122.289 26.5774 122.222C26.2037 122.154 25.8474 122.012 25.5297 121.804C25.212 121.596 24.9394 121.327 24.7281 121.011L3.92074 90.8991C3.64657 90.4872 3.49036 90.0082 3.46906 89.5139L2.02368 71.4467L92.962 67.3214L94.3471 84.7863C94.3613 85.2308 94.2705 85.6723 94.0822 86.0752C93.8938 86.478 93.6132 86.8308 93.2631 87.1049Z" fill="#6DD627" stroke="#45413C" stroke-width="3.0112" stroke-linecap="round" stroke-linejoin="round"/>
<path opacity="0.15" d="M19.6689 131.791C19.6689 132.989 23.1492 134.138 29.3441 134.985C35.5389 135.832 43.941 136.308 52.7018 136.308C61.4627 136.308 69.8647 135.832 76.0596 134.985C82.2545 134.138 85.7347 132.989 85.7347 131.791C85.7347 130.593 82.2545 129.444 76.0596 128.597C69.8647 127.75 61.4627 127.274 52.7018 127.274C43.941 127.274 35.5389 127.75 29.3441 128.597C23.1492 129.444 19.6689 130.593 19.6689 131.791Z" fill="#45413C"/>
<path d="M83.898 108.575C83.553 108.355 83.2751 108.044 83.0949 107.677C82.9147 107.31 82.8392 106.9 82.8765 106.492C82.9138 106.085 83.0626 105.696 83.3065 105.367C83.5505 105.039 83.8801 104.784 84.2594 104.63C94.3802 100.338 105.426 98.6909 116.359 99.8423C134.607 102.462 147.284 111.887 142.466 119.897C138.28 126.732 126.266 121.041 126.266 121.041C126.266 121.041 130.421 129.051 123.616 132.454C116.81 135.856 107.024 122.998 107.024 122.998C107.024 122.998 105.518 130.707 99.6165 129.021C91.7573 126.883 94.3469 119.987 91.8175 115.47C89.6559 112.674 86.9649 110.331 83.898 108.575Z" fill="#E5FEFF"/>
<path d="M83.898 108.575C84.7412 109.147 85.7048 109.779 86.6382 110.472C95.9584 106.958 105.975 105.689 115.877 106.768C129.156 108.695 139.485 114.266 142.255 120.198C142.332 120.103 142.403 120.002 142.466 119.897C147.284 111.977 134.607 102.462 116.359 99.8423C105.426 98.6909 94.3802 100.338 84.2594 104.63C83.8801 104.784 83.5505 105.039 83.3065 105.367C83.0626 105.696 82.9138 106.085 82.8765 106.492C82.8392 106.9 82.9147 107.31 83.0949 107.677C83.2751 108.044 83.553 108.355 83.898 108.575Z" fill="white"/>
<path d="M83.898 108.575C83.553 108.355 83.2751 108.044 83.0949 107.677C82.9147 107.31 82.8392 106.9 82.8765 106.492C82.9138 106.085 83.0626 105.696 83.3065 105.367C83.5505 105.039 83.8801 104.784 84.2594 104.63C94.3802 100.338 105.426 98.6909 116.359 99.8423C134.607 102.462 147.284 111.887 142.466 119.897C138.28 126.732 126.266 121.041 126.266 121.041C126.266 121.041 130.421 129.051 123.616 132.454C116.81 135.856 107.024 122.998 107.024 122.998C107.024 122.998 105.518 130.707 99.6165 129.021C91.7573 126.883 94.3469 119.987 91.8175 115.47C89.6559 112.674 86.9649 110.331 83.898 108.575V108.575Z" stroke="#45413C" stroke-width="3.0112" stroke-linecap="round" stroke-linejoin="round"/>
<path d="M126.266 121.041C124.216 117.102 121.364 113.635 117.895 110.863L126.266 121.041Z" fill="#FFAA54"/>
<path d="M126.266 121.041C124.216 117.102 121.364 113.635 117.895 110.863" stroke="#45413C" stroke-width="3.0112" stroke-linecap="round" stroke-linejoin="round"/>
<path d="M107.024 122.998C107.467 119.122 106.388 115.224 104.013 112.128L107.024 122.998Z" fill="#FFAA54"/>
<path d="M107.024 122.998C107.467 119.122 106.388 115.224 104.013 112.128" stroke="#45413C" stroke-width="3.0112" stroke-linecap="round" stroke-linejoin="round"/>
<path d="M34.1533 44.7675C34.4106 45.0174 34.7374 45.1836 35.0909 45.2443C35.4444 45.3049 35.808 45.2572 36.1338 45.1073C36.4597 44.9574 36.7325 44.7124 36.9165 44.4045C37.1005 44.0966 37.1869 43.7403 37.1645 43.3823C37.5834 34.6307 35.7701 25.9162 31.8949 18.0581C24.6981 5.14004 14.0686 -1.72549 9.49158 4.08612C5.54691 9.08472 13.1351 16.4923 13.1351 16.4923C13.1351 16.4923 5.96848 15.619 5.30601 21.6414C4.64355 27.6638 16.9895 31.4278 16.9895 31.4278C16.9895 31.4278 11.6295 34.6799 14.43 38.6547C18.194 43.9845 22.771 40.07 26.7157 40.7626C29.4436 41.5725 31.9755 42.9358 34.1533 44.7675Z" fill="#E5FEFF"/>
<path d="M31.1422 26.5196C34.0608 32.1914 35.7827 38.4025 36.201 44.7675C36.4429 44.6245 36.6444 44.4224 36.7867 44.18C36.9289 43.9377 37.0071 43.6632 37.014 43.3823C37.4329 34.6307 35.6196 25.9162 31.7444 18.0581C24.6982 5.14004 14.0687 -1.7255 9.49163 4.08612C8.72008 5.22344 8.30762 6.56613 8.30762 7.94046C8.30762 9.31479 8.72008 10.6575 9.49163 11.7948C14.5505 7.45867 24.5476 14.264 31.1422 26.5196Z" fill="white"/>
<path d="M34.1533 44.7675C34.4106 45.0174 34.7374 45.1836 35.0909 45.2443C35.4444 45.3049 35.808 45.2572 36.1338 45.1073C36.4597 44.9574 36.7325 44.7124 36.9165 44.4045C37.1005 44.0966 37.1869 43.7403 37.1645 43.3823C37.5834 34.6307 35.7701 25.9162 31.8949 18.0581C24.6981 5.14004 14.0686 -1.72549 9.49158 4.08612C5.54691 9.08472 13.1351 16.4923 13.1351 16.4923C13.1351 16.4923 5.96848 15.619 5.30601 21.6414C4.64355 27.6638 16.9895 31.4278 16.9895 31.4278C16.9895 31.4278 11.6295 34.6799 14.43 38.6547C18.194 43.9845 22.771 40.07 26.7157 40.7626C29.4436 41.5725 31.9755 42.9358 34.1533 44.7675V44.7675Z" stroke="#45413C" stroke-width="3.0112" stroke-linecap="round" stroke-linejoin="round"/>
<path d="M13.1345 16.4922C16.6371 16.9611 19.9964 18.1836 22.9811 20.0756L13.1345 16.4922Z" fill="#FFAA54"/>
<path d="M13.1345 16.4922C16.6371 16.9611 19.9964 18.1836 22.9811 20.0756" stroke="#45413C" stroke-width="3.0112" stroke-linecap="round" stroke-linejoin="round"/>
<path d="M16.99 31.4279C19.7372 30.0579 22.9038 29.7887 25.8429 30.6751L16.99 31.4279Z" fill="#FFAA54"/>
<path d="M16.99 31.4279C19.7372 30.0579 22.9038 29.7887 25.8429 30.6751" stroke="#45413C" stroke-width="3.0112" stroke-linecap="round" stroke-linejoin="round"/>
<path d="M35.4179 52.1448C27.3135 53.7961 19.6423 57.1189 12.8941 61.9011L3.16792 68.7366C2.57314 69.197 2.17222 69.8634 2.04405 70.6045C1.91588 71.3457 2.06973 72.108 2.47535 72.7415L23.1924 102.101C23.6529 102.695 24.3192 103.096 25.0604 103.225C25.8016 103.353 26.5639 103.199 27.1973 102.793L36.9235 95.9277C43.6854 91.1699 51.3513 87.8494 59.4473 86.1714C67.5593 84.5148 75.2392 81.1927 82.0012 76.4151L91.6972 69.5797C92.292 69.1193 92.6929 68.4529 92.8211 67.7117C92.9493 66.9706 92.7954 66.2082 92.3898 65.5748L71.6728 36.2156C71.2123 35.6208 70.546 35.2199 69.8048 35.0917C69.0636 34.9635 68.3013 35.1174 67.6679 35.523L57.9718 42.3886C51.2043 47.1562 43.5265 50.4774 35.4179 52.1448Z" fill="#6DD627" stroke="#45413C" stroke-width="3.0112" stroke-linecap="round" stroke-linejoin="round"/>
<path d="M12.5027 74.488L24.939 92.0734C25.3994 92.6682 26.0658 93.0691 26.807 93.1973C27.5481 93.3255 28.3104 93.1716 28.9439 92.766L33.9425 89.2429C40.7014 84.46 48.3825 81.1373 56.4964 79.4866C64.5966 77.8219 72.265 74.5003 79.0202 69.7303L81.7001 67.8634C82.2901 67.3987 82.6851 66.7303 82.8077 65.9893C82.9302 65.2484 82.7715 64.4884 82.3626 63.8585L69.9565 46.243C69.496 45.6482 68.8296 45.2472 68.0885 45.1191C67.3473 44.9909 66.585 45.1448 65.9516 45.5504L60.9228 48.9831C54.1746 53.7653 46.5035 57.0881 38.3991 58.7394C30.2954 60.4224 22.6207 63.7423 15.8452 68.4957L13.1953 70.3928C12.5762 70.8559 12.1589 71.5395 12.03 72.3019C11.901 73.0643 12.0703 73.847 12.5027 74.488Z" fill="#E4FFD1" stroke="#45413C" stroke-width="3.0112" stroke-linecap="round" stroke-linejoin="round"/>
<path d="M55.5633 66.1771C56.6172 69.1883 53.8469 72.892 49.3602 74.4579C44.8735 76.0237 40.3266 74.9096 39.3028 71.9285C38.279 68.9474 41.0192 65.2135 45.536 63.6176C50.0528 62.0216 54.6599 63.196 55.5633 66.1771Z" fill="#9CEB60" stroke="#45413C" stroke-width="3.0112" stroke-linecap="round" stroke-linejoin="round"/>
<path d="M25.1797 103.365L26.6853 122.216" stroke="#45413C" stroke-width="3.0112" stroke-linecap="round" stroke-linejoin="round"/>
<path d="M93.8058 79.9985L83.7785 88.4901C76.7189 93.4832 68.7011 96.9589 60.2309 98.698V98.698C51.7677 100.413 43.757 103.88 36.7134 108.876L26.2043 116.374" stroke="#45413C" stroke-width="3.0112" stroke-linecap="round" stroke-linejoin="round"/>
<path d="M93.414 73.675L83.3867 82.1064C76.3362 87.0896 68.3281 90.5553 59.8692 92.2842V92.2842C51.4071 94.0324 43.393 97.4963 36.3216 102.462L25.7222 110.02" stroke="#45413C" stroke-width="3.0112" stroke-linecap="round" stroke-linejoin="round"/>
<path d="M26.0529 114.356L2.71606 80.6008L26.0529 114.356Z" fill="#FFAA54"/>
<path d="M26.0529 114.356L2.71606 80.6008" stroke="#45413C" stroke-width="3.0112" stroke-linecap="round" stroke-linejoin="round"/>
</svg>
