<svg width="286" height="307" viewBox="0 0 286 307" fill="none" xmlns="http://www.w3.org/2000/svg">
<g filter="url(#filter0_d_1717_2538)">
<mask id="path-1-outside-1_1717_2538" maskUnits="userSpaceOnUse" x="49.7913" y="49.9252" width="186.531" height="207.553" fill="black">
<rect fill="white" x="49.7913" y="49.9252" width="186.531" height="207.553"/>
<path d="M60.2168 67.2231L217.803 60.3623L223.885 200.071L66.2993 206.932L60.2168 67.2231Z"/>
</mask>
<path d="M60.2168 67.2231L217.803 60.3623L223.885 200.071L66.2993 206.932L60.2168 67.2231Z" fill="#ECECEC"/>
<path d="M60.2168 67.2231L59.7844 57.2913L49.8525 57.7237L50.2849 67.6556L60.2168 67.2231ZM217.803 60.3623L227.735 59.9299L227.302 49.998L217.37 50.4304L217.803 60.3623ZM223.885 200.071L226.066 250.155L235.998 249.722L233.817 199.638L223.885 200.071ZM66.2993 206.932L56.3675 207.364L58.548 257.448L68.4799 257.016L66.2993 206.932ZM60.6492 77.155L218.235 70.2941L217.37 50.4304L59.7844 57.2913L60.6492 77.155ZM207.871 60.7947L213.953 200.503L233.817 199.638L227.735 59.9299L207.871 60.7947ZM221.705 149.987L64.1188 156.848L68.4799 257.016L226.066 250.155L221.705 149.987ZM76.2312 206.499L70.1487 66.7907L50.2849 67.6556L56.3675 207.364L76.2312 206.499Z" fill="#FFF9F9" mask="url(#path-1-outside-1_1717_2538)"/>
</g>
<path d="M42.0776 234.013C42.1382 233.421 42.0489 233.421 42.1095 234.013C42.3185 236.054 42.8664 238.285 44.1743 239.593C45.4822 240.9 47.7131 241.448 49.7536 241.657C50.3456 241.718 50.3456 241.629 49.7536 241.689C47.7131 241.898 45.4822 242.446 44.1743 243.754C42.9481 244.98 42.3899 250.135 42.1528 255.636C42.1251 256.277 42.062 256.277 42.0344 255.636C41.7972 250.135 41.2391 244.98 40.0128 243.754C38.7049 242.446 36.4741 241.898 34.4335 241.689C33.8415 241.629 33.8415 241.718 34.4335 241.657C36.4741 241.448 38.7049 240.9 40.0128 239.593C41.3207 238.285 41.8686 236.054 42.0776 234.013Z" fill="#FFD400"/>
<path d="M37.4388 201.87C37.4994 201.278 37.4101 201.278 37.4707 201.87C37.6797 203.91 38.2276 206.141 39.5355 207.449C40.8434 208.757 43.0743 209.305 45.1148 209.514C45.7068 209.574 45.7068 209.485 45.1148 209.546C43.0743 209.755 40.8434 210.303 39.5355 211.61C38.3093 212.837 37.7511 217.991 37.514 223.492C37.4863 224.133 37.4232 224.133 37.3956 223.492C37.1584 217.991 36.6003 212.837 35.374 211.61C34.0661 210.303 31.8353 209.755 29.7947 209.546C29.2027 209.485 29.2027 209.574 29.7947 209.514C31.8353 209.305 34.0661 208.757 35.374 207.449C36.682 206.141 37.2298 203.91 37.4388 201.87Z" fill="#FFD400"/>
<path d="M73.5583 229.705C73.6189 229.113 73.5296 229.113 73.5903 229.705C73.7992 231.746 74.3471 233.977 75.655 235.285C76.963 236.593 79.1938 237.14 81.2343 237.349C81.8264 237.41 81.8264 237.321 81.2343 237.381C79.1938 237.59 76.963 238.138 75.655 239.446C74.4288 240.672 73.8706 245.827 73.6335 251.328C73.6058 251.969 73.5427 251.969 73.5151 251.328C73.278 245.827 72.7198 240.672 71.4935 239.446C70.1856 238.138 67.9548 237.59 65.9142 237.381C65.3222 237.321 65.3222 237.41 65.9142 237.349C67.9548 237.14 70.1856 236.593 71.4935 235.285C72.8015 233.977 73.3493 231.746 73.5583 229.705Z" fill="#FFD400"/>
<path d="M241.267 53.9868C241.207 54.5788 241.296 54.5788 241.235 53.9868C241.026 51.9462 240.479 49.7154 239.171 48.4075C237.863 47.0995 235.632 46.5517 233.591 46.3427C232.999 46.2821 232.999 46.3714 233.591 46.3107C235.632 46.1018 237.863 45.5539 239.171 44.246C240.397 43.0197 240.955 37.8652 241.192 32.3641C241.22 31.723 241.283 31.723 241.311 32.3641C241.548 37.8652 242.106 43.0197 243.332 44.246C244.64 45.5539 246.871 46.1018 248.911 46.3107C249.503 46.3714 249.503 46.2821 248.911 46.3427C246.871 46.5517 244.64 47.0995 243.332 48.4075C242.024 49.7154 241.476 51.9462 241.267 53.9868Z" fill="#FFD500"/>
<path d="M245.906 86.1303C245.846 86.7223 245.935 86.7223 245.874 86.1303C245.665 84.0898 245.117 81.8589 243.809 80.551C242.502 79.2431 240.271 78.6952 238.23 78.4862C237.638 78.4256 237.638 78.5149 238.23 78.4543C240.271 78.2453 242.502 77.6974 243.809 76.3895C245.036 75.1633 245.594 70.0088 245.831 64.5076C245.859 63.8666 245.922 63.8666 245.949 64.5076C246.187 70.0088 246.745 75.1633 247.971 76.3895C249.279 77.6974 251.51 78.2453 253.55 78.4543C254.142 78.5149 254.142 78.4256 253.55 78.4862C251.51 78.6952 249.279 79.2431 247.971 80.551C246.663 81.8589 246.115 84.0898 245.906 86.1303Z" fill="#FFD500"/>
<path d="M209.787 58.2946C209.726 58.8867 209.815 58.8867 209.755 58.2946C209.546 56.2541 208.998 54.0233 207.69 52.7153C206.382 51.4074 204.151 50.8595 202.111 50.6505C201.519 50.5899 201.519 50.6792 202.111 50.6186C204.151 50.4096 206.382 49.8618 207.69 48.5538C208.916 47.3276 209.474 42.1731 209.712 36.6719C209.739 36.0309 209.802 36.0309 209.83 36.6719C210.067 42.1731 210.625 47.3276 211.851 48.5538C213.159 49.8618 215.39 50.4096 217.431 50.6186C218.023 50.6792 218.023 50.5899 217.431 50.6505C215.39 50.8595 213.159 51.4074 211.851 52.7153C210.544 54.0233 209.996 56.2541 209.787 58.2946Z" fill="#FFD500"/>
<path d="M76.9904 227.616L76.6284 215.99L79.1151 215.913L79.477 227.538L76.9904 227.616ZM81.2517 227.483L80.9953 219.248L83.3689 219.174L83.4292 221.112L83.4777 221.11L83.6738 227.408L81.2517 227.483ZM86.9839 227.305L86.825 222.202C86.811 221.75 86.682 221.415 86.4381 221.196C86.205 220.977 85.8678 220.874 85.4265 220.888C85.0497 220.9 84.7133 220.997 84.4172 221.178C84.132 221.359 83.9079 221.604 83.745 221.91C83.5929 222.217 83.5233 222.574 83.536 222.984L83.2643 221.004C83.5146 220.393 83.8926 219.902 84.3983 219.53C84.9143 219.148 85.5545 218.945 86.3188 218.921C87.2338 218.892 87.9416 219.129 88.4421 219.631C88.9422 220.121 89.2057 220.797 89.2325 221.659L89.406 227.229L86.9839 227.305ZM94.8152 227.239C93.7603 227.272 92.9666 227.043 92.4341 226.553C91.9121 226.052 91.6348 225.28 91.6023 224.236L91.3796 217.082L93.7735 216.103L94.0269 224.241C94.0383 224.607 94.1491 224.878 94.3593 225.055C94.5696 225.231 94.89 225.313 95.3206 225.3C95.482 225.295 95.6322 225.274 95.7712 225.237C95.9101 225.2 96.0489 225.158 96.1875 225.111L96.2448 226.952C96.1072 227.031 95.9099 227.097 95.6529 227.148C95.4066 227.199 95.1274 227.229 94.8152 227.239ZM89.9603 220.812L89.9029 218.971L95.9904 218.781L96.0477 220.622L89.9603 220.812ZM101.295 227.021C100.38 227.049 99.5778 226.896 98.8885 226.562C98.1989 226.217 97.6557 225.728 97.2588 225.094C96.8727 224.459 96.6666 223.722 96.6405 222.883C96.614 222.032 96.7739 221.284 97.1201 220.637C97.4767 219.98 97.9832 219.463 98.6396 219.087C99.2956 218.7 100.065 218.493 100.948 218.465C101.798 218.439 102.541 218.588 103.176 218.913C103.811 219.238 104.31 219.702 104.674 220.305C105.037 220.908 105.232 221.624 105.258 222.453C105.263 222.625 105.263 222.787 105.257 222.938C105.251 223.078 105.239 223.213 105.221 223.343L98.084 223.565L98.0343 221.966L103.217 221.805L102.807 222.109C102.786 221.441 102.609 220.957 102.277 220.654C101.954 220.341 101.519 220.193 100.97 220.21C100.335 220.23 99.8461 220.461 99.5043 220.902C99.1732 221.344 99.0211 221.995 99.0479 222.856C99.074 223.696 99.2657 224.315 99.6229 224.713C99.9909 225.111 100.525 225.299 101.224 225.277C101.612 225.265 101.944 225.19 102.22 225.052C102.495 224.915 102.699 224.698 102.83 224.403L105.106 224.332C104.862 225.137 104.419 225.781 103.777 226.265C103.145 226.737 102.318 226.989 101.295 227.021ZM106.687 226.691L106.43 218.456L108.804 218.382L108.864 220.32L108.913 220.319L109.109 226.616L106.687 226.691ZM108.975 222.321L108.704 220.374C108.876 219.668 109.177 219.125 109.607 218.745C110.037 218.366 110.58 218.165 111.237 218.145C111.441 218.139 111.593 218.155 111.691 218.196L111.761 220.456C111.707 220.436 111.631 220.428 111.534 220.431C111.437 220.423 111.319 220.421 111.179 220.426C110.404 220.45 109.837 220.608 109.48 220.899C109.122 221.179 108.954 221.653 108.975 222.321ZM113.12 226.491L112.864 218.256L115.237 218.182L115.298 220.12L115.346 220.118L115.542 226.416L113.12 226.491ZM118.659 226.319L118.496 221.087C118.483 220.667 118.36 220.364 118.128 220.177C117.906 219.979 117.596 219.887 117.198 219.899C116.854 219.91 116.538 220 116.253 220.171C115.978 220.33 115.764 220.558 115.611 220.853C115.459 221.138 115.388 221.475 115.4 221.862L115.133 220.012C115.383 219.401 115.756 218.909 116.251 218.538C116.756 218.156 117.369 217.954 118.09 217.932C118.952 217.905 119.626 218.126 120.115 218.596C120.615 219.065 120.876 219.666 120.899 220.398L121.081 226.243L118.659 226.319ZM124.197 226.146L124.034 220.914C124.021 220.495 123.898 220.191 123.666 220.005C123.445 219.807 123.135 219.714 122.736 219.726C122.392 219.737 122.077 219.828 121.791 219.998C121.516 220.158 121.302 220.385 121.15 220.681C120.997 220.966 120.927 221.302 120.939 221.69L120.51 219.844C120.76 219.233 121.143 218.742 121.66 218.37C122.187 217.987 122.827 217.784 123.58 217.761C124.474 217.733 125.165 217.965 125.655 218.456C126.154 218.936 126.417 219.58 126.442 220.387L126.619 226.071L124.197 226.146ZM132.343 226.054C131.428 226.083 130.626 225.93 129.937 225.596C129.247 225.251 128.704 224.761 128.307 224.127C127.921 223.493 127.715 222.756 127.689 221.916C127.662 221.065 127.822 220.317 128.169 219.671C128.525 219.013 129.032 218.496 129.688 218.12C130.344 217.733 131.113 217.526 131.996 217.499C132.847 217.472 133.589 217.621 134.224 217.946C134.859 218.272 135.359 218.735 135.722 219.338C136.086 219.941 136.281 220.657 136.306 221.486C136.312 221.658 136.311 221.82 136.305 221.971C136.299 222.111 136.287 222.246 136.269 222.376L129.132 222.598L129.083 221L134.266 220.838L133.855 221.142C133.834 220.475 133.658 219.99 133.325 219.688C133.003 219.375 132.567 219.226 132.018 219.244C131.383 219.263 130.895 219.494 130.553 219.936C130.222 220.377 130.07 221.028 130.096 221.889C130.122 222.729 130.314 223.348 130.671 223.746C131.039 224.144 131.573 224.333 132.273 224.311C132.66 224.299 132.992 224.224 133.268 224.086C133.544 223.948 133.747 223.731 133.878 223.436L136.155 223.366C135.911 224.171 135.467 224.815 134.825 225.298C134.193 225.77 133.366 226.022 132.343 226.054ZM143.69 225.539L143.633 223.715L143.796 223.742C143.707 224.337 143.398 224.821 142.871 225.193C142.355 225.565 141.725 225.762 140.983 225.785C140.229 225.809 139.567 225.657 138.996 225.33C138.436 224.992 137.996 224.51 137.675 223.884C137.353 223.258 137.179 222.515 137.153 221.654C137.125 220.782 137.258 220.018 137.55 219.362C137.842 218.707 138.262 218.193 138.811 217.82C139.371 217.447 140.027 217.249 140.781 217.225C141.566 217.201 142.207 217.364 142.703 217.715C143.21 218.065 143.516 218.557 143.622 219.189L143.445 219.211L143.28 213.915L145.702 213.839L146.064 225.465L143.69 225.539ZM141.697 223.823C142.268 223.806 142.724 223.592 143.067 223.183C143.41 222.763 143.569 222.176 143.546 221.422C143.522 220.669 143.321 220.098 142.943 219.712C142.575 219.314 142.1 219.124 141.519 219.142C140.959 219.159 140.503 219.378 140.15 219.799C139.807 220.219 139.648 220.805 139.671 221.559C139.695 222.313 139.89 222.883 140.258 223.27C140.636 223.657 141.116 223.841 141.697 223.823ZM148 225.405L147.744 217.17L150.166 217.095L150.422 225.33L148 225.405ZM147.629 216.074L147.548 213.459L150.131 213.378L150.213 215.994L147.629 216.074ZM157.299 225.115C157.227 224.881 157.171 224.629 157.13 224.361C157.1 224.093 157.08 223.781 157.069 223.426L157.004 223.428L156.883 219.536C156.873 219.202 156.752 218.948 156.52 218.772C156.298 218.585 155.973 218.498 155.542 218.511C155.133 218.524 154.807 218.604 154.563 218.752C154.331 218.899 154.181 219.108 154.114 219.38L151.805 219.452C151.89 218.706 152.253 218.08 152.894 217.575C153.536 217.07 154.427 216.8 155.568 216.765C156.752 216.728 157.665 216.963 158.306 217.471C158.946 217.98 159.282 218.729 159.313 219.719L159.426 223.352C159.435 223.621 159.459 223.895 159.5 224.174C159.552 224.442 159.625 224.731 159.721 225.04L157.299 225.115ZM154.43 225.366C153.612 225.392 152.954 225.208 152.457 224.814C151.96 224.409 151.7 223.862 151.679 223.173C151.655 222.409 151.921 221.786 152.477 221.306C153.044 220.814 153.842 220.482 154.871 220.31L157.266 219.896L157.31 221.301L155.317 221.67C154.888 221.748 154.575 221.876 154.375 222.055C154.176 222.233 154.081 222.473 154.091 222.775C154.099 223.044 154.202 223.245 154.4 223.379C154.599 223.513 154.859 223.575 155.182 223.565C155.688 223.549 156.114 223.401 156.461 223.121C156.808 222.83 156.975 222.502 156.964 222.136L157.23 223.421C157.013 224.041 156.666 224.516 156.192 224.843C155.717 225.17 155.13 225.345 154.43 225.366ZM164.686 225.063C163.631 225.096 162.837 224.868 162.305 224.378C161.783 223.877 161.506 223.104 161.473 222.06L161.25 214.907L163.644 213.927L163.898 222.065C163.909 222.431 164.02 222.703 164.23 222.879C164.44 223.056 164.761 223.138 165.191 223.124C165.353 223.119 165.503 223.098 165.642 223.062C165.781 223.025 165.92 222.983 166.058 222.936L166.116 224.776C165.978 224.856 165.781 224.921 165.524 224.973C165.277 225.023 164.998 225.054 164.686 225.063ZM159.831 218.636L159.774 216.795L165.861 216.606L165.919 218.447L159.831 218.636ZM171.166 224.845C170.251 224.874 169.449 224.721 168.759 224.387C168.07 224.042 167.527 223.552 167.13 222.918C166.744 222.284 166.537 221.547 166.511 220.707C166.485 219.857 166.645 219.108 166.991 218.462C167.348 217.804 167.854 217.287 168.51 216.911C169.166 216.525 169.936 216.317 170.819 216.29C171.669 216.263 172.412 216.413 173.047 216.738C173.682 217.063 174.181 217.527 174.545 218.13C174.908 218.732 175.103 219.448 175.129 220.277C175.134 220.449 175.134 220.611 175.128 220.762C175.121 220.902 175.109 221.037 175.092 221.167L167.955 221.39L167.905 219.791L173.088 219.63L172.678 219.933C172.657 219.266 172.48 218.781 172.147 218.479C171.825 218.166 171.39 218.018 170.841 218.035C170.205 218.055 169.717 218.285 169.375 218.727C169.044 219.168 168.892 219.819 168.919 220.681C168.945 221.52 169.137 222.139 169.494 222.538C169.862 222.936 170.396 223.124 171.095 223.102C171.483 223.09 171.814 223.015 172.09 222.877C172.366 222.739 172.57 222.523 172.7 222.228L174.977 222.157C174.733 222.962 174.29 223.606 173.647 224.089C173.016 224.561 172.188 224.814 171.166 224.845Z" fill="#EDB635"/>
<path d="M179.523 220.916L179.468 219.14L187.315 218.896L187.371 220.672L179.523 220.916ZM195.713 223.919L195.41 214.199L191.615 214.317L191.556 212.412L201.632 212.098L201.691 214.003L197.897 214.121L198.199 223.842L195.713 223.919ZM203.348 223.682L202.986 212.056L205.408 211.98L205.77 223.606L203.348 223.682ZM209.08 223.503L208.922 218.401C208.908 217.949 208.779 217.613 208.535 217.395C208.302 217.176 207.964 217.073 207.523 217.087C207.146 217.098 206.81 217.195 206.514 217.377C206.229 217.558 206.004 217.802 205.842 218.109C205.689 218.415 205.62 218.773 205.633 219.182L205.361 217.202C205.611 216.591 205.989 216.1 206.495 215.729C207.011 215.346 207.651 215.143 208.415 215.119C209.33 215.091 210.038 215.327 210.539 215.829C211.039 216.32 211.302 216.996 211.329 217.857L211.503 223.428L209.08 223.503ZM217.226 223.411C216.311 223.44 215.509 223.287 214.82 222.953C214.13 222.608 213.587 222.118 213.19 221.484C212.804 220.85 212.598 220.113 212.571 219.273C212.545 218.423 212.705 217.674 213.051 217.028C213.408 216.37 213.914 215.853 214.571 215.477C215.227 215.09 215.996 214.883 216.879 214.856C217.729 214.829 218.472 214.979 219.107 215.304C219.742 215.629 220.241 216.093 220.605 216.695C220.969 217.298 221.163 218.014 221.189 218.843C221.194 219.015 221.194 219.177 221.188 219.328C221.182 219.468 221.17 219.603 221.152 219.733L214.015 219.955L213.965 218.357L219.148 218.195L218.738 218.499C218.717 217.832 218.54 217.347 218.208 217.045C217.885 216.732 217.45 216.584 216.901 216.601C216.266 216.62 215.777 216.851 215.435 217.293C215.104 217.734 214.952 218.385 214.979 219.247C215.005 220.086 215.197 220.705 215.554 221.104C215.922 221.502 216.456 221.69 217.155 221.668C217.543 221.656 217.875 221.581 218.151 221.443C218.426 221.305 218.63 221.089 218.761 220.794L221.037 220.723C220.793 221.528 220.35 222.172 219.708 222.655C219.076 223.127 218.249 223.379 217.226 223.411ZM92.0788 247.301C90.5717 247.348 89.3557 247.052 88.4307 246.413C87.5053 245.763 86.9482 244.827 86.7593 243.604L89.149 243.53C89.2438 244.152 89.5607 244.637 90.0995 244.987C90.6381 245.326 91.3164 245.482 92.1345 245.457C92.8019 245.436 93.3096 245.302 93.6574 245.054C94.0161 244.806 94.1892 244.483 94.1768 244.084C94.165 243.707 94.048 243.409 93.8257 243.19C93.603 242.96 93.2258 242.783 92.6939 242.66L90.5116 242.13C89.3931 241.852 88.5671 241.452 88.0337 240.93C87.5106 240.397 87.2364 239.721 87.2109 238.903C87.1891 238.203 87.348 237.595 87.6875 237.078C88.0374 236.55 88.5365 236.141 89.1847 235.851C89.8327 235.551 90.598 235.387 91.4807 235.359C92.8371 235.317 93.929 235.607 94.7564 236.227C95.5836 236.837 96.0674 237.668 96.2079 238.72L93.8181 238.794C93.6927 238.227 93.4159 237.815 92.9877 237.559C92.5702 237.303 92.0386 237.185 91.3927 237.205C90.8329 237.222 90.3895 237.344 90.0625 237.569C89.7355 237.795 89.5777 238.091 89.5891 238.457C89.5978 238.737 89.6974 238.992 89.8878 239.223C90.0778 239.444 90.466 239.626 91.0523 239.769L93.2346 240.299C94.3854 240.576 95.2169 240.981 95.7292 241.515C96.2519 242.037 96.5261 242.713 96.552 243.542C96.5882 244.704 96.2123 245.61 95.4244 246.26C94.6365 246.909 93.5213 247.256 92.0788 247.301ZM97.9897 246.972L97.7333 238.737L100.107 238.663L100.167 240.601L100.216 240.599L100.412 246.896L97.9897 246.972ZM103.528 246.799L103.365 241.568C103.352 241.148 103.23 240.845 102.997 240.658C102.776 240.46 102.466 240.367 102.068 240.38C101.723 240.39 101.408 240.481 101.122 240.652C100.847 240.811 100.633 241.039 100.481 241.334C100.328 241.619 100.258 241.955 100.27 242.343L100.002 240.493C100.253 239.881 100.625 239.39 101.12 239.019C101.625 238.637 102.239 238.435 102.96 238.412C103.821 238.386 104.496 238.607 104.985 239.077C105.484 239.546 105.745 240.147 105.768 240.879L105.95 246.724L103.528 246.799ZM109.067 246.627L108.904 241.395C108.891 240.975 108.768 240.672 108.536 240.485C108.314 240.288 108.004 240.195 107.606 240.207C107.262 240.218 106.946 240.309 106.661 240.479C106.386 240.639 106.172 240.866 106.019 241.162C105.867 241.447 105.796 241.783 105.808 242.17L105.379 240.325C105.63 239.714 106.013 239.222 106.529 238.851C107.056 238.468 107.696 238.265 108.45 238.241C109.343 238.214 110.035 238.445 110.524 238.937C111.024 239.417 111.287 240.06 111.312 240.868L111.489 246.551L109.067 246.627ZM118.311 246.339C118.239 246.104 118.182 245.853 118.142 245.585C118.112 245.316 118.091 245.004 118.08 244.649L118.016 244.651L117.895 240.76C117.884 240.426 117.763 240.171 117.531 239.995C117.31 239.808 116.984 239.721 116.554 239.735C116.144 239.747 115.818 239.828 115.575 239.975C115.343 240.123 115.193 240.332 115.126 240.603L112.817 240.675C112.901 239.929 113.264 239.304 113.906 238.799C114.548 238.294 115.439 238.024 116.58 237.988C117.764 237.951 118.677 238.187 119.317 238.695C119.958 239.203 120.294 239.952 120.325 240.943L120.438 244.576C120.446 244.845 120.471 245.119 120.512 245.398C120.563 245.666 120.637 245.954 120.733 246.264L118.311 246.339ZM115.442 246.59C114.623 246.616 113.966 246.431 113.469 246.037C112.971 245.633 112.712 245.086 112.69 244.397C112.667 243.632 112.933 243.01 113.489 242.529C114.055 242.038 114.853 241.706 115.882 241.534L118.278 241.12L118.321 242.524L116.329 242.893C115.9 242.971 115.586 243.1 115.387 243.278C115.188 243.457 115.093 243.697 115.102 243.998C115.111 244.268 115.214 244.469 115.412 244.603C115.61 244.737 115.871 244.799 116.194 244.789C116.7 244.773 117.126 244.625 117.473 244.345C117.819 244.054 117.987 243.725 117.976 243.359L118.242 244.644C118.024 245.265 117.678 245.739 117.203 246.066C116.729 246.394 116.141 246.568 115.442 246.59ZM122.352 246.213L122.096 237.978L124.469 237.904L124.53 239.842L124.578 239.84L124.774 246.138L122.352 246.213ZM124.641 241.843L124.37 239.895C124.542 239.19 124.843 238.647 125.273 238.267C125.703 237.887 126.246 237.687 126.903 237.667C127.107 237.661 127.259 237.677 127.357 237.717L127.427 239.978C127.373 239.958 127.297 239.95 127.2 239.953C127.103 239.945 126.984 239.943 126.844 239.948C126.069 239.972 125.503 240.13 125.146 240.421C124.788 240.701 124.62 241.175 124.641 241.843ZM132.904 246.063C131.849 246.095 131.055 245.867 130.523 245.377C130.001 244.876 129.724 244.103 129.691 243.059L129.468 235.906L131.862 234.926L132.116 243.065C132.127 243.431 132.238 243.702 132.448 243.879C132.658 244.055 132.979 244.137 133.409 244.123C133.571 244.118 133.721 244.098 133.86 244.061C133.999 244.024 134.138 243.982 134.276 243.935L134.333 245.776C134.196 245.855 133.999 245.921 133.742 245.972C133.495 246.023 133.216 246.053 132.904 246.063ZM128.049 239.635L127.992 237.795L134.079 237.605L134.136 239.446L128.049 239.635ZM138.7 245.704L138.339 234.078L141.552 233.978L147.039 244.087L146.253 244.305L145.928 233.842L148.35 233.767L148.712 245.393L145.498 245.493L140.012 235.384L140.797 235.166L141.123 245.629L138.7 245.704ZM155.667 245.176C155.595 244.941 155.538 244.69 155.498 244.422C155.468 244.153 155.447 243.841 155.436 243.486L155.372 243.488L155.25 239.597C155.24 239.263 155.119 239.008 154.887 238.832C154.666 238.645 154.34 238.558 153.909 238.572C153.5 238.584 153.174 238.665 152.931 238.812C152.698 238.96 152.549 239.169 152.482 239.44L150.173 239.512C150.257 238.766 150.62 238.141 151.262 237.636C151.903 237.131 152.795 236.861 153.936 236.825C155.12 236.788 156.032 237.024 156.673 237.532C157.314 238.04 157.65 238.789 157.681 239.78L157.794 243.413C157.802 243.682 157.827 243.956 157.868 244.235C157.919 244.502 157.993 244.791 158.089 245.101L155.667 245.176ZM152.798 245.427C151.979 245.452 151.322 245.268 150.825 244.874C150.327 244.469 150.068 243.923 150.046 243.234C150.022 242.469 150.289 241.847 150.845 241.366C151.411 240.874 152.209 240.543 153.238 240.37L155.633 239.956L155.677 241.361L153.684 241.73C153.256 241.808 152.942 241.937 152.743 242.115C152.544 242.294 152.449 242.534 152.458 242.835C152.467 243.104 152.57 243.306 152.768 243.44C152.966 243.574 153.227 243.636 153.55 243.626C154.055 243.61 154.482 243.462 154.829 243.182C155.175 242.891 155.343 242.562 155.331 242.196L155.598 243.481C155.38 244.102 155.034 244.576 154.559 244.903C154.084 245.231 153.497 245.405 152.798 245.427ZM161.416 244.997L157.914 236.863L160.514 236.782L163.289 244.389L161.932 244.431L164.212 236.667L166.747 236.588L163.758 244.924L161.416 244.997ZM167.797 244.798L167.541 236.563L169.963 236.488L170.219 244.723L167.797 244.798ZM167.426 235.468L167.345 232.852L169.928 232.772L170.01 235.387L167.426 235.468ZM175.973 248.019C174.832 248.054 173.894 247.841 173.157 247.379C172.432 246.917 171.991 246.273 171.836 245.448L174.129 245.377C174.222 245.579 174.41 245.729 174.693 245.828C174.987 245.927 175.355 245.969 175.796 245.955C176.528 245.933 177.056 245.776 177.381 245.486C177.706 245.196 177.86 244.754 177.841 244.162L177.786 242.37L177.916 242.398C177.827 243.004 177.53 243.493 177.024 243.865C176.518 244.225 175.883 244.417 175.118 244.441C174.386 244.464 173.741 244.317 173.181 244C172.632 243.673 172.198 243.207 171.877 242.602C171.557 241.998 171.384 241.282 171.358 240.453C171.332 239.613 171.465 238.876 171.758 238.242C172.05 237.608 172.471 237.11 173.02 236.748C173.58 236.386 174.237 236.193 174.99 236.17C175.765 236.146 176.401 236.309 176.897 236.66C177.403 237.01 177.709 237.502 177.815 238.134L177.703 238.154L177.643 236.249L180.017 236.175L180.262 244.055C180.299 245.239 179.935 246.182 179.171 246.885C178.406 247.598 177.34 247.976 175.973 248.019ZM175.9 242.558C176.471 242.54 176.928 242.332 177.271 241.933C177.614 241.524 177.774 240.953 177.751 240.221C177.728 239.489 177.528 238.935 177.15 238.559C176.782 238.172 176.308 237.987 175.726 238.006C175.166 238.023 174.71 238.236 174.356 238.646C174.013 239.056 173.853 239.626 173.876 240.358C173.899 241.09 174.094 241.644 174.461 242.021C174.839 242.397 175.319 242.576 175.9 242.558ZM187.393 244.188C187.321 243.953 187.265 243.702 187.224 243.434C187.194 243.165 187.174 242.853 187.163 242.498L187.098 242.5L186.977 238.609C186.967 238.275 186.846 238.02 186.614 237.844C186.392 237.657 186.066 237.57 185.636 237.584C185.227 237.597 184.901 237.677 184.657 237.824C184.425 237.972 184.275 238.181 184.208 238.453L181.899 238.524C181.984 237.778 182.347 237.153 182.988 236.648C183.63 236.143 184.521 235.873 185.662 235.837C186.846 235.801 187.759 236.036 188.4 236.544C189.04 237.052 189.376 237.801 189.407 238.792L189.52 242.425C189.529 242.694 189.553 242.968 189.594 243.247C189.646 243.515 189.719 243.803 189.815 244.113L187.393 244.188ZM184.524 244.439C183.706 244.465 183.048 244.28 182.551 243.886C182.054 243.482 181.794 242.935 181.773 242.246C181.749 241.482 182.015 240.859 182.571 240.378C183.138 239.887 183.936 239.555 184.965 239.383L187.36 238.969L187.404 240.373L185.411 240.743C184.982 240.821 184.669 240.949 184.469 241.127C184.27 241.306 184.175 241.546 184.185 241.847C184.193 242.117 184.296 242.318 184.494 242.452C184.693 242.586 184.953 242.648 185.276 242.638C185.782 242.622 186.208 242.474 186.555 242.194C186.902 241.903 187.069 241.574 187.058 241.208L187.324 242.493C187.107 243.114 186.76 243.588 186.286 243.916C185.811 244.243 185.224 244.417 184.524 244.439ZM194.78 244.136C193.725 244.169 192.931 243.94 192.399 243.45C191.877 242.949 191.6 242.177 191.567 241.133L191.344 233.98L193.738 233L193.992 241.138C194.003 241.504 194.114 241.775 194.324 241.952C194.534 242.129 194.855 242.21 195.285 242.197C195.447 242.192 195.597 242.171 195.736 242.134C195.875 242.098 196.014 242.056 196.152 242.008L196.21 243.849C196.072 243.929 195.875 243.994 195.618 244.045C195.371 244.096 195.092 244.126 194.78 244.136ZM189.925 237.709L189.868 235.868L195.955 235.679L196.013 237.519L189.925 237.709ZM201.292 243.917C200.388 243.945 199.586 243.792 198.886 243.459C198.196 243.114 197.647 242.624 197.24 241.991C196.843 241.346 196.631 240.598 196.604 239.748C196.578 238.897 196.743 238.148 197.1 237.502C197.468 236.854 197.985 236.343 198.652 235.966C199.33 235.59 200.121 235.387 201.026 235.359C201.941 235.331 202.743 235.483 203.432 235.818C204.132 236.151 204.68 236.63 205.077 237.253C205.473 237.877 205.685 238.614 205.711 239.464C205.738 240.314 205.567 241.074 205.2 241.743C204.844 242.4 204.327 242.923 203.649 243.31C202.982 243.687 202.196 243.889 201.292 243.917ZM201.233 242.012C201.609 242 201.946 241.893 202.241 241.689C202.547 241.486 202.786 241.204 202.958 240.843C203.13 240.471 203.208 240.032 203.192 239.526C203.169 238.784 202.952 238.219 202.541 237.833C202.141 237.436 201.655 237.247 201.085 237.264C200.514 237.282 200.036 237.502 199.651 237.923C199.276 238.344 199.1 238.921 199.123 239.653C199.138 240.159 199.244 240.592 199.438 240.952C199.632 241.302 199.883 241.569 200.19 241.753C200.508 241.937 200.856 242.023 201.233 242.012ZM207.124 243.574L206.868 235.339L209.242 235.265L209.302 237.203L209.35 237.201L209.546 243.498L207.124 243.574ZM209.413 239.203L209.142 237.256C209.314 236.55 209.615 236.008 210.045 235.628C210.475 235.248 211.018 235.048 211.675 235.028C211.879 235.021 212.031 235.038 212.129 235.078L212.199 237.339C212.145 237.319 212.069 237.31 211.972 237.313C211.875 237.306 211.756 237.304 211.616 237.308C210.841 237.332 210.275 237.49 209.918 237.781C209.56 238.062 209.392 238.536 209.413 239.203Z" fill="#030712"/>
<path opacity="0.15" d="M107.327 190.431C107.35 190.974 108.373 191.469 110.336 191.887C112.299 192.305 115.164 192.637 118.767 192.865C122.37 193.093 126.642 193.212 131.337 193.216C136.032 193.219 141.059 193.107 146.132 192.886C151.204 192.665 156.222 192.338 160.899 191.926C165.576 191.513 169.82 191.023 173.39 190.482C176.96 189.941 179.785 189.36 181.704 188.773C183.623 188.186 184.599 187.604 184.575 187.061C184.551 186.517 183.529 186.022 181.566 185.604C179.603 185.187 176.738 184.855 173.135 184.627C169.531 184.399 165.26 184.279 160.565 184.276C155.87 184.272 150.842 184.384 145.77 184.606C140.698 184.827 135.68 185.153 131.003 185.566C126.326 185.978 122.082 186.469 118.512 187.01C114.942 187.551 112.117 188.131 110.198 188.718C108.278 189.305 107.303 189.887 107.327 190.431V190.431Z" fill="#45413C"/>
<path d="M185.737 166.991C186.06 166.978 186.382 167.033 186.682 167.155C186.981 167.276 187.251 167.46 187.474 167.694C187.696 167.929 187.866 168.208 187.972 168.513C188.077 168.819 188.117 169.143 188.087 169.465C186.824 184.824 169.727 188.017 144.964 189.098C120.2 190.178 102.859 188.358 100.269 173.296C100.211 172.978 100.222 172.652 100.301 172.338C100.379 172.025 100.524 171.732 100.725 171.479C100.927 171.226 101.18 171.019 101.468 170.872C101.755 170.726 102.071 170.642 102.394 170.627L185.737 166.991Z" fill="#BF8256"/>
<path d="M101.673 177.718C102.005 177.52 102.38 177.407 102.766 177.387L186.032 173.754C186.419 173.737 186.803 173.817 187.15 173.989C187.654 172.518 187.968 170.989 188.085 169.439C188.115 169.118 188.076 168.793 187.971 168.488C187.865 168.182 187.695 167.903 187.473 167.669C187.25 167.434 186.98 167.25 186.68 167.129C186.381 167.008 186.059 166.952 185.736 166.965L102.393 170.602C102.07 170.616 101.754 170.7 101.466 170.847C101.179 170.994 100.926 171.201 100.724 171.454C100.523 171.706 100.378 171.999 100.299 172.313C100.221 172.626 100.21 172.953 100.268 173.271C100.545 174.807 101.017 176.302 101.673 177.718Z" fill="#DEA47A"/>
<path d="M185.737 166.991C186.06 166.978 186.382 167.033 186.682 167.155C186.981 167.276 187.251 167.46 187.474 167.694C187.696 167.929 187.866 168.208 187.972 168.513C188.077 168.819 188.117 169.143 188.087 169.465C186.824 184.824 169.727 188.017 144.964 189.098C120.2 190.178 102.859 188.358 100.269 173.296C100.211 172.978 100.222 172.652 100.301 172.338C100.379 172.025 100.524 171.732 100.725 171.479C100.927 171.226 101.18 171.019 101.468 170.872C101.755 170.726 102.071 170.642 102.394 170.627L185.737 166.991Z" stroke="#45413C" stroke-width="2.57397" stroke-linecap="round" stroke-linejoin="round"/>
<path d="M146.585 85.1975L143.756 85.321L146.898 157.324L186.885 155.579C187.322 155.558 187.744 155.412 188.099 155.157C188.455 154.901 188.729 154.549 188.888 154.141C189.048 153.734 189.086 153.289 188.997 152.86C188.909 152.431 188.699 152.037 188.391 151.726C170.533 133.273 157.021 111.064 148.842 86.7222C148.685 86.2554 148.38 85.8531 147.972 85.5775C147.564 85.3019 147.076 85.1683 146.585 85.1975V85.1975Z" fill="#FF6242"/>
<path d="M156.211 105.054C152.544 106.905 148.758 108.507 144.878 109.851L145.545 125.152C151.535 123.238 157.313 120.716 162.788 117.623C160.472 113.551 158.229 109.397 156.211 105.054Z" fill="#FFE500"/>
<path d="M169.358 128.261C162.125 132.709 154.304 136.12 146.123 138.395L146.784 153.541C157.817 150.824 168.219 145.996 177.415 139.323C174.551 135.686 171.816 132.044 169.358 128.261Z" fill="#FFE500"/>
<path d="M146.585 85.1975L143.756 85.321L146.898 157.324L186.885 155.579C187.322 155.558 187.744 155.412 188.099 155.157C188.455 154.901 188.729 154.549 188.888 154.141C189.048 153.734 189.086 153.289 188.997 152.86C188.909 152.431 188.699 152.037 188.391 151.726C170.533 133.273 157.021 111.064 148.842 86.7222C148.685 86.2554 148.38 85.8531 147.972 85.5775C147.564 85.3019 147.076 85.1683 146.585 85.1975V85.1975Z" stroke="#45413C" stroke-width="2.57397" stroke-linecap="round" stroke-linejoin="round"/>
<path d="M138.917 76.5146L142.652 162.121L94.3331 164.229C93.8839 164.261 93.4355 164.156 93.0476 163.927C92.6598 163.699 92.3509 163.357 92.1623 162.948C91.9737 162.539 91.9142 162.082 91.992 161.639C92.0697 161.195 92.2808 160.786 92.5973 160.466C111.487 140.499 126.593 111.757 138.917 76.5146Z" fill="#FF6242"/>
<path d="M140.015 101.69C135.328 104.11 130.729 106.166 126.373 107.902C122.702 115.877 118.836 123.337 114.777 130.281C123.74 127.518 132.448 123.983 140.801 119.716L140.015 101.69Z" fill="#FFE500"/>
<path d="M92.5958 160.44C92.2694 160.759 92.0496 161.171 91.9663 161.619C91.883 162.068 91.9403 162.531 92.1304 162.946C92.3206 163.36 92.6342 163.706 93.0284 163.936C93.4226 164.166 93.8781 164.268 94.3327 164.229L113.053 163.412C123.241 159.57 132.97 154.609 142.063 148.62L141.277 130.619C129.251 138.451 116.189 144.562 102.47 148.776C99.3778 152.828 96.0822 156.721 92.5958 160.44V160.44Z" fill="#FFE500"/>
<path d="M138.917 76.5146L142.652 162.121L94.3331 164.229C93.8839 164.261 93.4355 164.156 93.0476 163.927C92.6598 163.699 92.3509 163.357 92.1623 162.948C91.9737 162.539 91.9142 162.082 91.992 161.639C92.0697 161.195 92.2808 160.786 92.5973 160.466C111.487 140.499 126.593 111.757 138.917 76.5146Z" stroke="#45413C" stroke-width="2.57397" stroke-linecap="round" stroke-linejoin="round"/>
<path d="M138.914 76.5148L143.414 76.3184L147.443 168.662L142.943 168.858L138.914 76.5148Z" fill="#BF8256" stroke="#45413C" stroke-width="2.57397" stroke-linecap="round" stroke-linejoin="round"/>
<defs>
<filter id="filter0_d_1717_2538" x="0.543724" y="0.68911" width="284.763" height="306.068" filterUnits="userSpaceOnUse" color-interpolation-filters="sRGB">
<feFlood flood-opacity="0" result="BackgroundImageFix"/>
<feColorMatrix in="SourceAlpha" type="matrix" values="0 0 0 0 0 0 0 0 0 0 0 0 0 0 0 0 0 0 127 0" result="hardAlpha"/>
<feOffset/>
<feGaussianBlur stdDeviation="24.6544"/>
<feComposite in2="hardAlpha" operator="out"/>
<feColorMatrix type="matrix" values="0 0 0 0 0 0 0 0 0 0 0 0 0 0 0 0 0 0 0.15 0"/>
<feBlend mode="normal" in2="BackgroundImageFix" result="effect1_dropShadow_1717_2538"/>
<feBlend mode="normal" in="SourceGraphic" in2="effect1_dropShadow_1717_2538" result="shape"/>
</filter>
</defs>
</svg>
