<svg width="88" height="98" viewBox="0 0 88 98" fill="none" xmlns="http://www.w3.org/2000/svg">
<path d="M2 2H85.9399V85.9632H2V2Z" fill="white"/>
<path d="M82.9653 2H4.97462C4.1857 2 3.42909 2.3134 2.87124 2.87125C2.3134 3.42909 2 4.1857 2 4.97462V12.4344C2 11.6455 2.3134 10.8889 2.87124 10.331C3.42909 9.77317 4.1857 9.45978 4.97462 9.45978H82.9653C83.7542 9.45978 84.5108 9.77317 85.0687 10.331C85.6265 10.8889 85.9399 11.6455 85.9399 12.4344V4.97462C85.9399 4.1857 85.6265 3.42909 85.0687 2.87125C84.5108 2.3134 83.7542 2 82.9653 2Z" fill="#F0F0F0"/>
<path opacity="0.15" d="M12.8525 93.3765C12.8525 93.9106 13.658 94.4394 15.223 94.9328C16.7879 95.4262 19.0817 95.8746 21.9734 96.2522C24.865 96.6298 28.2979 96.9294 32.0761 97.1338C35.8542 97.3382 39.9036 97.4433 43.993 97.4433C48.0825 97.4433 52.1319 97.3382 55.91 97.1338C59.6881 96.9294 63.121 96.6298 66.0127 96.2522C68.9044 95.8746 71.1982 95.4262 72.7631 94.9328C74.3281 94.4394 75.1336 93.9106 75.1336 93.3765C75.1336 92.8424 74.3281 92.3136 72.7631 91.8202C71.1982 91.3268 68.9044 90.8784 66.0127 90.5008C63.121 90.1231 59.6881 89.8236 55.91 89.6192C52.1319 89.4148 48.0825 89.3096 43.993 89.3096C39.9036 89.3096 35.8542 89.4148 32.0761 89.6192C28.2979 89.8236 24.865 90.1231 21.9734 90.5008C19.0817 90.8784 16.7879 91.3268 15.223 91.8202C13.658 92.3136 12.8525 92.8424 12.8525 93.3765Z" fill="#45413C"/>
<path d="M2 18.895H85.9399V69.1148H2V18.895Z" stroke="#E0E0E0" stroke-width="2.32392" stroke-linecap="round" stroke-linejoin="round"/>
<path d="M2 34.9066H85.9399V53.1029H2V34.9066Z" stroke="#E0E0E0" stroke-width="2.32392" stroke-linecap="round" stroke-linejoin="round"/>
<path d="M52.6382 2L52.6382 85.9632H35.3018V2L52.6382 2Z" stroke="#E0E0E0" stroke-width="2.32392" stroke-linecap="round" stroke-linejoin="round"/>
<path d="M69.1145 2V85.9632H18.8017L18.8017 2L69.1145 2Z" stroke="#E0E0E0" stroke-width="2.32392" stroke-linecap="round" stroke-linejoin="round"/>
<path d="M39.0435 50.0819H48.8969C49.2875 50.0819 49.6743 50.1588 50.0352 50.3083C50.3961 50.4578 50.724 50.6769 51.0002 50.9531C51.2765 51.2293 51.4956 51.5573 51.6451 51.9182C51.7946 52.2791 51.8715 52.6659 51.8715 53.0565V85.9864H36.0688V53.0565C36.0688 52.2676 36.3822 51.511 36.9401 50.9531C37.4979 50.3953 38.2545 50.0819 39.0435 50.0819Z" fill="#FF6242"/>
<path d="M48.8969 50.0819H39.0435C38.2545 50.0819 37.4979 50.3953 36.9401 50.9531C36.3822 51.511 36.0688 52.2676 36.0688 53.0565V58.5874C36.0688 57.7985 36.3822 57.0419 36.9401 56.484C37.4979 55.9262 38.2545 55.6128 39.0435 55.6128H48.8969C49.2875 55.6128 49.6743 55.6897 50.0352 55.8392C50.3961 55.9887 50.724 56.2078 51.0002 56.484C51.2765 56.7603 51.4956 57.0882 51.6451 57.4491C51.7946 57.81 51.8715 58.1968 51.8715 58.5874V53.0565C51.8715 52.2676 51.5581 51.511 51.0002 50.9531C50.4424 50.3953 49.6858 50.0819 48.8969 50.0819Z" fill="#FF866E"/>
<path d="M39.0435 50.0819H48.8969C49.2875 50.0819 49.6743 50.1588 50.0352 50.3083C50.3961 50.4578 50.724 50.6769 51.0002 50.9531C51.2765 51.2293 51.4956 51.5573 51.6451 51.9182C51.7946 52.2791 51.8715 52.6659 51.8715 53.0565V85.9864H36.0688V53.0565C36.0688 52.2676 36.3822 51.511 36.9401 50.9531C37.4979 50.3953 38.2545 50.0819 39.0435 50.0819V50.0819Z" stroke="#45413C" stroke-width="2.32392" stroke-linecap="round" stroke-linejoin="round"/>
<path d="M13.9446 39.3454H23.798C24.5869 39.3454 25.3435 39.6588 25.9014 40.2166C26.4592 40.7745 26.7726 41.5311 26.7726 42.32V85.9864H10.97V42.2271C10.9941 41.4544 11.3182 40.7214 11.8734 40.1835C12.4287 39.6456 13.1715 39.345 13.9446 39.3454Z" fill="#6DD627"/>
<path d="M23.798 39.3454H13.9446C13.1715 39.345 12.4287 39.6456 11.8734 40.1835C11.3182 40.7214 10.9941 41.4544 10.97 42.2271V47.758C10.97 46.9691 11.2834 46.2125 11.8412 45.6546C12.3991 45.0968 13.1557 44.7834 13.9446 44.7834H23.798C24.5869 44.7834 25.3435 45.0968 25.9014 45.6546C26.4592 46.2125 26.7726 46.9691 26.7726 47.758V42.2271C26.7485 41.4544 26.4244 40.7214 25.8692 40.1835C25.3139 39.6456 24.5711 39.345 23.798 39.3454Z" fill="#9CEB60"/>
<path d="M13.9446 39.3454H23.798C24.5869 39.3454 25.3435 39.6588 25.9014 40.2166C26.4592 40.7745 26.7726 41.5311 26.7726 42.32V85.9864H10.97V42.2271C10.9941 41.4544 11.3182 40.7214 11.8734 40.1835C12.4287 39.6456 13.1715 39.345 13.9446 39.3454V39.3454Z" stroke="#45413C" stroke-width="2.32392" stroke-linecap="round" stroke-linejoin="round"/>
<path d="M64.2117 20.6379H74.0651C74.854 20.6379 75.6106 20.9513 76.1685 21.5091C76.7263 22.067 77.0397 22.8236 77.0397 23.6125V85.9865H61.2371V23.6125C61.2371 22.8236 61.5505 22.067 62.1083 21.5091C62.6662 20.9513 63.4228 20.6379 64.2117 20.6379Z" fill="#00B8F0"/>
<path d="M74.0418 20.754H64.2117C63.4228 20.754 62.6662 21.0674 62.1083 21.6253C61.5505 22.1831 61.2371 22.9397 61.2371 23.7286V29.1201C61.2371 28.7295 61.314 28.3427 61.4635 27.9818C61.613 27.6209 61.8321 27.293 62.1083 27.0168C62.3845 26.7405 62.7124 26.5214 63.0733 26.372C63.4342 26.2225 63.821 26.1455 64.2117 26.1455H74.0418C74.4325 26.1455 74.8193 26.2225 75.1802 26.372C75.5411 26.5214 75.869 26.7405 76.1452 27.0168C76.4214 27.293 76.6405 27.6209 76.79 27.9818C76.9395 28.3427 77.0165 28.7295 77.0165 29.1201V23.6124C76.9864 22.8438 76.6598 22.1168 76.1052 21.5838C75.5506 21.0508 74.811 20.7534 74.0418 20.754Z" fill="#4ACFFF"/>
<path d="M64.2117 20.6379H74.0651C74.854 20.6379 75.6106 20.9513 76.1685 21.5091C76.7263 22.067 77.0397 22.8236 77.0397 23.6125V85.9865H61.2371V23.6125C61.2371 22.8236 61.5505 22.067 62.1083 21.5091C62.6662 20.9513 63.4228 20.6379 64.2117 20.6379V20.6379Z" stroke="#45413C" stroke-width="2.32392" stroke-linecap="round" stroke-linejoin="round"/>
<path d="M2 2H85.9399V85.9632H2V2Z" stroke="#45413C" stroke-width="2.32392" stroke-linecap="round" stroke-linejoin="round"/>
</svg>
