<svg width="108" height="79" viewBox="0 0 108 79" fill="none" xmlns="http://www.w3.org/2000/svg">
<path opacity="0.15" d="M0 74.738C-1.05298e-07 75.2558 1.39184 75.7686 4.09604 76.247C6.80025 76.7254 10.7639 77.1601 15.7606 77.5263C20.7573 77.8924 26.6893 78.1829 33.2178 78.381C39.7463 78.5792 46.7436 78.6812 53.81 78.6812C60.8764 78.6812 67.8737 78.5792 74.4022 78.381C80.9307 78.1829 86.8627 77.8924 91.8594 77.5263C96.8561 77.1601 100.82 76.7254 103.524 76.247C106.228 75.7686 107.62 75.2558 107.62 74.738C107.62 74.2202 106.228 73.7074 103.524 73.229C100.82 72.7506 96.8561 72.3159 91.8594 71.9498C86.8627 71.5836 80.9307 71.2931 74.4022 71.095C67.8737 70.8968 60.8764 70.7948 53.81 70.7948C46.7436 70.7948 39.7463 70.8968 33.2178 71.095C26.6893 71.2931 20.7573 71.5836 15.7606 71.9498C10.7639 72.3159 6.80025 72.7506 4.09604 73.229C1.39184 73.7074 -1.05298e-07 74.2202 0 74.738Z" fill="#45413C"/>
<path d="M3.5105 58.8211H104.11V67.3566C104.11 68.7468 103.557 70.08 102.574 71.0629C101.592 72.0459 100.258 72.5982 98.8682 72.5982H8.75204C7.3619 72.5982 6.02869 72.0459 5.04571 71.0629C4.06273 70.08 3.5105 68.7468 3.5105 67.3566V58.8211Z" fill="#E4FFD1" stroke="#45413C" stroke-width="2.40438" stroke-linecap="round" stroke-linejoin="round"/>
<path d="M3.5105 51.9446H104.11V60.4801C104.11 61.8703 103.557 63.2035 102.574 64.1865C101.592 65.1694 100.258 65.7217 98.8682 65.7217H8.75204C7.3619 65.7217 6.02869 65.1694 5.04571 64.1865C4.06273 63.2035 3.5105 61.8703 3.5105 60.4801V51.9446Z" fill="#E4FFD1" stroke="#45413C" stroke-width="2.40438" stroke-linecap="round" stroke-linejoin="round"/>
<path d="M40.3696 58.8211H67.2506V73.7523C67.2506 74.103 67.1113 74.4393 66.8633 74.6873C66.6153 74.9353 66.2789 75.0747 65.9282 75.0747H41.7882C41.4375 75.0747 41.1011 74.9353 40.8531 74.6873C40.6051 74.4393 40.4658 74.103 40.4658 73.7523V58.8211H40.3696Z" fill="#DEBB7E" stroke="#45413C" stroke-width="2.40438" stroke-linecap="round" stroke-linejoin="round"/>
<path d="M3.5105 4.57831H104.11V58.8211H3.5105V4.57831Z" fill="#F0FFE5"/>
<path d="M98.8682 4.57831H8.75204C7.35969 4.58467 6.02654 5.14224 5.04424 6.12904C4.06195 7.11584 3.51048 8.45153 3.5105 9.8439V18.9325C3.51682 17.5443 4.07109 16.2147 5.0527 15.2331C6.03431 14.2515 7.36385 13.6972 8.75204 13.6909H98.8682C100.256 13.6972 101.586 14.2515 102.568 15.2331C103.549 16.2147 104.103 17.5443 104.11 18.9325V9.8439C104.11 8.45153 103.558 7.11584 102.576 6.12904C101.594 5.14224 100.261 4.58467 98.8682 4.57831Z" fill="white"/>
<path d="M3.5105 4.57831H104.11V58.8211H3.5105V4.57831Z" stroke="#45413C" stroke-width="2.40438" stroke-linecap="round" stroke-linejoin="round"/>
<path d="M41.7882 2.00566H65.832C66.0057 2.00566 66.1776 2.03986 66.3381 2.10632C66.4985 2.17278 66.6443 2.27019 66.7671 2.39298C66.8899 2.51578 66.9873 2.66156 67.0537 2.822C67.1202 2.98245 67.1544 3.15441 67.1544 3.32807V58.8211H40.3696V3.20785C40.4003 2.86109 40.5664 2.54038 40.8319 2.31532C41.0975 2.09026 41.4411 1.97899 41.7882 2.00566Z" fill="#F0D5A8"/>
<path d="M65.9521 2.00561H41.7881C41.6155 2.00558 41.4447 2.03994 41.2856 2.10669C41.1265 2.17344 40.9823 2.27123 40.8614 2.39435C40.7405 2.51747 40.6454 2.66346 40.5816 2.82377C40.5178 2.98408 40.4865 3.1555 40.4897 3.32802V11.4308C40.4897 11.0864 40.6265 10.7562 40.87 10.5127C41.1135 10.2692 41.4437 10.1324 41.7881 10.1324H66.0723C66.4167 10.1324 66.7469 10.2692 66.9904 10.5127C67.2339 10.7562 67.3707 11.0864 67.3707 11.4308V3.32802C67.3749 3.1449 67.3403 2.96297 67.2691 2.79417C67.198 2.62538 67.092 2.47355 66.958 2.34865C66.824 2.22376 66.6651 2.12862 66.4917 2.0695C66.3184 2.01037 66.1345 1.9886 65.9521 2.00561Z" fill="#F7E5C6"/>
<path d="M41.7882 2.00566H65.832C66.0057 2.00566 66.1776 2.03986 66.3381 2.10632C66.4985 2.17278 66.6443 2.27019 66.7671 2.39298C66.8899 2.51578 66.9873 2.66156 67.0537 2.822C67.1202 2.98245 67.1544 3.15441 67.1544 3.32807V58.8211H40.3696V3.20785C40.4003 2.86109 40.5664 2.54038 40.8319 2.31532C41.0975 2.09026 41.4411 1.97899 41.7882 2.00566Z" stroke="#45413C" stroke-width="2.40438" stroke-linecap="round" stroke-linejoin="round"/>
<path d="M67.2512 13.8832H91.4152C91.7594 13.8832 92.1002 13.951 92.4182 14.0827C92.7361 14.2144 93.025 14.4075 93.2684 14.6508C93.5118 14.8942 93.7048 15.1831 93.8365 15.5011C93.9682 15.8191 94.036 16.1598 94.036 16.504V46.8954C94.036 47.2395 93.9682 47.5803 93.8365 47.8983C93.7048 48.2163 93.5118 48.5052 93.2684 48.7485C93.025 48.9919 92.7361 49.1849 92.4182 49.3166C92.1002 49.4483 91.7594 49.5161 91.4152 49.5161H67.2512V13.8832Z" fill="#C8FFA1" stroke="#45413C" stroke-width="2.40438" stroke-linecap="round" stroke-linejoin="round"/>
<path d="M40.3696 49.5161H16.2056C15.5106 49.5161 14.8439 49.24 14.3525 48.7485C13.861 48.257 13.5849 47.5904 13.5849 46.8954L13.5849 16.504C13.5849 15.8089 13.861 15.1423 14.3525 14.6509C14.8439 14.1594 15.5106 13.8832 16.2056 13.8832H40.3696L40.3696 49.5161Z" fill="#C8FFA1" stroke="#45413C" stroke-width="2.40438" stroke-linecap="round" stroke-linejoin="round"/>
<path d="M26.04 37.6145V33.6232L24.3089 33.0702C23.684 32.8626 23.0866 32.58 22.5296 32.2287C22.0282 31.8912 21.6158 31.4375 21.3275 30.9062C21.014 30.2799 20.8572 29.5868 20.8706 28.8866C20.8578 27.9579 21.0989 27.0434 21.5679 26.2418C22.017 25.4642 22.6534 24.8112 23.4193 24.3423C24.2254 23.8796 25.1169 23.5852 26.04 23.4767V22.7794C26.0248 22.5713 26.0248 22.3624 26.04 22.1543C26.0553 22.019 26.1144 21.8923 26.2083 21.7937C26.3367 21.6891 26.5001 21.6375 26.6652 21.6494C26.9537 21.6494 27.146 21.6494 27.1941 21.9139C27.2867 22.1926 27.3275 22.486 27.3144 22.7794V23.5008C28.2896 23.5396 29.2502 23.7513 30.1515 24.1259C30.5274 24.2398 30.8587 24.4675 31.0998 24.7775C31.341 25.0875 31.4801 25.4647 31.498 25.8571C31.5097 26.3198 31.3563 26.7715 31.0652 27.1314C30.9203 27.2934 30.7423 27.4224 30.5431 27.5095C30.344 27.5966 30.1284 27.6399 29.9111 27.6363C29.4738 27.6078 29.0437 27.5105 28.6368 27.3478C28.2089 27.1844 27.7659 27.0636 27.3144 26.9871V30.1849C28.2526 30.4406 29.1692 30.7702 30.0553 31.1707C30.9017 31.532 31.6152 32.1468 32.0975 32.9306C32.5798 33.7143 32.8072 34.6283 32.7483 35.5467C32.766 36.2888 32.6268 37.0262 32.3395 37.7106C32.0687 38.3478 31.6674 38.9212 31.1614 39.3937C30.6505 39.8809 30.0559 40.2718 29.4062 40.5478C28.7355 40.8118 28.0316 40.9817 27.3144 41.0527V41.8221C27.3144 42.0626 27.3144 42.2549 27.3144 42.3992C27.2958 42.5455 27.228 42.6812 27.122 42.7839C27.0646 42.8392 26.9968 42.8826 26.9225 42.9115C26.8482 42.9404 26.7689 42.9542 26.6892 42.9522C26.4007 42.9522 26.2083 42.9522 26.1362 42.6637C26.0905 42.385 26.0905 42.1008 26.1362 41.8221V41.0768C25.3277 41.0533 24.523 40.9567 23.7318 40.7882C23.0076 40.6645 22.3186 40.3856 21.7122 39.9708C21.4525 39.8071 21.239 39.5798 21.0917 39.3106C20.9444 39.0413 20.8683 38.7389 20.8706 38.432C20.8538 37.9903 21.009 37.5594 21.3034 37.2298C21.4451 37.0638 21.6225 36.9321 21.8224 36.8447C22.0223 36.7572 22.2395 36.7162 22.4575 36.7248C23.0612 36.7791 23.653 36.925 24.2127 37.1576C24.8054 37.3693 25.4174 37.5223 26.04 37.6145ZM26.04 29.7281V26.9871C25.6921 27.0748 25.3756 27.258 25.1264 27.5161C24.8897 27.7704 24.7604 28.1064 24.7657 28.4538C24.7608 28.5897 24.7864 28.725 24.8405 28.8498C24.8945 28.9746 24.9758 29.0857 25.0783 29.1751C25.3692 29.3889 25.6944 29.5515 26.04 29.656V29.7281ZM27.3624 34.0079V37.5183C27.8084 37.4235 28.2078 37.1771 28.4925 36.821C28.7765 36.4759 28.9298 36.0417 28.9253 35.5948C28.9012 34.8975 28.3723 34.4647 27.3624 34.0079Z" fill="#45413C"/>
<path d="M86.3892 31.6997C86.3892 32.8363 86.0522 33.9473 85.4207 34.8923C84.7893 35.8373 83.8918 36.5738 82.8418 37.0088C81.7918 37.4437 80.6363 37.5575 79.5216 37.3358C78.4069 37.114 77.383 36.5667 76.5794 35.7631C75.7757 34.9594 75.2284 33.9355 75.0067 32.8208C74.7849 31.7061 74.8987 30.5507 75.3337 29.5006C75.7686 28.4506 76.5051 27.5531 77.4501 26.9217C78.3951 26.2903 79.5062 25.9532 80.6427 25.9532C82.1668 25.9532 83.6284 26.5587 84.7061 27.6364C85.7838 28.714 86.3892 30.1757 86.3892 31.6997Z" fill="#6DD627" stroke="#45413C" stroke-width="2.40438" stroke-linecap="round" stroke-linejoin="round"/>
</svg>
