<svg width="124" height="108" viewBox="0 0 124 108" fill="none" xmlns="http://www.w3.org/2000/svg">
<path opacity="0.15" d="M36.6118 103.253C36.6118 103.758 37.5071 104.258 39.2465 104.725C40.9859 105.191 43.5354 105.615 46.7493 105.972C49.9633 106.329 53.7789 106.613 57.9782 106.806C62.1775 106.999 66.6782 107.099 71.2235 107.099C75.7688 107.099 80.2696 106.999 84.4688 106.806C88.6681 106.613 92.4837 106.329 95.6977 105.972C98.9117 105.615 101.461 105.191 103.201 104.725C104.94 104.258 105.835 103.758 105.835 103.253C105.835 102.748 104.94 102.248 103.201 101.781C101.461 101.315 98.9117 100.891 95.6977 100.533C92.4837 100.176 88.6681 99.8931 84.4688 99.6998C80.2696 99.5065 75.7688 99.4071 71.2235 99.4071C66.6782 99.4071 62.1775 99.5065 57.9782 99.6998C53.7789 99.8931 49.9633 100.176 46.7493 100.533C43.5354 100.891 40.9859 101.315 39.2465 101.781C37.5071 102.248 36.6118 102.748 36.6118 103.253Z" fill="#45413C"/>
<path d="M122.501 37.0804C122.496 29.3182 119.919 21.7763 115.173 15.6347C110.426 9.49311 103.777 5.0983 96.2663 3.13788C88.7558 1.17745 80.8072 1.76202 73.6642 4.80011C66.5213 7.8382 60.5869 13.1584 56.7896 19.9284C53.2306 17.7083 49.2119 16.3299 45.0395 15.8981C40.8671 15.4663 36.6513 15.9926 32.7131 17.4369C28.7749 18.8811 25.2183 21.2052 22.3143 24.232C19.4104 27.2589 17.2356 30.9087 15.9557 34.9033C14.6758 38.8979 14.3246 43.132 14.9288 47.2829C15.533 51.4338 17.0767 55.392 19.4423 58.856C21.8078 62.32 24.9329 65.1983 28.5792 67.2717C32.2256 69.3451 36.2972 70.5588 40.4837 70.8204C42.4016 75.5594 45.6603 79.6361 49.8604 82.551C54.0604 85.4659 59.0196 87.0923 64.1301 87.2311C69.2407 87.3699 74.2808 86.015 78.6328 83.3324C82.9849 80.6497 86.46 76.7559 88.6324 72.128C97.7195 71.8156 106.33 67.9864 112.649 61.448C118.967 54.9095 122.499 46.1729 122.501 37.0804Z" fill="white"/>
<path d="M89.5548 61.3856C87.2808 66.2244 83.646 70.2957 79.0951 73.1017C74.5441 75.9077 69.274 77.3268 63.9294 77.1853C58.5847 77.0439 53.3971 75.3481 49.0009 72.3053C44.6047 69.2626 41.1904 65.0047 39.1755 60.0524C33.9331 59.7052 28.8848 57.9339 24.5747 54.9295C20.2646 51.9251 16.8561 47.8014 14.7166 43.0029C14.7166 43.1311 14.7166 43.2336 14.7166 43.3362C14.7151 50.3338 17.3779 57.0695 22.1639 62.1745C26.9498 67.2795 33.4999 70.3709 40.483 70.8204C42.401 75.5595 45.6597 79.6362 49.8597 82.551C54.0598 85.4659 59.0189 87.0924 64.1295 87.2312C69.2401 87.3699 74.2801 86.015 78.6322 83.3324C82.9843 80.6498 86.4594 76.756 88.6318 72.128C97.5311 71.8131 105.977 68.1249 112.257 61.8115C118.537 55.4982 122.181 47.0325 122.449 38.1316C119.829 44.792 115.32 50.5414 109.476 54.6729C103.632 58.8043 96.7074 61.1375 89.5548 61.3856Z" fill="#F0F0F0"/>
<path d="M122.501 37.0804C122.496 29.3182 119.919 21.7763 115.173 15.6347C110.426 9.49311 103.777 5.0983 96.2663 3.13788C88.7558 1.17745 80.8072 1.76202 73.6642 4.80011C66.5213 7.8382 60.5869 13.1584 56.7896 19.9284C53.2306 17.7083 49.2119 16.3299 45.0395 15.8981C40.8671 15.4663 36.6513 15.9926 32.7131 17.4369C28.7749 18.8811 25.2183 21.2052 22.3143 24.232C19.4104 27.2589 17.2356 30.9087 15.9557 34.9033C14.6758 38.8979 14.3246 43.132 14.9288 47.2829C15.533 51.4338 17.0767 55.392 19.4423 58.856C21.8078 62.32 24.9329 65.1983 28.5792 67.2717C32.2256 69.3451 36.2972 70.5588 40.4837 70.8204C42.4016 75.5594 45.6603 79.6361 49.8604 82.551C54.0604 85.4659 59.0195 87.0923 64.1301 87.2311C69.2407 87.3699 74.2808 86.015 78.6328 83.3324C82.9849 80.6497 86.46 76.7559 88.6324 72.128C97.7195 71.8156 106.33 67.9864 112.649 61.448C118.967 54.9095 122.499 46.1729 122.501 37.0804V37.0804Z" stroke="#45413C" stroke-width="2.56383" stroke-linecap="round" stroke-linejoin="round"/>
<path d="M2 97.1253C2 98.4581 2.52943 99.7362 3.47182 100.679C4.41421 101.621 5.69237 102.15 7.02511 102.15C8.35785 102.15 9.636 101.621 10.5784 100.679C11.5208 99.7362 12.0502 98.4581 12.0502 97.1253C12.0502 95.7926 11.5208 94.5144 10.5784 93.572C9.636 92.6296 8.35785 92.1002 7.02511 92.1002C5.69237 92.1002 4.41421 92.6296 3.47182 93.572C2.52943 94.5144 2 95.7926 2 97.1253Z" fill="white" stroke="#45413C" stroke-width="2.56383" stroke-linecap="round" stroke-linejoin="round"/>
<path d="M20.8958 88.075C20.8958 89.2265 21.1226 90.3667 21.5632 91.4305C22.0038 92.4943 22.6497 93.4609 23.4639 94.2752C24.2781 95.0894 25.2448 95.7352 26.3086 96.1759C27.3724 96.6165 28.5126 96.8433 29.6641 96.8433C30.8155 96.8433 31.9557 96.6165 33.0195 96.1759C34.0834 95.7352 35.05 95.0894 35.8642 94.2752C36.6784 93.4609 37.3243 92.4943 37.7649 91.4305C38.2055 90.3667 38.4323 89.2265 38.4323 88.075C38.4323 86.9236 38.2055 85.7834 37.7649 84.7195C37.3243 83.6557 36.6784 82.6891 35.8642 81.8749C35.05 81.0607 34.0834 80.4148 33.0195 79.9742C31.9557 79.5335 30.8155 79.3067 29.6641 79.3067C28.5126 79.3067 27.3724 79.5335 26.3086 79.9742C25.2448 80.4148 24.2781 81.0607 23.4639 81.8749C22.6497 82.6891 22.0038 83.6557 21.5632 84.7195C21.1226 85.7834 20.8958 86.9236 20.8958 88.075Z" fill="white"/>
<path d="M29.6636 93.0745C27.9978 93.0685 26.3541 92.6928 24.8511 91.9746C23.3481 91.2563 22.0232 90.2134 20.9722 88.9211C21.1405 91.1109 22.1292 93.1564 23.7406 94.6487C25.352 96.141 27.4673 96.97 29.6636 96.97C31.8598 96.97 33.9751 96.141 35.5865 94.6487C37.1979 93.1564 38.1866 91.1109 38.3549 88.9211C37.3039 90.2134 35.979 91.2563 34.476 91.9746C32.973 92.6928 31.3293 93.0685 29.6636 93.0745Z" fill="#F0F0F0"/>
<path d="M20.8958 88.075C20.8958 89.2265 21.1226 90.3667 21.5632 91.4305C22.0038 92.4943 22.6497 93.4609 23.4639 94.2752C24.2781 95.0894 25.2448 95.7352 26.3086 96.1759C27.3724 96.6165 28.5126 96.8433 29.6641 96.8433C30.8155 96.8433 31.9557 96.6165 33.0195 96.1759C34.0834 95.7352 35.05 95.0894 35.8642 94.2752C36.6784 93.4609 37.3243 92.4943 37.7649 91.4305C38.2055 90.3667 38.4323 89.2265 38.4323 88.075C38.4323 86.9236 38.2055 85.7834 37.7649 84.7195C37.3243 83.6557 36.6784 82.6891 35.8642 81.8749C35.05 81.0607 34.0834 80.4148 33.0195 79.9742C31.9557 79.5335 30.8155 79.3067 29.6641 79.3067C28.5126 79.3067 27.3724 79.5335 26.3086 79.9742C25.2448 80.4148 24.2781 81.0607 23.4639 81.8749C22.6497 82.6891 22.0038 83.6557 21.5632 84.7195C21.1226 85.7834 20.8958 86.9236 20.8958 88.075V88.075Z" stroke="#45413C" stroke-width="2.56383" stroke-linecap="round" stroke-linejoin="round"/>
</svg>
