<svg width="286" height="307" viewBox="0 0 286 307" fill="none" xmlns="http://www.w3.org/2000/svg">
<g filter="url(#filter0_d_57_1322)">
<mask id="path-1-outside-1_57_1322" maskUnits="userSpaceOnUse" x="49.597" y="49.9253" width="186.531" height="207.553" fill="black">
<rect fill="white" x="49.597" y="49.9253" width="186.531" height="207.553"/>
<path d="M60.0225 67.2232L217.608 60.3623L223.691 200.071L66.105 206.932L60.0225 67.2232Z"/>
</mask>
<path d="M60.0225 67.2232L217.608 60.3623L223.691 200.071L66.105 206.932L60.0225 67.2232Z" fill="#ECECEC"/>
<path d="M60.0225 67.2232L59.5901 57.2913L49.6582 57.7237L50.0906 67.6556L60.0225 67.2232ZM217.608 60.3623L227.54 59.9299L227.108 49.998L217.176 50.4304L217.608 60.3623ZM223.691 200.071L225.871 250.155L235.803 249.723L233.623 199.638L223.691 200.071ZM66.105 206.932L56.1731 207.364L58.3537 257.448L68.2855 257.016L66.105 206.932ZM60.4549 77.1551L218.041 70.2942L217.176 50.4304L59.5901 57.2913L60.4549 77.1551ZM207.676 60.7947L213.759 200.503L233.623 199.638L227.54 59.9299L207.676 60.7947ZM221.51 149.987L63.9245 156.848L68.2855 257.016L225.871 250.155L221.51 149.987ZM76.0369 206.499L69.9543 66.7908L50.0906 67.6556L56.1731 207.364L76.0369 206.499Z" fill="#FFF9F9" mask="url(#path-1-outside-1_57_1322)"/>
</g>
<path d="M41.8836 234.013C41.9443 233.421 41.8549 233.421 41.9156 234.013C42.1245 236.054 42.6724 238.285 43.9803 239.593C45.2883 240.9 47.5191 241.448 49.5597 241.657C50.1517 241.718 50.1517 241.629 49.5597 241.689C47.5191 241.898 45.2883 242.446 43.9803 243.754C42.7541 244.98 42.1959 250.135 41.9588 255.636C41.9311 256.277 41.8681 256.277 41.8404 255.636C41.6033 250.135 41.0451 244.98 39.8189 243.754C38.5109 242.446 36.2801 241.898 34.2395 241.689C33.6475 241.629 33.6475 241.718 34.2395 241.657C36.2801 241.448 38.5109 240.9 39.8189 239.593C41.1268 238.285 41.6747 236.054 41.8836 234.013Z" fill="#FFD400"/>
<path d="M37.245 201.87C37.3056 201.278 37.2163 201.278 37.2769 201.87C37.4859 203.91 38.0338 206.141 39.3417 207.449C40.6496 208.757 42.8804 209.305 44.921 209.514C45.513 209.574 45.513 209.485 44.921 209.546C42.8804 209.755 40.6496 210.303 39.3417 211.61C38.1154 212.837 37.5573 217.991 37.3201 223.492C37.2925 224.133 37.2294 224.133 37.2017 223.492C36.9646 217.991 36.4064 212.837 35.1802 211.61C33.8723 210.303 31.6414 209.755 29.6009 209.546C29.0089 209.485 29.0089 209.574 29.6009 209.514C31.6414 209.305 33.8723 208.757 35.1802 207.449C36.4881 206.141 37.036 203.91 37.245 201.87Z" fill="#FFD400"/>
<path d="M73.3641 229.705C73.4247 229.113 73.3354 229.113 73.396 229.705C73.605 231.746 74.1529 233.977 75.4608 235.285C76.7687 236.593 78.9996 237.14 81.0401 237.349C81.6321 237.41 81.6321 237.321 81.0401 237.381C78.9996 237.59 76.7687 238.138 75.4608 239.446C74.2346 240.672 73.6764 245.827 73.4393 251.328C73.4116 251.969 73.3485 251.969 73.3209 251.328C73.0837 245.827 72.5256 240.672 71.2993 239.446C69.9914 238.138 67.7606 237.59 65.72 237.381C65.128 237.321 65.128 237.41 65.72 237.349C67.7606 237.14 69.9914 236.593 71.2993 235.285C72.6072 233.977 73.1551 231.746 73.3641 229.705Z" fill="#FFD400"/>
<path d="M241.073 53.9869C241.013 54.5789 241.102 54.5789 241.041 53.9868C240.832 51.9463 240.285 49.7155 238.977 48.4075C237.669 47.0996 235.438 46.5517 233.397 46.3428C232.805 46.2821 232.805 46.3715 233.397 46.3108C235.438 46.1018 237.669 45.554 238.977 44.246C240.203 43.0198 240.761 37.8653 240.998 32.3641C241.026 31.7231 241.089 31.7231 241.117 32.3641C241.354 37.8653 241.912 43.0198 243.138 44.246C244.446 45.554 246.677 46.1018 248.717 46.3108C249.31 46.3715 249.31 46.2821 248.717 46.3428C246.677 46.5517 244.446 47.0996 243.138 48.4075C241.83 49.7155 241.282 51.9463 241.073 53.9869Z" fill="#FFD500"/>
<path d="M245.712 86.1304C245.651 86.7224 245.741 86.7224 245.68 86.1304C245.471 84.0898 244.923 81.859 243.615 80.5511C242.307 79.2432 240.077 78.6953 238.036 78.4863C237.444 78.4257 237.444 78.515 238.036 78.4544C240.077 78.2454 242.307 77.6975 243.615 76.3896C244.842 75.1633 245.4 70.0088 245.637 64.5077C245.665 63.8666 245.728 63.8666 245.755 64.5077C245.992 70.0088 246.551 75.1633 247.777 76.3896C249.085 77.6975 251.316 78.2454 253.356 78.4544C253.948 78.515 253.948 78.4257 253.356 78.4863C251.316 78.6953 249.085 79.2432 247.777 80.5511C246.469 81.859 245.921 84.0898 245.712 86.1304Z" fill="#FFD500"/>
<path d="M209.593 58.2947C209.532 58.8868 209.622 58.8868 209.561 58.2947C209.352 56.2542 208.804 54.0234 207.496 52.7154C206.188 51.4075 203.957 50.8596 201.917 50.6507C201.325 50.59 201.325 50.6793 201.917 50.6187C203.957 50.4097 206.188 49.8619 207.496 48.5539C208.722 47.3277 209.281 42.1732 209.518 36.672C209.545 36.031 209.609 36.031 209.636 36.672C209.873 42.1732 210.431 47.3277 211.658 48.5539C212.966 49.8619 215.196 50.4097 217.237 50.6187C217.829 50.6793 217.829 50.59 217.237 50.6507C215.196 50.8596 212.966 51.4075 211.658 52.7154C210.35 54.0234 209.802 56.2542 209.593 58.2947Z" fill="#FFD500"/>
<path d="M76.7963 227.616L76.4343 215.99L78.921 215.913L79.2829 227.538L76.7963 227.616ZM81.0576 227.483L80.8012 219.248L83.1748 219.174L83.2352 221.112L83.2836 221.11L83.4797 227.408L81.0576 227.483ZM86.7898 227.305L86.631 222.202C86.6169 221.75 86.4879 221.415 86.244 221.196C86.0109 220.977 85.6737 220.874 85.2324 220.888C84.8556 220.9 84.5192 220.997 84.2231 221.178C83.9379 221.359 83.7138 221.604 83.5509 221.91C83.3989 222.217 83.3292 222.574 83.3419 222.984L83.0702 221.004C83.3205 220.393 83.6985 219.902 84.2042 219.53C84.7202 219.148 85.3604 218.945 86.1247 218.921C87.0397 218.892 87.7475 219.129 88.248 219.631C88.7481 220.121 89.0116 220.797 89.0384 221.659L89.2119 227.229L86.7898 227.305ZM94.6211 227.239C93.5662 227.272 92.7725 227.043 92.24 226.553C91.718 226.052 91.4407 225.28 91.4082 224.236L91.1855 217.082L93.5794 216.103L93.8328 224.241C93.8442 224.607 93.955 224.878 94.1652 225.055C94.3755 225.231 94.6959 225.313 95.1265 225.3C95.2879 225.295 95.4381 225.274 95.5771 225.237C95.716 225.2 95.8548 225.158 95.9934 225.111L96.0507 226.952C95.9131 227.031 95.7158 227.097 95.4588 227.148C95.2125 227.199 94.9333 227.229 94.6211 227.239ZM89.7662 220.812L89.7088 218.971L95.7963 218.781L95.8536 220.622L89.7662 220.812ZM101.101 227.021C100.186 227.049 99.3837 226.896 98.6944 226.562C98.0049 226.217 97.4616 225.728 97.0648 225.094C96.6786 224.459 96.4725 223.722 96.4464 222.883C96.4199 222.032 96.5798 221.284 96.926 220.637C97.2827 219.98 97.7892 219.463 98.4455 219.087C99.1015 218.7 99.8709 218.493 100.754 218.465C101.604 218.439 102.347 218.588 102.982 218.913C103.617 219.238 104.116 219.702 104.48 220.305C104.843 220.908 105.038 221.624 105.064 222.453C105.069 222.625 105.069 222.787 105.063 222.938C105.056 223.078 105.044 223.213 105.027 223.343L97.8899 223.565L97.8402 221.966L103.023 221.805L102.613 222.109C102.592 221.441 102.415 220.957 102.082 220.654C101.76 220.341 101.325 220.193 100.776 220.21C100.14 220.23 99.652 220.461 99.3102 220.902C98.9791 221.344 98.827 221.995 98.8538 222.856C98.8799 223.696 99.0716 224.315 99.4288 224.713C99.7968 225.111 100.331 225.299 101.03 225.277C101.418 225.265 101.75 225.19 102.025 225.052C102.301 224.915 102.505 224.698 102.636 224.403L104.912 224.332C104.668 225.137 104.225 225.781 103.582 226.265C102.951 226.737 102.123 226.989 101.101 227.021ZM106.492 226.691L106.236 218.456L108.61 218.382L108.67 220.32L108.718 220.319L108.914 226.616L106.492 226.691ZM108.781 222.321L108.51 220.374C108.682 219.668 108.983 219.125 109.413 218.745C109.843 218.366 110.386 218.165 111.043 218.145C111.247 218.139 111.399 218.155 111.497 218.196L111.567 220.456C111.513 220.436 111.437 220.428 111.34 220.431C111.243 220.423 111.124 220.421 110.985 220.426C110.209 220.45 109.643 220.608 109.286 220.899C108.928 221.179 108.76 221.653 108.781 222.321ZM112.926 226.491L112.67 218.256L115.043 218.182L115.104 220.12L115.152 220.118L115.348 226.416L112.926 226.491ZM118.464 226.319L118.302 221.087C118.289 220.667 118.166 220.364 117.934 220.177C117.712 219.979 117.402 219.887 117.004 219.899C116.659 219.91 116.344 220 116.059 220.171C115.784 220.33 115.57 220.558 115.417 220.853C115.265 221.138 115.194 221.475 115.206 221.862L114.939 220.012C115.189 219.401 115.562 218.909 116.056 218.538C116.562 218.156 117.175 217.954 117.896 217.932C118.757 217.905 119.432 218.126 119.921 218.596C120.421 219.065 120.682 219.666 120.705 220.398L120.887 226.243L118.464 226.319ZM124.003 226.146L123.84 220.914C123.827 220.495 123.704 220.191 123.472 220.005C123.251 219.807 122.941 219.714 122.542 219.726C122.198 219.737 121.883 219.828 121.597 219.998C121.322 220.158 121.108 220.385 120.956 220.681C120.803 220.966 120.733 221.302 120.745 221.69L120.316 219.844C120.566 219.233 120.949 218.742 121.466 218.37C121.993 217.987 122.633 217.784 123.386 217.761C124.28 217.733 124.971 217.965 125.461 218.456C125.96 218.936 126.223 219.58 126.248 220.387L126.425 226.071L124.003 226.146ZM132.149 226.054C131.234 226.083 130.432 225.93 129.743 225.596C129.053 225.251 128.51 224.761 128.113 224.127C127.727 223.493 127.521 222.756 127.495 221.916C127.468 221.065 127.628 220.317 127.974 219.671C128.331 219.013 128.838 218.496 129.494 218.12C130.15 217.733 130.919 217.526 131.802 217.499C132.652 217.472 133.395 217.621 134.03 217.946C134.665 218.272 135.165 218.735 135.528 219.338C135.892 219.941 136.087 220.657 136.112 221.486C136.118 221.658 136.117 221.82 136.111 221.971C136.105 222.111 136.093 222.246 136.075 222.376L128.938 222.598L128.889 221L134.072 220.838L133.661 221.142C133.64 220.475 133.464 219.99 133.131 219.688C132.809 219.375 132.373 219.226 131.824 219.244C131.189 219.263 130.7 219.494 130.359 219.936C130.028 220.377 129.875 221.028 129.902 221.889C129.928 222.729 130.12 223.348 130.477 223.746C130.845 224.144 131.379 224.333 132.079 224.311C132.466 224.299 132.798 224.224 133.074 224.086C133.35 223.948 133.553 223.731 133.684 223.436L135.961 223.366C135.716 224.171 135.273 224.815 134.631 225.298C133.999 225.77 133.172 226.022 132.149 226.054ZM143.496 225.539L143.439 223.715L143.602 223.742C143.513 224.337 143.204 224.821 142.677 225.193C142.161 225.565 141.531 225.762 140.788 225.785C140.035 225.809 139.373 225.657 138.802 225.33C138.242 224.992 137.802 224.51 137.481 223.884C137.159 223.258 136.985 222.515 136.959 221.654C136.931 220.782 137.064 220.018 137.356 219.362C137.648 218.707 138.068 218.193 138.617 217.82C139.177 217.447 139.833 217.249 140.587 217.225C141.372 217.201 142.013 217.364 142.509 217.715C143.016 218.065 143.322 218.557 143.428 219.189L143.251 219.211L143.086 213.915L145.508 213.839L145.87 225.465L143.496 225.539ZM141.503 223.823C142.074 223.806 142.53 223.592 142.873 223.183C143.216 222.763 143.375 222.176 143.352 221.422C143.328 220.669 143.127 220.098 142.749 219.712C142.381 219.314 141.906 219.124 141.325 219.142C140.765 219.159 140.309 219.378 139.956 219.799C139.613 220.219 139.454 220.805 139.477 221.559C139.5 222.313 139.696 222.883 140.064 223.27C140.442 223.657 140.922 223.841 141.503 223.823ZM147.806 225.405L147.55 217.17L149.972 217.095L150.228 225.33L147.806 225.405ZM147.435 216.074L147.353 213.459L149.937 213.378L150.018 215.994L147.435 216.074ZM157.105 225.115C157.033 224.881 156.977 224.629 156.936 224.361C156.906 224.093 156.886 223.781 156.875 223.426L156.81 223.428L156.689 219.536C156.679 219.202 156.557 218.948 156.326 218.772C156.104 218.585 155.778 218.498 155.348 218.511C154.939 218.524 154.613 218.604 154.369 218.752C154.137 218.899 153.987 219.108 153.92 219.38L151.611 219.452C151.696 218.706 152.059 218.08 152.7 217.575C153.342 217.07 154.233 216.8 155.374 216.765C156.558 216.728 157.471 216.963 158.112 217.471C158.752 217.98 159.088 218.729 159.119 219.719L159.232 223.352C159.241 223.621 159.265 223.895 159.306 224.174C159.358 224.442 159.431 224.731 159.527 225.04L157.105 225.115ZM154.236 225.366C153.418 225.392 152.76 225.208 152.263 224.814C151.766 224.409 151.506 223.862 151.485 223.173C151.461 222.409 151.727 221.786 152.283 221.306C152.85 220.814 153.647 220.482 154.677 220.31L157.072 219.896L157.116 221.301L155.123 221.67C154.694 221.748 154.38 221.876 154.181 222.055C153.982 222.233 153.887 222.473 153.897 222.775C153.905 223.044 154.008 223.245 154.206 223.379C154.404 223.513 154.665 223.575 154.988 223.565C155.494 223.549 155.92 223.401 156.267 223.121C156.614 222.83 156.781 222.502 156.77 222.136L157.036 223.421C156.818 224.041 156.472 224.516 155.998 224.843C155.523 225.17 154.936 225.345 154.236 225.366ZM164.492 225.063C163.437 225.096 162.643 224.868 162.111 224.378C161.589 223.877 161.312 223.104 161.279 222.06L161.056 214.907L163.45 213.927L163.704 222.065C163.715 222.431 163.826 222.703 164.036 222.879C164.246 223.056 164.567 223.138 164.997 223.124C165.159 223.119 165.309 223.098 165.448 223.062C165.587 223.025 165.726 222.983 165.864 222.936L165.922 224.776C165.784 224.856 165.587 224.921 165.33 224.973C165.083 225.023 164.804 225.054 164.492 225.063ZM159.637 218.636L159.58 216.795L165.667 216.606L165.724 218.447L159.637 218.636ZM170.972 224.845C170.057 224.874 169.254 224.721 168.565 224.387C167.876 224.042 167.332 223.552 166.936 222.918C166.549 222.284 166.343 221.547 166.317 220.707C166.291 219.857 166.451 219.108 166.797 218.462C167.153 217.804 167.66 217.287 168.316 216.911C168.972 216.525 169.742 216.317 170.624 216.29C171.475 216.263 172.218 216.413 172.853 216.738C173.488 217.063 173.987 217.527 174.351 218.13C174.714 218.732 174.909 219.448 174.935 220.277C174.94 220.449 174.94 220.611 174.934 220.762C174.927 220.902 174.915 221.037 174.898 221.167L167.761 221.39L167.711 219.791L172.894 219.63L172.483 219.933C172.463 219.266 172.286 218.781 171.953 218.479C171.631 218.166 171.195 218.018 170.646 218.035C170.011 218.055 169.523 218.285 169.181 218.727C168.85 219.168 168.698 219.819 168.725 220.681C168.751 221.52 168.942 222.139 169.3 222.538C169.668 222.936 170.201 223.124 170.901 223.102C171.289 223.09 171.62 223.015 171.896 222.877C172.172 222.739 172.375 222.523 172.506 222.228L174.783 222.157C174.539 222.962 174.096 223.606 173.453 224.089C172.821 224.561 171.994 224.814 170.972 224.845Z" fill="#EDB635"/>
<path d="M179.329 220.916L179.274 219.14L187.121 218.896L187.177 220.672L179.329 220.916ZM195.519 223.919L195.216 214.199L191.421 214.317L191.362 212.412L201.438 212.098L201.497 214.003L197.703 214.121L198.005 223.842L195.519 223.919ZM203.154 223.682L202.792 212.056L205.214 211.98L205.576 223.606L203.154 223.682ZM208.886 223.503L208.728 218.401C208.713 217.949 208.584 217.613 208.341 217.395C208.107 217.176 207.77 217.073 207.329 217.087C206.952 217.098 206.616 217.195 206.32 217.377C206.034 217.558 205.81 217.802 205.647 218.109C205.495 218.415 205.426 218.773 205.438 219.182L205.167 217.202C205.417 216.591 205.795 216.1 206.301 215.729C206.817 215.346 207.457 215.143 208.221 215.119C209.136 215.091 209.844 215.327 210.345 215.829C210.845 216.32 211.108 216.996 211.135 217.857L211.308 223.428L208.886 223.503ZM217.032 223.411C216.117 223.44 215.315 223.287 214.625 222.953C213.936 222.608 213.393 222.118 212.996 221.484C212.61 220.85 212.404 220.113 212.377 219.273C212.351 218.423 212.511 217.674 212.857 217.028C213.214 216.37 213.72 215.853 214.377 215.477C215.033 215.09 215.802 214.883 216.685 214.856C217.535 214.829 218.278 214.979 218.913 215.304C219.548 215.629 220.047 216.093 220.411 216.695C220.774 217.298 220.969 218.014 220.995 218.843C221 219.015 221 219.177 220.994 219.328C220.987 219.468 220.975 219.603 220.958 219.733L213.821 219.955L213.771 218.357L218.954 218.195L218.544 218.499C218.523 217.832 218.346 217.347 218.013 217.045C217.691 216.732 217.256 216.584 216.707 216.601C216.071 216.62 215.583 216.851 215.241 217.293C214.91 217.734 214.758 218.385 214.785 219.247C214.811 220.086 215.003 220.705 215.36 221.104C215.728 221.502 216.262 221.69 216.961 221.668C217.349 221.656 217.681 221.581 217.956 221.443C218.232 221.305 218.436 221.089 218.567 220.794L220.843 220.723C220.599 221.528 220.156 222.172 219.513 222.655C218.882 223.127 218.054 223.379 217.032 223.411ZM91.8847 247.301C90.3776 247.348 89.1616 247.052 88.2366 246.413C87.3112 245.763 86.7541 244.827 86.5652 243.604L88.955 243.53C89.0497 244.152 89.3666 244.637 89.9054 244.987C90.444 245.326 91.1223 245.482 91.9404 245.457C92.6078 245.436 93.1155 245.302 93.4633 245.054C93.822 244.806 93.9951 244.483 93.9827 244.084C93.9709 243.707 93.8539 243.409 93.6316 243.19C93.4089 242.96 93.0317 242.783 92.4998 242.66L90.3175 242.13C89.199 241.852 88.3731 241.452 87.8396 240.93C87.3166 240.397 87.0423 239.721 87.0168 238.903C86.995 238.203 87.1539 237.595 87.4934 237.078C87.8433 236.55 88.3424 236.141 88.9906 235.851C89.6386 235.551 90.4039 235.387 91.2866 235.359C92.643 235.317 93.7349 235.607 94.5623 236.227C95.3895 236.837 95.8733 237.668 96.0138 238.72L93.624 238.794C93.4986 238.227 93.2218 237.815 92.7936 237.559C92.3761 237.303 91.8445 237.185 91.1986 237.205C90.6388 237.222 90.1955 237.344 89.8684 237.569C89.5414 237.795 89.3836 238.091 89.395 238.457C89.4038 238.737 89.5033 238.992 89.6937 239.223C89.8837 239.444 90.2719 239.626 90.8582 239.769L93.0405 240.299C94.1913 240.576 95.0228 240.981 95.5351 241.515C96.0578 242.037 96.3321 242.713 96.3579 243.542C96.3941 244.704 96.0182 245.61 95.2303 246.26C94.4424 246.909 93.3272 247.256 91.8847 247.301ZM97.7956 246.972L97.5392 238.737L99.9128 238.663L99.9731 240.601L100.022 240.599L100.218 246.896L97.7956 246.972ZM103.334 246.799L103.171 241.568C103.158 241.148 103.035 240.845 102.803 240.658C102.582 240.46 102.272 240.367 101.873 240.38C101.529 240.39 101.214 240.481 100.928 240.652C100.653 240.811 100.439 241.039 100.287 241.334C100.134 241.619 100.064 241.955 100.076 242.343L99.8081 240.493C100.058 239.881 100.431 239.39 100.926 239.019C101.431 238.637 102.045 238.435 102.766 238.412C103.627 238.386 104.302 238.607 104.791 239.077C105.29 239.546 105.551 240.147 105.574 240.879L105.756 246.724L103.334 246.799ZM108.872 246.627L108.71 241.395C108.697 240.975 108.574 240.672 108.342 240.485C108.12 240.288 107.81 240.195 107.412 240.207C107.067 240.218 106.752 240.309 106.467 240.479C106.192 240.639 105.978 240.866 105.825 241.162C105.673 241.447 105.602 241.783 105.614 242.17L105.185 240.325C105.435 239.714 105.819 239.222 106.335 238.851C106.862 238.468 107.502 238.265 108.256 238.241C109.149 238.214 109.841 238.445 110.33 238.937C110.83 239.417 111.092 240.06 111.118 240.868L111.295 246.551L108.872 246.627ZM118.117 246.339C118.045 246.104 117.988 245.853 117.948 245.585C117.918 245.316 117.897 245.004 117.886 244.649L117.822 244.651L117.701 240.76C117.69 240.426 117.569 240.171 117.337 239.995C117.116 239.808 116.79 239.721 116.359 239.735C115.95 239.747 115.624 239.828 115.381 239.975C115.149 240.123 114.999 240.332 114.932 240.603L112.623 240.675C112.707 239.929 113.07 239.304 113.712 238.799C114.353 238.294 115.245 238.024 116.386 237.988C117.57 237.951 118.482 238.187 119.123 238.695C119.764 239.203 120.1 239.952 120.131 240.943L120.244 244.576C120.252 244.845 120.277 245.119 120.318 245.398C120.369 245.666 120.443 245.954 120.539 246.264L118.117 246.339ZM115.248 246.59C114.429 246.616 113.772 246.431 113.275 246.037C112.777 245.633 112.518 245.086 112.496 244.397C112.472 243.632 112.739 243.01 113.295 242.529C113.861 242.038 114.659 241.706 115.688 241.534L118.083 241.12L118.127 242.524L116.135 242.893C115.706 242.971 115.392 243.1 115.193 243.278C114.994 243.457 114.899 243.697 114.908 243.998C114.917 244.268 115.02 244.469 115.218 244.603C115.416 244.737 115.677 244.799 116 244.789C116.506 244.773 116.932 244.625 117.279 244.345C117.625 244.054 117.793 243.725 117.781 243.359L118.048 244.644C117.83 245.265 117.484 245.739 117.009 246.066C116.534 246.394 115.947 246.568 115.248 246.59ZM122.158 246.213L121.902 237.978L124.275 237.904L124.336 239.842L124.384 239.84L124.58 246.138L122.158 246.213ZM124.446 241.843L124.176 239.895C124.348 239.19 124.649 238.647 125.079 238.267C125.509 237.887 126.052 237.687 126.709 237.667C126.913 237.661 127.064 237.677 127.163 237.717L127.233 239.978C127.179 239.958 127.103 239.95 127.006 239.953C126.909 239.945 126.79 239.943 126.65 239.948C125.875 239.972 125.309 240.13 124.952 240.421C124.594 240.701 124.426 241.175 124.446 241.843ZM132.71 246.063C131.655 246.095 130.861 245.867 130.329 245.377C129.807 244.876 129.529 244.103 129.497 243.059L129.274 235.906L131.668 234.926L131.921 243.065C131.933 243.431 132.044 243.702 132.254 243.879C132.464 244.055 132.785 244.137 133.215 244.123C133.377 244.118 133.527 244.098 133.666 244.061C133.805 244.024 133.943 243.982 134.082 243.935L134.139 245.776C134.002 245.855 133.804 245.921 133.547 245.972C133.301 246.023 133.022 246.053 132.71 246.063ZM127.855 239.635L127.798 237.795L133.885 237.605L133.942 239.446L127.855 239.635ZM138.506 245.704L138.144 234.078L141.358 233.978L146.845 244.087L146.059 244.305L145.734 233.842L148.156 233.767L148.518 245.393L145.304 245.493L139.818 235.384L140.603 235.166L140.928 245.629L138.506 245.704ZM155.473 245.176C155.401 244.941 155.344 244.69 155.304 244.422C155.274 244.153 155.253 243.841 155.242 243.486L155.178 243.488L155.056 239.597C155.046 239.263 154.925 239.008 154.693 238.832C154.472 238.645 154.146 238.558 153.715 238.572C153.306 238.584 152.98 238.665 152.737 238.812C152.504 238.96 152.355 239.169 152.288 239.44L149.979 239.512C150.063 238.766 150.426 238.141 151.068 237.636C151.709 237.131 152.601 236.861 153.742 236.825C154.926 236.788 155.838 237.024 156.479 237.532C157.12 238.04 157.456 238.789 157.487 239.78L157.6 243.413C157.608 243.682 157.633 243.956 157.674 244.235C157.725 244.502 157.799 244.791 157.895 245.101L155.473 245.176ZM152.603 245.427C151.785 245.452 151.128 245.268 150.631 244.874C150.133 244.469 149.874 243.923 149.852 243.234C149.828 242.469 150.094 241.847 150.651 241.366C151.217 240.874 152.015 240.543 153.044 240.37L155.439 239.956L155.483 241.361L153.49 241.73C153.062 241.808 152.748 241.937 152.549 242.115C152.35 242.294 152.255 242.534 152.264 242.835C152.272 243.104 152.376 243.306 152.574 243.44C152.772 243.574 153.033 243.636 153.355 243.626C153.861 243.61 154.288 243.462 154.635 243.182C154.981 242.891 155.149 242.562 155.137 242.196L155.404 243.481C155.186 244.102 154.84 244.576 154.365 244.903C153.89 245.231 153.303 245.405 152.603 245.427ZM161.222 244.997L157.72 236.863L160.32 236.782L163.094 244.389L161.738 244.431L164.018 236.667L166.553 236.588L163.564 244.924L161.222 244.997ZM167.603 244.798L167.347 236.563L169.769 236.488L170.025 244.723L167.603 244.798ZM167.232 235.468L167.151 232.852L169.734 232.772L169.816 235.387L167.232 235.468ZM175.779 248.019C174.638 248.054 173.7 247.841 172.963 247.379C172.238 246.917 171.797 246.273 171.642 245.448L173.935 245.377C174.028 245.579 174.216 245.729 174.499 245.828C174.793 245.927 175.161 245.969 175.602 245.955C176.334 245.933 176.862 245.776 177.187 245.486C177.512 245.196 177.666 244.754 177.647 244.162L177.591 242.37L177.722 242.398C177.633 243.004 177.335 243.493 176.83 243.865C176.324 244.225 175.689 244.417 174.924 244.441C174.192 244.464 173.547 244.317 172.987 244C172.438 243.673 172.004 243.207 171.683 242.602C171.363 241.998 171.189 241.282 171.164 240.453C171.137 239.613 171.271 238.876 171.563 238.242C171.856 237.608 172.277 237.11 172.826 236.748C173.386 236.386 174.043 236.193 174.796 236.17C175.571 236.146 176.207 236.309 176.702 236.66C177.209 237.01 177.515 237.502 177.621 238.134L177.509 238.154L177.449 236.249L179.823 236.175L180.068 244.055C180.105 245.239 179.741 246.182 178.977 246.885C178.212 247.598 177.146 247.976 175.779 248.019ZM175.706 242.558C176.277 242.54 176.734 242.332 177.077 241.933C177.42 241.524 177.58 240.953 177.557 240.221C177.534 239.489 177.334 238.935 176.956 238.559C176.588 238.172 176.113 237.987 175.532 238.006C174.972 238.023 174.516 238.236 174.162 238.646C173.819 239.056 173.659 239.626 173.682 240.358C173.705 241.09 173.9 241.644 174.267 242.021C174.645 242.397 175.125 242.576 175.706 242.558ZM187.199 244.188C187.127 243.953 187.071 243.702 187.03 243.434C187 243.165 186.98 242.853 186.969 242.498L186.904 242.5L186.783 238.609C186.773 238.275 186.651 238.02 186.42 237.844C186.198 237.657 185.872 237.57 185.442 237.584C185.033 237.597 184.707 237.677 184.463 237.824C184.231 237.972 184.081 238.181 184.014 238.453L181.705 238.524C181.79 237.778 182.153 237.153 182.794 236.648C183.436 236.143 184.327 235.873 185.468 235.837C186.652 235.801 187.565 236.036 188.206 236.544C188.846 237.052 189.182 237.801 189.213 238.792L189.326 242.425C189.335 242.694 189.359 242.968 189.4 243.247C189.452 243.515 189.525 243.803 189.621 244.113L187.199 244.188ZM184.33 244.439C183.512 244.465 182.854 244.28 182.357 243.886C181.86 243.482 181.6 242.935 181.579 242.246C181.555 241.482 181.821 240.859 182.377 240.378C182.944 239.887 183.741 239.555 184.771 239.383L187.166 238.969L187.21 240.373L185.217 240.743C184.788 240.821 184.474 240.949 184.275 241.127C184.076 241.306 183.981 241.546 183.991 241.847C183.999 242.117 184.102 242.318 184.3 242.452C184.498 242.586 184.759 242.648 185.082 242.638C185.588 242.622 186.014 242.474 186.361 242.194C186.708 241.903 186.875 241.574 186.864 241.208L187.13 242.493C186.912 243.114 186.566 243.588 186.092 243.916C185.617 244.243 185.03 244.417 184.33 244.439ZM194.586 244.136C193.531 244.169 192.737 243.94 192.205 243.45C191.683 242.949 191.406 242.177 191.373 241.133L191.15 233.98L193.544 233L193.798 241.138C193.809 241.504 193.92 241.775 194.13 241.952C194.34 242.129 194.661 242.21 195.091 242.197C195.253 242.192 195.403 242.171 195.542 242.134C195.681 242.098 195.82 242.056 195.958 242.008L196.015 243.849C195.878 243.929 195.681 243.994 195.424 244.045C195.177 244.096 194.898 244.126 194.586 244.136ZM189.731 237.709L189.674 235.868L195.761 235.679L195.818 237.519L189.731 237.709ZM201.098 243.917C200.194 243.945 199.392 243.792 198.692 243.459C198.002 243.114 197.453 242.624 197.046 241.991C196.649 241.346 196.437 240.598 196.41 239.748C196.384 238.897 196.549 238.148 196.906 237.502C197.274 236.854 197.791 236.343 198.458 235.966C199.136 235.59 199.927 235.387 200.831 235.359C201.746 235.331 202.549 235.483 203.238 235.818C203.938 236.151 204.486 236.63 204.883 237.253C205.279 237.877 205.491 238.614 205.517 239.464C205.544 240.314 205.373 241.074 205.006 241.743C204.65 242.4 204.132 242.923 203.455 243.31C202.788 243.687 202.002 243.889 201.098 243.917ZM201.039 242.012C201.415 242 201.751 241.893 202.047 241.689C202.353 241.486 202.592 241.204 202.764 240.843C202.936 240.471 203.013 240.032 202.998 239.526C202.975 238.784 202.758 238.219 202.347 237.833C201.947 237.436 201.461 237.247 200.891 237.264C200.32 237.282 199.842 237.502 199.457 237.923C199.082 238.344 198.906 238.921 198.929 239.653C198.944 240.159 199.049 240.592 199.244 240.952C199.438 241.302 199.689 241.569 199.996 241.753C200.314 241.937 200.662 242.023 201.039 242.012ZM206.93 243.574L206.674 235.339L209.048 235.265L209.108 237.203L209.156 237.201L209.352 243.498L206.93 243.574ZM209.219 239.203L208.948 237.256C209.12 236.55 209.421 236.008 209.851 235.628C210.281 235.248 210.824 235.048 211.481 235.028C211.685 235.021 211.837 235.038 211.935 235.078L212.005 237.339C211.951 237.319 211.875 237.31 211.778 237.313C211.681 237.306 211.562 237.304 211.422 237.308C210.647 237.332 210.081 237.49 209.724 237.781C209.366 238.062 209.198 238.536 209.219 239.203Z" fill="#030712"/>
<defs>
<filter id="filter0_d_57_1322" x="0.349388" y="0.689186" width="284.763" height="306.068" filterUnits="userSpaceOnUse" color-interpolation-filters="sRGB">
<feFlood flood-opacity="0" result="BackgroundImageFix"/>
<feColorMatrix in="SourceAlpha" type="matrix" values="0 0 0 0 0 0 0 0 0 0 0 0 0 0 0 0 0 0 127 0" result="hardAlpha"/>
<feOffset/>
<feGaussianBlur stdDeviation="24.6544"/>
<feComposite in2="hardAlpha" operator="out"/>
<feColorMatrix type="matrix" values="0 0 0 0 0 0 0 0 0 0 0 0 0 0 0 0 0 0 0.15 0"/>
<feBlend mode="normal" in2="BackgroundImageFix" result="effect1_dropShadow_57_1322"/>
<feBlend mode="normal" in="SourceGraphic" in2="effect1_dropShadow_57_1322" result="shape"/>
</filter>
</defs>
</svg>
