<svg width="71" height="112" viewBox="0 0 71 112" fill="none" xmlns="http://www.w3.org/2000/svg">
<path opacity="0.15" d="M4.30273 107.008C4.30273 108.081 7.57906 109.111 13.411 109.87C19.2429 110.63 27.1526 111.056 35.4002 111.056C43.6477 111.056 51.5575 110.63 57.3894 109.87C63.2213 109.111 66.4976 108.081 66.4976 107.008C66.4976 105.934 63.2213 104.904 57.3894 104.145C51.5575 103.386 43.6477 102.959 35.4002 102.959C27.1526 102.959 19.2429 103.386 13.411 104.145C7.57906 104.904 4.30273 105.934 4.30273 107.008Z" fill="#45413C"/>
<path d="M2.02441 2H68.7991V80.4394H2.02441V2Z" fill="#FF6242"/>
<path d="M60.703 2H10.097C7.94952 2 5.89002 2.85307 4.37155 4.37155C2.85307 5.89002 2 7.94952 2 10.097V16.3721C1.99999 14.2223 2.85225 12.1602 4.37 10.6377C5.88776 9.11524 7.9472 8.25654 10.097 8.24985H60.703C62.8528 8.25654 64.9122 9.11524 66.43 10.6377C67.9477 12.1602 68.8 14.2223 68.8 16.3721V10.097C68.8 7.94952 67.9469 5.89002 66.4285 4.37155C64.91 2.85307 62.8505 2 60.703 2Z" fill="#FF866E"/>
<path d="M2.02441 2H68.7991V80.4394H2.02441V2Z" stroke="#45413C" stroke-width="2.5303" stroke-linecap="round" stroke-linejoin="round"/>
<path d="M29.7319 80.4141H41.0424V104.553C41.0424 105.271 40.7571 105.96 40.2494 106.468C39.7417 106.975 39.053 107.261 38.335 107.261H32.4394C31.7213 107.261 31.0327 106.975 30.5249 106.468C30.0172 105.96 29.7319 105.271 29.7319 104.553V80.4141Z" fill="#DEBB7E"/>
<path d="M29.7319 80.4141H41.0424V87.2965H29.7319V80.4141Z" fill="#B89558"/>
<path d="M29.7319 80.4141H41.0424V104.553C41.0424 105.271 40.7571 105.96 40.2494 106.468C39.7417 106.975 39.053 107.261 38.335 107.261H32.4394C31.7213 107.261 31.0327 106.975 30.5249 106.468C30.0172 105.96 29.7319 105.271 29.7319 104.553V80.4141V80.4141Z" stroke="#45413C" stroke-width="2.5303" stroke-linecap="round" stroke-linejoin="round"/>
<path d="M11.1353 22.6472H59.6412V31.4273H11.1353V22.6472Z" fill="#656769"/>
<path d="M56.9589 22.6472H13.9438C13.2257 22.6472 12.5371 22.9324 12.0293 23.4402C11.5216 23.9479 11.2363 24.6366 11.2363 25.3546V28.644C11.2363 27.926 11.5216 27.2373 12.0293 26.7296C12.5371 26.2218 13.2257 25.9366 13.9438 25.9366H56.9589C57.677 25.9366 58.3656 26.2218 58.8733 26.7296C59.3811 27.2373 59.6663 27.926 59.6663 28.644V25.3546C59.6663 24.6366 59.3811 23.9479 58.8733 23.4402C58.3656 22.9324 57.677 22.6472 56.9589 22.6472Z" fill="#525252"/>
<path d="M11.1353 22.6472H59.6412V31.4273H11.1353V22.6472Z" stroke="#45413C" stroke-width="2.5303" stroke-linecap="round" stroke-linejoin="round"/>
<path d="M60.4506 11.3115H10.3506C9.64849 11.3781 8.99639 11.7041 8.52178 12.2258C8.04718 12.7475 7.78418 13.4275 7.78418 14.1328C7.78418 14.8381 8.04718 15.518 8.52178 16.0398C8.99639 16.5615 9.64849 16.8875 10.3506 16.9541H60.4506C61.1528 16.8875 61.8049 16.5615 62.2795 16.0398C62.7541 15.518 63.0171 14.8381 63.0171 14.1328C63.0171 13.4275 62.7541 12.7475 62.2795 12.2258C61.8049 11.7041 61.1528 11.3781 60.4506 11.3115Z" fill="#E04122"/>
<path d="M10.3509 14.1454H60.4509C60.9591 14.1266 61.463 14.2461 61.9086 14.4912C62.3542 14.7363 62.725 15.0978 62.9812 15.5371C63.1961 15.1067 63.2839 14.6239 63.2342 14.1454C63.2343 13.4025 62.9427 12.6893 62.4221 12.1592C61.9016 11.6292 61.1937 11.3248 60.4509 11.3115H10.3509C9.60808 11.3248 8.90019 11.6292 8.37962 12.1592C7.85905 12.6893 7.56743 13.4025 7.56755 14.1454C7.55636 14.6363 7.68823 15.1199 7.9471 15.5371C8.19275 15.1167 8.5435 14.7673 8.96492 14.5233C9.38634 14.2793 9.86395 14.1491 10.3509 14.1454Z" fill="#FF6242"/>
<path d="M60.4506 11.3115H10.3506C9.64849 11.3781 8.99639 11.7041 8.52178 12.2258C8.04718 12.7475 7.78418 13.4275 7.78418 14.1328C7.78418 14.8381 8.04718 15.518 8.52178 16.0398C8.99639 16.5615 9.64849 16.8875 10.3506 16.9541H60.4506C61.1528 16.8875 61.8049 16.5615 62.2795 16.0398C62.7541 15.518 63.0171 14.8381 63.0171 14.1328C63.0171 13.4275 62.7541 12.7475 62.2795 12.2258C61.8049 11.7041 61.1528 11.3781 60.4506 11.3115V11.3115Z" stroke="#45413C" stroke-width="2.5303" stroke-linecap="round" stroke-linejoin="round"/>
<path d="M59.5894 48.2032H34.8177C34.286 48.2154 33.7625 48.0708 33.3125 47.7873C32.8625 47.5038 32.506 47.094 32.2874 46.6092L21.5083 22.6472H50.1766L60.8292 46.2802C60.9217 46.4876 60.9611 46.7149 60.9438 46.9413C60.9264 47.1678 60.8528 47.3864 60.7298 47.5773C60.6067 47.7682 60.438 47.9254 60.2388 48.0347C60.0397 48.144 59.8165 48.2019 59.5894 48.2032Z" fill="white"/>
<path d="M52.784 28.4416L50.1778 22.6472H21.5601L24.1663 28.4416H52.784Z" fill="#F0F0F0"/>
<path d="M59.5894 48.2032H34.8177C34.286 48.2154 33.7625 48.0708 33.3125 47.7873C32.8625 47.5038 32.506 47.094 32.2874 46.6092L21.5083 22.6472H50.1766L60.8292 46.2802C60.9217 46.4876 60.9611 46.7149 60.9438 46.9413C60.9264 47.1678 60.8528 47.3864 60.7298 47.5773C60.6067 47.7682 60.4379 47.9254 60.2388 48.0347C60.0397 48.144 59.8165 48.2019 59.5894 48.2032V48.2032Z" stroke="#45413C" stroke-width="2.5303" stroke-linecap="round" stroke-linejoin="round"/>
<path d="M60.7789 47.4695L41.6245 31.9587L43.7753 22.6472" stroke="#45413C" stroke-width="2.5303" stroke-linecap="round" stroke-linejoin="round"/>
<path d="M44.5346 34.312L33.5024 47.8491" stroke="#45413C" stroke-width="2.5303" stroke-linecap="round" stroke-linejoin="round"/>
<path d="M42.2568 29.2513L28.998 22.6472" stroke="#45413C" stroke-width="2.5303" stroke-linecap="round" stroke-linejoin="round"/>
</svg>
